<svg width="608" height="609" viewBox="0 0 608 609" fill="none" xmlns="http://www.w3.org/2000/svg">
<path d="M302.843 583.204C451.463 583.204 571.944 520.639 571.944 443.461C571.944 366.284 451.463 303.719 302.843 303.719C154.223 303.719 33.7422 366.284 33.7422 443.461C33.7422 520.639 154.223 583.204 302.843 583.204Z" fill="#F5F5F5"/>
<path d="M494.291 496.444C525.237 496.444 550.324 482.91 550.324 466.214C550.324 449.519 525.237 435.984 494.291 435.984C463.345 435.984 438.258 449.519 438.258 466.214C438.258 482.91 463.345 496.444 494.291 496.444Z" fill="#EBEBEB"/>
<g opacity="0.8">
<path d="M89.4862 499.667C87.6484 499.717 85.8281 499.298 84.1966 498.451L66.139 488.017C65.4547 487.75 64.8669 487.283 64.4525 486.677C64.0381 486.07 63.8164 485.353 63.8164 484.619C63.8164 483.884 64.0381 483.167 64.4525 482.56C64.8669 481.954 65.4547 481.487 66.139 481.22L177.646 416.857C179.277 416.012 181.087 415.57 182.924 415.57C184.76 415.57 186.57 416.012 188.201 416.857L206.271 427.278C206.959 427.543 207.551 428.01 207.968 428.618C208.386 429.225 208.609 429.945 208.609 430.683C208.609 431.42 208.386 432.14 207.968 432.748C207.551 433.356 206.959 433.823 206.271 434.088L94.7637 498.39C93.1416 499.257 91.3253 499.696 89.4862 499.667ZM182.924 416.857C181.298 416.823 179.691 417.204 178.254 417.963L66.747 482.278C66.2727 482.479 65.86 482.802 65.5504 483.215C65.2408 483.627 65.0454 484.113 64.9838 484.625C65.0478 485.136 65.2441 485.621 65.5534 486.032C65.8627 486.444 66.2741 486.768 66.747 486.971L84.8046 497.393C86.2539 498.127 87.8556 498.509 89.4802 498.509C91.1047 498.509 92.7064 498.127 94.1557 497.393L205.663 433.091C206.178 432.951 206.633 432.645 206.957 432.221C207.281 431.797 207.457 431.278 207.457 430.744C207.457 430.21 207.281 429.691 206.957 429.267C206.633 428.842 206.178 428.537 205.663 428.397L187.593 417.963C186.156 417.203 184.549 416.822 182.924 416.857Z" fill="#337F88"/>
</g>
<path d="M220.279 505.139C218.438 505.166 216.622 504.722 215.001 503.85L149.933 466.288C149.864 466.249 149.803 466.196 149.754 466.133C149.705 466.07 149.669 465.998 149.649 465.92C149.628 465.843 149.624 465.763 149.635 465.684C149.646 465.605 149.673 465.529 149.714 465.461C149.796 465.323 149.927 465.222 150.081 465.179C150.235 465.136 150.4 465.154 150.541 465.23L215.609 502.804C217.059 503.535 218.661 503.916 220.285 503.916C221.909 503.916 223.51 503.535 224.96 502.804L434.477 381.836C434.951 381.635 435.362 381.312 435.67 380.9C435.977 380.487 436.17 380.001 436.228 379.49C436.167 378.98 435.972 378.495 435.665 378.083C435.358 377.671 434.948 377.347 434.477 377.143L379.563 345.442C379.441 345.353 379.356 345.222 379.325 345.075C379.294 344.928 379.319 344.774 379.395 344.644C379.47 344.514 379.591 344.417 379.735 344.371C379.878 344.325 380.033 344.334 380.171 344.396L435.085 376.097C435.769 376.364 436.357 376.831 436.772 377.437C437.186 378.044 437.408 378.761 437.408 379.496C437.408 380.23 437.186 380.947 436.772 381.554C436.357 382.16 435.769 382.627 435.085 382.894L225.568 503.85C223.944 504.724 222.123 505.167 220.279 505.139Z" fill="#337F88"/>
<path d="M365.043 341.745C366.489 342.483 368.089 342.867 369.712 342.867C371.336 342.867 372.936 342.483 374.382 341.745C376.96 340.261 376.96 337.842 374.382 336.358C372.934 335.627 371.334 335.246 369.712 335.246C368.09 335.246 366.491 335.627 365.043 336.358C362.465 337.817 362.465 340.249 365.043 341.745Z" fill="#455A64"/>
<path d="M369.665 347.144C366.363 347.208 363.099 346.429 360.18 344.882C357.53 343.35 356.07 341.234 356.07 339.058C356.07 336.881 357.53 334.753 360.18 333.233C365.409 330.205 373.921 330.217 379.15 333.233C381.789 334.753 383.248 336.881 383.248 339.058C383.248 341.234 381.789 343.35 379.15 344.882C376.232 346.429 372.968 347.208 369.665 347.144ZM360.788 343.824C363.539 345.221 366.58 345.95 369.665 345.95C372.75 345.95 375.791 345.221 378.542 343.824C380.792 342.523 382.032 340.833 382.032 339.058C382.032 337.282 380.816 335.58 378.542 334.279C375.79 332.887 372.749 332.163 369.665 332.163C366.581 332.163 363.541 332.887 360.788 334.279C358.527 335.58 357.286 337.282 357.286 339.058C357.286 340.833 358.502 342.523 360.788 343.824Z" fill="#455A64"/>
<path d="M145.566 468.452C147.012 469.19 148.612 469.575 150.236 469.575C151.859 469.575 153.459 469.19 154.905 468.452C157.483 466.969 157.483 464.549 154.905 463.066C153.459 462.328 151.859 461.943 150.236 461.943C148.612 461.943 147.012 462.328 145.566 463.066C142.988 464.549 142.988 466.969 145.566 468.452Z" fill="#455A64"/>
<path d="M369.667 339.665C369.505 339.665 369.351 339.601 369.237 339.487C369.123 339.373 369.059 339.218 369.059 339.057V137.006C369.059 136.845 369.123 136.691 369.237 136.577C369.351 136.462 369.505 136.398 369.667 136.398C369.827 136.402 369.98 136.467 370.093 136.58C370.206 136.693 370.271 136.846 370.275 137.006V339.033C370.276 339.114 370.262 339.195 370.232 339.271C370.202 339.347 370.158 339.416 370.102 339.475C370.045 339.534 369.978 339.581 369.903 339.613C369.828 339.646 369.748 339.663 369.667 339.665Z" fill="#337F88"/>
<path d="M430.851 76.7412L415.043 67.6334C412.927 66.2228 410.106 66.235 406.981 68.0347L405.85 68.6913C406.163 66.4757 406.322 64.241 406.325 62.0033C406.351 59.0289 406.004 56.063 405.291 53.1752L413.438 51.1931L397.8 42.1582C393.508 39.7262 387.902 39.9086 381.774 43.4472C375.645 46.9857 369.747 53.54 365.406 61.2372C365.357 57.299 364.743 53.3882 363.582 49.6244L370.696 46.9006L355.581 38.2062C350.048 34.5582 342.643 34.619 334.483 39.3249C317.374 49.2353 303.487 75.7441 303.487 98.5806C303.476 101.109 303.667 103.634 304.059 106.132L301.919 107.348C290.975 113.635 282.195 130.452 282.195 145.044C282.195 153.057 284.895 158.773 289.139 161.241L304.947 170.373L307.561 156.997L330.592 143.694L407.006 99.602C413.499 95.8689 418.752 85.8734 418.837 77.2033L428.03 82.1403L430.851 76.7412Z" fill="#337F88"/>
<path opacity="0.1" d="M430.851 76.7412L415.043 67.6334C412.927 66.2228 410.106 66.235 406.981 68.0347L405.85 68.6913C406.163 66.4757 406.322 64.241 406.325 62.0033C406.351 59.0289 406.004 56.063 405.291 53.1752L413.438 51.1931L397.8 42.1582C393.508 39.7262 387.902 39.9086 381.774 43.4472C375.645 46.9857 369.747 53.54 365.406 61.2372C365.357 57.299 364.743 53.3882 363.582 49.6244L370.696 46.9006L355.581 38.2062C350.048 34.5582 342.643 34.619 334.483 39.3249C317.374 49.2353 303.487 75.7441 303.487 98.5806C303.476 101.109 303.667 103.634 304.059 106.132L301.919 107.348C290.975 113.635 282.195 130.452 282.195 145.044C282.195 153.057 284.895 158.773 289.139 161.241L304.947 170.373L307.561 156.997L330.592 143.694L407.006 99.602C413.499 95.8689 418.752 85.8734 418.837 77.2033L428.03 82.1403L430.851 76.7412Z" fill="white"/>
<path d="M397.848 42.1599C393.555 39.7279 387.949 39.9103 381.821 43.4489C378.835 45.2251 376.113 47.4108 373.734 49.9423L393.908 61.6645L405.91 56.2169C405.752 55.1589 405.557 54.1375 405.314 53.1769L413.437 51.1948L397.848 42.1599Z" fill="#337F88"/>
<path d="M364.289 52.1424C364.082 51.2791 363.851 50.44 363.584 49.6375L369.664 47.3392L370.369 46.6948L355.643 38.1828C350.11 34.5348 342.705 34.5956 334.545 39.3015C326.775 43.7885 319.686 51.7047 314.238 61.1895L338.753 75.3316L364.289 52.1424Z" fill="#337F88"/>
<path d="M304.057 106.133L297.564 110.535C291.648 116.072 287.231 123.016 284.723 130.72L303.182 141.372L319.804 115.289L304.057 106.133Z" fill="#337F88"/>
<path opacity="0.4" d="M397.848 42.1599C393.555 39.7279 387.949 39.9103 381.821 43.4489C378.835 45.2251 376.113 47.4108 373.734 49.9423L393.908 61.6645L405.91 56.2169C405.752 55.1589 405.557 54.1375 405.314 53.1769L413.437 51.1948L397.848 42.1599Z" fill="white"/>
<path opacity="0.4" d="M364.289 52.1424C364.082 51.2791 363.851 50.44 363.584 49.6375L369.664 47.3392L370.369 46.6948L355.643 38.1828C350.11 34.5348 342.705 34.5956 334.545 39.3015C326.775 43.7885 319.686 51.7047 314.238 61.1895L338.753 75.3316L364.289 52.1424Z" fill="white"/>
<path opacity="0.4" d="M304.057 106.133L297.564 110.535C291.648 116.072 287.231 123.016 284.723 130.72L303.182 141.372L319.804 115.289L304.057 106.133Z" fill="white"/>
<path d="M422.788 77.1682L421.657 77.8248C421.97 75.6051 422.129 73.3663 422.131 71.1246C422.131 53.067 411.187 44.7618 397.593 52.5806C391.306 56.2286 385.579 62.6734 381.237 70.3586C380.629 48.6043 366.998 38.8034 350.266 48.4706C333.181 58.3445 319.27 84.8898 319.27 107.69C319.245 110.233 319.424 112.775 319.805 115.29L317.665 116.506C306.721 122.792 297.941 139.61 297.941 154.202C297.941 168.733 306.77 175.725 317.665 169.426L346.35 152.876L422.788 108.723C429.33 104.954 434.62 94.8245 434.62 86.1179C434.62 77.3992 429.33 73.3986 422.788 77.1682Z" fill="#337F88"/>
<path opacity="0.6" d="M422.788 77.1682L421.657 77.8248C421.97 75.6051 422.129 73.3663 422.131 71.1246C422.131 53.067 411.187 44.7618 397.593 52.5806C391.306 56.2286 385.579 62.6734 381.237 70.3586C380.629 48.6043 366.998 38.8034 350.266 48.4706C333.181 58.3445 319.27 84.8898 319.27 107.69C319.245 110.233 319.424 112.775 319.805 115.29L317.665 116.506C306.721 122.792 297.941 139.61 297.941 154.202C297.941 168.733 306.77 175.725 317.665 169.426L346.35 152.876L422.788 108.723C429.33 104.954 434.62 94.8245 434.62 86.1179C434.62 77.3992 429.33 73.3986 422.788 77.1682Z" fill="white"/>
<path d="M189.771 169.595C189.528 167.832 188.105 167.163 186.402 168.172L92.9528 222.126C91.9649 222.772 91.1429 223.641 90.5535 224.663C89.9641 225.686 89.6238 226.833 89.5602 228.011V434.233C89.5602 436.239 90.8491 437.139 92.5272 436.409C91.5133 436.838 90.4186 437.041 89.3186 437.005C88.2186 436.97 87.1394 436.696 86.1554 436.203L82.2642 433.953C81.2713 433.312 80.4449 432.444 79.8529 431.421C79.261 430.397 78.9205 429.248 78.8594 428.068V221.858C78.9215 220.677 79.2624 219.526 79.8541 218.501C80.4459 217.476 81.2717 216.606 82.2642 215.961L175.714 162.007C176.765 161.467 177.93 161.186 179.113 161.186C180.295 161.186 181.46 161.467 182.511 162.007L186.402 164.244C187.316 164.842 188.089 165.629 188.67 166.552C189.252 167.475 189.627 168.513 189.771 169.595Z" fill="#455A64"/>
<path d="M186.401 168.173L92.9512 222.127C91.9633 222.772 91.1413 223.642 90.5519 224.664C89.9625 225.687 89.6222 226.833 89.5586 228.012V434.233C89.5586 436.398 91.0786 437.286 92.9512 436.203L186.401 382.249C187.39 381.604 188.214 380.735 188.806 379.713C189.397 378.691 189.74 377.543 189.806 376.364V170.143C189.806 167.966 188.273 167.09 186.401 168.173ZM184.905 356.944C184.905 358.793 183.604 359.972 181.999 360.896L97.0248 409.962C95.4197 410.886 94.1064 410.132 94.1064 408.272V247.76C94.164 246.749 94.4581 245.766 94.965 244.889C95.4719 244.013 96.1774 243.267 97.0248 242.713L181.999 193.66C183.604 192.724 184.905 193.49 184.905 195.338V356.944Z" fill="#37474F"/>
<path d="M92.5272 436.41C91.5133 436.838 90.4186 437.041 89.3186 437.005C88.2186 436.97 87.1394 436.696 86.1554 436.203L82.2642 433.953C81.272 433.311 80.4461 432.443 79.8542 431.42C79.2624 430.397 78.9215 429.248 78.8594 428.068V221.859C78.8975 220.669 79.2409 219.509 79.8565 218.49L90.5573 224.668C89.9452 225.679 89.6019 226.83 89.5602 228.012V434.233C89.5602 436.239 90.8491 437.139 92.5272 436.41Z" fill="#263238"/>
<path d="M139.685 199.691C140.901 198.974 141.958 199.557 141.958 201.016C141.914 201.805 141.686 202.573 141.291 203.257C140.896 203.941 140.346 204.523 139.685 204.956C138.469 205.686 137.398 205.09 137.398 203.643C137.441 202.851 137.67 202.08 138.068 201.393C138.465 200.706 139.019 200.123 139.685 199.691Z" fill="black"/>
<path d="M138.091 404.441C137.493 404.45 136.904 404.294 136.389 403.991C135.747 403.553 135.235 402.95 134.906 402.247C134.576 401.543 134.442 400.764 134.516 399.991C134.625 398.025 135.194 396.113 136.179 394.408C137.163 392.703 138.535 391.254 140.183 390.177C140.816 389.729 141.559 389.457 142.332 389.391C143.106 389.325 143.884 389.466 144.585 389.8C145.228 390.237 145.742 390.839 146.071 391.543C146.401 392.247 146.534 393.027 146.457 393.801C146.35 395.767 145.782 397.68 144.797 399.385C143.813 401.09 142.44 402.539 140.791 403.614C139.979 404.123 139.048 404.408 138.091 404.441ZM142.882 390.579C142.139 390.611 141.418 390.837 140.791 391.235C139.319 392.195 138.095 393.488 137.216 395.009C136.337 396.53 135.829 398.236 135.732 399.991C135.591 400.554 135.637 401.148 135.863 401.683C136.089 402.218 136.483 402.665 136.986 402.956C137.489 403.248 138.072 403.367 138.649 403.297C139.226 403.227 139.764 402.971 140.183 402.568C141.655 401.607 142.88 400.312 143.759 398.789C144.638 397.266 145.146 395.557 145.241 393.801C145.314 393.247 145.241 392.683 145.027 392.167C144.814 391.65 144.468 391.199 144.025 390.858C143.679 390.656 143.282 390.559 142.882 390.579Z" fill="#E6E6E6"/>
<path d="M130.881 213.554L148.477 203.4C149.523 202.792 150.374 203.218 150.374 204.361C150.328 204.998 150.132 205.615 149.802 206.162C149.473 206.709 149.018 207.171 148.477 207.51L130.881 217.676C129.836 218.272 128.984 217.846 128.984 216.715C129.031 216.076 129.226 215.457 129.556 214.908C129.885 214.359 130.339 213.895 130.881 213.554Z" fill="black"/>
<path d="M184.908 356.944C184.908 358.793 183.607 359.972 182.002 360.896L97.0278 409.962C95.4227 410.886 94.1094 410.132 94.1094 408.272V247.76C94.167 246.749 94.461 245.766 94.9679 244.889C95.4748 244.013 96.1804 243.268 97.0278 242.713L182.002 193.66C183.607 192.724 184.908 193.49 184.908 195.338V356.944Z" fill="#337F88"/>
<path d="M173.074 293.7L168.454 291.511C175.239 269.38 168.356 262.084 156.391 261.111C161.097 264.005 163.492 276.007 159.601 287.353L154.98 285.164C154.081 284.738 152.548 286.38 152.548 287.778L152.184 309.131C152.184 310.116 152.877 310.457 153.728 309.873L172.175 297.105C173.439 296.193 173.974 294.138 173.074 293.7Z" fill="white"/>
<path opacity="0.8" d="M158.982 275.606C158.982 268.723 156.878 262.996 153.826 261.123C153.826 261.123 141.229 262.205 129.117 279.971C129.117 279.971 146.348 265.744 158.982 275.606Z" fill="white"/>
<path d="M107.702 309.849L112.323 312.05C105.537 334.181 112.432 341.477 124.385 342.45C119.679 339.556 117.284 327.566 121.175 316.209L125.796 318.41C126.696 318.835 128.228 317.194 128.228 315.795L128.593 294.43C128.593 293.457 127.9 293.117 127.048 293.7L108.602 306.468C107.337 307.417 106.802 309.436 107.702 309.849Z" fill="white"/>
<path opacity="0.8" d="M121.797 327.955C121.797 334.85 123.901 340.565 126.953 342.45C126.953 342.45 139.55 341.355 151.662 323.602C151.662 323.602 134.431 337.817 121.797 327.955Z" fill="white"/>
<path d="M259.751 275.984C259.692 274.911 259.381 273.867 258.842 272.937C258.303 272.007 257.552 271.218 256.65 270.634L254.145 269.187C253.188 268.701 252.13 268.447 251.057 268.447C249.983 268.447 248.925 268.701 247.968 269.187L228.05 280.666C227.151 281.253 226.402 282.043 225.864 282.972C225.325 283.901 225.012 284.944 224.949 286.016V309.011C225.009 310.085 225.321 311.13 225.86 312.062C226.398 312.993 227.149 313.785 228.05 314.373L230.555 315.82C230.764 315.941 230.984 316.043 231.212 316.124L231.479 316.209C231.625 316.209 231.771 316.319 231.929 316.355L232.294 316.428L232.683 316.489H233.121H233.437H234.191C234.382 316.481 234.573 316.46 234.762 316.428H234.908C235.114 316.397 235.317 316.352 235.516 316.294H235.601C235.998 316.183 236.382 316.028 236.744 315.832L256.65 304.341C257.553 303.755 258.304 302.963 258.843 302.031C259.382 301.099 259.693 300.053 259.751 298.979V275.984Z" fill="#337F88"/>
<path d="M259.752 275.971V298.905C259.695 299.98 259.384 301.027 258.845 301.959C258.306 302.891 257.554 303.682 256.651 304.268L236.745 315.759C236.506 315.895 236.253 316.005 235.991 316.087L235.784 316.148H235.578C234.459 316.282 233.656 315.467 233.656 313.971V291.038C233.713 289.966 234.022 288.922 234.559 287.992C235.096 287.062 235.845 286.272 236.745 285.687L256.651 274.184C258.207 273.296 259.484 273.868 259.703 275.4C259.703 275.242 259.703 275.084 259.618 274.914C259.701 275.26 259.746 275.615 259.752 275.971Z" fill="#337F88"/>
<path d="M237.363 290.175V310.592C237.363 310.92 237.582 311.042 237.85 310.884L255.542 300.682C255.685 300.585 255.805 300.457 255.891 300.307C255.977 300.158 256.029 299.991 256.041 299.818V279.45C256.041 279.134 255.81 279.013 255.542 279.171L237.85 289.373C237.715 289.463 237.601 289.581 237.517 289.72C237.433 289.859 237.381 290.014 237.363 290.175ZM254.387 300.013L239.005 308.89C238.725 309.048 238.506 308.89 238.506 308.61V290.844C238.515 290.671 238.565 290.503 238.652 290.352C238.738 290.202 238.859 290.075 239.005 289.981L254.387 281.104C254.667 280.946 254.886 281.104 254.886 281.384V299.15C254.877 299.323 254.827 299.491 254.741 299.641C254.654 299.791 254.533 299.919 254.387 300.013Z" fill="white"/>
<path opacity="0.4" d="M259.701 275.461C259.482 273.88 258.193 273.309 256.661 274.245L236.743 285.736C235.829 286.308 235.076 287.103 234.554 288.047L225.859 283.024C226.381 282.081 227.135 281.286 228.048 280.714L247.954 269.223C248.909 268.731 249.968 268.475 251.043 268.475C252.117 268.475 253.176 268.731 254.131 269.223L256.661 270.67C257.477 271.209 258.169 271.914 258.693 272.74C259.217 273.566 259.561 274.493 259.701 275.461Z" fill="white"/>
<path opacity="0.1" d="M236.187 316.087L235.992 316.16L235.542 316.294C235.147 316.418 234.739 316.5 234.326 316.537C234.124 316.55 233.921 316.55 233.718 316.537C232.638 316.559 231.571 316.303 230.617 315.795L228.113 314.348C227.212 313.76 226.462 312.968 225.923 312.036C225.385 311.105 225.073 310.06 225.012 308.986V286.003C225.027 285.346 225.155 284.696 225.389 284.082C225.483 283.825 225.593 283.573 225.717 283.328L225.924 282.951L234.618 287.973C234.062 288.897 233.753 289.948 233.718 291.025V314.008C233.718 315.504 234.509 316.318 235.64 316.197H235.834L236.187 316.087Z" fill="black"/>
<path d="M243.516 293.836V300.913C243.516 301.436 243.795 301.545 244.136 301.144L250.666 293.605C251.018 293.203 250.872 292.875 250.337 292.875H244.476C244.221 292.875 243.977 292.976 243.797 293.156C243.617 293.337 243.516 293.581 243.516 293.836Z" fill="white"/>
<path d="M259.751 130.355C259.692 129.282 259.38 128.238 258.841 127.308C258.303 126.379 257.552 125.589 256.65 125.005L254.145 123.558C253.188 123.072 252.13 122.818 251.056 122.818C249.983 122.818 248.925 123.072 247.968 123.558L228.062 135.049C227.163 135.636 226.414 136.426 225.875 137.355C225.337 138.285 225.024 139.327 224.961 140.399V163.394C225.02 164.467 225.331 165.511 225.87 166.441C226.409 167.37 227.16 168.16 228.062 168.744L230.567 170.203C230.776 170.324 230.996 170.426 231.223 170.507L231.491 170.593L231.941 170.738L232.306 170.799C232.434 170.831 232.564 170.855 232.695 170.872H233.132H233.449H234.203L234.774 170.811H234.92L235.528 170.678H235.613C236.01 170.566 236.393 170.411 236.756 170.216L256.662 158.712C257.564 158.128 258.315 157.338 258.854 156.409C259.392 155.479 259.704 154.435 259.763 153.362L259.751 130.355Z" fill="#337F88"/>
<path opacity="0.4" d="M259.701 129.882C259.482 128.301 258.193 127.729 256.661 128.666L236.743 140.157C235.829 140.729 235.076 141.524 234.554 142.467L225.859 137.445C226.381 136.502 227.135 135.707 228.048 135.135L247.954 123.644C248.911 123.158 249.969 122.904 251.043 122.904C252.116 122.904 253.174 123.158 254.131 123.644L256.661 125.091C257.477 125.63 258.169 126.335 258.693 127.161C259.217 127.987 259.561 128.914 259.701 129.882Z" fill="white"/>
<path d="M259.752 130.342V153.324C259.695 154.4 259.384 155.446 258.845 156.378C258.306 157.31 257.554 158.101 256.651 158.687L236.745 170.178C236.506 170.314 236.253 170.425 235.991 170.507H235.784H235.578C234.459 170.64 233.656 169.826 233.656 168.33V145.408C233.69 144.335 234 143.288 234.556 142.368C235.078 141.422 235.831 140.623 236.745 140.046L256.651 128.555C258.207 127.655 259.484 128.238 259.703 129.771C259.703 129.612 259.703 129.454 259.618 129.284C259.701 129.631 259.746 129.986 259.752 130.342Z" fill="#337F88"/>
<path d="M255.969 137.176C255.88 137.125 255.78 137.098 255.677 137.098C255.575 137.098 255.474 137.125 255.385 137.176L238.009 147.244C237.781 147.395 237.59 147.594 237.449 147.828L247.554 150.382L255.969 137.176Z" fill="white"/>
<path d="M247.836 152.401L237.439 147.938C237.274 148.196 237.182 148.495 237.172 148.801V160.584C237.172 161.132 237.549 161.35 238.011 161.071L255.363 151.002C255.609 150.84 255.813 150.623 255.959 150.367C256.104 150.111 256.188 149.825 256.202 149.531V137.748C256.212 137.647 256.195 137.544 256.155 137.451C256.115 137.357 256.051 137.276 255.971 137.213L247.836 152.401Z" fill="white"/>
<path opacity="0.1" d="M236.185 170.459L235.991 170.532L235.541 170.666C235.145 170.79 234.737 170.871 234.325 170.909C234.122 170.921 233.919 170.921 233.717 170.909C232.637 170.93 231.569 170.675 230.616 170.167L228.05 168.793C227.151 168.203 226.402 167.411 225.863 166.48C225.325 165.548 225.012 164.504 224.949 163.43V140.399C224.966 139.746 225.094 139.101 225.326 138.49C225.421 138.233 225.53 137.981 225.655 137.736L225.861 137.359L234.556 142.381C234.001 143.301 233.692 144.348 233.656 145.421V168.416C233.656 169.912 234.446 170.726 235.577 170.605H235.772L236.185 170.459Z" fill="black"/>
<path d="M259.751 178.898C259.692 177.825 259.38 176.781 258.841 175.851C258.303 174.922 257.552 174.132 256.65 173.548L254.145 172.101C253.188 171.615 252.13 171.361 251.056 171.361C249.983 171.361 248.925 171.615 247.968 172.101L228.062 183.592C227.163 184.179 226.414 184.969 225.875 185.898C225.337 186.828 225.024 187.87 224.961 188.942V211.937C225.02 213.01 225.331 214.054 225.87 214.984C226.409 215.913 227.16 216.703 228.062 217.287L230.567 218.746C230.776 218.867 230.996 218.969 231.223 219.05L231.491 219.135L231.941 219.281H232.306C232.434 219.313 232.564 219.337 232.695 219.354C232.841 219.354 232.987 219.354 233.132 219.354H233.449H234.203H234.774H234.92L235.528 219.221H235.613C236.01 219.109 236.393 218.954 236.756 218.759L256.662 207.255C257.564 206.671 258.315 205.881 258.854 204.952C259.392 204.022 259.704 202.978 259.763 201.905L259.751 178.898Z" fill="#337F88"/>
<path opacity="0.4" d="M259.701 178.375C259.482 176.794 258.193 176.223 256.661 177.159L236.743 188.65C235.827 189.219 235.073 190.015 234.554 190.961L225.859 185.939C226.378 184.993 227.132 184.197 228.048 183.628L247.954 172.137C248.909 171.645 249.968 171.389 251.043 171.389C252.117 171.389 253.176 171.645 254.131 172.137L256.661 173.584C257.477 174.123 258.169 174.828 258.693 175.654C259.217 176.48 259.561 177.407 259.701 178.375Z" fill="white"/>
<path d="M240.94 191.752V206.016C240.512 206.144 240.103 206.328 239.724 206.563C238.962 207.057 238.328 207.725 237.873 208.511C237.419 209.297 237.157 210.18 237.109 211.087C237.109 212.752 238.325 213.421 239.724 212.594C240.566 212.054 241.285 211.341 241.832 210.502C242.379 209.664 242.742 208.719 242.898 207.73V194.658L251.276 189.879V200.118C250.848 200.247 250.439 200.431 250.06 200.665C249.369 201.123 248.809 201.753 248.436 202.493C248.063 203.233 247.889 204.057 247.932 204.885C247.932 206.551 249.148 207.232 250.534 206.393C251.294 205.9 251.927 205.234 252.382 204.45C252.836 203.666 253.099 202.786 253.148 201.881V184.857L240.94 191.752Z" fill="white"/>
<path opacity="0.1" d="M236.183 219.002L235.988 219.075L235.538 219.209C235.143 219.333 234.735 219.414 234.322 219.452C234.12 219.464 233.917 219.464 233.714 219.452C232.634 219.473 231.567 219.218 230.614 218.71L228.109 217.263C227.209 216.673 226.46 215.881 225.922 214.95C225.384 214.018 225.071 212.974 225.008 211.9V188.942C225.025 188.289 225.152 187.644 225.385 187.033C225.479 186.776 225.589 186.524 225.713 186.279L225.92 185.902L234.614 190.924C234.06 191.844 233.75 192.891 233.714 193.964V216.959C233.714 218.455 234.505 219.269 235.636 219.148H235.83L236.183 219.002Z" fill="black"/>
<path d="M259.751 227.441C259.692 226.368 259.38 225.324 258.841 224.394C258.303 223.464 257.552 222.675 256.65 222.091L254.145 220.644C253.188 220.158 252.13 219.904 251.056 219.904C249.983 219.904 248.925 220.158 247.968 220.644L228.062 232.135C227.163 232.722 226.414 233.512 225.875 234.441C225.337 235.371 225.024 236.413 224.961 237.485V260.48C225.02 261.553 225.331 262.597 225.87 263.526C226.409 264.456 227.16 265.246 228.062 265.83L230.567 267.289C230.776 267.41 230.996 267.512 231.223 267.593L231.491 267.678L231.941 267.824L232.306 267.885C232.434 267.917 232.564 267.941 232.695 267.958H233.132H233.449H234.203L234.774 267.897H234.92L235.528 267.764H235.613C236.01 267.652 236.393 267.497 236.756 267.301L256.662 255.798C257.564 255.214 258.315 254.424 258.854 253.494C259.392 252.565 259.704 251.521 259.763 250.448L259.751 227.441Z" fill="#337F88"/>
<path opacity="0.4" d="M259.701 226.919C259.482 225.338 258.193 224.767 256.661 225.703L236.743 237.194C235.829 237.766 235.076 238.561 234.554 239.504L225.859 234.458C226.381 233.515 227.135 232.72 228.048 232.148L247.954 220.656C248.909 220.165 249.968 219.908 251.043 219.908C252.117 219.908 253.176 220.165 254.131 220.656L256.661 222.103C257.479 222.645 258.174 223.354 258.698 224.185C259.222 225.015 259.564 225.947 259.701 226.919Z" fill="white"/>
<path d="M259.752 227.429V250.423C259.694 251.498 259.383 252.544 258.844 253.476C258.305 254.408 257.553 255.199 256.651 255.786L236.745 267.289C236.506 267.421 236.253 267.527 235.991 267.605L235.784 267.666H235.578C234.459 267.788 233.656 266.973 233.656 265.477V242.495C233.691 241.417 234 240.367 234.556 239.443C235.082 238.502 235.834 237.708 236.745 237.132L256.651 225.641C258.207 224.741 259.484 225.313 259.703 226.857C259.703 226.699 259.703 226.529 259.618 226.371C259.701 226.717 259.746 227.072 259.752 227.429Z" fill="#337F88"/>
<path d="M237.363 241.073V262.633L256.041 251.847V230.287L237.363 241.073ZM254.886 251.19L238.506 260.638V241.754L254.886 232.294V251.19Z" fill="white"/>
<path d="M238.508 260.637V255.165L244.296 245.996L250.315 250.082L248.503 248.076L250.814 245.023L254.887 247.395V251.189L238.508 260.637Z" fill="white"/>
<path d="M250.97 238.105C251.7 237.679 252.295 238.02 252.295 238.871C252.269 239.331 252.135 239.778 251.905 240.177C251.675 240.576 251.355 240.916 250.97 241.169C250.24 241.583 249.645 241.242 249.645 240.403C249.669 239.943 249.802 239.495 250.032 239.096C250.263 238.696 250.584 238.357 250.97 238.105Z" fill="white"/>
<path opacity="0.1" d="M236.185 267.545L235.99 267.618L235.54 267.752C235.145 267.876 234.737 267.957 234.324 267.995C234.122 268.007 233.919 268.007 233.716 267.995C232.636 268.016 231.569 267.761 230.615 267.253L228.11 265.806C227.207 265.225 226.451 264.441 225.905 263.516C225.358 262.591 225.035 261.552 224.961 260.48V237.485C224.978 236.832 225.105 236.187 225.338 235.576C225.433 235.319 225.542 235.067 225.666 234.822L225.873 234.445L234.567 239.467C234.013 240.387 233.703 241.434 233.668 242.507V265.502C233.668 266.998 234.458 267.812 235.589 267.691H235.783L236.185 267.545Z" fill="black"/>
<path d="M259.751 324.525C259.692 323.452 259.381 322.408 258.842 321.479C258.303 320.549 257.552 319.76 256.65 319.175L254.133 317.716C253.176 317.23 252.118 316.977 251.045 316.977C249.971 316.977 248.913 317.23 247.956 317.716L228.05 329.219C227.131 329.785 226.377 330.581 225.861 331.53C225.302 332.448 224.988 333.495 224.949 334.57V357.564C225.008 358.637 225.32 359.681 225.859 360.611C226.397 361.541 227.148 362.33 228.05 362.915L230.555 364.362C230.767 364.481 230.986 364.587 231.212 364.678L231.479 364.763L231.929 364.897C232.051 364.897 232.172 364.897 232.294 364.97L232.683 365.03H233.121H234.191L234.762 364.97H234.908L235.516 364.848H235.601C236 364.738 236.384 364.578 236.744 364.374L256.65 352.883C257.552 352.298 258.303 351.509 258.842 350.579C259.381 349.649 259.692 348.605 259.751 347.532V324.525Z" fill="#337F88"/>
<path opacity="0.4" d="M259.701 324.003C259.482 322.422 258.193 321.85 256.661 322.787L236.743 334.29C235.824 334.856 235.069 335.652 234.554 336.601L225.859 331.578C226.375 330.63 227.129 329.834 228.048 329.268L247.954 317.765C248.911 317.279 249.969 317.025 251.043 317.025C252.116 317.025 253.174 317.279 254.131 317.765L256.661 319.224C257.476 319.76 258.169 320.464 258.693 321.287C259.217 322.111 259.56 323.037 259.701 324.003Z" fill="white"/>
<path d="M259.752 324.512V347.544C259.693 348.617 259.381 349.66 258.842 350.59C258.303 351.52 257.553 352.309 256.651 352.894L236.745 364.385C236.506 364.521 236.253 364.631 235.991 364.713L235.784 364.774H235.578C234.459 364.896 233.656 364.081 233.656 362.585V339.579C233.713 338.507 234.022 337.463 234.559 336.533C235.096 335.603 235.845 334.813 236.745 334.228L256.651 322.725C258.207 321.837 259.484 322.409 259.703 323.941C259.703 323.783 259.703 323.625 259.618 323.455C259.701 323.801 259.746 324.156 259.752 324.512Z" fill="#337F88"/>
<path d="M246.495 332.503C248.927 331.08 250.994 332.235 250.994 335.105C250.909 336.663 250.457 338.179 249.675 339.529C248.893 340.879 247.804 342.026 246.495 342.875C244.063 344.31 242.008 343.155 242.008 340.285C242.093 338.727 242.543 337.211 243.323 335.859C244.102 334.507 245.189 333.357 246.495 332.503Z" fill="white"/>
<path d="M255.362 347.824C255.362 343.118 252.055 341.026 247.981 343.385L245.44 344.857C243.291 346.257 241.503 348.143 240.221 350.364C238.938 352.585 238.197 355.076 238.059 357.637V358.853L255.362 348.918V347.824Z" fill="white"/>
<path opacity="0.1" d="M236.187 364.568C236.127 364.605 236.061 364.63 235.992 364.641L235.542 364.787C235.145 364.905 234.738 364.987 234.326 365.03H233.718C232.64 365.05 231.574 364.799 230.617 364.301L228.113 362.841C227.212 362.255 226.462 361.466 225.924 360.536C225.385 359.607 225.073 358.563 225.012 357.491V334.569C225.029 333.912 225.156 333.263 225.389 332.648C225.486 332.393 225.595 332.137 225.717 331.894L225.924 331.529L234.618 336.551C234.062 337.471 233.753 338.518 233.718 339.591V362.586C233.718 364.082 234.509 364.896 235.64 364.775H235.834C235.959 364.72 236.078 364.65 236.187 364.568Z" fill="black"/>
<path d="M502.133 223.513H503.714C509.728 223.513 515.497 221.123 519.75 216.87C524.003 212.617 526.392 206.849 526.392 200.834C526.398 197.748 525.796 194.69 524.62 191.836C523.443 188.983 521.716 186.389 519.536 184.204C517.356 182.018 514.767 180.284 511.916 179.1C509.066 177.916 506.01 177.306 502.923 177.305C497.147 177.305 491.608 179.599 487.523 183.683C483.439 187.768 481.145 193.307 481.145 199.083V202.476C481.138 205.236 481.676 207.971 482.728 210.523C483.78 213.075 485.325 215.394 487.275 217.348C489.224 219.302 491.54 220.853 494.09 221.91C496.639 222.968 499.372 223.513 502.133 223.513Z" fill="#263238"/>
<path d="M540.987 239.807C536.4 239.807 532.001 237.985 528.756 234.743C525.511 231.5 523.687 227.102 523.684 222.515V201.053C528.273 201.053 532.674 202.876 535.919 206.121C539.164 209.366 540.987 213.767 540.987 218.356V239.807Z" fill="#263238"/>
<path d="M463.526 288.824C462.164 291.584 458.079 295.609 453.275 290.416C446.259 282.841 434.707 255.919 434.707 255.919L442.307 252.404L457.787 273.551L463.526 288.824Z" fill="#FFA8A7"/>
<path d="M477.074 241.752C471.055 250.921 455.648 278.67 455.648 278.67L461.911 291.11C461.911 291.11 469.401 280.944 473.341 275.362C477.901 268.918 485.635 256.514 485.635 256.514C485.635 256.514 484.723 237.995 488.541 234.76C490.603 232.934 492.986 231.508 495.57 230.553C489.502 230.808 483.458 231.951 477.074 241.752Z" fill="#FFA8A7"/>
<path d="M448.436 238.895C446.418 235.137 445.919 234.967 444.788 234.14C443.657 233.313 436.215 232.219 433.163 231.964C429.576 231.66 428.299 232.316 429.296 235.417C431.436 242.032 437.918 256.089 439.377 258.01C440.325 259.226 440.52 260.442 444.557 260.868C448.339 261.233 453.069 261.439 454.467 261.525C455.866 261.61 457.787 261.95 456.535 257.877C454.927 253.215 453.068 248.644 450.965 244.184C449.409 240.853 448.436 238.895 448.436 238.895Z" fill="#263238"/>
<path d="M434.708 255.92C433.2 249.281 428.786 243.152 431.279 240.902L432.616 243.845C432.616 243.845 440.885 245.827 444.874 245.523C448.862 245.219 452.17 244.307 453.216 245.037C455.538 246.666 456.195 253.622 449.568 256.151C443.925 258.291 434.708 255.92 434.708 255.92Z" fill="#FFA8A7"/>
<path d="M518.1 457.094V455.586C517.505 457.35 514.744 464.974 510.549 468.792C507.229 471.832 502.682 475.334 501.526 478.715C500.371 482.095 507.85 483.421 510.963 482.873C514.611 482.229 519.243 480.186 521.797 477.061C523.585 474.86 524.716 472.258 525.992 470.519C527.269 468.78 530.224 466.871 530.856 464.864C531.245 463.77 530.796 461.362 530.26 459.332C529.725 457.301 529.239 455.404 528.607 455.586C528.607 455.817 528.607 456.729 528.607 456.729C527.105 457.914 525.242 458.546 523.329 458.517C521.834 458.578 518.088 458.274 518.1 457.094Z" fill="#263238"/>
<path d="M507.546 471.467C508.579 470.542 509.613 469.643 510.549 468.779C513.48 466.116 515.705 461.593 516.994 458.504C517.724 456.742 518.1 454.854 518.1 452.947V446.928H528.655V456.729V456.984H528.594C528.084 459.185 523.244 465.01 520.496 468.816C518.648 471.369 515.146 474.616 510.962 475.175C506.986 475.723 504.968 474.47 507.546 471.467Z" fill="#FFA8A7"/>
<path d="M476.94 446.685V445.177C476.344 446.952 473.584 454.576 469.401 458.395C466.069 461.422 461.521 464.937 460.366 468.317C459.211 471.698 466.689 473.023 469.802 472.476C473.45 471.831 478.083 469.776 480.637 466.651C482.424 464.45 483.555 461.848 484.832 460.121C486.109 458.395 489.064 456.473 489.757 454.467C490.134 453.36 489.684 450.953 489.149 448.922C488.614 446.891 488.128 445.006 487.495 445.177C487.495 445.408 487.495 446.332 487.495 446.332C485.991 447.512 484.129 448.142 482.218 448.119C480.673 448.168 476.928 447.864 476.94 446.685Z" fill="#263238"/>
<path d="M466.384 461.058L469.399 458.383C472.318 455.708 474.543 451.184 475.832 448.095C476.562 446.338 476.938 444.454 476.938 442.55V436.531H487.493V446.32V446.588C486.983 448.776 482.143 454.613 479.395 458.419C477.546 460.961 474.044 464.207 469.861 464.767C465.824 465.326 463.806 464.074 466.384 461.058Z" fill="#FFA8A7"/>
<path d="M526.529 293.092C534.712 310.967 526.237 373.907 526.237 373.907C526.48 376.801 529.787 382.516 531.028 395.272C532.487 410.351 528.742 448.217 528.742 448.217C527.132 449.148 525.32 449.674 523.462 449.748C521.604 449.822 519.756 449.443 518.077 448.643C518.077 448.643 508.021 391.612 506.124 376.619C504.47 363.535 501.26 334.764 501.26 334.764L492.262 376.546C493.576 380.762 494.528 385.082 495.107 389.46C495.958 398.288 487.422 439.316 487.422 439.316C487.422 439.316 483.774 440.653 476.867 439.632C476.867 439.632 473.839 385.143 473.049 374.527C471.711 356.689 476.441 301.02 479.725 290.453L526.529 293.092Z" fill="#337F88"/>
<path opacity="0.1" d="M501.334 334.765L498.671 318.178C498.671 318.178 487.435 315.844 482.34 311.053C482.34 311.053 487.69 317.704 495.631 319.881L498.561 332.661L493.357 371.354L501.334 334.765Z" fill="black"/>
<path d="M512.117 231.015C522.612 231.744 523.341 236.803 525.968 242.348C527.887 246.619 528.065 251.469 526.466 255.87L519.17 277.004C519.17 277.004 522.587 285.285 526.564 293.092C508.214 303.33 485.317 297.956 479.808 290.477C479.565 288.896 477.778 255.213 479.14 249.826C481.669 239.879 491.494 230.188 495.835 230.541L512.117 231.015Z" fill="#37474F"/>
<path d="M528.766 197.041L524.547 202.355C524.88 202.65 525.271 202.874 525.693 203.013C526.116 203.153 526.563 203.205 527.007 203.166C527.45 203.127 527.882 202.999 528.274 202.788C528.666 202.578 529.012 202.29 529.289 201.941C529.85 201.215 530.109 200.299 530.012 199.386C529.914 198.473 529.468 197.633 528.766 197.041Z" fill="#263238"/>
<path d="M487.068 189.951C485.852 190.559 482.764 196.53 483.068 209.602C483.323 220.679 486.91 223.415 488.722 224.194C490.534 224.972 494 224.51 497.38 223.938V230.59C497.38 230.59 492.711 236.025 493.003 239.102C493.294 242.178 499.751 242.872 504.129 239.892C506.96 237.852 509.392 235.309 511.303 232.39V216.29C511.303 216.29 513.577 219.33 517.31 216.861C521.043 214.393 521.189 208.24 519.025 206.039C516.86 203.838 512.167 204.531 511.303 207.571C511.303 207.571 505.819 208.544 498.475 203.814C490.546 198.706 488.102 194.645 487.068 189.951Z" fill="#FFA8A7"/>
<path d="M485.258 202.33L488.359 200.858C488.272 200.652 488.144 200.466 487.983 200.31C487.822 200.155 487.631 200.033 487.422 199.954C487.213 199.874 486.99 199.838 486.766 199.847C486.542 199.856 486.323 199.911 486.121 200.007C485.707 200.21 485.387 200.564 485.226 200.996C485.065 201.428 485.077 201.906 485.258 202.33Z" fill="#263238"/>
<path d="M498.074 201.356L500.968 203.18C501.098 202.998 501.189 202.79 501.236 202.57C501.283 202.351 501.284 202.124 501.239 201.904C501.195 201.684 501.106 201.476 500.978 201.292C500.849 201.108 500.685 200.952 500.494 200.834C500.1 200.595 499.63 200.516 499.18 200.613C498.73 200.71 498.334 200.976 498.074 201.356Z" fill="#263238"/>
<path d="M511.423 204.52L511.229 211.305C510.783 211.315 510.34 211.234 509.927 211.068C509.513 210.901 509.138 210.652 508.824 210.336C508.51 210.019 508.264 209.642 508.1 209.228C507.937 208.813 507.859 208.37 507.873 207.924C507.913 207.009 508.305 206.145 508.966 205.511C509.627 204.877 510.507 204.522 511.423 204.52Z" fill="#263238"/>
<path d="M496.676 206.392C496.651 206.584 496.666 206.778 496.72 206.963C496.775 207.149 496.867 207.321 496.991 207.469C497.115 207.617 497.268 207.737 497.441 207.823C497.614 207.909 497.803 207.958 497.995 207.967C498.188 207.977 498.381 207.946 498.561 207.877C498.742 207.808 498.906 207.703 499.043 207.567C499.181 207.432 499.289 207.27 499.361 207.09C499.432 206.911 499.466 206.719 499.46 206.526C499.473 206.341 499.45 206.154 499.391 205.978C499.332 205.802 499.239 205.639 499.117 205.499C498.995 205.359 498.846 205.244 498.68 205.162C498.513 205.079 498.332 205.03 498.147 205.018C497.77 205.008 497.405 205.147 497.13 205.404C496.854 205.661 496.691 206.016 496.676 206.392Z" fill="#263238"/>
<path d="M495.071 216.217L491.836 217.25C491.888 217.472 491.984 217.681 492.12 217.864C492.256 218.047 492.427 218.2 492.625 218.314C492.822 218.428 493.04 218.5 493.266 218.526C493.492 218.553 493.722 218.532 493.94 218.466C494.162 218.394 494.368 218.277 494.545 218.125C494.722 217.972 494.868 217.786 494.973 217.577C495.078 217.368 495.141 217.14 495.157 216.907C495.174 216.673 495.145 216.439 495.071 216.217Z" fill="#F28F8F"/>
<path d="M485.902 205.82C485.877 206.012 485.893 206.207 485.948 206.392C486.003 206.578 486.095 206.75 486.22 206.897C486.345 207.045 486.499 207.166 486.672 207.251C486.846 207.336 487.035 207.385 487.228 207.393C487.421 207.401 487.614 207.37 487.794 207.3C487.975 207.23 488.138 207.124 488.275 206.987C488.413 206.851 488.52 206.687 488.591 206.507C488.661 206.328 488.694 206.135 488.686 205.942C488.7 205.756 488.676 205.57 488.617 205.394C488.558 205.218 488.465 205.055 488.343 204.915C488.221 204.775 488.073 204.66 487.906 204.578C487.74 204.495 487.558 204.446 487.373 204.434C486.995 204.427 486.63 204.568 486.355 204.827C486.08 205.086 485.918 205.443 485.902 205.82Z" fill="#263238"/>
<path d="M492.711 205.018L492.492 213.408L488.078 212.034L492.711 205.018Z" fill="#F28F8F"/>
<path d="M497.344 223.951C500.907 223.488 508.288 221.385 509.382 218.479C508.916 219.926 508.021 221.198 506.816 222.127C504.615 223.999 497.344 226.115 497.344 226.115V223.951Z" fill="#F28F8F"/>
<path d="M507.423 295.075C508.86 294.745 510.216 294.133 511.413 293.272C512.609 292.411 513.622 291.32 514.391 290.063C515.16 288.806 515.67 287.407 515.892 285.95C516.113 284.493 516.041 283.006 515.68 281.577C515.631 281.383 515.57 281.192 515.497 281.006C515.232 280.247 514.723 279.597 514.05 279.157C513.377 278.718 512.578 278.512 511.776 278.574C512.955 277.795 513.967 276.79 514.754 275.617C515.541 274.443 516.087 273.126 516.361 271.74L518.598 258.485C518.864 256.329 518.669 254.14 518.026 252.065L525.408 243.553C525.408 243.553 525.93 243.93 526.77 244.501C527.88 248.248 527.773 252.25 526.466 255.932L519.17 277.066C519.17 277.066 522.586 285.347 526.563 293.153C520.595 296.362 514.009 298.254 507.249 298.703C500.489 299.152 493.71 298.147 487.371 295.756C494.038 296.795 500.842 296.564 507.423 295.075Z" fill="#263238"/>
<path d="M545.329 283.657C535.807 244.745 528.755 231.746 517.19 231.904C513.822 235.941 514.758 248.125 520.085 255.531C520.085 255.531 531.989 280.629 533.886 289.579C535.552 297.422 537.437 307.284 537.315 314.02C537.287 315.215 536.819 316.358 536.002 317.23C533.825 319.59 533.813 321.486 532.354 324.089C531.247 326.132 530.044 326.886 530.384 327.348C530.835 327.837 531.455 328.136 532.119 328.186C532.782 328.236 533.44 328.032 533.959 327.615C534.977 326.879 535.885 326.003 536.659 325.013C536.288 327.509 535.567 329.941 534.518 332.236C532.086 337.744 532.67 340.553 540.1 338.596C544.757 337.38 547.688 333.488 548.381 322.289C548.724 318.167 548.765 314.026 548.502 309.898C547.578 299.246 546.861 289.919 545.329 283.657Z" fill="#FFA8A7"/>
</svg>
