<svg width="750" height="750" viewBox="0 0 750 750" fill="none" xmlns="http://www.w3.org/2000/svg">
<g clip-path="url(#clip0_3655_5573)">
<path fill-rule="evenodd" clip-rule="evenodd" d="M470.032 316.022C465.054 315.194 460.076 314.363 455.097 313.535C446.196 311.085 437.071 309.427 427.717 308.561C426.191 297.526 424.531 286.75 422.738 276.23C422.529 266.703 424.19 257.583 427.717 248.873C435.538 248.13 440.932 243.984 443.896 236.438C445.556 228.978 445.556 221.517 443.896 214.056C441.673 212.611 439.184 211.78 436.429 211.569C431.236 213.852 425.842 215.51 420.249 216.543C418.878 169.151 394.818 146.353 348.064 148.15C334.389 155.195 326.506 166.386 324.417 181.725C320.196 200.24 319.78 218.477 323.173 236.438C322.745 238.906 323.576 240.562 325.662 241.412C328.743 267.282 342.847 283.448 367.977 289.909C358.74 292.008 349.615 294.495 340.597 297.37C338.406 300.742 337.575 304.473 338.108 308.561C327.078 307.892 316.29 308.72 305.749 311.048C303.26 311.048 300.771 311.048 298.281 311.048C283.033 290.016 279.299 266.802 287.08 241.412C290.236 228.637 294.383 216.202 299.526 204.108C299.757 183.194 301.418 162.469 304.504 141.933C318.468 111.299 342.531 95.5486 376.689 94.6801C394.078 93.9639 408.6 99.767 420.249 112.089C450.527 108.841 470.856 121.276 481.233 149.394C486.622 186.673 492.014 223.979 497.413 261.308C497.507 284.333 488.38 302.57 470.032 316.022Z" fill="#391E17"/>
<path fill-rule="evenodd" clip-rule="evenodd" d="M325.669 241.411C323.583 240.56 322.751 238.904 323.179 236.437C323.179 229.804 323.179 223.174 323.179 216.541C334.366 218.18 338.515 224.81 335.625 236.437C330.689 235.584 327.369 237.243 325.669 241.411Z" fill="#F7AF59"/>
<path fill-rule="evenodd" clip-rule="evenodd" d="M129.021 243.895C157.684 242.326 161.417 251.446 140.222 271.252C128.142 265.371 124.409 256.253 129.021 243.895Z" fill="#DE4D3D"/>
<path fill-rule="evenodd" clip-rule="evenodd" d="M422.743 276.231C422.743 287.007 422.743 297.786 422.743 308.562C394.561 321.554 366.349 321.554 338.112 308.562C337.579 304.473 338.411 300.743 340.601 297.371C349.619 294.496 358.745 292.009 367.982 289.91C342.851 283.448 328.748 267.283 325.666 241.413C327.366 237.245 330.687 235.586 335.623 236.439C338.513 224.813 334.363 218.182 323.177 216.543C323.177 223.176 323.177 229.807 323.177 236.439C319.784 218.478 320.2 200.241 324.422 181.726C326.51 166.387 334.393 155.195 348.069 148.151C394.822 146.354 418.882 169.151 420.254 216.543C425.847 215.511 431.241 213.852 436.433 211.569C439.189 211.781 441.678 212.611 443.901 214.056C445.561 221.517 445.561 228.978 443.901 236.439C440.936 243.985 435.542 248.131 427.721 248.874C424.194 257.584 422.534 266.703 422.743 276.231Z" fill="#FECBAC"/>
<path fill-rule="evenodd" clip-rule="evenodd" d="M350.559 246.385C358.337 243.95 366.633 243.119 375.45 243.898C368.769 259.653 360.473 260.481 350.559 246.385Z" fill="#FBF6F3"/>
<path fill-rule="evenodd" clip-rule="evenodd" d="M392.874 216.543C409.558 214.131 415.366 220.764 410.298 236.439C393.232 239.963 387.423 233.333 392.874 216.543Z" fill="#F7AF59"/>
<path fill-rule="evenodd" clip-rule="evenodd" d="M355.534 211.566C358.015 211.491 359.676 212.735 360.512 215.296C358.553 220.516 357.724 225.906 358.023 231.462C361.441 231.071 364.761 231.486 367.98 232.705C363.148 234.553 358.586 234.138 354.289 231.462C353.219 224.767 353.635 218.134 355.534 211.566Z" fill="#733C1E"/>
<path fill-rule="evenodd" clip-rule="evenodd" d="M382.914 201.619C386.232 201.619 389.553 201.619 392.871 201.619C394.723 210.199 391.402 214.343 382.914 214.054C382.914 209.908 382.914 205.764 382.914 201.619Z" fill="#421E13"/>
<path fill-rule="evenodd" clip-rule="evenodd" d="M333.129 201.619C336.447 201.619 339.768 201.619 343.086 201.619C344.042 207.003 342.381 211.149 338.107 214.054C333.834 211.149 332.173 207.003 333.129 201.619Z" fill="#3E1E14"/>
<path fill-rule="evenodd" clip-rule="evenodd" d="M380.426 191.671C388.57 188.311 396.869 188.726 405.317 192.914C397.103 192.801 388.804 192.386 380.426 191.671Z" fill="#6D3815"/>
<path fill-rule="evenodd" clip-rule="evenodd" d="M333.131 186.697C352.815 186.777 352.815 188.435 333.131 191.671C331.47 191.257 329.813 190.842 328.152 190.428C330.432 189.735 332.09 188.492 333.131 186.697Z" fill="#6D3C25"/>
<path fill-rule="evenodd" clip-rule="evenodd" d="M584.539 268.766C586.304 266.518 588.793 265.69 592.006 266.279C592.741 271.838 591.909 276.812 589.517 281.201C590.57 275.529 588.91 271.383 584.539 268.766Z" fill="#E1AC8D"/>
<path fill-rule="evenodd" clip-rule="evenodd" d="M422.738 276.229C424.53 286.748 426.191 297.525 427.717 308.559C426.056 308.559 424.399 308.559 422.738 308.559C422.738 297.783 422.738 287.005 422.738 276.229Z" fill="#663924"/>
<path fill-rule="evenodd" clip-rule="evenodd" d="M584.535 268.77C588.906 271.386 590.567 275.532 589.514 281.204C587.174 291.06 586.758 301.008 588.269 311.048C593.038 298.211 595.943 284.945 596.981 271.257C599.47 271.257 601.959 271.257 604.449 271.257C604.449 274.572 604.449 277.889 604.449 281.204C602.047 291.1 600.802 301.048 600.715 311.048C603.577 302.921 605.653 294.632 606.938 286.178C609.427 286.178 611.916 286.178 614.405 286.178C613.927 317.236 610.609 347.91 604.449 378.197C602.788 378.197 601.959 379.025 601.959 380.684C595.122 379.906 588.483 380.734 582.046 383.171C587.629 385.593 593.437 386.424 599.47 385.658C598.763 390.421 599.592 394.564 601.959 398.093C587.585 400.135 573.479 397.648 559.644 390.632C557.981 383.654 556.324 377.023 554.666 370.736C548.605 363.588 545.284 355.299 544.709 345.866C544.296 333.404 544.712 320.969 545.954 308.561C547.624 306.691 549.697 305.86 552.177 306.074C553.76 316.458 556.249 326.406 559.644 335.918C560.717 314.918 563.206 294.194 567.111 273.744C569.601 273.744 572.09 273.744 574.579 273.744C574.166 285.38 574.581 296.984 575.823 308.561C578.054 294.868 580.956 281.605 584.535 268.77Z" fill="#FECBAC"/>
<path fill-rule="evenodd" clip-rule="evenodd" d="M338.113 308.56C366.35 321.552 394.562 321.552 422.744 308.56C424.404 308.56 426.062 308.56 427.722 308.56C437.076 309.426 446.201 311.084 455.102 313.534C455.501 317.759 455.088 321.905 453.858 325.969C433.497 352.488 409.021 357.462 380.428 340.891C352.926 357.512 329.279 353.366 309.488 328.456C307.84 322.704 306.595 316.901 305.754 311.047C316.295 308.719 327.083 307.891 338.113 308.56Z" fill="#E0D5CC"/>
<path fill-rule="evenodd" clip-rule="evenodd" d="M298.286 311.045C300.775 311.045 303.264 311.045 305.753 311.045C306.595 316.899 307.839 322.701 309.487 328.454C329.278 353.364 352.925 357.509 380.428 340.889C409.02 357.46 433.496 352.486 453.857 325.967C455.087 321.903 455.5 317.757 455.102 313.532C460.08 314.36 465.058 315.191 470.037 316.019C509.584 327.757 535.72 353.458 548.445 393.116C553.684 386.632 555.758 379.171 554.668 370.733C556.325 377.02 557.983 383.65 559.646 390.629C573.481 397.644 587.587 400.131 601.961 398.09C607.943 398.219 613.75 397.391 619.385 395.603C613.11 449.085 604.398 502.14 593.249 554.77C567.066 599.941 533.463 606.574 492.439 574.666C486.189 533.914 479.137 493.291 471.281 452.803C475.306 492.697 480.698 532.489 487.461 572.179C483.481 571.512 480.163 572.343 477.504 574.666C411.144 581.296 344.766 581.296 278.373 574.666C275.714 572.343 272.396 571.512 268.416 572.179C273.833 532.203 280.471 492.411 288.329 452.803C287.501 451.975 286.669 451.144 285.84 450.316C283.896 453.373 282.652 456.688 282.107 460.264C276.655 494.749 270.432 528.739 263.438 562.231C236.983 579.476 208.774 583.206 178.807 573.422C167.591 564.73 159.71 553.539 155.16 539.848C145.268 491.784 135.728 443.703 126.535 395.603C127.364 395.603 128.195 395.603 129.024 395.603C149.592 397.746 168.261 391.942 185.03 378.194C186.26 374.13 186.673 369.984 186.275 365.759C193.961 379.636 199.771 394.558 203.699 410.524C210.857 430.741 218.738 450.637 227.345 470.212C222.083 449.891 215.032 429.995 206.188 410.524C214.696 356.442 245.394 323.283 298.286 311.045Z" fill="#8AB5BA"/>
<path fill-rule="evenodd" clip-rule="evenodd" d="M552.175 306.07C549.695 305.856 547.622 306.687 545.952 308.557C544.71 320.965 544.294 333.4 544.707 345.862C541.842 333.054 541.429 319.788 543.463 306.07C546.679 302.859 549.581 302.859 552.175 306.07Z" fill="#F2D3BA"/>
<path fill-rule="evenodd" clip-rule="evenodd" d="M129.023 333.428C129.023 332.6 129.023 331.77 129.023 330.941C138.599 332.707 147.727 335.607 156.404 339.646C146.542 340.924 137.414 338.85 129.023 333.428Z" fill="#BF754E"/>
<path fill-rule="evenodd" clip-rule="evenodd" d="M559.645 335.916C571.042 337.764 576.436 344.397 575.824 355.812C572.576 347.204 567.184 340.572 559.645 335.916Z" fill="#BF754E"/>
<path fill-rule="evenodd" clip-rule="evenodd" d="M186.27 365.759C186.669 369.984 186.255 374.13 185.026 378.194C168.256 391.942 149.588 397.746 129.02 395.603C134.827 395.603 140.637 395.603 146.444 395.603C147.223 386.794 146.392 378.505 143.955 370.733C138.225 358.477 133.247 346.042 129.02 333.428C137.411 338.85 146.539 340.924 156.401 339.645C147.724 335.607 138.596 332.707 129.02 330.941C129.431 325.154 131.089 319.767 133.998 314.775C128.54 309.739 126.051 303.522 126.531 296.123C131.469 295.832 135.616 297.491 138.977 301.097C141.466 295.295 145.615 291.149 151.422 288.662C154.511 295.651 153.683 302.283 148.933 308.558C159.432 311.975 169.389 316.121 178.803 320.993C179.806 336.223 182.295 351.145 186.27 365.759Z" fill="#FECBAC"/>
<path fill-rule="evenodd" clip-rule="evenodd" d="M178.807 360.787C180.647 360.461 182.307 360.877 183.786 362.031C180.042 366.477 175.892 367.721 171.34 365.761C174.083 364.08 176.572 362.424 178.807 360.787Z" fill="#BF754E"/>
<path fill-rule="evenodd" clip-rule="evenodd" d="M601.96 380.681C601.96 386.483 601.96 392.288 601.96 398.09C599.593 394.561 598.764 390.418 599.471 385.655C593.437 386.421 587.63 385.591 582.047 383.168C588.484 380.731 595.122 379.903 601.96 380.681Z" fill="#BF754E"/>
<path fill-rule="evenodd" clip-rule="evenodd" d="M604.446 378.195C615.463 378.742 620.441 384.547 619.381 395.604C613.746 397.392 607.938 398.221 601.957 398.091C601.957 392.289 601.957 386.484 601.957 380.682C601.957 379.023 602.786 378.195 604.446 378.195Z" fill="#00343A"/>
<path fill-rule="evenodd" clip-rule="evenodd" d="M143.958 370.736C146.395 378.508 147.226 386.797 146.447 395.606C140.64 395.606 134.83 395.606 129.023 395.606C128.194 395.606 127.363 395.606 126.534 395.606C125.488 382.552 131.298 374.263 143.958 370.736Z" fill="#00343A"/>
<path fill-rule="evenodd" clip-rule="evenodd" d="M203.695 410.527C204.524 410.527 205.356 410.527 206.184 410.527C215.028 429.998 222.08 449.894 227.342 470.215C218.735 450.64 210.854 430.744 203.695 410.527Z" fill="#00434B"/>
<path fill-rule="evenodd" clip-rule="evenodd" d="M547.202 395.604C548.688 396.188 549.517 397.431 549.691 399.334C543.969 417.317 537.746 435.142 531.023 452.804C529.362 449.489 529.362 446.171 531.023 442.856C537.186 427.285 542.577 411.535 547.202 395.604Z" fill="#00434B"/>
<path fill-rule="evenodd" clip-rule="evenodd" d="M492.435 574.667C491.606 574.667 490.775 574.667 489.946 574.667C486.628 574.667 483.307 574.667 479.989 574.667C479.16 574.667 478.329 574.667 477.5 574.667C480.159 572.344 483.477 571.514 487.457 572.18C480.694 532.49 475.302 492.698 471.277 452.805C479.133 493.293 486.185 533.915 492.435 574.667Z" fill="#00434B"/>
<path fill-rule="evenodd" clip-rule="evenodd" d="M278.368 574.668C276.708 574.668 275.05 574.668 273.39 574.668C272.561 574.668 271.73 574.668 270.901 574.668C268.412 574.668 265.923 574.668 263.434 574.668C263.434 570.522 263.434 566.379 263.434 562.233C270.428 528.741 276.651 494.751 282.102 460.266C282.647 456.69 283.892 453.375 285.836 450.318C286.665 451.147 287.496 451.977 288.325 452.805C280.467 492.413 273.828 532.205 268.412 572.181C272.392 571.514 275.71 572.345 278.368 574.668Z" fill="#00434B"/>
<path fill-rule="evenodd" clip-rule="evenodd" d="M270.905 574.666C271.734 574.666 272.565 574.666 273.394 574.666C273.394 582.127 273.394 589.588 273.394 597.049C342.393 607.459 411.26 606.631 479.993 594.562C479.993 587.929 479.993 581.299 479.993 574.666C483.311 574.666 486.631 574.666 489.949 574.666C488.184 576.914 485.695 577.742 482.482 577.153C479.883 591.015 483.617 602.622 493.683 611.971C513.765 651.054 529.113 691.674 539.732 733.833C433.122 736.318 326.089 737.146 218.633 736.32C219.86 730.585 220.689 724.783 221.122 718.911C231.815 676.006 247.995 635.386 269.66 597.049C270.9 589.633 271.316 582.172 270.905 574.666Z" fill="#00343A"/>
<path fill-rule="evenodd" clip-rule="evenodd" d="M273.391 574.666C275.051 574.666 276.709 574.666 278.369 574.666C344.762 581.296 411.14 581.296 477.5 574.666C478.329 574.666 479.161 574.666 479.989 574.666C479.989 581.299 479.989 587.929 479.989 594.562C411.257 606.631 342.39 607.459 273.391 597.049C273.391 589.588 273.391 582.127 273.391 574.666Z" fill="#3A1F18"/>
</g>
<defs>
<clipPath id="clip0_3655_5573">
<rect width="750" height="750" fill="white"/>
</clipPath>
</defs>
</svg>
