<svg width="2758" height="673" viewBox="0 0 2758 673" fill="none" xmlns="http://www.w3.org/2000/svg">
<path d="M187.13 222.625H138.885V529.224H187.13V479.177C332.314 444.549 339.302 326.027 324.423 271.094H275.503C304.9 374.617 228.836 420.637 187.13 430.707V222.625Z" fill="#005F6A"/>
<path d="M95.3885 461.083V412.162C8.58041 333.993 62.0101 244.046 82.7505 224.88C149.932 157.473 236.037 193.539 258.594 219.41H307.303C219.706 89.4431 12.8638 133.125 0.013536 303.329C-1.06858 395.49 63.0002 447.406 95.3885 461.083Z" fill="#005F6A"/>
<path d="M442.603 574.333L442.603 98.667" stroke="#005F6A" stroke-width="18.8327" stroke-linecap="square"/>
<path d="M952.883 291.438C952.883 306.81 949.91 321.312 943.965 334.944C938.164 348.431 930.188 360.25 920.036 370.401C910.03 380.407 898.283 388.311 884.797 394.112C871.31 399.913 856.88 402.813 841.508 402.813H662.482V358.872H841.508C850.789 358.872 859.491 357.132 867.612 353.651C875.733 350.026 882.766 345.168 888.712 339.077C894.803 332.986 899.589 325.88 903.069 317.759C906.549 309.493 908.29 300.719 908.29 291.438C908.29 282.157 906.549 273.456 903.069 265.334C899.589 257.213 894.803 250.18 888.712 244.234C882.766 238.143 875.733 233.358 867.612 229.877C859.491 226.397 850.789 224.656 841.508 224.656H637.466V492H592.872V180.063H841.508C856.88 180.063 871.31 183.036 884.797 188.982C898.283 194.782 910.03 202.759 920.036 212.91C930.188 222.916 938.164 234.663 943.965 248.15C949.91 261.636 952.883 276.066 952.883 291.438ZM1284.83 492H1240.24V369.531C1240.24 358.8 1238.21 348.721 1234.15 339.294C1230.09 329.868 1224.58 321.675 1217.62 314.714C1210.66 307.608 1202.46 302.024 1193.04 297.964C1183.75 293.758 1173.75 291.583 1163.02 291.438H1040.55V492H995.954V157.875H1040.55V247.062H1163.02C1179.84 247.062 1195.65 250.325 1210.44 256.851C1225.23 263.232 1238.14 272.005 1249.16 283.172C1260.18 294.193 1268.88 307.173 1275.26 322.11C1281.64 336.902 1284.83 352.709 1284.83 369.531V492ZM1400.56 191.374C1400.56 196.015 1399.69 200.366 1397.95 204.426C1396.21 208.342 1393.82 211.822 1390.77 214.868C1387.72 217.913 1384.17 220.306 1380.11 222.046C1376.05 223.786 1371.77 224.656 1367.28 224.656C1362.64 224.656 1358.29 223.786 1354.22 222.046C1350.16 220.306 1346.61 217.913 1343.57 214.868C1340.52 211.822 1338.13 208.342 1336.39 204.426C1334.65 200.366 1333.78 196.015 1333.78 191.374C1333.78 186.879 1334.65 182.601 1336.39 178.54C1338.13 174.48 1340.52 170.927 1343.57 167.881C1346.61 164.836 1350.16 162.443 1354.22 160.703C1358.29 158.818 1362.64 157.875 1367.28 157.875C1371.77 157.875 1376.05 158.818 1380.11 160.703C1384.17 162.443 1387.72 164.836 1390.77 167.881C1393.82 170.927 1396.21 174.48 1397.95 178.54C1399.69 182.601 1400.56 186.879 1400.56 191.374ZM1389.46 492H1344.87V247.062H1389.46V492ZM1498.23 492H1453.64V247.062H1620.7C1637.52 247.062 1653.33 250.325 1668.12 256.851C1682.91 263.232 1695.82 272.005 1706.84 283.172C1717.86 294.193 1726.56 307.173 1732.94 322.11C1739.32 336.902 1742.51 352.709 1742.51 369.531V492H1697.92V369.531C1697.92 358.8 1695.89 348.721 1691.83 339.294C1687.77 329.868 1682.26 321.675 1675.3 314.714C1668.34 307.608 1660.14 302.024 1650.72 297.964C1641.44 293.758 1631.43 291.583 1620.7 291.438H1498.23V492ZM2087.73 324.937C2087.73 335.814 2085.7 345.965 2081.64 355.392C2077.58 364.818 2072 373.084 2064.89 380.19C2057.93 387.151 2049.67 392.662 2040.09 396.722C2030.67 400.783 2020.59 402.813 2009.86 402.813H1839.1C1842.29 409.339 1846.28 415.357 1851.06 420.868C1855.85 426.379 1861.21 431.092 1867.16 435.007C1873.1 438.923 1879.56 441.968 1886.52 444.144C1893.63 446.319 1901.02 447.406 1908.71 447.406H2054.45V492H1908.71C1891.88 491.855 1876.08 488.592 1861.29 482.211C1846.49 475.685 1833.59 466.912 1822.57 455.89C1811.69 444.724 1803.06 431.744 1796.68 416.952C1790.3 402.16 1787.11 386.353 1787.11 369.531C1787.11 352.709 1790.3 336.902 1796.68 322.11C1803.06 307.318 1811.69 294.411 1822.57 283.389C1833.59 272.223 1846.49 263.449 1861.29 257.068C1876.08 250.542 1891.88 247.207 1908.71 247.062H2009.86C2020.59 247.062 2030.67 249.092 2040.09 253.153C2049.67 257.213 2057.93 262.797 2064.89 269.903C2072 276.863 2077.58 285.057 2081.64 294.483C2085.7 303.91 2087.73 314.061 2087.73 324.937ZM2009.86 358.437C2014.35 358.437 2018.63 357.567 2022.69 355.827C2026.75 354.086 2030.31 351.694 2033.35 348.648C2036.4 345.603 2038.79 342.05 2040.53 337.989C2042.27 333.929 2043.14 329.578 2043.14 324.937C2043.14 320.442 2042.27 316.164 2040.53 312.103C2038.79 308.043 2036.4 304.49 2033.35 301.444C2030.31 298.399 2026.75 296.006 2022.69 294.266C2018.63 292.381 2014.35 291.438 2009.86 291.438H1908.71C1898.85 291.438 1889.56 293.178 1880.86 296.659C1872.31 300.139 1864.62 304.925 1857.81 311.016C1851.13 316.961 1845.55 324.067 1841.06 332.333C1836.7 340.455 1833.88 349.156 1832.57 358.437H2009.86ZM2416.2 492H2352.68L2257.19 399.768L2163.65 492H2099.92L2226.52 369.966L2099.92 247.062H2163.65L2416.2 492ZM2416.2 247.062L2310.27 350.388L2278.29 321.892L2352.68 247.062H2416.2ZM2726.83 492H2504.08C2493.21 492 2483.06 489.97 2473.63 485.909C2464.2 481.849 2455.94 476.338 2448.83 469.377C2441.73 462.271 2436.14 454.005 2432.08 444.579C2428.02 435.007 2425.99 424.856 2425.99 414.125C2425.99 403.248 2428.02 393.097 2432.08 383.67C2436.14 374.244 2441.73 365.978 2448.83 358.872C2455.94 351.766 2464.2 346.183 2473.63 342.122C2483.06 338.062 2493.21 336.031 2504.08 336.031H2659.84V380.625H2504.08C2499.44 380.625 2495.09 381.568 2491.03 383.453C2486.97 385.193 2483.42 387.586 2480.37 390.631C2477.33 393.677 2474.94 397.23 2473.2 401.29C2471.46 405.351 2470.59 409.629 2470.59 414.125C2470.59 418.765 2471.46 423.116 2473.2 427.176C2474.94 431.092 2477.33 434.572 2480.37 437.618C2483.42 440.663 2486.97 443.056 2491.03 444.796C2495.09 446.536 2499.44 447.406 2504.08 447.406H2682.24V324.937C2682.24 320.442 2681.3 316.164 2679.41 312.103C2677.67 308.043 2675.28 304.49 2672.24 301.444C2669.19 298.399 2665.64 296.006 2661.58 294.266C2657.52 292.381 2653.24 291.438 2648.74 291.438H2470.59V247.062H2648.74C2659.62 247.062 2669.77 249.092 2679.2 253.153C2688.62 257.213 2696.89 262.797 2703.99 269.903C2711.1 276.863 2716.68 285.057 2720.74 294.483C2724.8 303.91 2726.83 314.061 2726.83 324.937V492Z" fill="#005F6A"/>
</svg>
