<svg width="690" height="689" viewBox="0 0 690 689" fill="none" xmlns="http://www.w3.org/2000/svg">
<path d="M343.691 659.599C512.043 659.599 648.519 588.728 648.519 501.304C648.519 413.879 512.043 343.008 343.691 343.008C175.339 343.008 38.8633 413.879 38.8633 501.304C38.8633 588.728 175.339 659.599 343.691 659.599Z" fill="#F5F5F5"/>
<path d="M560.558 561.318C595.613 561.318 624.031 545.987 624.031 527.075C624.031 508.163 595.613 492.832 560.558 492.832C525.504 492.832 497.086 508.163 497.086 527.075C497.086 545.987 525.504 561.318 560.558 561.318Z" fill="#EBEBEB"/>
<g opacity="0.8">
<path d="M102.011 564.964C99.9297 565.021 97.8677 564.547 96.0196 563.587L75.5646 551.768C74.7894 551.466 74.1236 550.937 73.6542 550.25C73.1847 549.563 72.9336 548.751 72.9336 547.919C72.9336 547.087 73.1847 546.274 73.6542 545.587C74.1236 544.9 74.7894 544.371 75.5646 544.069L201.876 471.161C203.723 470.203 205.774 469.703 207.854 469.703C209.935 469.703 211.985 470.203 213.832 471.161L234.301 482.965C235.081 483.265 235.751 483.794 236.224 484.483C236.697 485.171 236.95 485.987 236.95 486.822C236.95 487.657 236.697 488.473 236.224 489.161C235.751 489.85 235.081 490.379 234.301 490.679L107.99 563.518C106.152 564.5 104.095 564.998 102.011 564.964ZM207.854 471.161C206.013 471.122 204.193 471.554 202.565 472.414L76.2533 545.267C75.716 545.495 75.2485 545.861 74.8978 546.328C74.5471 546.795 74.3258 547.346 74.256 547.925C74.3285 548.504 74.5509 549.054 74.9012 549.52C75.2515 549.987 75.7176 550.353 76.2533 550.584L96.7083 562.389C98.35 563.22 100.164 563.653 102.005 563.653C103.845 563.653 105.659 563.22 107.301 562.389L233.612 489.549C234.196 489.391 234.711 489.045 235.078 488.564C235.446 488.084 235.645 487.496 235.645 486.891C235.645 486.286 235.446 485.698 235.078 485.218C234.711 484.737 234.196 484.391 233.612 484.232L213.144 472.414C211.516 471.552 209.695 471.121 207.854 471.161Z" fill="#337F88"/>
</g>
<path d="M250.166 571.165C248.082 571.196 246.024 570.693 244.188 569.705L170.481 527.156C170.403 527.111 170.333 527.052 170.278 526.98C170.223 526.909 170.182 526.827 170.159 526.74C170.136 526.652 170.131 526.561 170.143 526.472C170.156 526.382 170.187 526.296 170.233 526.219C170.326 526.063 170.475 525.948 170.649 525.9C170.824 525.851 171.01 525.872 171.17 525.957L244.877 568.52C246.52 569.348 248.334 569.78 250.173 569.78C252.013 569.78 253.827 569.348 255.47 568.52L492.803 431.492C493.339 431.264 493.805 430.898 494.154 430.431C494.502 429.964 494.721 429.413 494.786 428.834C494.717 428.256 494.497 427.707 494.149 427.24C493.801 426.774 493.337 426.407 492.803 426.175L430.598 390.265C430.46 390.165 430.364 390.017 430.329 389.85C430.294 389.683 430.322 389.509 430.407 389.362C430.493 389.215 430.63 389.104 430.793 389.052C430.955 389 431.131 389.01 431.286 389.081L493.492 424.991C494.267 425.293 494.933 425.822 495.402 426.509C495.871 427.196 496.123 428.009 496.123 428.841C496.123 429.673 495.871 430.485 495.402 431.172C494.933 431.859 494.267 432.388 493.492 432.69L256.158 569.705C254.318 570.695 252.256 571.197 250.166 571.165Z" fill="#337F88"/>
<path d="M414.151 386.078C415.789 386.914 417.602 387.35 419.44 387.35C421.279 387.35 423.092 386.914 424.73 386.078C427.65 384.398 427.65 381.657 424.73 379.976C423.09 379.148 421.278 378.717 419.44 378.717C417.603 378.717 415.791 379.148 414.151 379.976C411.231 381.629 411.231 384.384 414.151 386.078Z" fill="#455A64"/>
<path d="M419.384 392.194C415.643 392.266 411.946 391.384 408.64 389.632C405.637 387.897 403.984 385.5 403.984 383.034C403.984 380.569 405.637 378.158 408.64 376.436C414.563 373.007 424.205 373.02 430.128 376.436C433.117 378.158 434.77 380.569 434.77 383.034C434.77 385.5 433.117 387.897 430.128 389.632C426.822 391.384 423.125 392.266 419.384 392.194ZM409.329 388.434C412.445 390.016 415.89 390.841 419.384 390.841C422.879 390.841 426.324 390.016 429.439 388.434C431.988 386.96 433.393 385.045 433.393 383.034C433.393 381.023 432.015 379.095 429.439 377.621C426.322 376.045 422.878 375.224 419.384 375.224C415.891 375.224 412.446 376.045 409.329 377.621C406.767 379.095 405.362 381.023 405.362 383.034C405.362 385.045 406.739 386.96 409.329 388.434Z" fill="#455A64"/>
<path d="M165.538 529.608C167.176 530.443 168.988 530.879 170.827 530.879C172.666 530.879 174.479 530.443 176.117 529.608C179.037 527.927 179.037 525.186 176.117 523.506C174.479 522.67 172.666 522.234 170.827 522.234C168.988 522.234 167.176 522.67 165.538 523.506C162.618 525.186 162.618 527.927 165.538 529.608Z" fill="#455A64"/>
<path d="M419.384 383.722C419.201 383.722 419.026 383.65 418.897 383.52C418.768 383.391 418.695 383.216 418.695 383.033V154.157C418.695 153.975 418.768 153.8 418.897 153.67C419.026 153.541 419.201 153.469 419.384 153.469C419.566 153.472 419.739 153.546 419.867 153.674C419.996 153.803 420.069 153.976 420.073 154.157V383.006C420.075 383.098 420.058 383.19 420.025 383.276C419.991 383.362 419.941 383.44 419.877 383.507C419.813 383.573 419.736 383.626 419.652 383.663C419.567 383.7 419.476 383.72 419.384 383.722Z" fill="#337F88"/>
<path d="M488.693 85.8944L470.786 75.5774C468.39 73.9796 465.194 73.9933 461.654 76.032L460.373 76.7758C460.728 74.266 460.907 71.7346 460.91 69.1998C460.94 65.8306 460.546 62.4709 459.739 59.1996L468.968 56.9544L451.254 46.72C446.392 43.9651 440.042 44.1717 433.1 48.1801C426.157 52.1884 419.477 59.6128 414.559 68.3321C414.503 63.8709 413.808 59.4409 412.493 55.1775L420.551 52.092L403.429 42.2433C397.162 38.111 388.773 38.1798 379.531 43.5105C360.15 54.7367 344.42 84.7649 344.42 110.633C344.407 113.497 344.624 116.358 345.067 119.187L342.643 120.565C330.246 127.686 320.301 146.736 320.301 163.265C320.301 172.343 323.359 178.817 328.166 181.613L346.073 191.958L349.034 176.806L375.123 161.736L461.681 111.79C469.037 107.562 474.988 96.239 475.084 86.4179L485.497 92.0103L488.693 85.8944Z" fill="#337F88"/>
<path opacity="0.1" d="M488.693 85.8944L470.786 75.5774C468.39 73.9796 465.194 73.9933 461.654 76.032L460.373 76.7758C460.728 74.266 460.907 71.7346 460.91 69.1998C460.94 65.8306 460.546 62.4709 459.739 59.1996L468.968 56.9544L451.254 46.72C446.392 43.9651 440.042 44.1717 433.1 48.1801C426.157 52.1884 419.477 59.6128 414.559 68.3321C414.503 63.8709 413.808 59.4409 412.493 55.1775L420.551 52.092L403.429 42.2433C397.162 38.111 388.773 38.1798 379.531 43.5105C360.15 54.7367 344.42 84.7649 344.42 110.633C344.407 113.497 344.624 116.358 345.067 119.187L342.643 120.565C330.246 127.686 320.301 146.736 320.301 163.265C320.301 172.343 323.359 178.817 328.166 181.613L346.073 191.958L349.034 176.806L375.123 161.736L461.681 111.79C469.037 107.562 474.988 96.239 475.084 86.4179L485.497 92.0103L488.693 85.8944Z" fill="white"/>
<path d="M451.311 46.7199C446.448 43.965 440.098 44.1716 433.156 48.18C429.774 50.1921 426.691 52.668 423.996 55.5355L446.848 68.8141L460.443 62.6431C460.264 61.4447 460.044 60.2877 459.768 59.1995L468.97 56.9543L451.311 46.7199Z" fill="#337F88"/>
<path d="M413.293 58.029C413.059 57.051 412.797 56.1006 412.494 55.1915L419.381 52.5881L420.18 51.858L403.5 42.2159C397.232 38.0836 388.844 38.1525 379.601 43.4832C370.799 48.566 362.769 57.5331 356.598 68.2772L384.367 84.2968L413.293 58.029Z" fill="#337F88"/>
<path d="M345.065 119.188L337.71 124.174C331.009 130.446 326.005 138.312 323.164 147.039L344.074 159.106L362.903 129.56L345.065 119.188Z" fill="#337F88"/>
<path opacity="0.4" d="M451.311 46.7199C446.448 43.965 440.098 44.1716 433.156 48.18C429.774 50.1921 426.691 52.668 423.996 55.5355L446.848 68.8141L460.443 62.6431C460.264 61.4447 460.044 60.2877 459.768 59.1995L468.97 56.9543L451.311 46.7199Z" fill="white"/>
<path opacity="0.4" d="M413.293 58.029C413.059 57.051 412.797 56.1006 412.494 55.1915L419.381 52.5881L420.18 51.858L403.5 42.2159C397.232 38.0836 388.844 38.1525 379.601 43.4832C370.799 48.566 362.769 57.5331 356.598 68.2772L384.367 84.2968L413.293 58.029Z" fill="white"/>
<path opacity="0.4" d="M345.065 119.188L337.71 124.174C331.009 130.446 326.005 138.312 323.164 147.039L344.074 159.106L362.903 129.56L345.065 119.188Z" fill="white"/>
<path d="M479.563 86.377L478.282 87.1208C478.636 84.6064 478.816 82.0704 478.819 79.5311C478.819 59.0761 466.422 49.6681 451.022 58.5251C443.901 62.6574 437.413 69.9579 432.495 78.6633C431.807 54.0209 416.366 42.9187 397.412 53.8693C378.059 65.0542 362.301 95.1237 362.301 120.951C362.273 123.832 362.476 126.711 362.907 129.56L360.483 130.937C348.086 138.059 338.141 157.109 338.141 173.638C338.141 190.098 348.141 198.019 360.483 190.884L392.977 172.137L479.563 122.122C486.973 117.852 492.965 106.377 492.965 96.515C492.965 86.6387 486.973 82.1069 479.563 86.377Z" fill="#337F88"/>
<path opacity="0.6" d="M479.563 86.377L478.282 87.1208C478.636 84.6064 478.816 82.0704 478.819 79.5311C478.819 59.0761 466.422 49.6681 451.022 58.5251C443.901 62.6574 437.413 69.9579 432.495 78.6633C431.807 54.0209 416.366 42.9187 397.412 53.8693C378.059 65.0542 362.301 95.1237 362.301 120.951C362.273 123.832 362.476 126.711 362.907 129.56L360.483 130.937C348.086 138.059 338.141 157.109 338.141 173.638C338.141 190.098 348.141 198.019 360.483 190.884L392.977 172.137L479.563 122.122C486.973 117.852 492.965 106.377 492.965 96.515C492.965 86.6387 486.973 82.1069 479.563 86.377Z" fill="white"/>
<path d="M215.601 191.075C215.326 189.077 213.714 188.32 211.786 189.463L105.929 250.58C104.81 251.312 103.879 252.296 103.212 253.454C102.544 254.613 102.158 255.912 102.086 257.247V490.847C102.086 493.12 103.546 494.139 105.447 493.313C104.299 493.798 103.059 494.028 101.813 493.988C100.567 493.948 99.3441 493.637 98.2295 493.079L93.8217 490.531C92.697 489.804 91.7608 488.821 91.0903 487.662C90.4198 486.503 90.0341 485.201 89.9648 483.864V250.277C90.0352 248.938 90.4213 247.635 91.0917 246.474C91.762 245.313 92.6975 244.327 93.8217 243.596L199.678 182.479C200.869 181.868 202.189 181.549 203.528 181.549C204.867 181.549 206.187 181.868 207.378 182.479L211.786 185.014C212.82 185.69 213.696 186.582 214.355 187.628C215.013 188.674 215.439 189.849 215.601 191.075Z" fill="#455A64"/>
<path d="M211.785 189.463L105.929 250.58C104.81 251.311 103.879 252.296 103.211 253.454C102.543 254.612 102.158 255.912 102.086 257.247V490.847C102.086 493.299 103.808 494.305 105.929 493.079L211.785 431.962C212.906 431.231 213.84 430.247 214.51 429.088C215.18 427.93 215.568 426.631 215.642 425.295V191.694C215.642 189.229 213.907 188.237 211.785 189.463ZM210.091 403.297C210.091 405.391 208.617 406.727 206.799 407.774L110.543 463.353C108.725 464.4 107.238 463.546 107.238 461.439V279.616C107.303 278.471 107.636 277.357 108.21 276.365C108.784 275.372 109.583 274.528 110.543 273.9L206.799 218.334C208.617 217.273 210.091 218.141 210.091 220.235V403.297Z" fill="#37474F"/>
<path d="M105.447 493.312C104.299 493.798 103.059 494.028 101.813 493.987C100.567 493.947 99.3441 493.637 98.2295 493.078L93.8217 490.53C92.6977 489.803 91.7622 488.819 91.0918 487.66C90.4214 486.501 90.0352 485.2 89.9648 483.863V250.276C90.0081 248.929 90.397 247.615 91.0943 246.461L103.216 253.458C102.522 254.604 102.134 255.908 102.086 257.246V490.847C102.086 493.12 103.546 494.139 105.447 493.312Z" fill="#263238"/>
<path d="M158.863 225.165C160.24 224.353 161.439 225.014 161.439 226.667C161.389 227.56 161.13 228.43 160.682 229.205C160.235 229.98 159.612 230.639 158.863 231.13C157.486 231.956 156.273 231.281 156.273 229.642C156.322 228.745 156.582 227.871 157.032 227.093C157.482 226.315 158.109 225.655 158.863 225.165Z" fill="black"/>
<path d="M157.061 457.101C156.383 457.111 155.716 456.935 155.132 456.592C154.405 456.095 153.825 455.413 153.452 454.616C153.079 453.819 152.927 452.936 153.011 452.06C153.134 449.834 153.779 447.667 154.894 445.736C156.009 443.805 157.563 442.164 159.43 440.944C160.148 440.436 160.988 440.128 161.865 440.053C162.741 439.978 163.622 440.138 164.416 440.517C165.145 441.011 165.727 441.693 166.1 442.491C166.474 443.289 166.625 444.172 166.537 445.049C166.416 447.276 165.772 449.443 164.657 451.374C163.542 453.306 161.987 454.947 160.119 456.165C159.199 456.741 158.145 457.064 157.061 457.101ZM162.488 441.399C161.646 441.435 160.829 441.691 160.119 442.142C158.452 443.23 157.065 444.694 156.069 446.417C155.073 448.14 154.498 450.073 154.388 452.06C154.228 452.698 154.28 453.371 154.536 453.978C154.793 454.584 155.239 455.09 155.809 455.42C156.378 455.75 157.04 455.885 157.693 455.806C158.346 455.727 158.956 455.437 159.43 454.98C161.098 453.891 162.485 452.424 163.481 450.699C164.476 448.973 165.052 447.038 165.16 445.049C165.243 444.421 165.159 443.783 164.918 443.198C164.676 442.613 164.284 442.101 163.783 441.715C163.391 441.487 162.941 441.377 162.488 441.399Z" fill="#E6E6E6"/>
<path d="M148.891 240.87L168.823 229.368C170.007 228.68 170.971 229.162 170.971 230.456C170.919 231.178 170.697 231.877 170.324 232.497C169.95 233.117 169.436 233.64 168.823 234.024L148.891 245.539C147.706 246.214 146.742 245.732 146.742 244.451C146.795 243.728 147.016 243.027 147.39 242.404C147.763 241.782 148.277 241.257 148.891 240.87Z" fill="black"/>
<path d="M210.092 403.297C210.092 405.391 208.618 406.727 206.8 407.774L110.544 463.354C108.726 464.401 107.238 463.547 107.238 461.439V279.617C107.304 278.472 107.637 277.358 108.211 276.365C108.785 275.372 109.584 274.528 110.544 273.9L206.8 218.334C208.618 217.274 210.092 218.141 210.092 220.235V403.297Z" fill="#337F88"/>
<path d="M196.688 331.658L191.454 329.178C199.14 304.109 191.343 295.844 177.789 294.742C183.12 298.021 185.834 311.616 181.426 324.467L176.192 321.988C175.172 321.506 173.437 323.365 173.437 324.95L173.023 349.137C173.023 350.253 173.809 350.639 174.773 349.978L195.669 335.514C197.101 334.481 197.707 332.154 196.688 331.658Z" fill="white"/>
<path opacity="0.8" d="M180.725 311.161C180.725 303.365 178.342 296.877 174.884 294.756C174.884 294.756 160.614 295.982 146.895 316.106C146.895 316.106 166.413 299.99 180.725 311.161Z" fill="white"/>
<path d="M122.64 349.949L127.875 352.442C120.188 377.512 127.999 385.776 141.539 386.878C136.208 383.6 133.494 370.018 137.902 357.153L143.137 359.646C144.156 360.128 145.891 358.269 145.891 356.685L146.305 332.483C146.305 331.381 145.52 330.995 144.555 331.656L123.66 346.12C122.227 347.194 121.621 349.481 122.64 349.949Z" fill="white"/>
<path opacity="0.8" d="M138.602 370.459C138.602 378.269 140.985 384.743 144.442 386.878C144.442 386.878 158.712 385.638 172.432 365.527C172.432 365.527 152.913 381.63 138.602 370.459Z" fill="white"/>
<path d="M294.872 311.586C294.805 310.371 294.452 309.188 293.842 308.135C293.231 307.082 292.381 306.188 291.359 305.525L288.522 303.886C287.437 303.336 286.239 303.049 285.023 303.049C283.807 303.049 282.608 303.336 281.524 303.886L258.962 316.889C257.943 317.555 257.095 318.45 256.485 319.502C255.875 320.555 255.52 321.736 255.449 322.95V348.997C255.517 350.215 255.87 351.399 256.481 352.454C257.091 353.509 257.941 354.406 258.962 355.072L261.799 356.711C262.036 356.848 262.285 356.963 262.543 357.056L262.846 357.152C263.011 357.152 263.177 357.276 263.356 357.317L263.769 357.4L264.21 357.469H264.706H265.064H265.918C266.135 357.459 266.351 357.436 266.565 357.4H266.73C266.963 357.364 267.193 357.314 267.419 357.248H267.516C267.965 357.122 268.399 356.946 268.81 356.725L291.359 343.708C292.382 343.044 293.233 342.147 293.843 341.092C294.454 340.036 294.806 338.851 294.872 337.634V311.586Z" fill="#337F88"/>
<path d="M294.872 311.571V337.55C294.808 338.768 294.456 339.953 293.845 341.009C293.235 342.064 292.383 342.961 291.36 343.624L268.811 356.641C268.541 356.795 268.254 356.92 267.957 357.013L267.723 357.082H267.489C266.222 357.233 265.312 356.311 265.312 354.616V328.638C265.377 327.423 265.727 326.241 266.335 325.188C266.943 324.134 267.792 323.24 268.811 322.577L291.36 309.546C293.123 308.541 294.569 309.188 294.817 310.924C294.817 310.745 294.817 310.566 294.721 310.373C294.815 310.766 294.866 311.167 294.872 311.571Z" fill="#337F88"/>
<path d="M269.512 327.661V350.789C269.512 351.16 269.76 351.298 270.063 351.119L290.104 339.562C290.266 339.453 290.401 339.308 290.499 339.138C290.597 338.969 290.655 338.779 290.669 338.584V315.512C290.669 315.154 290.408 315.016 290.104 315.195L270.063 326.752C269.91 326.854 269.781 326.988 269.686 327.145C269.591 327.303 269.531 327.479 269.512 327.661ZM288.796 338.805L271.371 348.86C271.054 349.039 270.807 348.86 270.807 348.543V328.419C270.816 328.223 270.873 328.032 270.971 327.862C271.069 327.692 271.206 327.548 271.371 327.441L288.796 317.386C289.113 317.206 289.361 317.386 289.361 317.702V337.827C289.351 338.023 289.294 338.214 289.196 338.384C289.098 338.554 288.961 338.698 288.796 338.805Z" fill="white"/>
<path opacity="0.4" d="M294.819 310.994C294.571 309.203 293.111 308.556 291.375 309.616L268.812 322.633C267.778 323.281 266.924 324.182 266.333 325.25L256.484 319.562C257.076 318.493 257.929 317.593 258.964 316.944L281.513 303.928C282.595 303.371 283.794 303.08 285.011 303.08C286.228 303.08 287.428 303.371 288.51 303.928L291.375 305.567C292.299 306.177 293.084 306.976 293.678 307.912C294.271 308.847 294.66 309.898 294.819 310.994Z" fill="white"/>
<path opacity="0.1" d="M268.178 357.014L267.958 357.096L267.448 357.248C267 357.389 266.538 357.481 266.071 357.523C265.841 357.538 265.611 357.538 265.382 357.523C264.159 357.548 262.949 357.259 261.87 356.683L259.032 355.044C258.012 354.377 257.162 353.48 256.552 352.425C255.942 351.37 255.588 350.186 255.52 348.97V322.936C255.537 322.191 255.682 321.455 255.947 320.76C256.054 320.468 256.178 320.183 256.318 319.906L256.553 319.479L266.401 325.167C265.772 326.214 265.421 327.404 265.382 328.625V354.658C265.382 356.353 266.277 357.276 267.558 357.138H267.779L268.178 357.014Z" fill="black"/>
<path d="M276.484 331.807V339.824C276.484 340.416 276.801 340.54 277.187 340.085L284.584 331.545C284.983 331.091 284.818 330.719 284.212 330.719H277.573C277.284 330.719 277.007 330.833 276.803 331.037C276.599 331.242 276.484 331.518 276.484 331.807Z" fill="white"/>
<path d="M294.873 146.623C294.807 145.408 294.454 144.225 293.843 143.172C293.233 142.119 292.382 141.225 291.361 140.563L288.523 138.923C287.439 138.373 286.241 138.086 285.025 138.086C283.809 138.086 282.61 138.373 281.526 138.923L258.977 151.94C257.959 152.606 257.111 153.5 256.501 154.553C255.891 155.606 255.536 156.786 255.465 158.001V184.048C255.532 185.264 255.884 186.446 256.495 187.5C257.105 188.553 257.956 189.447 258.977 190.109L261.815 191.762C262.052 191.899 262.301 192.014 262.559 192.106L262.862 192.203L263.371 192.368L263.785 192.437C263.93 192.473 264.077 192.5 264.225 192.52H264.721H265.079H265.933L266.581 192.451H266.746L267.435 192.299H267.531C267.981 192.173 268.415 191.997 268.826 191.776L291.375 178.745C292.396 178.083 293.247 177.189 293.857 176.136C294.468 175.082 294.821 173.9 294.887 172.684L294.873 146.623Z" fill="#337F88"/>
<path opacity="0.4" d="M294.819 146.085C294.571 144.295 293.111 143.647 291.375 144.708L268.812 157.725C267.778 158.373 266.924 159.273 266.333 160.342L256.484 154.653C257.076 153.585 257.929 152.684 258.964 152.036L281.513 139.019C282.597 138.469 283.795 138.182 285.011 138.182C286.227 138.182 287.426 138.469 288.51 139.019L291.375 140.658C292.299 141.269 293.084 142.068 293.678 143.003C294.271 143.939 294.66 144.989 294.819 146.085Z" fill="white"/>
<path d="M294.872 146.611V172.644C294.808 173.862 294.456 175.047 293.845 176.103C293.235 177.159 292.383 178.055 291.36 178.719L268.811 191.736C268.541 191.89 268.254 192.015 267.957 192.107H267.723H267.489C266.222 192.259 265.312 191.336 265.312 189.642V163.677C265.351 162.461 265.702 161.275 266.332 160.233C266.923 159.161 267.776 158.256 268.811 157.603L291.36 144.586C293.123 143.566 294.569 144.228 294.817 145.963C294.817 145.784 294.817 145.605 294.721 145.412C294.815 145.805 294.866 146.207 294.872 146.611Z" fill="#337F88"/>
<path d="M290.588 154.35C290.487 154.292 290.373 154.262 290.257 154.262C290.141 154.262 290.027 154.292 289.927 154.35L270.243 165.756C269.985 165.926 269.769 166.152 269.609 166.417L281.056 169.309L290.588 154.35Z" fill="white"/>
<path d="M281.373 171.597L269.596 166.542C269.409 166.834 269.304 167.172 269.293 167.52V180.867C269.293 181.487 269.72 181.735 270.243 181.418L289.9 170.013C290.178 169.829 290.409 169.583 290.574 169.293C290.739 169.003 290.834 168.679 290.85 168.346V154.999C290.861 154.884 290.842 154.768 290.796 154.662C290.751 154.556 290.679 154.464 290.588 154.393L281.373 171.597Z" fill="white"/>
<path opacity="0.1" d="M268.177 192.051L267.956 192.133L267.447 192.285C266.999 192.425 266.537 192.518 266.069 192.56C265.84 192.574 265.61 192.574 265.381 192.56C264.157 192.585 262.948 192.296 261.868 191.72L258.962 190.164C257.943 189.495 257.095 188.598 256.485 187.543C255.875 186.488 255.52 185.305 255.449 184.089V158C255.468 157.26 255.613 156.529 255.876 155.838C255.983 155.546 256.108 155.261 256.248 154.984L256.482 154.557L266.331 160.245C265.703 161.288 265.352 162.473 265.312 163.689V189.737C265.312 191.431 266.207 192.354 267.488 192.216H267.708L268.177 192.051Z" fill="black"/>
<path d="M294.877 201.612C294.811 200.396 294.458 199.214 293.847 198.16C293.237 197.107 292.386 196.213 291.365 195.551L288.527 193.912C287.443 193.361 286.245 193.074 285.029 193.074C283.813 193.074 282.614 193.361 281.53 193.912L258.981 206.928C257.963 207.594 257.115 208.489 256.505 209.541C255.895 210.594 255.54 211.775 255.469 212.989V239.037C255.535 240.252 255.888 241.435 256.499 242.488C257.109 243.541 257.96 244.435 258.981 245.097L261.819 246.75C262.056 246.887 262.305 247.002 262.563 247.095L262.866 247.191L263.375 247.356H263.788C263.934 247.392 264.081 247.42 264.229 247.439C264.395 247.439 264.56 247.439 264.725 247.439H265.083H265.937H266.585H266.75L267.439 247.288H267.535C267.985 247.161 268.419 246.986 268.83 246.764L291.379 233.734C292.4 233.071 293.251 232.177 293.861 231.124C294.472 230.071 294.824 228.888 294.891 227.673L294.877 201.612Z" fill="#337F88"/>
<path opacity="0.4" d="M294.823 201.019C294.575 199.229 293.114 198.581 291.379 199.642L268.816 212.659C267.779 213.304 266.925 214.205 266.337 215.276L256.488 209.587C257.076 208.516 257.93 207.615 258.968 206.97L281.516 193.953C282.599 193.396 283.798 193.105 285.015 193.105C286.232 193.105 287.432 193.396 288.514 193.953L291.379 195.592C292.303 196.203 293.088 197.002 293.682 197.937C294.275 198.873 294.664 199.923 294.823 201.019Z" fill="white"/>
<path d="M273.569 216.171V232.329C273.085 232.474 272.622 232.683 272.192 232.949C271.329 233.508 270.611 234.264 270.096 235.155C269.581 236.046 269.285 237.046 269.23 238.073C269.23 239.96 270.608 240.717 272.192 239.781C273.146 239.168 273.96 238.361 274.58 237.411C275.199 236.461 275.611 235.391 275.787 234.271V219.464L285.278 214.05V225.648C284.793 225.794 284.33 226.002 283.9 226.268C283.118 226.787 282.484 227.5 282.061 228.338C281.638 229.176 281.441 230.11 281.49 231.048C281.49 232.935 282.867 233.706 284.437 232.756C285.299 232.198 286.016 231.444 286.531 230.556C287.045 229.667 287.343 228.67 287.399 227.646V208.361L273.569 216.171Z" fill="white"/>
<path opacity="0.1" d="M268.182 247.039L267.962 247.122L267.452 247.273C267.004 247.414 266.542 247.506 266.075 247.549C265.845 247.563 265.615 247.563 265.386 247.549C264.163 247.573 262.953 247.284 261.873 246.708L259.036 245.069C258.017 244.401 257.169 243.503 256.559 242.449C255.949 241.394 255.595 240.211 255.523 238.995V212.989C255.543 212.249 255.687 211.518 255.95 210.826C256.058 210.534 256.182 210.249 256.322 209.972L256.557 209.545L266.405 215.234C265.777 216.276 265.427 217.461 265.386 218.677V244.725C265.386 246.419 266.281 247.342 267.562 247.204H267.783L268.182 247.039Z" fill="black"/>
<path d="M294.877 256.598C294.811 255.382 294.458 254.2 293.847 253.147C293.237 252.093 292.386 251.199 291.365 250.537L288.527 248.898C287.443 248.347 286.245 248.061 285.029 248.061C283.813 248.061 282.614 248.347 281.53 248.898L258.981 261.915C257.963 262.58 257.115 263.475 256.505 264.528C255.895 265.58 255.54 266.761 255.469 267.976V294.023C255.535 295.238 255.888 296.421 256.499 297.474C257.109 298.527 257.96 299.422 258.981 300.084L261.819 301.737C262.056 301.873 262.305 301.989 262.563 302.081L262.866 302.177L263.375 302.343L263.788 302.412C263.934 302.447 264.081 302.475 264.229 302.494H264.725H265.083H265.937L266.585 302.425H266.75L267.439 302.274H267.535C267.985 302.147 268.419 301.972 268.83 301.75L291.379 288.72C292.4 288.058 293.251 287.164 293.861 286.11C294.472 285.057 294.824 283.875 294.891 282.659L294.877 256.598Z" fill="#337F88"/>
<path opacity="0.4" d="M294.823 256.006C294.575 254.215 293.114 253.568 291.379 254.628L268.816 267.645C267.781 268.293 266.928 269.194 266.337 270.262L256.488 264.546C257.08 263.478 257.933 262.577 258.968 261.929L281.516 248.912C282.599 248.355 283.798 248.064 285.015 248.064C286.232 248.064 287.432 248.355 288.514 248.912L291.379 250.551C292.306 251.165 293.093 251.968 293.687 252.909C294.28 253.849 294.668 254.905 294.823 256.006Z" fill="white"/>
<path d="M294.876 256.584V282.632C294.811 283.849 294.458 285.034 293.848 286.09C293.237 287.145 292.386 288.042 291.364 288.706L268.815 301.737C268.544 301.887 268.258 302.007 267.961 302.095L267.727 302.164H267.493C266.226 302.301 265.316 301.379 265.316 299.684V273.651C265.355 272.43 265.706 271.24 266.336 270.193C266.931 269.128 267.784 268.228 268.815 267.576L291.364 254.559C293.127 253.54 294.573 254.187 294.821 255.937C294.821 255.758 294.821 255.565 294.725 255.386C294.819 255.778 294.87 256.18 294.876 256.584Z" fill="#337F88"/>
<path d="M269.52 272.038V296.46L290.677 284.242V259.82L269.52 272.038ZM289.368 283.499L270.814 294.201V272.81L289.368 262.093V283.499Z" fill="white"/>
<path d="M270.812 294.202V288.003L277.369 277.618L284.187 282.246L282.135 279.973L284.752 276.516L289.367 279.202V283.499L270.812 294.202Z" fill="white"/>
<path d="M284.931 268.678C285.758 268.196 286.433 268.582 286.433 269.546C286.402 270.067 286.251 270.574 285.99 271.026C285.73 271.478 285.367 271.863 284.931 272.149C284.105 272.618 283.43 272.232 283.43 271.282C283.458 270.76 283.608 270.253 283.869 269.8C284.13 269.348 284.494 268.964 284.931 268.678Z" fill="white"/>
<path opacity="0.1" d="M268.183 302.025L267.962 302.108L267.452 302.259C267.004 302.4 266.543 302.492 266.075 302.535C265.846 302.549 265.616 302.549 265.386 302.535C264.163 302.559 262.954 302.27 261.874 301.695L259.036 300.055C258.013 299.397 257.157 298.509 256.538 297.462C255.918 296.414 255.552 295.236 255.469 294.022V267.975C255.488 267.235 255.632 266.504 255.896 265.812C256.003 265.521 256.127 265.235 256.268 264.958L256.502 264.531L266.351 270.22C265.723 271.262 265.372 272.448 265.331 273.664V299.711C265.331 301.405 266.227 302.328 267.508 302.191H267.728L268.183 302.025Z" fill="black"/>
<path d="M294.872 366.575C294.805 365.359 294.452 364.176 293.842 363.123C293.231 362.07 292.381 361.176 291.359 360.514L288.508 358.861C287.424 358.31 286.225 358.023 285.009 358.023C283.793 358.023 282.595 358.31 281.51 358.861L258.962 371.891C257.921 372.532 257.066 373.435 256.482 374.509C255.849 375.549 255.493 376.735 255.449 377.952V404C255.516 405.215 255.869 406.398 256.479 407.451C257.09 408.504 257.94 409.398 258.962 410.06L261.799 411.7C262.039 411.835 262.287 411.955 262.543 412.058L262.846 412.154L263.356 412.306C263.493 412.306 263.631 412.306 263.769 412.388L264.21 412.457H264.706H265.918L266.565 412.388H266.73L267.419 412.251H267.516C267.968 412.126 268.403 411.945 268.81 411.713L291.359 398.697C292.381 398.034 293.231 397.14 293.842 396.087C294.452 395.034 294.805 393.851 294.872 392.636V366.575Z" fill="#337F88"/>
<path opacity="0.4" d="M294.819 365.982C294.571 364.191 293.111 363.544 291.375 364.604L268.812 377.635C267.772 378.276 266.917 379.178 266.333 380.252L256.484 374.563C257.068 373.489 257.923 372.587 258.964 371.946L281.513 358.916C282.597 358.365 283.795 358.078 285.011 358.078C286.227 358.078 287.426 358.365 288.51 358.916L291.375 360.568C292.299 361.176 293.084 361.973 293.677 362.906C294.271 363.839 294.66 364.887 294.819 365.982Z" fill="white"/>
<path d="M294.872 366.559V392.648C294.806 393.864 294.453 395.046 293.842 396.1C293.232 397.153 292.381 398.047 291.36 398.709L268.811 411.726C268.541 411.88 268.254 412.005 267.957 412.098L267.723 412.167H267.489C266.222 412.304 265.312 411.381 265.312 409.687V383.626C265.377 382.412 265.727 381.229 266.335 380.176C266.943 379.123 267.792 378.228 268.811 377.565L291.36 364.535C293.123 363.529 294.569 364.177 294.817 365.912C294.817 365.733 294.817 365.554 294.721 365.361C294.815 365.754 294.866 366.156 294.872 366.559Z" fill="#337F88"/>
<path d="M279.856 375.611C282.611 373.999 284.953 375.308 284.953 378.559C284.856 380.324 284.344 382.041 283.458 383.57C282.573 385.099 281.339 386.398 279.856 387.361C277.101 388.986 274.773 387.677 274.773 384.427C274.87 382.662 275.38 380.944 276.263 379.412C277.146 377.881 278.377 376.579 279.856 375.611Z" fill="white"/>
<path d="M289.898 392.966C289.898 387.636 286.151 385.266 281.537 387.939L278.658 389.605C276.224 391.191 274.199 393.328 272.746 395.844C271.293 398.359 270.454 401.182 270.297 404.082V405.46L289.898 394.206V392.966Z" fill="white"/>
<path opacity="0.1" d="M268.178 411.933C268.111 411.975 268.036 412.003 267.958 412.016L267.448 412.181C266.998 412.315 266.537 412.407 266.071 412.456H265.382C264.161 412.479 262.953 412.194 261.87 411.63L259.032 409.977C258.012 409.313 257.163 408.419 256.552 407.366C255.942 406.313 255.588 405.131 255.52 403.916V377.951C255.539 377.207 255.683 376.471 255.947 375.775C256.057 375.486 256.181 375.197 256.318 374.921L256.553 374.508L266.401 380.197C265.772 381.238 265.421 382.424 265.382 383.64V409.688C265.382 411.382 266.277 412.305 267.558 412.167H267.779C267.921 412.105 268.055 412.026 268.178 411.933Z" fill="black"/>
<path d="M569.439 252.151H571.229C578.043 252.151 584.577 249.445 589.395 244.627C594.212 239.81 596.919 233.275 596.919 226.462C596.926 222.966 596.244 219.502 594.911 216.27C593.579 213.037 591.622 210.099 589.153 207.623C586.683 205.148 583.751 203.183 580.521 201.842C577.292 200.502 573.831 199.81 570.334 199.809C563.791 199.809 557.516 202.408 552.89 207.034C548.263 211.661 545.664 217.936 545.664 224.479V228.322C545.657 231.448 546.266 234.546 547.458 237.437C548.65 240.328 550.4 242.955 552.608 245.169C554.816 247.382 557.44 249.138 560.328 250.336C563.216 251.535 566.312 252.151 569.439 252.151Z" fill="#263238"/>
<path d="M613.449 270.608C608.253 270.608 603.269 268.545 599.594 264.872C595.918 261.199 593.851 256.217 593.848 251.021V226.709C599.046 226.709 604.032 228.774 607.708 232.45C611.384 236.126 613.449 241.111 613.449 246.31V270.608Z" fill="#263238"/>
<path d="M525.704 326.133C524.161 329.26 519.533 333.819 514.092 327.938C506.144 319.356 493.059 288.86 493.059 288.86L501.668 284.879L519.202 308.833L525.704 326.133Z" fill="#FFA8A7"/>
<path d="M541.048 272.813C534.23 283.199 516.777 314.632 516.777 314.632L523.871 328.724C523.871 328.724 532.356 317.208 536.819 310.886C541.985 303.585 550.745 289.535 550.745 289.535C550.745 289.535 549.712 268.557 554.037 264.893C556.373 262.825 559.073 261.209 561.999 260.127C555.125 260.416 548.279 261.711 541.048 272.813Z" fill="#FFA8A7"/>
<path d="M508.611 269.576C506.324 265.32 505.759 265.127 504.478 264.19C503.197 263.253 494.767 262.014 491.31 261.724C487.246 261.38 485.8 262.124 486.93 265.636C489.354 273.13 496.696 289.053 498.349 291.229C499.423 292.607 499.643 293.984 504.217 294.466C508.5 294.88 513.859 295.114 515.443 295.21C517.027 295.307 519.203 295.692 517.784 291.078C515.964 285.797 513.858 280.62 511.476 275.568C509.712 271.794 508.611 269.576 508.611 269.576Z" fill="#263238"/>
<path d="M493.059 288.859C491.351 281.338 486.351 274.396 489.175 271.848L490.69 275.181C490.69 275.181 500.057 277.426 504.575 277.082C509.093 276.738 512.839 275.704 514.024 276.531C516.655 278.377 517.399 286.256 509.892 289.121C503.5 291.545 493.059 288.859 493.059 288.859Z" fill="#FFA8A7"/>
<path d="M587.524 516.743V515.035C586.849 517.033 583.722 525.669 578.97 529.994C575.21 533.438 570.058 537.405 568.749 541.234C567.441 545.064 575.912 546.565 579.438 545.945C583.571 545.215 588.819 542.901 591.711 539.361C593.736 536.868 595.017 533.92 596.464 531.95C597.91 529.981 601.257 527.818 601.973 525.545C602.414 524.305 601.904 521.578 601.298 519.278C600.692 516.977 600.141 514.829 599.425 515.035C599.425 515.297 599.425 516.33 599.425 516.33C597.724 517.672 595.613 518.387 593.447 518.355C591.753 518.424 587.51 518.079 587.524 516.743Z" fill="#263238"/>
<path d="M575.566 533.025C576.736 531.978 577.907 530.959 578.968 529.981C582.287 526.965 584.808 521.84 586.268 518.342C587.095 516.346 587.521 514.207 587.522 512.047V505.229H599.478V516.331V516.62H599.409C598.831 519.113 593.348 525.711 590.235 530.022C588.142 532.915 584.175 536.593 579.436 537.226C574.932 537.846 572.645 536.428 575.566 533.025Z" fill="#FFA8A7"/>
<path d="M540.899 504.955V503.247C540.224 505.258 537.097 513.894 532.359 518.219C528.585 521.649 523.433 525.63 522.124 529.459C520.816 533.289 529.287 534.79 532.813 534.17C536.946 533.44 542.194 531.112 545.086 527.572C547.111 525.079 548.392 522.131 549.839 520.175C551.285 518.219 554.632 516.043 555.417 513.77C555.844 512.517 555.335 509.789 554.728 507.489C554.122 505.189 553.571 503.054 552.855 503.247C552.855 503.508 552.855 504.555 552.855 504.555C551.151 505.891 549.042 506.606 546.877 506.58C545.128 506.635 540.885 506.291 540.899 504.955Z" fill="#263238"/>
<path d="M528.942 521.234L532.358 518.204C535.664 515.173 538.185 510.049 539.645 506.551C540.472 504.56 540.898 502.425 540.899 500.27V493.451H552.855V504.54V504.843C552.276 507.322 546.794 513.934 543.681 518.245C541.587 521.124 537.62 524.802 532.882 525.435C528.309 526.069 526.022 524.65 528.942 521.234Z" fill="#FFA8A7"/>
<path d="M597.07 330.968C606.34 351.216 596.739 422.512 596.739 422.512C597.015 425.791 600.761 432.265 602.166 446.714C603.819 463.794 599.577 506.688 599.577 506.688C597.754 507.743 595.701 508.338 593.596 508.422C591.491 508.506 589.398 508.076 587.497 507.17C587.497 507.17 576.105 442.568 573.956 425.584C572.083 410.763 568.447 378.173 568.447 378.173L558.253 425.501C559.743 430.277 560.821 435.171 561.477 440.13C562.441 450.13 552.771 496.605 552.771 496.605C552.771 496.605 548.639 498.12 540.815 496.963C540.815 496.963 537.385 435.24 536.49 423.215C534.975 403.008 540.333 339.948 544.052 327.979L597.07 330.968Z" fill="#337F88"/>
<path opacity="0.1" d="M568.531 378.175L565.515 359.386C565.515 359.386 552.787 356.742 547.016 351.314C547.016 351.314 553.076 358.849 562.071 361.315L565.391 375.792L559.495 419.622L568.531 378.175Z" fill="black"/>
<path d="M580.747 260.651C592.634 261.478 593.461 267.208 596.436 273.489C598.609 278.327 598.812 283.821 597.001 288.806L588.736 312.746C588.736 312.746 592.606 322.127 597.111 330.97C576.325 342.568 550.388 336.48 544.148 328.008C543.873 326.218 541.848 288.062 543.39 281.96C546.256 270.693 557.385 259.715 562.303 260.114L580.747 260.651Z" fill="#37474F"/>
<path d="M599.604 222.164L594.824 228.184C595.202 228.518 595.644 228.771 596.123 228.929C596.602 229.087 597.108 229.146 597.611 229.102C598.113 229.059 598.602 228.913 599.046 228.675C599.491 228.436 599.882 228.11 600.196 227.715C600.832 226.892 601.125 225.855 601.015 224.821C600.904 223.786 600.399 222.835 599.604 222.164Z" fill="#263238"/>
<path d="M552.372 214.133C550.994 214.822 547.496 221.585 547.84 236.392C548.129 248.941 552.193 252.04 554.245 252.922C556.298 253.803 560.223 253.28 564.053 252.632V260.167C564.053 260.167 558.763 266.324 559.094 269.809C559.424 273.294 566.739 274.079 571.697 270.704C574.904 268.394 577.659 265.513 579.824 262.206V243.968C579.824 243.968 582.4 247.412 586.629 244.616C590.858 241.819 591.023 234.85 588.571 232.356C586.119 229.863 580.802 230.648 579.824 234.092C579.824 234.092 573.612 235.194 565.292 229.836C556.311 224.05 553.543 219.45 552.372 214.133Z" fill="#FFA8A7"/>
<path d="M550.32 228.156L553.832 226.489C553.734 226.255 553.589 226.044 553.407 225.868C553.225 225.692 553.009 225.554 552.772 225.464C552.535 225.374 552.282 225.333 552.029 225.343C551.775 225.354 551.527 225.416 551.298 225.525C550.829 225.755 550.466 226.156 550.284 226.645C550.102 227.135 550.115 227.675 550.32 228.156Z" fill="#263238"/>
<path d="M564.836 227.054L568.114 229.121C568.261 228.913 568.365 228.678 568.417 228.43C568.47 228.181 568.472 227.924 568.421 227.675C568.371 227.426 568.27 227.19 568.125 226.981C567.98 226.772 567.793 226.596 567.577 226.462C567.131 226.191 566.598 226.102 566.088 226.212C565.579 226.322 565.13 226.624 564.836 227.054Z" fill="#263238"/>
<path d="M579.961 230.637L579.741 238.323C579.236 238.334 578.734 238.243 578.266 238.054C577.798 237.865 577.373 237.583 577.017 237.225C576.662 236.867 576.383 236.44 576.197 235.97C576.012 235.501 575.924 234.998 575.939 234.494C575.985 233.457 576.429 232.478 577.178 231.76C577.927 231.041 578.924 230.639 579.961 230.637Z" fill="#263238"/>
<path d="M563.251 232.756C563.223 232.973 563.241 233.194 563.302 233.403C563.363 233.613 563.468 233.808 563.608 233.976C563.749 234.143 563.922 234.28 564.118 234.377C564.314 234.475 564.528 234.53 564.746 234.541C564.965 234.551 565.183 234.516 565.387 234.438C565.592 234.36 565.778 234.241 565.933 234.088C566.089 233.934 566.212 233.75 566.293 233.547C566.374 233.344 566.413 233.126 566.406 232.908C566.421 232.698 566.394 232.487 566.327 232.287C566.26 232.088 566.155 231.903 566.017 231.745C565.878 231.586 565.71 231.456 565.522 231.363C565.333 231.269 565.128 231.214 564.918 231.2C564.491 231.189 564.078 231.345 563.766 231.637C563.454 231.928 563.269 232.33 563.251 232.756Z" fill="#263238"/>
<path d="M561.434 243.887L557.77 245.058C557.828 245.309 557.938 245.545 558.091 245.752C558.245 245.96 558.439 246.133 558.663 246.262C558.886 246.391 559.134 246.473 559.39 246.503C559.646 246.533 559.906 246.51 560.153 246.435C560.404 246.352 560.637 246.221 560.838 246.048C561.039 245.875 561.204 245.664 561.323 245.427C561.442 245.19 561.513 244.932 561.532 244.668C561.551 244.404 561.518 244.138 561.434 243.887Z" fill="#F28F8F"/>
<path d="M551.048 232.11C551.02 232.327 551.038 232.548 551.1 232.758C551.162 232.968 551.267 233.163 551.408 233.33C551.549 233.497 551.724 233.634 551.92 233.73C552.117 233.827 552.331 233.882 552.55 233.891C552.769 233.901 552.987 233.865 553.192 233.786C553.396 233.707 553.581 233.586 553.737 233.432C553.892 233.277 554.013 233.092 554.094 232.888C554.174 232.684 554.211 232.466 554.202 232.247C554.217 232.037 554.19 231.827 554.124 231.627C554.057 231.427 553.951 231.243 553.813 231.084C553.675 230.925 553.507 230.796 553.318 230.702C553.13 230.609 552.924 230.553 552.714 230.539C552.287 230.532 551.873 230.692 551.561 230.985C551.25 231.279 551.066 231.682 551.048 232.11Z" fill="#263238"/>
<path d="M558.764 231.199L558.516 240.704L553.516 239.147L558.764 231.199Z" fill="#F28F8F"/>
<path d="M564.012 252.648C568.048 252.124 576.409 249.741 577.648 246.449C577.12 248.089 576.107 249.53 574.742 250.582C572.249 252.703 564.012 255.1 564.012 255.1V252.648Z" fill="#F28F8F"/>
<path d="M575.429 333.214C577.056 332.841 578.593 332.147 579.948 331.172C581.304 330.197 582.451 328.961 583.322 327.537C584.193 326.112 584.771 324.528 585.022 322.878C585.272 321.227 585.191 319.543 584.782 317.924C584.727 317.704 584.658 317.488 584.575 317.277C584.274 316.417 583.698 315.681 582.936 315.183C582.173 314.685 581.268 314.453 580.36 314.522C581.695 313.64 582.842 312.501 583.733 311.172C584.625 309.843 585.243 308.351 585.553 306.781L588.088 291.767C588.389 289.324 588.168 286.845 587.44 284.494L595.801 274.852C595.801 274.852 596.394 275.279 597.344 275.926C598.602 280.17 598.481 284.703 597 288.874L588.735 312.814C588.735 312.814 592.606 322.194 597.11 331.037C590.35 334.672 582.89 336.815 575.232 337.323C567.574 337.832 559.896 336.694 552.715 333.985C560.267 335.163 567.974 334.901 575.429 333.214Z" fill="#263238"/>
<path d="M618.365 320.28C607.58 276.202 599.591 261.477 586.491 261.656C582.676 266.229 583.736 280.031 589.77 288.42C589.77 288.42 603.255 316.85 605.404 326.988C607.291 335.873 609.426 347.044 609.288 354.675C609.256 356.028 608.726 357.323 607.8 358.311C605.335 360.983 605.321 363.132 603.668 366.08C602.415 368.394 601.051 369.248 601.437 369.771C601.948 370.326 602.65 370.665 603.402 370.721C604.153 370.778 604.898 370.546 605.486 370.074C606.639 369.24 607.668 368.248 608.544 367.127C608.124 369.954 607.308 372.709 606.12 375.309C603.365 381.549 604.026 384.73 612.442 382.513C617.718 381.135 621.038 376.727 621.823 364.041C622.212 359.372 622.258 354.681 621.96 350.005C620.914 337.939 620.101 327.374 618.365 320.28Z" fill="#FFA8A7"/>
</svg>
