<svg width="608" height="609" viewBox="0 0 608 609" fill="none" xmlns="http://www.w3.org/2000/svg">
<path d="M302.846 544.488C444.912 544.488 560.079 472.015 560.079 382.614C560.079 293.214 444.912 220.74 302.846 220.74C160.78 220.74 45.6133 293.214 45.6133 382.614C45.6133 472.015 160.78 544.488 302.846 544.488Z" fill="#F5F5F5"/>
<path d="M392.344 509.017C423.673 509.017 449.07 494.356 449.07 476.27C449.07 458.185 423.673 443.523 392.344 443.523C361.014 443.523 335.617 458.185 335.617 476.27C335.617 494.356 361.014 509.017 392.344 509.017Z" fill="#E0E0E0"/>
<path opacity="0.3" d="M74.1735 239.928L74.3924 240.05L74.1127 239.904L73.5898 239.6L74.1735 239.928Z" fill="black"/>
<path d="M70.1735 236.888C70.131 237.031 70.131 237.183 70.1735 237.326C70.1244 237.184 70.1244 237.03 70.1735 236.888Z" fill="#337F88"/>
<path opacity="0.4" d="M70.1735 236.888C70.131 237.031 70.131 237.183 70.1735 237.326C70.1244 237.184 70.1244 237.03 70.1735 236.888Z" fill="white"/>
<path d="M149.774 198.317L134.83 189.659C134.778 189.618 134.721 189.585 134.659 189.561C134.571 189.522 134.476 189.502 134.38 189.501L133.164 188.856L131.571 187.92L125.126 184.187L124.129 183.615C122.913 182.91 122.147 182.472 122.098 182.399C121.873 182.273 121.613 182.222 121.356 182.253L113.829 183.007C113.372 183.075 112.947 183.283 112.613 183.603C112.441 183.751 112.307 183.939 112.224 184.15L108.138 195.094C108.138 195.094 108.138 195.094 108.138 195.167L108.029 195.374C107.989 195.455 107.935 195.529 107.871 195.593C107.784 195.704 107.691 195.809 107.591 195.909C107.357 196.145 107.096 196.353 106.813 196.529L106.533 196.687C105.702 197.051 104.891 197.457 104.101 197.903L96.2094 193.319C96.1043 193.264 95.9875 193.234 95.8689 193.234C95.6996 193.243 95.5343 193.289 95.3836 193.366C95.2328 193.444 95.0999 193.552 94.9934 193.684L90.0564 198.912L86.7367 202.414C86.4648 202.709 86.265 203.063 86.153 203.448C86.0766 203.702 86.0766 203.972 86.153 204.226L88.4634 212.009C88.4825 212.101 88.4825 212.196 88.4634 212.288C88.4987 212.449 88.4987 212.615 88.4634 212.775C88.4508 212.886 88.4263 212.997 88.3905 213.103C88.3905 213.103 88.3905 213.164 88.3905 213.176C88.3994 213.216 88.3994 213.258 88.3905 213.298C88.373 213.384 88.34 213.466 88.2932 213.541C88.2472 213.665 88.186 213.784 88.1108 213.893C86.7069 216.011 85.4397 218.217 84.3169 220.496C84.2712 220.588 84.2094 220.67 84.1345 220.74C84.0646 220.835 83.9873 220.924 83.9034 221.007C83.5265 221.4 83.0458 221.678 82.5172 221.81L75.3914 223.597C74.8569 223.724 74.3812 224.029 74.0417 224.461C73.9292 224.598 73.8426 224.754 73.7863 224.923L73.3486 226.418L71.026 234.237L70.2356 236.912C70.2012 237.023 70.1911 237.141 70.2057 237.256C70.2204 237.371 70.2596 237.482 70.3207 237.581C70.3684 237.657 70.4303 237.723 70.5031 237.776L70.6247 237.861L71.8407 238.542L72.169 238.736L73.1175 239.284L73.6282 239.588L74.2119 239.916L74.4308 240.037L75.051 240.402L78.4922 242.384C78.4812 243.456 78.5258 244.528 78.626 245.595C78.6367 245.893 78.587 246.191 78.4801 246.47C78.3595 246.84 78.1742 247.186 77.9329 247.492L70.722 256.222C70.5062 256.48 70.3523 256.784 70.2721 257.11C70.2721 257.195 70.2721 257.293 70.2721 257.378C70.2084 257.584 70.2084 257.804 70.2721 258.01L73.7012 265.586C73.7278 265.638 73.7605 265.687 73.7985 265.732C73.8306 265.773 73.8723 265.807 73.9201 265.829L79.0394 268.845C79.4772 269.088 79.9271 269.367 80.3892 269.635L85.3748 272.517L85.9585 272.857L89.0593 274.645C88.9701 274.587 88.9019 274.501 88.8647 274.402L85.4478 266.85C85.343 266.555 85.343 266.233 85.4478 265.938C85.5349 265.615 85.6881 265.312 85.8977 265.051L93.0721 256.344C93.3235 256.037 93.5171 255.687 93.6436 255.31C93.7471 255.031 93.7926 254.733 93.7774 254.435C93.5887 252.372 93.5887 250.296 93.7774 248.233C93.7791 248.092 93.7521 247.951 93.698 247.821C93.6439 247.69 93.5639 247.572 93.4627 247.473C93.3615 247.374 93.2413 247.296 93.1094 247.245C92.9775 247.194 92.8365 247.17 92.6951 247.175L86.226 246.811C86.0467 246.803 85.8717 246.753 85.7153 246.665C85.5664 246.574 85.4528 246.436 85.3931 246.272C85.3335 246.109 85.3313 245.93 85.387 245.765L88.5121 235.234L88.9498 233.775C89.0114 233.587 89.1107 233.413 89.2417 233.264C89.5836 232.868 90.037 232.584 90.5428 232.45L97.6199 230.747C98.1544 230.593 98.6403 230.304 99.0305 229.908C99.1816 229.763 99.3088 229.595 99.4074 229.41C100.544 227.139 101.815 224.938 103.214 222.819C103.526 222.334 103.683 221.766 103.663 221.189C103.676 221.113 103.676 221.035 103.663 220.958L101.365 213.176C101.308 212.887 101.333 212.588 101.438 212.313C101.557 211.958 101.752 211.634 102.01 211.364L102.119 211.243L110.266 202.633C110.397 202.463 110.575 202.334 110.778 202.262C110.981 202.191 111.2 202.181 111.409 202.232H111.47C111.548 202.272 111.615 202.33 111.665 202.402L115.507 208.288C115.787 208.713 116.492 208.677 117.125 208.288C118.602 207.268 120.16 206.37 121.782 205.6C122.471 205.276 123.038 204.739 123.399 204.068L127.485 193.124C127.572 192.905 127.709 192.709 127.886 192.553C128.218 192.234 128.645 192.033 129.102 191.981L136.629 191.227C136.852 191.202 137.077 191.231 137.286 191.312C137.418 191.386 137.521 191.501 137.581 191.639C137.64 191.778 137.652 191.932 137.614 192.078L135.182 202.828C135.13 203.11 135.18 203.402 135.322 203.651C135.465 203.9 135.691 204.091 135.96 204.19C137.149 204.648 138.257 205.292 139.244 206.099C139.517 206.249 139.833 206.302 140.14 206.249C140.447 206.196 140.727 206.04 140.934 205.807L148.619 198.791C148.744 198.607 148.92 198.464 149.125 198.38C149.331 198.295 149.556 198.273 149.774 198.317Z" fill="#337F88"/>
<path d="M145.287 221.811C145.287 222.796 145.287 223.793 145.141 224.826C145.141 224.967 145.169 225.107 145.223 225.237C145.278 225.367 145.358 225.484 145.459 225.583C145.56 225.682 145.679 225.759 145.811 225.811C145.942 225.862 146.082 225.887 146.223 225.884L152.68 226.249C152.845 226.245 153.008 226.282 153.154 226.358L145.287 221.811Z" fill="#337F88"/>
<path d="M123.472 264.783C123.205 264.357 122.5 264.382 121.867 264.783C121.235 265.184 120.347 265.768 119.605 266.218L127.522 270.814C127.443 270.78 127.376 270.726 127.327 270.656L123.472 264.783Z" fill="#337F88"/>
<path d="M102.873 268.93C101.677 268.479 100.564 267.834 99.5772 267.021C99.3072 266.867 98.992 266.812 98.6857 266.865C98.3795 266.919 98.1014 267.077 97.8992 267.313L90.214 274.342C89.9871 274.562 89.6902 274.695 89.375 274.718L101.535 281.796C101.411 281.724 101.314 281.614 101.257 281.483C101.2 281.352 101.187 281.205 101.219 281.066L103.651 270.28C103.7 270 103.649 269.711 103.506 269.464C103.364 269.218 103.14 269.029 102.873 268.93Z" fill="#337F88"/>
<path d="M125.248 249.304C122.645 252.268 119.281 254.463 115.52 255.652L115.107 255.749L114.815 255.822L114.146 255.931L113.368 256.004H112.65C111.127 256.018 109.636 255.571 108.371 254.723C107.106 253.874 106.127 252.664 105.561 251.25C105.012 249.994 104.663 248.661 104.527 247.298C105.111 247.03 105.743 246.714 106.315 246.374C114.669 241.51 121.43 229.836 121.43 220.193C121.43 219.464 121.43 218.77 121.345 218.138C123.012 217.351 124.84 216.964 126.683 217.007H127.011H127.279H127.571C128.88 217.198 130.117 217.73 131.156 218.55C132.195 219.369 133.001 220.448 133.492 221.677C136.618 228.839 132.957 241.169 125.248 249.304Z" fill="#337F88"/>
<path opacity="0.4" d="M125.248 249.304C122.645 252.268 119.281 254.463 115.52 255.652L115.107 255.749L114.815 255.822L114.146 255.931L113.368 256.004H112.65C111.127 256.018 109.636 255.571 108.371 254.723C107.106 253.874 106.127 252.664 105.561 251.25C105.012 249.994 104.663 248.661 104.527 247.298C105.111 247.03 105.743 246.714 106.315 246.374C114.669 241.51 121.43 229.836 121.43 220.193C121.43 219.464 121.43 218.77 121.345 218.138C123.012 217.351 124.84 216.964 126.683 217.007H127.011H127.279H127.571C128.88 217.198 130.117 217.73 131.156 218.55C132.195 219.369 133.001 220.448 133.492 221.677C136.618 228.839 132.957 241.169 125.248 249.304Z" fill="black"/>
<path d="M153.214 226.381C153.071 226.305 152.913 226.264 152.752 226.26L146.295 225.895C146.154 225.9 146.014 225.877 145.883 225.826C145.752 225.776 145.633 225.7 145.532 225.602C145.431 225.504 145.35 225.387 145.295 225.258C145.241 225.129 145.212 224.99 145.213 224.849C145.298 223.828 145.346 222.819 145.358 221.834C145.372 220.762 145.323 219.69 145.213 218.623C145.237 217.926 145.489 217.255 145.93 216.714L153.129 207.996C153.343 207.757 153.496 207.469 153.572 207.157C153.649 206.845 153.647 206.519 153.566 206.208L150.149 198.632C150.104 198.534 150.027 198.452 149.931 198.401C149.651 198.255 149.225 198.401 148.824 198.742L141.054 205.722C140.849 205.954 140.57 206.108 140.264 206.159C139.959 206.21 139.645 206.154 139.376 206.001C138.388 205.197 137.28 204.553 136.093 204.092C135.825 203.994 135.601 203.805 135.459 203.558C135.317 203.312 135.265 203.023 135.314 202.742L137.746 191.969C137.783 191.824 137.771 191.672 137.712 191.535C137.652 191.399 137.549 191.286 137.418 191.215C137.197 191.102 136.948 191.056 136.701 191.081L129.186 191.835C128.829 191.879 128.49 192.015 128.2 192.228C127.911 192.44 127.681 192.724 127.532 193.051L123.458 203.995C123.106 204.696 122.528 205.257 121.817 205.588C120.194 206.361 118.637 207.264 117.159 208.287C116.527 208.713 115.822 208.737 115.542 208.287L111.687 202.402C111.42 201.989 110.8 202.074 110.301 202.597L102.045 211.315C101.805 211.548 101.623 211.832 101.511 212.146C101.4 212.46 101.362 212.796 101.4 213.127L103.698 220.922C103.801 221.576 103.654 222.245 103.285 222.794C101.891 224.917 100.62 227.117 99.4788 229.385C99.0792 230.049 98.4388 230.532 97.6912 230.735L90.6141 232.437C90.2641 232.52 89.938 232.682 89.6616 232.912C89.3852 233.142 89.1659 233.433 89.0212 233.763L85.4583 245.74C85.4209 245.871 85.4157 246.01 85.443 246.144C85.4703 246.277 85.5294 246.402 85.6152 246.509C85.7011 246.615 85.8111 246.699 85.9362 246.753C86.0613 246.808 86.1976 246.832 86.3338 246.822L92.8029 247.187C92.9433 247.182 93.0832 247.206 93.2143 247.256C93.3454 247.306 93.4651 247.383 93.5661 247.48C93.6671 247.578 93.7474 247.695 93.8022 247.824C93.857 247.954 93.8852 248.093 93.8852 248.233C93.6907 250.304 93.6907 252.388 93.8852 254.459C93.8746 255.153 93.6256 255.823 93.1799 256.356L85.9812 265.087C85.7644 265.327 85.6108 265.617 85.5344 265.931C85.458 266.245 85.461 266.574 85.5434 266.886L88.9604 274.45C89.0022 274.547 89.0748 274.629 89.1671 274.681C89.2473 274.731 89.3402 274.756 89.4346 274.754C89.7551 274.728 90.0563 274.59 90.2858 274.365L97.898 267.288C98.1044 267.058 98.383 266.904 98.688 266.854C98.9929 266.803 99.3061 266.857 99.576 267.008C100.568 267.812 101.68 268.456 102.871 268.917C103.136 269.018 103.358 269.207 103.498 269.454C103.638 269.7 103.687 269.988 103.637 270.267L101.205 281.041C101.17 281.182 101.182 281.331 101.239 281.465C101.296 281.598 101.395 281.71 101.522 281.782C101.735 281.904 101.985 281.947 102.227 281.904L109.742 281.162C110.091 281.126 110.426 281.002 110.715 280.803C111.004 280.603 111.238 280.333 111.396 280.019L115.481 269.075C115.844 268.382 116.419 267.824 117.123 267.482C117.913 267.118 118.716 266.692 119.555 266.266C120.394 265.841 121.075 265.342 121.829 264.831C122.583 264.321 123.166 264.369 123.434 264.831L127.289 270.717C127.338 270.789 127.405 270.848 127.483 270.887C127.787 271.082 128.274 270.948 128.699 270.522L136.968 261.791C137.204 261.56 137.384 261.277 137.493 260.965C137.603 260.653 137.639 260.32 137.6 259.992L135.302 252.197C135.204 251.542 135.356 250.873 135.728 250.325C137.127 248.204 138.394 245.999 139.522 243.722C139.929 243.065 140.573 242.59 141.321 242.396L148.386 240.694C148.739 240.613 149.067 240.449 149.344 240.217C149.621 239.984 149.838 239.689 149.979 239.356L153.554 227.379C153.63 227.2 153.637 226.999 153.574 226.815C153.512 226.631 153.383 226.477 153.214 226.381ZM115.518 255.638L115.104 255.748L114.8 255.809C114.58 255.858 114.356 255.894 114.132 255.918L113.353 256.003H112.648C111.124 256.014 109.632 255.565 108.367 254.714C107.103 253.864 106.124 252.652 105.559 251.237C105.01 249.985 104.661 248.656 104.525 247.297C104.441 246.57 104.401 245.839 104.404 245.108C104.404 238.274 107.954 229.823 113.742 223.718C115.412 221.913 117.333 220.357 119.445 219.098C120.055 218.73 120.689 218.405 121.342 218.125C123.012 217.343 124.838 216.956 126.681 216.994H126.997H127.277H127.568C128.879 217.187 130.116 217.722 131.155 218.543C132.194 219.365 133 220.445 133.49 221.676C136.676 228.741 133.016 241.059 125.307 249.194C122.701 252.204 119.313 254.435 115.518 255.638Z" fill="#337F88"/>
<path opacity="0.2" d="M99.0057 229.86C98.6155 230.256 98.1297 230.545 97.5952 230.699L90.5181 232.401C90.0123 232.536 89.5589 232.82 89.217 233.216L73.9805 224.461C74.32 224.029 74.7957 223.724 75.3302 223.597L82.3952 221.883C82.9238 221.751 83.4045 221.473 83.7814 221.08L99.0057 229.86Z" fill="black"/>
<path opacity="0.3" d="M103.638 221.08L88.438 212.325C88.457 212.232 88.457 212.137 88.438 212.045L86.1276 204.263C86.0512 204.009 86.0512 203.738 86.1276 203.484L97.7769 210.136L101.425 212.203C101.32 212.478 101.295 212.778 101.352 213.066L103.65 220.849C103.659 220.926 103.655 221.004 103.638 221.08Z" fill="black"/>
<path opacity="0.3" d="M127.848 192.418C127.671 192.574 127.533 192.77 127.446 192.99L123.361 203.934L108.148 195.154C108.148 195.154 108.148 195.154 108.148 195.081L112.234 184.137C112.317 183.926 112.451 183.738 112.623 183.59L127.848 192.418Z" fill="black"/>
<path opacity="0.3" d="M149.773 198.317C149.579 198.282 149.379 198.298 149.193 198.365C149.008 198.431 148.843 198.544 148.715 198.694L141.054 205.71C140.847 205.943 140.567 206.099 140.26 206.152C139.953 206.205 139.637 206.152 139.364 206.002C138.377 205.195 137.269 204.551 136.08 204.093C135.811 203.994 135.585 203.803 135.442 203.554C135.3 203.305 135.25 203.013 135.302 202.731L137.734 191.981C137.772 191.835 137.76 191.681 137.701 191.542C137.641 191.403 137.538 191.288 137.406 191.215C137.187 191.094 136.056 190.449 134.512 189.537C134.608 189.538 134.703 189.559 134.791 189.598C134.853 189.622 134.91 189.655 134.962 189.695L149.773 198.317Z" fill="black"/>
<path opacity="0.3" d="M153.213 226.358C153.066 226.282 152.903 226.245 152.738 226.249L146.281 225.884C146.14 225.887 146 225.862 145.869 225.811C145.738 225.759 145.618 225.682 145.518 225.583C145.417 225.484 145.337 225.367 145.282 225.237C145.227 225.107 145.199 224.967 145.199 224.826C145.284 223.793 145.345 222.796 145.345 221.811L153.213 226.358Z" fill="black"/>
<path opacity="0.4" d="M127.522 270.826L119.605 266.23C120.347 265.78 121.113 265.305 121.867 264.795C122.621 264.284 123.205 264.333 123.472 264.795L127.327 270.68C127.378 270.745 127.445 270.796 127.522 270.826Z" fill="black"/>
<path opacity="0.4" d="M103.639 270.279L101.207 281.065C101.175 281.204 101.188 281.35 101.245 281.482C101.302 281.613 101.399 281.723 101.523 281.795L89.3633 274.717C89.6785 274.694 89.9754 274.56 90.2023 274.34L97.8996 267.288C98.1018 267.052 98.38 266.893 98.6862 266.84C98.9924 266.787 99.3076 266.842 99.5777 266.996C100.564 267.809 101.677 268.454 102.873 268.905C103.143 269.006 103.368 269.2 103.508 269.451C103.649 269.703 103.695 269.996 103.639 270.279Z" fill="black"/>
<path opacity="0.2" d="M93.6311 255.285C93.5046 255.662 93.311 256.012 93.0596 256.319L85.8609 265.05C85.6513 265.312 85.4981 265.614 85.4109 265.938L70.2109 257.146C70.2912 256.819 70.4451 256.516 70.6609 256.258L77.8717 247.527C78.113 247.222 78.2983 246.876 78.4189 246.506L93.6311 255.285Z" fill="black"/>
<path opacity="0.1" d="M123.338 203.983C122.977 204.654 122.41 205.191 121.721 205.515C120.098 206.285 118.541 207.183 117.063 208.203C116.431 208.641 115.726 208.677 115.446 208.203L111.603 202.317C111.554 202.245 111.487 202.187 111.409 202.147H111.348L104.125 197.976C104.914 197.53 105.726 197.124 106.557 196.76L106.837 196.602C107.119 196.427 107.381 196.218 107.615 195.982C107.714 195.882 107.808 195.777 107.895 195.666C107.959 195.602 108.012 195.528 108.053 195.447L108.162 195.24L123.338 203.983Z" fill="black"/>
<path opacity="0.4" d="M93.7756 254.41C93.7908 254.708 93.7453 255.005 93.6419 255.285L78.4297 246.506C78.5366 246.227 78.5863 245.929 78.5756 245.63C78.4754 244.563 78.4308 243.492 78.4419 242.42L85.7379 246.615C85.8943 246.703 86.0692 246.753 86.2486 246.761L92.7177 247.126C92.8591 247.121 93 247.145 93.132 247.196C93.2639 247.247 93.3841 247.324 93.4853 247.423C93.5864 247.522 93.6665 247.64 93.7206 247.771C93.7747 247.902 93.8017 248.042 93.7999 248.184C93.6017 250.254 93.5936 252.338 93.7756 254.41Z" fill="black"/>
<path opacity="0.1" d="M103.638 221.08C103.657 221.656 103.5 222.225 103.188 222.709C101.789 224.829 100.518 227.029 99.3821 229.3C99.2834 229.485 99.1562 229.653 99.0051 229.799L83.793 221.08C83.8793 221.003 83.9532 220.912 84.0118 220.813C84.0867 220.743 84.1485 220.661 84.1942 220.569C85.3171 218.29 86.5843 216.084 87.9882 213.966C88.0633 213.857 88.1246 213.738 88.1706 213.614C88.2174 213.539 88.2503 213.457 88.2678 213.371C88.2768 213.331 88.2768 213.289 88.2678 213.249C88.2678 213.249 88.2678 213.249 88.2678 213.176C88.3037 213.069 88.3281 212.959 88.3408 212.848C88.3761 212.688 88.3761 212.522 88.3408 212.361L103.638 221.08Z" fill="black"/>
<path opacity="0.3" d="M84.0118 220.812C83.9532 220.912 83.8793 221.003 83.793 221.08C83.8726 220.997 83.9458 220.907 84.0118 220.812Z" fill="black"/>
<path opacity="0.4" d="M89.0459 274.644L85.9451 272.856L85.3614 272.516L80.3758 269.634C79.9137 269.366 79.4638 269.087 79.0261 268.844L73.9067 265.889C73.859 265.866 73.8173 265.833 73.7851 265.791C73.7471 265.747 73.7145 265.698 73.6878 265.645L70.2587 258.07C70.195 257.864 70.195 257.643 70.2587 257.437C70.2587 257.352 70.2587 257.255 70.2587 257.17L85.4587 265.962C85.3539 266.257 85.3539 266.579 85.4587 266.874L88.8757 274.425C88.9106 274.513 88.9696 274.588 89.0459 274.644Z" fill="black"/>
<path opacity="0.3" d="M73.9792 224.461C73.8667 224.598 73.7801 224.755 73.7238 224.923L73.2861 226.419L70.9635 234.238L70.1731 236.913C70.1387 237.024 70.1286 237.141 70.1432 237.256C70.1579 237.372 70.1971 237.483 70.2582 237.582C70.3059 237.658 70.3678 237.724 70.4406 237.776L70.5622 237.861L71.7782 238.542L72.1065 238.737L73.055 239.284L73.5657 239.588L74.1494 239.916L74.3683 240.038L74.9885 240.403L78.4297 242.385L85.7257 246.58C85.5769 246.49 85.4633 246.351 85.4036 246.188C85.3439 246.024 85.3417 245.845 85.3974 245.68L88.5225 235.15L88.9603 233.69C89.0219 233.502 89.1212 233.328 89.2521 233.18L73.9792 224.461Z" fill="black"/>
<path opacity="0.5" d="M104.124 197.976L96.2321 193.392C96.127 193.337 96.0103 193.307 95.8916 193.307C95.7224 193.316 95.5571 193.362 95.4063 193.439C95.2555 193.517 95.1226 193.625 95.0161 193.757L90.0791 198.985L86.7595 202.487C86.4875 202.782 86.2877 203.136 86.1758 203.521L97.7764 210.136L101.424 212.203C101.543 211.849 101.738 211.525 101.996 211.255L102.105 211.133L110.253 202.524C110.383 202.353 110.561 202.224 110.764 202.153C110.967 202.082 111.187 202.071 111.396 202.123L104.124 197.976Z" fill="white"/>
<path opacity="0.5" d="M137.272 191.179C137.063 191.098 136.838 191.069 136.615 191.094L129.088 191.848C128.631 191.9 128.204 192.1 127.872 192.42L112.66 183.64C112.994 183.321 113.419 183.112 113.876 183.044L121.403 182.29C121.66 182.259 121.919 182.31 122.145 182.436C122.145 182.436 122.984 182.91 124.176 183.652L125.173 184.224L131.618 187.957L133.211 188.893L134.427 189.538C135.922 190.413 137.053 191.058 137.272 191.179Z" fill="white"/>
<path d="M320.767 93.8745C320.439 91.4425 318.469 90.5427 316.122 91.9046L186.642 166.652C185.274 167.549 184.135 168.754 183.317 170.171C182.5 171.588 182.027 173.178 181.936 174.811V460.571C181.936 463.344 183.724 464.596 186.046 463.587C184.641 464.179 183.124 464.459 181.6 464.409C180.076 464.359 178.581 463.979 177.218 463.295L171.831 460.182C170.456 459.292 169.311 458.089 168.491 456.67C167.671 455.252 167.199 453.659 167.113 452.023V166.275C167.199 164.639 167.671 163.046 168.491 161.628C169.311 160.209 170.456 159.006 171.831 158.116L301.287 83.3561C302.748 82.6186 304.362 82.2344 305.999 82.2344C307.636 82.2344 309.25 82.6186 310.711 83.3561L316.158 86.4691C317.413 87.3008 318.473 88.3925 319.269 89.6703C320.064 90.948 320.575 92.3819 320.767 93.8745Z" fill="#37474F"/>
<path d="M316.16 91.9055L186.643 166.653C185.275 167.55 184.136 168.755 183.319 170.172C182.501 171.589 182.028 173.179 181.938 174.812V460.572C181.938 463.576 184.053 464.792 186.643 463.296L316.16 388.5C317.527 387.603 318.664 386.397 319.479 384.98C320.294 383.563 320.765 381.973 320.853 380.341V94.6172C320.817 91.6259 318.713 90.4099 316.16 91.9055ZM314.08 353.431C314.08 355.996 312.281 357.638 310.043 358.927L192.322 426.889C190.097 428.178 188.285 427.132 188.285 424.555V202.112C188.361 200.709 188.766 199.345 189.468 198.128C190.169 196.911 191.147 195.876 192.322 195.107L310.043 127.157C312.281 125.856 314.08 126.902 314.08 129.468V353.431Z" fill="#455A64"/>
<path d="M186.046 463.538C184.641 464.13 183.124 464.41 181.6 464.36C180.076 464.309 178.581 463.929 177.218 463.246L171.831 460.133C170.456 459.242 169.312 458.038 168.492 456.62C167.672 455.202 167.199 453.61 167.113 451.974V166.274C167.168 164.629 167.645 163.025 168.5 161.617L183.323 170.129C182.476 171.536 181.999 173.134 181.936 174.774V460.534C181.936 463.295 183.724 464.547 186.046 463.538Z" fill="#263238"/>
<path d="M251.38 136.835C253.119 135.826 254.53 136.641 254.53 138.659C254.47 139.753 254.154 140.817 253.606 141.765C253.059 142.713 252.297 143.52 251.38 144.119C249.629 145.128 248.219 144.314 248.219 142.295C248.277 141.2 248.594 140.134 249.144 139.185C249.693 138.236 250.46 137.431 251.38 136.835Z" fill="#263238"/>
<path d="M242.26 152.595C248.669 149.057 260.111 142.247 266.434 138.526C267.517 137.894 268.38 138.331 268.38 139.499C268.33 140.154 268.128 140.788 267.79 141.352C267.453 141.915 266.988 142.393 266.434 142.746L242.212 156.73C241.129 157.35 240.254 156.912 240.254 155.745C240.309 155.097 240.52 154.472 240.87 153.923C241.219 153.375 241.696 152.919 242.26 152.595Z" fill="#263238"/>
<path d="M236.146 156.135C237.119 155.575 237.91 156.025 237.91 157.156C237.884 157.779 237.711 158.388 237.404 158.931C237.098 159.474 236.667 159.937 236.146 160.281C235.161 160.84 234.371 160.391 234.371 159.26C234.397 158.635 234.572 158.026 234.88 157.482C235.189 156.939 235.623 156.477 236.146 156.135Z" fill="#263238"/>
<path d="M249.182 419.008C248.393 419.015 247.617 418.814 246.932 418.424C245.339 417.5 244.5 415.603 244.5 413.086C244.652 410.405 245.432 407.798 246.778 405.474C248.123 403.15 249.996 401.176 252.246 399.71C254.423 398.494 256.502 398.263 258.107 399.187C259.712 400.111 260.539 402.008 260.539 404.525C260.387 407.204 259.608 409.811 258.264 412.134C256.921 414.457 255.051 416.432 252.805 417.901C251.713 418.577 250.465 418.958 249.182 419.008ZM255.809 399.795C254.743 399.842 253.708 400.164 252.805 400.731C250.723 402.083 248.989 403.906 247.743 406.052C246.496 408.198 245.773 410.608 245.631 413.086C245.631 415.153 246.3 416.734 247.504 417.366C248.707 417.999 250.373 417.877 252.161 416.843C254.232 415.488 255.956 413.664 257.193 411.521C258.431 409.377 259.148 406.972 259.287 404.501C259.287 402.434 258.618 400.914 257.414 400.208C256.919 399.951 256.367 399.822 255.809 399.831V399.795Z" fill="#E6E6E6"/>
<path d="M314.041 129.466V353.441C313.965 354.841 313.56 356.202 312.858 357.415C312.157 358.628 311.179 359.658 310.004 360.421L192.283 428.384C190.058 429.6 188.246 428.639 188.246 426.061V412.089L295.145 350.377C297.382 349.088 299.182 347.459 299.182 344.893V133.406L310.004 127.156C312.242 125.867 314.041 126.913 314.041 129.466Z" fill="#37474F"/>
<path d="M310.006 127.156L299.135 133.406V344.893C299.099 345.836 298.828 346.755 298.346 347.567C297.864 348.378 297.186 349.056 296.375 349.538L312.013 358.573C313.203 357.117 313.898 355.319 313.995 353.441V129.466C314.043 126.913 312.244 125.867 310.006 127.156Z" fill="#263238"/>
<path d="M199.011 356.554L192.274 352.663C192.141 352.608 192.029 352.509 191.958 352.383L190.742 350.219L194.743 347.908L194.621 348.261L199.011 356.554Z" fill="#E0E0E0"/>
<path d="M194.109 348.237L198.779 356.312C198.849 356.416 198.946 356.499 199.059 356.552C199.173 356.606 199.298 356.627 199.423 356.615C199.548 356.603 199.667 356.556 199.768 356.482C199.868 356.407 199.947 356.306 199.995 356.19L204.932 341.963L194.109 348.237Z" fill="#EBEBEB"/>
<path d="M216.107 305.154C216.041 304.019 215.707 302.915 215.132 301.934C214.557 300.954 213.757 300.123 212.799 299.511L210.148 297.979C209.136 297.474 208.021 297.211 206.889 297.211C205.758 297.211 204.643 297.474 203.631 297.979L150.868 328.379C149.919 328.996 149.129 329.829 148.563 330.81C147.996 331.79 147.67 332.891 147.609 334.021V360.773C147.672 361.904 147.999 363.003 148.565 363.984C149.131 364.964 149.92 365.797 150.868 366.416L153.531 367.948C154.54 368.458 155.654 368.723 156.784 368.723C157.914 368.723 159.028 368.458 160.037 367.948L213.103 337.292C216.034 335.627 216.058 333.948 216.058 331.869L216.107 305.154Z" fill="#EBEBEB"/>
<path d="M147.672 360.775C147.732 361.904 148.057 363.004 148.621 363.984C149.185 364.964 149.972 365.798 150.919 366.417L153.582 367.949C154.5 368.411 155.505 368.673 156.532 368.72C157.559 368.766 158.584 368.594 159.54 368.217C158.008 368.8 156.841 367.925 156.841 366.064V339.312C156.879 338.179 157.206 337.074 157.789 336.102L148.62 330.812C148.032 331.783 147.705 332.889 147.672 334.023V360.775Z" fill="#E0E0E0"/>
<path d="M215.995 304.231C215.618 302.844 214.354 302.407 212.846 303.27L160.084 333.67C159.123 334.268 158.335 335.106 157.798 336.102L148.629 330.812C149.174 329.818 149.966 328.981 150.927 328.38L203.665 297.98C204.679 297.473 205.797 297.209 206.93 297.209C208.063 297.209 209.181 297.473 210.195 297.98L212.797 299.512C213.625 300.038 214.336 300.728 214.886 301.54C215.436 302.351 215.814 303.267 215.995 304.231Z" fill="#FAFAFA"/>
<path d="M165.595 341.281L203.291 319.393C204.374 318.761 205.261 319.052 205.261 320.037C205.182 320.643 204.962 321.222 204.62 321.729C204.279 322.235 203.824 322.655 203.291 322.956L165.595 344.844C164.501 345.476 163.613 345.184 163.613 344.199C163.695 343.593 163.917 343.013 164.261 342.507C164.605 342 165.061 341.581 165.595 341.281Z" fill="#455A64"/>
<path d="M165.595 350.232L203.291 328.344C204.374 327.712 205.261 327.991 205.261 328.976C205.18 329.583 204.96 330.163 204.618 330.671C204.277 331.18 203.823 331.602 203.291 331.907L165.595 353.795C164.501 354.427 163.613 354.135 163.613 353.15C163.695 352.543 163.917 351.964 164.261 351.458C164.605 350.951 165.061 350.532 165.595 350.232Z" fill="#455A64"/>
<path d="M112.773 366.415L106.036 362.524C105.902 362.469 105.791 362.37 105.72 362.244L104.504 360.08L108.505 357.77L108.383 358.122L112.773 366.415Z" fill="#337F88"/>
<path opacity="0.2" d="M112.773 366.415L106.036 362.524C105.902 362.469 105.791 362.37 105.72 362.244L104.504 360.08L108.505 357.77L108.383 358.122L112.773 366.415Z" fill="black"/>
<path d="M107.871 358.099L112.528 366.173C112.601 366.274 112.698 366.353 112.811 366.404C112.924 366.455 113.048 366.476 113.172 366.464C113.295 366.451 113.413 366.407 113.513 366.334C113.614 366.262 113.693 366.164 113.744 366.051L118.608 351.824L107.871 358.099Z" fill="#337F88"/>
<path d="M163.174 291.668C163.114 290.537 162.787 289.437 162.221 288.456C161.655 287.476 160.865 286.643 159.915 286.026L157.264 284.493C156.255 283.978 155.139 283.709 154.005 283.709C152.872 283.709 151.756 283.978 150.747 284.493L88.1104 320.669C87.1612 321.287 86.3711 322.119 85.8048 323.1C85.2385 324.08 84.9119 325.181 84.8516 326.312V357.052C84.9119 358.183 85.2385 359.283 85.8048 360.264C86.3711 361.244 87.1612 362.077 88.1104 362.694L90.7613 364.226C91.7703 364.742 92.8872 365.011 94.0202 365.011C95.1532 365.011 96.2701 364.742 97.2791 364.226L160.219 327.832C163.15 326.166 163.174 324.488 163.174 322.408V291.668Z" fill="#337F88"/>
<path opacity="0.2" d="M84.8516 357.052C84.9119 358.183 85.2385 359.283 85.8048 360.264C86.3711 361.244 87.1612 362.077 88.1104 362.695L90.7613 364.227C91.6787 364.69 92.6838 364.955 93.7106 365.003C94.7375 365.051 95.7629 364.882 96.7197 364.506C95.1876 365.078 94.0202 364.202 94.0202 362.342V331.601C94.0596 330.467 94.3904 329.361 94.9808 328.391L85.8122 323.102C85.2218 324.071 84.8909 325.177 84.8516 326.312V357.052Z" fill="black"/>
<path opacity="0.4" d="M163.065 290.744C162.688 289.358 161.423 288.92 159.916 289.784L97.2794 325.972C96.3096 326.562 95.5159 327.402 94.9811 328.404L85.8125 323.102C86.3614 322.111 87.152 321.274 88.1107 320.67L150.783 284.494C151.797 283.987 152.915 283.723 154.048 283.723C155.182 283.723 156.3 283.987 157.313 284.494L159.964 286.026C160.774 286.561 161.466 287.256 161.999 288.067C162.532 288.878 162.895 289.789 163.065 290.744Z" fill="white"/>
<path d="M102.775 340.247L136.64 320.633C137.735 320.001 138.622 320.293 138.622 321.278C138.541 321.884 138.319 322.464 137.975 322.97C137.631 323.477 137.174 323.896 136.64 324.196L102.775 343.798C101.692 344.43 100.805 344.139 100.805 343.154C100.888 342.55 101.109 341.974 101.45 341.47C101.792 340.966 102.245 340.548 102.775 340.247Z" fill="white"/>
<path d="M102.775 349.186L150.345 321.582C151.427 320.95 152.314 321.242 152.314 322.227C152.235 322.833 152.016 323.412 151.674 323.918C151.332 324.425 150.877 324.845 150.345 325.145L102.775 352.749C101.692 353.381 100.805 353.089 100.805 352.104C100.886 351.499 101.106 350.92 101.448 350.414C101.79 349.908 102.244 349.487 102.775 349.186Z" fill="white"/>
<path d="M102.775 330.848L150.345 303.245C151.427 302.612 152.314 302.904 152.314 303.889C152.233 304.494 152.013 305.073 151.671 305.579C151.33 306.085 150.876 306.506 150.345 306.807L102.775 334.411C101.692 335.043 100.805 334.751 100.805 333.766C100.884 333.16 101.104 332.581 101.445 332.075C101.787 331.568 102.242 331.148 102.775 330.848Z" fill="white"/>
<path d="M534.637 133.382L529.7 130.536C529.342 130.37 528.945 130.302 528.551 130.341C528.158 130.379 527.782 130.522 527.463 130.755L420.175 192.698C419.254 193.297 418.488 194.104 417.938 195.055C417.389 196.006 417.072 197.074 417.013 198.17V253.608C416.969 254.006 417.035 254.408 417.205 254.77C417.374 255.133 417.64 255.442 417.974 255.663L422.838 258.496V253.912L527.414 193.537C528.333 192.937 529.098 192.129 529.647 191.178C530.196 190.228 530.514 189.161 530.576 188.065V135.425L534.637 133.382Z" fill="#E0E0E0"/>
<path d="M426.887 200.226L530.624 140.338V135.474L534.637 133.431L529.7 130.585C529.342 130.419 528.945 130.351 528.551 130.389C528.158 130.428 527.782 130.571 527.463 130.804L420.175 192.747C419.237 193.326 418.466 194.139 417.938 195.106L426.887 200.226Z" fill="#FAFAFA"/>
<path d="M425.111 195.544L532.398 133.601C534.15 132.591 535.56 133.418 535.56 135.425V190.874C535.501 191.971 535.183 193.038 534.634 193.989C534.085 194.939 533.319 195.747 532.398 196.346L425.111 258.289C423.36 259.287 421.949 258.472 421.949 256.465V201.016C422.011 199.92 422.33 198.854 422.879 197.904C423.428 196.953 424.193 196.145 425.111 195.544Z" fill="#F5F5F5"/>
<path d="M430.585 200.942L462.724 182.386C464.755 181.17 466.372 182.167 466.372 184.514V221.626C466.308 222.902 465.945 224.145 465.311 225.254C464.677 226.363 463.791 227.307 462.724 228.01L430.585 246.615C428.543 247.831 426.938 246.834 426.938 244.487V207.326C427.003 206.05 427.367 204.808 428 203.699C428.634 202.59 429.52 201.646 430.585 200.942Z" fill="#337F88"/>
<path d="M446.38 199.581C449.785 197.623 452.546 199.216 452.546 203.156C452.429 205.296 451.81 207.379 450.739 209.236C449.668 211.093 448.175 212.672 446.38 213.845C442.963 215.815 440.203 214.222 440.203 210.282C440.318 208.138 440.938 206.051 442.011 204.192C443.084 202.333 444.581 200.753 446.38 199.581Z" fill="#FAFAFA"/>
<path d="M458.539 220.643C458.539 214.173 454.003 211.304 448.397 214.563L444.895 216.581C439.302 219.816 434.754 227.683 434.754 234.152V235.891L458.539 222.163V220.643Z" fill="#FAFAFA"/>
<path d="M478.92 175.893L523.048 150.357C524.495 149.518 525.675 150.113 525.675 151.694C525.612 152.577 525.341 153.433 524.885 154.192C524.428 154.95 523.799 155.59 523.048 156.06L478.92 181.596C477.46 182.435 476.293 181.839 476.293 180.258C476.356 179.375 476.626 178.519 477.083 177.76C477.539 177.002 478.169 176.362 478.92 175.893Z" fill="#E0E0E0"/>
<path d="M478.92 187.299L523.048 161.763C524.495 160.924 525.675 161.52 525.675 163.1C525.613 163.985 525.343 164.843 524.886 165.604C524.43 166.365 523.8 167.007 523.048 167.478L478.92 192.953C477.46 193.792 476.293 193.196 476.293 191.616C476.363 190.741 476.637 189.895 477.093 189.145C477.55 188.396 478.175 187.763 478.92 187.299Z" fill="#E0E0E0"/>
<path d="M478.92 198.705L523.048 173.23C524.495 172.391 525.675 172.987 525.675 174.555C525.613 175.44 525.343 176.298 524.886 177.059C524.43 177.82 523.8 178.462 523.048 178.933L478.92 204.408C477.46 205.247 476.293 204.651 476.293 203.071C476.356 202.188 476.626 201.332 477.083 200.573C477.539 199.814 478.169 199.174 478.92 198.705Z" fill="#E0E0E0"/>
<path d="M478.92 210.135L523.048 184.599C524.495 183.76 525.675 184.356 525.675 185.925C525.613 186.81 525.343 187.667 524.886 188.428C524.43 189.189 523.8 189.831 523.048 190.302L478.92 215.777C477.46 216.616 476.293 216.021 476.293 214.44C476.365 213.567 476.64 212.724 477.096 211.976C477.552 211.229 478.177 210.598 478.92 210.135Z" fill="#E0E0E0"/>
<path opacity="0.2" d="M354.819 345.599C354.819 348.165 353.019 349.807 350.782 351.095L233.061 419.058C230.835 420.335 229.023 419.301 229.023 416.723V194.329C229.1 192.926 229.505 191.562 230.206 190.345C230.907 189.128 231.885 188.093 233.061 187.325L350.782 119.375C353.019 118.073 354.819 119.119 354.819 121.685V345.599Z" fill="#337F88"/>
<path d="M231.259 420.212C230.782 420.222 230.311 420.1 229.897 419.86C229.391 419.519 228.985 419.047 228.724 418.495C228.463 417.943 228.356 417.331 228.414 416.723V194.328C228.483 192.818 228.914 191.346 229.669 190.037C230.424 188.727 231.483 187.618 232.755 186.801L350.476 118.839C350.955 118.446 351.542 118.208 352.16 118.157C352.777 118.106 353.396 118.244 353.933 118.553C354.47 118.861 354.901 119.327 355.167 119.886C355.434 120.445 355.524 121.073 355.425 121.684V345.599C355.425 348.76 352.993 350.548 351.084 351.679L233.363 419.641C232.724 420.012 231.998 420.209 231.259 420.212ZM352.64 119.374C352.105 119.399 351.585 119.562 351.133 119.848L233.412 187.798C232.327 188.513 231.425 189.471 230.777 190.596C230.128 191.722 229.752 192.983 229.678 194.28V416.723C229.574 417.119 229.602 417.54 229.76 417.919C229.917 418.298 230.195 418.615 230.55 418.821C230.905 419.027 231.318 419.11 231.725 419.058C232.132 419.007 232.511 418.823 232.804 418.534L350.525 350.56C353.115 349.076 354.258 347.544 354.258 345.599V121.636C354.306 121.243 354.251 120.844 354.098 120.479C353.944 120.114 353.697 119.796 353.382 119.556C353.155 119.432 352.899 119.37 352.64 119.374Z" fill="#337F88"/>
<path d="M418.862 333.926C419.713 302.31 417.184 294.662 408.745 288.861L405.486 307.211C405.486 307.211 409.329 328.843 408.915 336.042C408.55 342.377 407.93 350.294 406.483 355.401C406.21 356.308 405.613 357.083 404.805 357.577C402.665 358.915 401.789 360.301 400.172 361.992C398.956 363.317 397.837 363.645 397.995 364.071C398.242 364.534 398.655 364.888 399.15 365.061C399.646 365.235 400.189 365.215 400.671 365.007C401.748 364.583 402.769 364.028 403.711 363.353C402.97 365.294 401.919 367.101 400.598 368.704C397.582 372.352 397.448 374.662 403.528 374.723C407.347 374.723 410.374 372.401 413.256 364.01C414.372 360.937 415.266 357.787 415.931 354.586C417.33 346.329 418.728 339.033 418.862 333.926Z" fill="#FFA8A7"/>
<path d="M401.656 286.454C404.244 286.001 406.909 286.398 409.253 287.586C411.596 288.774 413.491 290.689 414.655 293.044C418.194 299.356 419.057 310.227 419.519 321.012C419.519 321.012 412.503 326.874 404.088 323.992L401.656 286.454Z" fill="#37474F"/>
<path d="M413.5 460.633C414.133 460.876 414.291 462.092 414.388 464.512C414.461 466.336 414.862 469.534 412.71 470.178C410.558 470.823 407.42 470.494 406.046 468.768C404.387 466.448 402.609 464.216 400.72 462.08C398.604 459.806 396.306 457.678 395.443 454.48C394.677 451.586 395.321 450.333 397.291 449.494C400.003 448.339 404.259 452.108 406.387 452.704C408.211 453.239 412.856 460.414 413.5 460.633Z" fill="#263238"/>
<path d="M413.5 458.408V461.387C412.383 462.099 411.094 462.493 409.77 462.527C408.446 462.561 407.138 462.234 405.985 461.582C405.851 461.302 405.207 457.338 405.207 457.338L413.5 458.408Z" fill="#FFA8A7"/>
<path d="M389.421 477.779C389.945 479.376 390.383 481 390.735 482.643C391.099 484.431 391.622 487.434 391.002 488.784C390.382 490.134 387.901 491.034 384.108 491.034C381.676 491.034 377.809 492.687 375.17 494.159C372.531 495.63 366.816 496.275 363.934 495.934C360.554 495.533 357.051 493.575 356.504 492.177C355.957 490.778 356.675 489.319 364.652 485.914C364.724 485.914 375.754 482.266 379.608 478.047L389.421 477.779Z" fill="#263238"/>
<path d="M389.423 474.568V478.034C389.423 479.25 387.952 481.171 384.097 481.037C381.397 480.94 379.501 480.211 379.61 477.985V474.763L389.423 474.568Z" fill="#FFA8A7"/>
<path d="M415.433 418.973C414.773 413.706 413.596 408.517 411.919 403.481C411.919 403.481 412.977 390.105 413.488 377.471C414.035 363.791 413.488 346.609 413.719 343.192C413.719 343.192 369.59 334.267 368.8 350.075C368.009 365.883 370.551 406.12 371.061 413.076C371.572 420.031 372.788 426.16 374.223 437.396C375.658 448.631 379.61 474.739 379.61 474.739C381.135 475.518 382.829 475.908 384.541 475.874C386.253 475.84 387.93 475.383 389.423 474.544C389.423 474.544 392.536 442.928 392.208 434.915C391.956 428.979 390.934 423.101 389.168 417.429C389.168 417.429 390.007 404.393 390.748 393.109C391.49 381.824 392.268 376.316 392.439 371.391L393.387 370.917C393.387 370.917 394.36 390.482 394.871 397.426C395.381 404.369 396.5 411.021 398.519 423.922C400.27 435.122 405.462 458.797 405.462 458.797C410.496 461.521 413.512 458.432 413.512 458.432C413.512 458.432 416.783 428.689 415.433 418.973Z" fill="#37474F"/>
<path d="M392.438 371.366C392.438 371.366 403.138 366.089 408.501 361.334C408.501 361.334 403.527 368.338 396.998 371.451C396.998 371.451 394.675 395.771 394.687 395.26L393.337 371.33L392.438 371.366Z" fill="#263238"/>
<path d="M382.906 281.456L385.521 295.829L398.508 294.88L395.784 278.586L382.906 281.456Z" fill="#FFA8A7"/>
<path d="M412.224 293.822C410.935 289.919 405.986 285.663 401.025 286.587C393.654 287.837 386.389 289.65 379.295 292.01C374.759 293.628 370.613 297.555 370.236 312.5C370.236 312.5 368.716 347.326 368.691 354.063C378.171 357.782 388.496 358.8 398.52 357.005C412.163 354.026 413.805 348.36 413.805 348.36C413.805 348.36 413.987 323.322 413.574 312.5C413.221 303.307 413.1 296.473 412.224 293.822Z" fill="#337F88"/>
<path d="M372.897 263.969C372.897 263.969 369.601 269.222 370.003 269.72C370.404 270.219 372.921 270.62 372.921 270.62L372.897 263.969Z" fill="#F28F8F"/>
<path d="M382.031 249.449C375.172 251.054 373.251 254.131 372.85 265.111C372.424 276.566 373.677 280.141 375.209 281.649C376.254 282.67 381.897 282.731 384.73 281.88C388.269 280.822 396.258 277.782 399.894 271.945C404.174 265.063 405.135 255.858 400.307 252.197C393.497 247.042 384.827 248.793 382.031 249.449Z" fill="#FFA8A7"/>
<path d="M372.922 252.308C374.497 254.602 376.72 256.376 379.306 257.403C380.62 258.898 379.902 264.699 382.213 265.684C382.213 265.684 383.21 261.416 386.785 261.878C390.36 262.34 390.98 266.888 388.779 269.721C386.578 272.554 384.45 271.533 384.45 271.533C384.45 271.533 384.693 277.613 387.454 280.944C387.454 280.944 390.518 281.869 396.112 280.543C399.541 279.728 404.32 275.314 406.265 270.706C410.375 260.978 410.485 252.259 404.271 249.791C403.505 245.364 399.954 243.443 395.941 242.616C387.296 240.829 381.726 246.264 375.075 245.753C371.269 245.486 370.563 248.258 372.922 252.308Z" fill="#263238"/>
<path d="M404.405 251.274L408.478 248.757C408.347 248.427 408.146 248.129 407.887 247.885C407.629 247.641 407.32 247.456 406.982 247.344C406.645 247.232 406.287 247.196 405.934 247.237C405.581 247.279 405.241 247.397 404.939 247.584C404.636 247.771 404.379 248.022 404.184 248.319C403.989 248.616 403.861 248.953 403.81 249.304C403.759 249.656 403.786 250.015 403.889 250.355C403.992 250.696 404.168 251.009 404.405 251.274Z" fill="#263238"/>
<path d="M324.391 317.886C326.519 318.835 351.678 337.415 355.594 335.251C359.509 333.087 379.634 309.581 379.634 309.581C381.334 306.955 382.239 303.894 382.239 300.765C382.239 297.637 381.334 294.575 379.634 291.949C379.634 291.949 373.189 293.165 369.809 298.248C366.428 303.331 351.861 321.632 351.861 321.632C348.261 319.832 344.67 318.008 341.087 316.16C338.144 314.628 335.189 313.108 332.307 311.466C331.497 311.09 330.734 310.621 330.033 310.068C328.611 308.657 328.817 305.204 328.89 303.404C328.89 302.541 328.89 301.677 329.012 300.814C329.134 299.756 329.34 297.166 327.431 297.993C327.07 298.165 326.757 298.424 326.519 298.747C326.226 299.142 325.996 299.581 325.838 300.048C325.486 301.167 325.595 302.395 325.267 303.526C325.227 303.692 325.148 303.846 325.036 303.975C324.866 304.107 324.654 304.172 324.44 304.158C321.667 304.073 319.041 300.194 317.764 298.078C317.322 297.075 316.589 296.228 315.66 295.646C314.153 294.941 312.329 295.95 311.344 297.312C310.157 299.102 309.672 301.267 309.982 303.392C310.238 306.301 311.533 309.02 313.63 311.053C316.798 313.932 320.438 316.243 324.391 317.886Z" fill="#FFA8A7"/>
<path d="M381.688 291.195C378.916 291.511 374.307 291.718 369.784 296.838C364.506 302.808 357.551 312.573 357.551 312.573C358.264 315.448 359.79 318.057 361.947 320.088C364.103 322.119 366.798 323.487 369.711 324.027C369.711 324.027 379.232 314.299 381.871 308.912C384.51 303.526 384.959 294.819 381.688 291.195Z" fill="#37474F"/>
<path d="M430.219 167.321V128.98L452.861 143.949C446.27 154.261 438.865 161.934 430.219 167.321Z" fill="#455A64"/>
<path d="M430.219 128.979L421.16 123.75V162.09L430.219 167.319V128.979Z" fill="#37474F"/>
<path d="M466.006 99.9417L432.067 124.347L423.008 119.13L456.946 94.7129L466.006 99.9417Z" fill="#337F88"/>
<path opacity="0.5" d="M466.006 99.9417L432.067 124.347L423.008 119.13L456.946 94.7129L466.006 99.9417Z" fill="black"/>
<path d="M466.005 99.9414C466.929 112.32 463.281 126 455.389 139.765L441.235 130.414L432.066 124.334L466.005 99.9414Z" fill="#337F88"/>
<path opacity="0.3" d="M466.005 99.9414C466.929 112.32 463.281 126 455.389 139.765L441.235 130.414L432.066 124.334L466.005 99.9414Z" fill="black"/>
<path d="M455.39 139.766L446.331 134.538L423.008 119.131L432.067 124.347L455.39 139.766Z" fill="#337F88"/>
<path opacity="0.7" d="M455.39 139.766L446.331 134.538L423.008 119.131L432.067 124.347L455.39 139.766Z" fill="black"/>
<path d="M418.485 107.602L412.016 81.3732C412.928 80.6315 413.791 79.9627 414.849 79.2087C426.79 70.6116 438.147 69.0673 446.064 73.6395L455.026 78.8075C457.689 82.0542 455.658 85.5563 456.521 90.9675L421.087 116.503L420.734 116.759L418.485 107.602Z" fill="#337F88"/>
<path opacity="0.7" d="M418.485 107.602L412.016 81.3732C412.928 80.6315 413.791 79.9627 414.849 79.2087C426.79 70.6116 438.147 69.0673 446.064 73.6395L455.026 78.8075C457.689 82.0542 455.658 85.5563 456.521 90.9675L421.087 116.503L420.734 116.759L418.485 107.602Z" fill="white"/>
<path d="M427.543 112.855L421.074 86.6255C421.974 85.8837 422.85 85.2149 423.895 84.461C443.911 70.0635 462.248 75.4383 465.58 96.244L430.146 121.78L429.793 122.035L427.543 112.855Z" fill="#337F88"/>
<path opacity="0.5" d="M427.543 112.855L421.074 86.6255C421.974 85.8837 422.85 85.2149 423.895 84.461C443.911 70.0635 462.248 75.4383 465.58 96.244L430.146 121.78L429.793 122.035L427.543 112.855Z" fill="white"/>
<path d="M412.016 81.373L421.063 86.6019L429.794 121.963L420.734 116.734L412.016 81.373Z" fill="#337F88"/>
<path opacity="0.1" d="M412.016 81.373L421.063 86.6019L429.794 121.963L420.734 116.734L412.016 81.373Z" fill="black"/>
<path d="M417.706 164.086C411.845 167.175 406.762 171.443 401.959 171.26L392.912 166.032C388.17 163.332 384.668 158.359 382.917 151.282C380.485 141.42 382.005 128.871 387.173 115.932C391.933 103.947 399.268 93.1544 408.659 84.3164L417.719 89.5452L414.362 107.408L417.706 120.967V164.086Z" fill="#337F88"/>
<path opacity="0.2" d="M417.706 164.086C411.845 167.175 406.762 171.443 401.959 171.26L392.912 166.032C388.17 163.332 384.668 158.359 382.917 151.282C380.485 141.42 382.005 128.871 387.173 115.932C391.933 103.947 399.268 93.1544 408.659 84.3164L417.719 89.5452L414.362 107.408L417.706 120.967V164.086Z" fill="black"/>
<path d="M426.815 169.315C410.01 178.179 396.148 173.181 392.038 156.51C389.606 146.648 391.126 134.099 396.294 121.161C401.05 109.174 408.385 98.3796 417.78 89.5449L423.471 112.649L426.815 126.159V169.315Z" fill="#337F88"/>
<path d="M447.086 270.583C447.115 270.037 447.273 269.504 447.548 269.031C447.823 268.557 448.207 268.156 448.667 267.859L529.069 221.433C529.558 221.187 530.097 221.059 530.644 221.059C531.191 221.059 531.73 221.187 532.219 221.433L533.982 222.454C534.442 222.751 534.825 223.153 535.099 223.626C535.374 224.099 535.533 224.631 535.563 225.178V286.817C535.533 287.364 535.374 287.895 535.099 288.369C534.825 288.842 534.442 289.244 533.982 289.541L453.568 335.955C453.081 336.207 452.541 336.338 451.993 336.338C451.445 336.338 450.905 336.207 450.418 335.955L448.655 334.934C448.194 334.638 447.811 334.236 447.536 333.763C447.261 333.289 447.103 332.757 447.074 332.21L447.086 270.583Z" fill="#337F88"/>
<path opacity="0.4" d="M447.086 270.583C447.115 270.037 447.273 269.504 447.548 269.031C447.823 268.557 448.207 268.156 448.667 267.859L529.069 221.433C529.558 221.187 530.097 221.059 530.644 221.059C531.191 221.059 531.73 221.187 532.219 221.433L533.982 222.454C534.442 222.751 534.825 223.153 535.099 223.626C535.374 224.099 535.533 224.631 535.563 225.178V286.817C535.533 287.364 535.374 287.895 535.099 288.369C534.825 288.842 534.442 289.244 533.982 289.541L453.568 335.955C453.081 336.207 452.541 336.338 451.993 336.338C451.445 336.338 450.905 336.207 450.418 335.955L448.655 334.934C448.194 334.638 447.811 334.236 447.536 333.763C447.261 333.289 447.103 332.757 447.074 332.21L447.086 270.583Z" fill="white"/>
<path d="M454.455 273.028L447.548 269.027C447.268 269.5 447.109 270.035 447.086 270.584V332.211C447.115 332.758 447.273 333.29 447.548 333.763C447.823 334.237 448.206 334.638 448.667 334.935L450.43 335.956C450.917 336.208 451.457 336.339 452.005 336.339C452.553 336.339 453.093 336.208 453.579 335.956L454.455 335.445V273.028Z" fill="#337F88"/>
<path opacity="0.3" d="M454.455 273.028L447.548 269.027C447.268 269.5 447.109 270.035 447.086 270.584V332.211C447.115 332.758 447.273 333.29 447.548 333.763C447.823 334.237 448.206 334.638 448.667 334.935L450.43 335.956C450.917 336.208 451.457 336.339 452.005 336.339C452.553 336.339 453.093 336.208 453.579 335.956L454.455 335.445V273.028Z" fill="black"/>
<path d="M535.562 225.177V286.816C535.536 287.379 535.369 287.927 535.075 288.409C534.84 288.808 534.525 289.156 534.151 289.43L534.054 289.503L453.567 335.955C453.413 336.062 453.234 336.13 453.047 336.151C452.86 336.172 452.671 336.146 452.497 336.076C452.328 335.965 452.194 335.81 452.108 335.628C452.022 335.445 451.988 335.243 452.01 335.043V273.367C451.994 273.146 452.031 272.924 452.121 272.721C452.21 272.518 452.348 272.34 452.522 272.203C452.696 272.066 452.902 271.974 453.12 271.935C453.338 271.897 453.563 271.912 453.774 271.981L487.615 280.067L492.041 281.113C492.563 281.21 493.102 281.163 493.599 280.976C494.096 280.79 494.533 280.471 494.862 280.055L499.994 272.917L534.528 224.836C535.039 224.022 535.562 224.18 535.562 225.177Z" fill="#337F88"/>
<path d="M533.995 289.541L534.092 289.468C534.466 289.194 534.78 288.846 535.016 288.447C535.305 287.972 535.472 287.433 535.503 286.878L499.91 272.955L523.744 295.451L533.995 289.541Z" fill="#337F88"/>
<path opacity="0.2" d="M533.995 289.541L534.092 289.468C534.466 289.194 534.78 288.846 535.016 288.447C535.305 287.972 535.472 287.433 535.503 286.878L499.91 272.955L523.744 295.451L533.995 289.541Z" fill="black"/>
<path d="M452.012 335.055C451.99 335.256 452.024 335.458 452.11 335.641C452.196 335.823 452.33 335.978 452.499 336.089C452.673 336.159 452.862 336.185 453.049 336.164C453.236 336.143 453.414 336.075 453.569 335.967L481.257 319.989L487.58 280.08L452 334.034L452.012 335.055Z" fill="#337F88"/>
<path opacity="0.2" d="M452.012 335.055C451.99 335.256 452.024 335.458 452.11 335.641C452.196 335.823 452.33 335.978 452.499 336.089C452.673 336.159 452.862 336.185 453.049 336.164C453.236 336.143 453.414 336.075 453.569 335.967L481.257 319.989L487.58 280.08L452 334.034L452.012 335.055Z" fill="black"/>
<path d="M535.038 288.41C534.802 288.809 534.488 289.157 534.114 289.431L453.566 335.955C453.412 336.063 453.233 336.13 453.047 336.152C452.86 336.173 452.671 336.147 452.496 336.077L490.995 274.584C491.771 273.355 492.962 272.445 494.352 272.019C495.742 271.593 497.238 271.679 498.57 272.261L535.038 288.41Z" fill="#337F88"/>
<path d="M452.012 271.605L488.99 287.96C490.324 288.541 491.821 288.625 493.211 288.197C494.601 287.768 495.791 286.856 496.566 285.625L535.393 223.512L452.012 271.605Z" fill="#337F88"/>
<path opacity="0.3" d="M452.012 271.605L488.99 287.96C490.324 288.541 491.821 288.625 493.211 288.197C494.601 287.768 495.791 286.856 496.566 285.625L535.393 223.512L452.012 271.605Z" fill="black"/>
<path d="M452.012 271.604L489.246 285.527C490.534 286.003 491.945 286.03 493.25 285.601C494.555 285.173 495.677 284.315 496.432 283.168L535.344 223.475L452.012 271.604Z" fill="#337F88"/>
</svg>
