<svg class="products-background" width="1418" height="1227" viewBox="0 0 1418 1227" fill="none" xmlns="http://www.w3.org/2000/svg">
<circle cx="1222.49" cy="349.492" r="60.3073" stroke="#005F6A" stroke-width="2.36906"/>
<circle cx="1290.64" cy="349.492" r="60.3073" stroke="#E6A134" stroke-width="2.36906"/>
<path d="M966.08 518.876C969.04 518.876 971.627 519.449 973.84 520.596C976.08 521.716 977.8 523.342 979 525.476C980.227 527.582 980.84 530.049 980.84 532.876C980.84 535.702 980.227 538.156 979 540.236C977.8 542.316 976.08 543.916 973.84 545.036C971.627 546.129 969.04 546.676 966.08 546.676H957V518.876H966.08ZM966.08 542.956C969.333 542.956 971.827 542.076 973.56 540.316C975.293 538.556 976.16 536.076 976.16 532.876C976.16 529.649 975.293 527.129 973.56 525.316C971.827 523.502 969.333 522.596 966.08 522.596H961.56V542.956H966.08ZM1005.56 535.116C1005.56 535.942 1005.51 536.689 1005.4 537.356H988.559C988.693 539.116 989.346 540.529 990.519 541.596C991.693 542.662 993.133 543.196 994.839 543.196C997.293 543.196 999.026 542.169 1000.04 540.116H1004.96C1004.29 542.142 1003.08 543.809 1001.32 545.116C999.586 546.396 997.426 547.036 994.839 547.036C992.733 547.036 990.839 546.569 989.159 545.636C987.506 544.676 986.199 543.342 985.239 541.636C984.306 539.902 983.839 537.902 983.839 535.636C983.839 533.369 984.293 531.382 985.199 529.676C986.133 527.942 987.426 526.609 989.079 525.676C990.759 524.742 992.679 524.276 994.839 524.276C996.919 524.276 998.773 524.729 1000.4 525.636C1002.03 526.542 1003.29 527.822 1004.2 529.476C1005.11 531.102 1005.56 532.982 1005.56 535.116ZM1000.8 533.676C1000.77 531.996 1000.17 530.649 998.999 529.636C997.826 528.622 996.373 528.116 994.639 528.116C993.066 528.116 991.719 528.622 990.599 529.636C989.479 530.622 988.813 531.969 988.599 533.676H1000.8ZM1018.57 542.596L1024.81 524.636H1029.65L1021.25 546.676H1015.81L1007.45 524.636H1012.33L1018.57 542.596ZM1045.77 546.956C1043.19 546.956 1040.8 546.356 1038.61 545.156C1036.45 543.929 1034.73 542.236 1033.45 540.076C1032.2 537.889 1031.57 535.436 1031.57 532.716C1031.57 529.996 1032.2 527.556 1033.45 525.396C1034.73 523.236 1036.45 521.556 1038.61 520.356C1040.8 519.129 1043.19 518.516 1045.77 518.516C1048.39 518.516 1050.77 519.129 1052.93 520.356C1055.12 521.556 1056.84 523.236 1058.09 525.396C1059.35 527.556 1059.97 529.996 1059.97 532.716C1059.97 535.436 1059.35 537.889 1058.09 540.076C1056.84 542.236 1055.12 543.929 1052.93 545.156C1050.77 546.356 1048.39 546.956 1045.77 546.956ZM1045.77 542.996C1047.61 542.996 1049.25 542.582 1050.69 541.756C1052.13 540.902 1053.25 539.702 1054.05 538.156C1054.88 536.582 1055.29 534.769 1055.29 532.716C1055.29 530.662 1054.88 528.862 1054.05 527.316C1053.25 525.769 1052.13 524.582 1050.69 523.756C1049.25 522.929 1047.61 522.516 1045.77 522.516C1043.93 522.516 1042.29 522.929 1040.85 523.756C1039.41 524.582 1038.28 525.769 1037.45 527.316C1036.65 528.862 1036.25 530.662 1036.25 532.716C1036.25 534.769 1036.65 536.582 1037.45 538.156C1038.28 539.702 1039.41 540.902 1040.85 541.756C1042.29 542.582 1043.93 542.996 1045.77 542.996ZM1069.02 527.876C1069.79 526.862 1070.85 526.009 1072.18 525.316C1073.51 524.622 1075.02 524.276 1076.7 524.276C1078.62 524.276 1080.37 524.756 1081.94 525.716C1083.54 526.649 1084.79 527.969 1085.7 529.676C1086.61 531.382 1087.06 533.342 1087.06 535.556C1087.06 537.769 1086.61 539.756 1085.7 541.516C1084.79 543.249 1083.54 544.609 1081.94 545.596C1080.37 546.556 1078.62 547.036 1076.7 547.036C1075.02 547.036 1073.53 546.702 1072.22 546.036C1070.91 545.342 1069.85 544.489 1069.02 543.476V557.156H1064.46V524.636H1069.02V527.876ZM1082.42 535.556C1082.42 534.036 1082.1 532.729 1081.46 531.636C1080.85 530.516 1080.02 529.676 1078.98 529.116C1077.97 528.529 1076.87 528.236 1075.7 528.236C1074.55 528.236 1073.46 528.529 1072.42 529.116C1071.41 529.702 1070.58 530.556 1069.94 531.676C1069.33 532.796 1069.02 534.116 1069.02 535.636C1069.02 537.156 1069.33 538.489 1069.94 539.636C1070.58 540.756 1071.41 541.609 1072.42 542.196C1073.46 542.782 1074.55 543.076 1075.7 543.076C1076.87 543.076 1077.97 542.782 1078.98 542.196C1080.02 541.582 1080.85 540.702 1081.46 539.556C1082.1 538.409 1082.42 537.076 1082.42 535.556ZM1099.57 547.036C1097.84 547.036 1096.28 546.729 1094.89 546.116C1093.53 545.476 1092.45 544.622 1091.65 543.556C1090.85 542.462 1090.42 541.249 1090.37 539.916H1095.09C1095.17 540.849 1095.61 541.636 1096.41 542.276C1097.24 542.889 1098.26 543.196 1099.49 543.196C1100.77 543.196 1101.76 542.956 1102.45 542.476C1103.17 541.969 1103.53 541.329 1103.53 540.556C1103.53 539.729 1103.13 539.116 1102.33 538.716C1101.56 538.316 1100.32 537.876 1098.61 537.396C1096.96 536.942 1095.61 536.502 1094.57 536.076C1093.53 535.649 1092.62 534.996 1091.85 534.116C1091.1 533.236 1090.73 532.076 1090.73 530.636C1090.73 529.462 1091.08 528.396 1091.77 527.436C1092.46 526.449 1093.45 525.676 1094.73 525.116C1096.04 524.556 1097.53 524.276 1099.21 524.276C1101.72 524.276 1103.73 524.916 1105.25 526.196C1106.8 527.449 1107.62 529.169 1107.73 531.356H1103.17C1103.09 530.369 1102.69 529.582 1101.97 528.996C1101.25 528.409 1100.28 528.116 1099.05 528.116C1097.85 528.116 1096.93 528.342 1096.29 528.796C1095.65 529.249 1095.33 529.849 1095.33 530.596C1095.33 531.182 1095.54 531.676 1095.97 532.076C1096.4 532.476 1096.92 532.796 1097.53 533.036C1098.14 533.249 1099.05 533.529 1100.25 533.876C1101.85 534.302 1103.16 534.742 1104.17 535.196C1105.21 535.622 1106.1 536.262 1106.85 537.116C1107.6 537.969 1107.98 539.102 1108.01 540.516C1108.01 541.769 1107.66 542.889 1106.97 543.876C1106.28 544.862 1105.29 545.636 1104.01 546.196C1102.76 546.756 1101.28 547.036 1099.57 547.036ZM1121.81 535.556C1121.81 533.342 1122.26 531.382 1123.17 529.676C1124.1 527.969 1125.35 526.649 1126.93 525.716C1128.53 524.756 1130.29 524.276 1132.21 524.276C1133.94 524.276 1135.45 524.622 1136.73 525.316C1138.03 525.982 1139.07 526.822 1139.85 527.836V524.636H1144.45V546.676H1139.85V543.396C1139.07 544.436 1138.02 545.302 1136.69 545.996C1135.35 546.689 1133.83 547.036 1132.13 547.036C1130.23 547.036 1128.5 546.556 1126.93 545.596C1125.35 544.609 1124.1 543.249 1123.17 541.516C1122.26 539.756 1121.81 537.769 1121.81 535.556ZM1139.85 535.636C1139.85 534.116 1139.53 532.796 1138.89 531.676C1138.27 530.556 1137.46 529.702 1136.45 529.116C1135.43 528.529 1134.34 528.236 1133.17 528.236C1131.99 528.236 1130.9 528.529 1129.89 529.116C1128.87 529.676 1128.05 530.516 1127.41 531.636C1126.79 532.729 1126.49 534.036 1126.49 535.556C1126.49 537.076 1126.79 538.409 1127.41 539.556C1128.05 540.702 1128.87 541.582 1129.89 542.196C1130.93 542.782 1132.02 543.076 1133.17 543.076C1134.34 543.076 1135.43 542.782 1136.45 542.196C1137.46 541.609 1138.27 540.756 1138.89 539.636C1139.53 538.489 1139.85 537.156 1139.85 535.636ZM1158.44 547.036C1156.7 547.036 1155.14 546.729 1153.76 546.116C1152.4 545.476 1151.32 544.622 1150.52 543.556C1149.72 542.462 1149.29 541.249 1149.24 539.916H1153.96C1154.04 540.849 1154.48 541.636 1155.28 542.276C1156.1 542.889 1157.13 543.196 1158.36 543.196C1159.64 543.196 1160.62 542.956 1161.32 542.476C1162.04 541.969 1162.4 541.329 1162.4 540.556C1162.4 539.729 1162 539.116 1161.2 538.716C1160.42 538.316 1159.18 537.876 1157.48 537.396C1155.82 536.942 1154.48 536.502 1153.44 536.076C1152.4 535.649 1151.49 534.996 1150.72 534.116C1149.97 533.236 1149.6 532.076 1149.6 530.636C1149.6 529.462 1149.94 528.396 1150.64 527.436C1151.33 526.449 1152.32 525.676 1153.6 525.116C1154.9 524.556 1156.4 524.276 1158.08 524.276C1160.58 524.276 1162.6 524.916 1164.12 526.196C1165.66 527.449 1166.49 529.169 1166.6 531.356H1162.04C1161.96 530.369 1161.56 529.582 1160.84 528.996C1160.12 528.409 1159.14 528.116 1157.92 528.116C1156.72 528.116 1155.8 528.342 1155.16 528.796C1154.52 529.249 1154.2 529.849 1154.2 530.596C1154.2 531.182 1154.41 531.676 1154.84 532.076C1155.26 532.476 1155.78 532.796 1156.4 533.036C1157.01 533.249 1157.92 533.529 1159.12 533.876C1160.72 534.302 1162.02 534.742 1163.04 535.196C1164.08 535.622 1164.97 536.262 1165.72 537.116C1166.46 537.969 1166.85 539.102 1166.88 540.516C1166.88 541.769 1166.53 542.889 1165.84 543.876C1165.14 544.862 1164.16 545.636 1162.88 546.196C1161.62 546.756 1160.14 547.036 1158.44 547.036ZM1180.68 535.556C1180.68 533.342 1181.13 531.382 1182.04 529.676C1182.97 527.969 1184.22 526.649 1185.8 525.716C1187.4 524.756 1189.16 524.276 1191.08 524.276C1192.81 524.276 1194.32 524.622 1195.6 525.316C1196.9 525.982 1197.94 526.822 1198.72 527.836V524.636H1203.32V546.676H1198.72V543.396C1197.94 544.436 1196.89 545.302 1195.56 545.996C1194.22 546.689 1192.7 547.036 1191 547.036C1189.1 547.036 1187.37 546.556 1185.8 545.596C1184.22 544.609 1182.97 543.249 1182.04 541.516C1181.13 539.756 1180.68 537.769 1180.68 535.556ZM1198.72 535.636C1198.72 534.116 1198.4 532.796 1197.76 531.676C1197.14 530.556 1196.33 529.702 1195.32 529.116C1194.3 528.529 1193.21 528.236 1192.04 528.236C1190.86 528.236 1189.77 528.529 1188.76 529.116C1187.74 529.676 1186.92 530.516 1186.28 531.636C1185.66 532.729 1185.36 534.036 1185.36 535.556C1185.36 537.076 1185.66 538.409 1186.28 539.556C1186.92 540.702 1187.74 541.582 1188.76 542.196C1189.8 542.782 1190.89 543.076 1192.04 543.076C1193.21 543.076 1194.3 542.782 1195.32 542.196C1196.33 541.609 1197.14 540.756 1197.76 539.636C1198.4 538.489 1198.72 537.156 1198.72 535.636ZM966.16 606.956C964.293 606.956 962.613 606.636 961.12 605.996C959.627 605.329 958.453 604.396 957.6 603.196C956.747 601.996 956.32 600.596 956.32 598.996H961.2C961.307 600.196 961.773 601.182 962.6 601.956C963.453 602.729 964.64 603.116 966.16 603.116C967.733 603.116 968.96 602.742 969.84 601.996C970.72 601.222 971.16 600.236 971.16 599.036C971.16 598.102 970.88 597.342 970.32 596.756C969.787 596.169 969.107 595.716 968.28 595.396C967.48 595.076 966.36 594.729 964.92 594.356C963.107 593.876 961.627 593.396 960.48 592.916C959.36 592.409 958.4 591.636 957.6 590.596C956.8 589.556 956.4 588.169 956.4 586.436C956.4 584.836 956.8 583.436 957.6 582.236C958.4 581.036 959.52 580.116 960.96 579.476C962.4 578.836 964.067 578.516 965.96 578.516C968.653 578.516 970.853 579.196 972.56 580.556C974.293 581.889 975.253 583.729 975.44 586.076H970.4C970.32 585.062 969.84 584.196 968.96 583.476C968.08 582.756 966.92 582.396 965.48 582.396C964.173 582.396 963.107 582.729 962.28 583.396C961.453 584.062 961.04 585.022 961.04 586.276C961.04 587.129 961.293 587.836 961.8 588.396C962.333 588.929 963 589.356 963.8 589.676C964.6 589.996 965.693 590.342 967.08 590.716C968.92 591.222 970.413 591.729 971.56 592.236C972.733 592.742 973.72 593.529 974.52 594.596C975.347 595.636 975.76 597.036 975.76 598.796C975.76 600.209 975.373 601.542 974.6 602.796C973.853 604.049 972.747 605.062 971.28 605.836C969.84 606.582 968.133 606.956 966.16 606.956ZM1001.34 595.116C1001.34 595.942 1001.29 596.689 1001.18 597.356H984.341C984.474 599.116 985.127 600.529 986.301 601.596C987.474 602.662 988.914 603.196 990.621 603.196C993.074 603.196 994.807 602.169 995.821 600.116H1000.74C1000.07 602.142 998.861 603.809 997.101 605.116C995.367 606.396 993.207 607.036 990.621 607.036C988.514 607.036 986.621 606.569 984.941 605.636C983.287 604.676 981.981 603.342 981.021 601.636C980.087 599.902 979.621 597.902 979.621 595.636C979.621 593.369 980.074 591.382 980.981 589.676C981.914 587.942 983.207 586.609 984.861 585.676C986.541 584.742 988.461 584.276 990.621 584.276C992.701 584.276 994.554 584.729 996.181 585.636C997.807 586.542 999.074 587.822 999.981 589.476C1000.89 591.102 1001.34 592.982 1001.34 595.116ZM996.581 593.676C996.554 591.996 995.954 590.649 994.781 589.636C993.607 588.622 992.154 588.116 990.421 588.116C988.847 588.116 987.501 588.622 986.381 589.636C985.261 590.622 984.594 591.969 984.381 593.676H996.581ZM1010.39 587.836C1011.05 586.716 1011.93 585.849 1013.03 585.236C1014.15 584.596 1015.47 584.276 1016.99 584.276V588.996H1015.83C1014.04 588.996 1012.68 589.449 1011.75 590.356C1010.84 591.262 1010.39 592.836 1010.39 595.076V606.676H1005.83V584.636H1010.39V587.836ZM1029.7 602.596L1035.94 584.636H1040.78L1032.38 606.676H1026.94L1018.58 584.636H1023.46L1029.7 602.596ZM1046.55 581.716C1045.72 581.716 1045.03 581.436 1044.47 580.876C1043.91 580.316 1043.63 579.622 1043.63 578.796C1043.63 577.969 1043.91 577.276 1044.47 576.716C1045.03 576.156 1045.72 575.876 1046.55 575.876C1047.35 575.876 1048.03 576.156 1048.59 576.716C1049.15 577.276 1049.43 577.969 1049.43 578.796C1049.43 579.622 1049.15 580.316 1048.59 580.876C1048.03 581.436 1047.35 581.716 1046.55 581.716ZM1048.79 584.636V606.676H1044.23V584.636H1048.79ZM1053.25 595.636C1053.25 593.369 1053.71 591.382 1054.61 589.676C1055.55 587.942 1056.83 586.609 1058.45 585.676C1060.08 584.742 1061.95 584.276 1064.05 584.276C1066.72 584.276 1068.92 584.916 1070.65 586.196C1072.41 587.449 1073.6 589.249 1074.21 591.596H1069.29C1068.89 590.502 1068.25 589.649 1067.37 589.036C1066.49 588.422 1065.39 588.116 1064.05 588.116C1062.19 588.116 1060.69 588.782 1059.57 590.116C1058.48 591.422 1057.93 593.262 1057.93 595.636C1057.93 598.009 1058.48 599.862 1059.57 601.196C1060.69 602.529 1062.19 603.196 1064.05 603.196C1066.69 603.196 1068.44 602.036 1069.29 599.716H1074.21C1073.57 601.956 1072.37 603.742 1070.61 605.076C1068.85 606.382 1066.67 607.036 1064.05 607.036C1061.95 607.036 1060.08 606.569 1058.45 605.636C1056.83 604.676 1055.55 603.342 1054.61 601.636C1053.71 599.902 1053.25 597.902 1053.25 595.636ZM1098.96 595.116C1098.96 595.942 1098.9 596.689 1098.8 597.356H1081.96C1082.09 599.116 1082.74 600.529 1083.92 601.596C1085.09 602.662 1086.53 603.196 1088.24 603.196C1090.69 603.196 1092.42 602.169 1093.44 600.116H1098.36C1097.69 602.142 1096.48 603.809 1094.72 605.116C1092.98 606.396 1090.82 607.036 1088.24 607.036C1086.13 607.036 1084.24 606.569 1082.56 605.636C1080.9 604.676 1079.6 603.342 1078.64 601.636C1077.7 599.902 1077.24 597.902 1077.24 595.636C1077.24 593.369 1077.69 591.382 1078.6 589.676C1079.53 587.942 1080.82 586.609 1082.48 585.676C1084.16 584.742 1086.08 584.276 1088.24 584.276C1090.32 584.276 1092.17 584.729 1093.8 585.636C1095.42 586.542 1096.69 587.822 1097.6 589.476C1098.5 591.102 1098.96 592.982 1098.96 595.116ZM1094.2 593.676C1094.17 591.996 1093.57 590.649 1092.4 589.636C1091.22 588.622 1089.77 588.116 1088.04 588.116C1086.46 588.116 1085.12 588.622 1084 589.636C1082.88 590.622 1082.21 591.969 1082 593.676H1094.2ZM1123.92 614.116C1121.3 611.609 1119.29 608.422 1117.88 604.556C1116.49 600.689 1115.8 596.542 1115.8 592.116C1115.8 587.582 1116.54 583.302 1118.04 579.276C1119.56 575.249 1121.78 571.929 1124.72 569.316H1129.44V569.756C1126.37 572.582 1124.06 575.969 1122.52 579.916C1120.97 583.862 1120.2 587.929 1120.2 592.116C1120.2 596.142 1120.92 600.036 1122.36 603.796C1123.8 607.556 1125.89 610.849 1128.64 613.676V614.116H1123.92ZM1142.6 578.876C1145.56 578.876 1148.15 579.449 1150.36 580.596C1152.6 581.716 1154.32 583.342 1155.52 585.476C1156.75 587.582 1157.36 590.049 1157.36 592.876C1157.36 595.702 1156.75 598.156 1155.52 600.236C1154.32 602.316 1152.6 603.916 1150.36 605.036C1148.15 606.129 1145.56 606.676 1142.6 606.676H1133.52V578.876H1142.6ZM1142.6 602.956C1145.86 602.956 1148.35 602.076 1150.08 600.316C1151.82 598.556 1152.68 596.076 1152.68 592.876C1152.68 589.649 1151.82 587.129 1150.08 585.316C1148.35 583.502 1145.86 582.596 1142.6 582.596H1138.08V602.956H1142.6ZM1160.36 595.556C1160.36 593.342 1160.82 591.382 1161.72 589.676C1162.66 587.969 1163.91 586.649 1165.48 585.716C1167.08 584.756 1168.84 584.276 1170.76 584.276C1172.5 584.276 1174 584.622 1175.28 585.316C1176.59 585.982 1177.63 586.822 1178.4 587.836V584.636H1183V606.676H1178.4V603.396C1177.63 604.436 1176.58 605.302 1175.24 605.996C1173.91 606.689 1172.39 607.036 1170.68 607.036C1168.79 607.036 1167.06 606.556 1165.48 605.596C1163.91 604.609 1162.66 603.249 1161.72 601.516C1160.82 599.756 1160.36 597.769 1160.36 595.556ZM1178.4 595.636C1178.4 594.116 1178.08 592.796 1177.44 591.676C1176.83 590.556 1176.02 589.702 1175 589.116C1173.99 588.529 1172.9 588.236 1171.72 588.236C1170.55 588.236 1169.46 588.529 1168.44 589.116C1167.43 589.676 1166.6 590.516 1165.96 591.636C1165.35 592.729 1165.04 594.036 1165.04 595.556C1165.04 597.076 1165.35 598.409 1165.96 599.556C1166.6 600.702 1167.43 601.582 1168.44 602.196C1169.48 602.782 1170.58 603.076 1171.72 603.076C1172.9 603.076 1173.99 602.782 1175 602.196C1176.02 601.609 1176.83 600.756 1177.44 599.636C1178.08 598.489 1178.4 597.156 1178.4 595.636ZM1187.47 595.556C1187.47 593.342 1187.93 591.382 1188.83 589.676C1189.77 587.969 1191.02 586.649 1192.59 585.716C1194.19 584.756 1195.95 584.276 1197.87 584.276C1199.61 584.276 1201.11 584.622 1202.39 585.316C1203.7 585.982 1204.74 586.822 1205.51 587.836V584.636H1210.11V606.676H1205.51V603.396C1204.74 604.436 1203.69 605.302 1202.35 605.996C1201.02 606.689 1199.5 607.036 1197.79 607.036C1195.9 607.036 1194.17 606.556 1192.59 605.596C1191.02 604.609 1189.77 603.249 1188.83 601.516C1187.93 599.756 1187.47 597.769 1187.47 595.556ZM1205.51 595.636C1205.51 594.116 1205.19 592.796 1204.55 591.676C1203.94 590.556 1203.13 589.702 1202.11 589.116C1201.1 588.529 1200.01 588.236 1198.83 588.236C1197.66 588.236 1196.57 588.529 1195.55 589.116C1194.54 589.676 1193.71 590.516 1193.07 591.636C1192.46 592.729 1192.15 594.036 1192.15 595.556C1192.15 597.076 1192.46 598.409 1193.07 599.556C1193.71 600.702 1194.54 601.582 1195.55 602.196C1196.59 602.782 1197.69 603.076 1198.83 603.076C1200.01 603.076 1201.1 602.782 1202.11 602.196C1203.13 601.609 1203.94 600.756 1204.55 599.636C1205.19 598.489 1205.51 597.156 1205.51 595.636ZM1225.26 606.956C1223.39 606.956 1221.71 606.636 1220.22 605.996C1218.73 605.329 1217.55 604.396 1216.7 603.196C1215.85 601.996 1215.42 600.596 1215.42 598.996H1220.3C1220.41 600.196 1220.87 601.182 1221.7 601.956C1222.55 602.729 1223.74 603.116 1225.26 603.116C1226.83 603.116 1228.06 602.742 1228.94 601.996C1229.82 601.222 1230.26 600.236 1230.26 599.036C1230.26 598.102 1229.98 597.342 1229.42 596.756C1228.89 596.169 1228.21 595.716 1227.38 595.396C1226.58 595.076 1225.46 594.729 1224.02 594.356C1222.21 593.876 1220.73 593.396 1219.58 592.916C1218.46 592.409 1217.5 591.636 1216.7 590.596C1215.9 589.556 1215.5 588.169 1215.5 586.436C1215.5 584.836 1215.9 583.436 1216.7 582.236C1217.5 581.036 1218.62 580.116 1220.06 579.476C1221.5 578.836 1223.17 578.516 1225.06 578.516C1227.75 578.516 1229.95 579.196 1231.66 580.556C1233.39 581.889 1234.35 583.729 1234.54 586.076H1229.5C1229.42 585.062 1228.94 584.196 1228.06 583.476C1227.18 582.756 1226.02 582.396 1224.58 582.396C1223.27 582.396 1222.21 582.729 1221.38 583.396C1220.55 584.062 1220.14 585.022 1220.14 586.276C1220.14 587.129 1220.39 587.836 1220.9 588.396C1221.43 588.929 1222.1 589.356 1222.9 589.676C1223.7 589.996 1224.79 590.342 1226.18 590.716C1228.02 591.222 1229.51 591.729 1230.66 592.236C1231.83 592.742 1232.82 593.529 1233.62 594.596C1234.45 595.636 1234.86 597.036 1234.86 598.796C1234.86 600.209 1234.47 601.542 1233.7 602.796C1232.95 604.049 1231.85 605.062 1230.38 605.836C1228.94 606.582 1227.23 606.956 1225.26 606.956ZM1239.12 614.116V613.676C1241.87 610.849 1243.96 607.556 1245.4 603.796C1246.84 600.036 1247.56 596.142 1247.56 592.116C1247.56 587.929 1246.79 583.862 1245.24 579.916C1243.7 575.969 1241.39 572.582 1238.32 569.756V569.316H1243.04C1245.98 571.929 1248.19 575.249 1249.68 579.276C1251.2 583.302 1251.96 587.582 1251.96 592.116C1251.96 596.542 1251.26 600.689 1249.84 604.556C1248.46 608.422 1246.46 611.609 1243.84 614.116H1239.12Z" fill="#54949B"/>
<path d="M515.48 1136.72C515.48 1134 516.107 1131.56 517.36 1129.4C518.64 1127.24 520.36 1125.56 522.52 1124.36C524.707 1123.13 527.093 1122.52 529.68 1122.52C532.64 1122.52 535.267 1123.25 537.56 1124.72C539.88 1126.16 541.56 1128.21 542.6 1130.88H537.12C536.4 1129.41 535.4 1128.32 534.12 1127.6C532.84 1126.88 531.36 1126.52 529.68 1126.52C527.84 1126.52 526.2 1126.93 524.76 1127.76C523.32 1128.58 522.187 1129.77 521.36 1131.32C520.56 1132.86 520.16 1134.66 520.16 1136.72C520.16 1138.77 520.56 1140.57 521.36 1142.12C522.187 1143.66 523.32 1144.86 524.76 1145.72C526.2 1146.54 527.84 1146.96 529.68 1146.96C531.36 1146.96 532.84 1146.6 534.12 1145.88C535.4 1145.16 536.4 1144.06 537.12 1142.6H542.6C541.56 1145.26 539.88 1147.32 537.56 1148.76C535.267 1150.2 532.64 1150.92 529.68 1150.92C527.067 1150.92 524.68 1150.32 522.52 1149.12C520.36 1147.89 518.64 1146.2 517.36 1144.04C516.107 1141.88 515.48 1139.44 515.48 1136.72ZM552.498 1121.08V1150.68H547.938V1121.08H552.498ZM568.044 1151.04C565.964 1151.04 564.084 1150.57 562.404 1149.64C560.724 1148.68 559.404 1147.34 558.444 1145.64C557.484 1143.9 557.004 1141.9 557.004 1139.64C557.004 1137.4 557.498 1135.41 558.484 1133.68C559.471 1131.94 560.818 1130.61 562.524 1129.68C564.231 1128.74 566.138 1128.28 568.244 1128.28C570.351 1128.28 572.258 1128.74 573.964 1129.68C575.671 1130.61 577.018 1131.94 578.004 1133.68C578.991 1135.41 579.484 1137.4 579.484 1139.64C579.484 1141.88 578.978 1143.86 577.964 1145.6C576.951 1147.33 575.564 1148.68 573.804 1149.64C572.071 1150.57 570.151 1151.04 568.044 1151.04ZM568.044 1147.08C569.218 1147.08 570.311 1146.8 571.324 1146.24C572.364 1145.68 573.204 1144.84 573.844 1143.72C574.484 1142.6 574.804 1141.24 574.804 1139.64C574.804 1138.04 574.498 1136.69 573.884 1135.6C573.271 1134.48 572.458 1133.64 571.444 1133.08C570.431 1132.52 569.338 1132.24 568.164 1132.24C566.991 1132.24 565.898 1132.52 564.884 1133.08C563.898 1133.64 563.111 1134.48 562.524 1135.6C561.938 1136.69 561.644 1138.04 561.644 1139.64C561.644 1142.01 562.244 1143.85 563.444 1145.16C564.671 1146.44 566.204 1147.08 568.044 1147.08ZM603.952 1128.64V1150.68H599.392V1148.08C598.672 1148.98 597.726 1149.7 596.552 1150.24C595.406 1150.74 594.179 1151 592.872 1151C591.139 1151 589.579 1150.64 588.192 1149.92C586.832 1149.2 585.752 1148.13 584.952 1146.72C584.179 1145.3 583.792 1143.6 583.792 1141.6V1128.64H588.312V1140.92C588.312 1142.89 588.806 1144.41 589.792 1145.48C590.779 1146.52 592.126 1147.04 593.832 1147.04C595.539 1147.04 596.886 1146.52 597.872 1145.48C598.886 1144.41 599.392 1142.89 599.392 1140.92V1128.64H603.952ZM608.449 1139.56C608.449 1137.34 608.902 1135.38 609.809 1133.68C610.742 1131.97 611.995 1130.65 613.569 1129.72C615.169 1128.76 616.942 1128.28 618.889 1128.28C620.329 1128.28 621.742 1128.6 623.129 1129.24C624.542 1129.85 625.662 1130.68 626.489 1131.72V1121.08H631.089V1150.68H626.489V1147.36C625.742 1148.42 624.702 1149.3 623.369 1150C622.062 1150.69 620.555 1151.04 618.849 1151.04C616.929 1151.04 615.169 1150.56 613.569 1149.6C611.995 1148.61 610.742 1147.25 609.809 1145.52C608.902 1143.76 608.449 1141.77 608.449 1139.56ZM626.489 1139.64C626.489 1138.12 626.169 1136.8 625.529 1135.68C624.915 1134.56 624.102 1133.7 623.089 1133.12C622.075 1132.53 620.982 1132.24 619.809 1132.24C618.635 1132.24 617.542 1132.53 616.529 1133.12C615.515 1133.68 614.689 1134.52 614.049 1135.64C613.435 1136.73 613.129 1138.04 613.129 1139.56C613.129 1141.08 613.435 1142.41 614.049 1143.56C614.689 1144.7 615.515 1145.58 616.529 1146.2C617.569 1146.78 618.662 1147.08 619.809 1147.08C620.982 1147.08 622.075 1146.78 623.089 1146.2C624.102 1145.61 624.915 1144.76 625.529 1143.64C626.169 1142.49 626.489 1141.16 626.489 1139.64ZM676.749 1122.88V1150.68H672.189V1131.64L663.709 1150.68H660.549L652.029 1131.64V1150.68H647.469V1122.88H652.389L662.149 1144.68L671.869 1122.88H676.749ZM685.062 1125.72C684.236 1125.72 683.542 1125.44 682.982 1124.88C682.422 1124.32 682.142 1123.62 682.142 1122.8C682.142 1121.97 682.422 1121.28 682.982 1120.72C683.542 1120.16 684.236 1119.88 685.062 1119.88C685.862 1119.88 686.542 1120.16 687.102 1120.72C687.662 1121.28 687.942 1121.97 687.942 1122.8C687.942 1123.62 687.662 1124.32 687.102 1124.88C686.542 1125.44 685.862 1125.72 685.062 1125.72ZM687.302 1128.64V1150.68H682.742V1128.64H687.302ZM702.169 1128.28C703.876 1128.28 705.382 1128.62 706.689 1129.32C708.022 1129.98 709.062 1130.82 709.809 1131.84V1128.64H714.409V1151.04C714.409 1153.06 713.982 1154.86 713.129 1156.44C712.276 1158.04 711.036 1159.29 709.409 1160.2C707.809 1161.1 705.889 1161.56 703.649 1161.56C700.662 1161.56 698.182 1160.85 696.209 1159.44C694.236 1158.05 693.116 1156.16 692.849 1153.76H697.369C697.716 1154.9 698.449 1155.82 699.569 1156.52C700.716 1157.24 702.076 1157.6 703.649 1157.6C705.489 1157.6 706.969 1157.04 708.089 1155.92C709.236 1154.8 709.809 1153.17 709.809 1151.04V1147.36C709.036 1148.4 707.982 1149.28 706.649 1150C705.342 1150.69 703.849 1151.04 702.169 1151.04C700.249 1151.04 698.489 1150.56 696.889 1149.6C695.316 1148.61 694.062 1147.25 693.129 1145.52C692.222 1143.76 691.769 1141.77 691.769 1139.56C691.769 1137.34 692.222 1135.38 693.129 1133.68C694.062 1131.97 695.316 1130.65 696.889 1129.72C698.489 1128.76 700.249 1128.28 702.169 1128.28ZM709.809 1139.64C709.809 1138.12 709.489 1136.8 708.849 1135.68C708.236 1134.56 707.422 1133.7 706.409 1133.12C705.396 1132.53 704.302 1132.24 703.129 1132.24C701.956 1132.24 700.862 1132.53 699.849 1133.12C698.836 1133.68 698.009 1134.52 697.369 1135.64C696.756 1136.73 696.449 1138.04 696.449 1139.56C696.449 1141.08 696.756 1142.41 697.369 1143.56C698.009 1144.7 698.836 1145.58 699.849 1146.2C700.889 1146.78 701.982 1147.08 703.129 1147.08C704.302 1147.08 705.396 1146.78 706.409 1146.2C707.422 1145.61 708.236 1144.76 708.849 1143.64C709.489 1142.49 709.809 1141.16 709.809 1139.64ZM724.958 1131.84C725.625 1130.72 726.505 1129.85 727.598 1129.24C728.718 1128.6 730.038 1128.28 731.558 1128.28V1133H730.398C728.612 1133 727.252 1133.45 726.318 1134.36C725.412 1135.26 724.958 1136.84 724.958 1139.08V1150.68H720.398V1128.64H724.958V1131.84ZM734.23 1139.56C734.23 1137.34 734.683 1135.38 735.59 1133.68C736.523 1131.97 737.777 1130.65 739.35 1129.72C740.95 1128.76 742.71 1128.28 744.63 1128.28C746.363 1128.28 747.87 1128.62 749.15 1129.32C750.457 1129.98 751.497 1130.82 752.27 1131.84V1128.64H756.87V1150.68H752.27V1147.4C751.497 1148.44 750.443 1149.3 749.11 1150C747.777 1150.69 746.257 1151.04 744.55 1151.04C742.657 1151.04 740.923 1150.56 739.35 1149.6C737.777 1148.61 736.523 1147.25 735.59 1145.52C734.683 1143.76 734.23 1141.77 734.23 1139.56ZM752.27 1139.64C752.27 1138.12 751.95 1136.8 751.31 1135.68C750.697 1134.56 749.883 1133.7 748.87 1133.12C747.857 1132.53 746.763 1132.24 745.59 1132.24C744.417 1132.24 743.323 1132.53 742.31 1133.12C741.297 1133.68 740.47 1134.52 739.83 1135.64C739.217 1136.73 738.91 1138.04 738.91 1139.56C738.91 1141.08 739.217 1142.41 739.83 1143.56C740.47 1144.7 741.297 1145.58 742.31 1146.2C743.35 1146.78 744.443 1147.08 745.59 1147.08C746.763 1147.08 747.857 1146.78 748.87 1146.2C749.883 1145.61 750.697 1144.76 751.31 1143.64C751.95 1142.49 752.27 1141.16 752.27 1139.64ZM768.179 1132.36V1144.56C768.179 1145.38 768.366 1145.98 768.739 1146.36C769.139 1146.7 769.806 1146.88 770.739 1146.88H773.539V1150.68H769.939C767.886 1150.68 766.313 1150.2 765.219 1149.24C764.126 1148.28 763.579 1146.72 763.579 1144.56V1132.36H760.979V1128.64H763.579V1123.16H768.179V1128.64H773.539V1132.36H768.179ZM780.062 1125.72C779.236 1125.72 778.542 1125.44 777.982 1124.88C777.422 1124.32 777.142 1123.62 777.142 1122.8C777.142 1121.97 777.422 1121.28 777.982 1120.72C778.542 1120.16 779.236 1119.88 780.062 1119.88C780.862 1119.88 781.542 1120.16 782.102 1120.72C782.662 1121.28 782.942 1121.97 782.942 1122.8C782.942 1123.62 782.662 1124.32 782.102 1124.88C781.542 1125.44 780.862 1125.72 780.062 1125.72ZM782.302 1128.64V1150.68H777.742V1128.64H782.302ZM797.849 1151.04C795.769 1151.04 793.889 1150.57 792.209 1149.64C790.529 1148.68 789.209 1147.34 788.249 1145.64C787.289 1143.9 786.809 1141.9 786.809 1139.64C786.809 1137.4 787.302 1135.41 788.289 1133.68C789.276 1131.94 790.622 1130.61 792.329 1129.68C794.036 1128.74 795.942 1128.28 798.049 1128.28C800.156 1128.28 802.062 1128.74 803.769 1129.68C805.476 1130.61 806.822 1131.94 807.809 1133.68C808.796 1135.41 809.289 1137.4 809.289 1139.64C809.289 1141.88 808.782 1143.86 807.769 1145.6C806.756 1147.33 805.369 1148.68 803.609 1149.64C801.876 1150.57 799.956 1151.04 797.849 1151.04ZM797.849 1147.08C799.022 1147.08 800.116 1146.8 801.129 1146.24C802.169 1145.68 803.009 1144.84 803.649 1143.72C804.289 1142.6 804.609 1141.24 804.609 1139.64C804.609 1138.04 804.302 1136.69 803.689 1135.6C803.076 1134.48 802.262 1133.64 801.249 1133.08C800.236 1132.52 799.142 1132.24 797.969 1132.24C796.796 1132.24 795.702 1132.52 794.689 1133.08C793.702 1133.64 792.916 1134.48 792.329 1135.6C791.742 1136.69 791.449 1138.04 791.449 1139.64C791.449 1142.01 792.049 1143.85 793.249 1145.16C794.476 1146.44 796.009 1147.08 797.849 1147.08ZM824.917 1128.28C826.65 1128.28 828.197 1128.64 829.557 1129.36C830.944 1130.08 832.024 1131.14 832.797 1132.56C833.57 1133.97 833.957 1135.68 833.957 1137.68V1150.68H829.437V1138.36C829.437 1136.38 828.944 1134.88 827.957 1133.84C826.97 1132.77 825.624 1132.24 823.917 1132.24C822.21 1132.24 820.85 1132.77 819.837 1133.84C818.85 1134.88 818.357 1136.38 818.357 1138.36V1150.68H813.797V1128.64H818.357V1131.16C819.104 1130.25 820.05 1129.54 821.197 1129.04C822.37 1128.53 823.61 1128.28 824.917 1128.28ZM515.48 1199.56C515.48 1197.34 515.933 1195.38 516.84 1193.68C517.773 1191.97 519.027 1190.65 520.6 1189.72C522.2 1188.76 523.96 1188.28 525.88 1188.28C527.613 1188.28 529.12 1188.62 530.4 1189.32C531.707 1189.98 532.747 1190.82 533.52 1191.84V1188.64H538.12V1210.68H533.52V1207.4C532.747 1208.44 531.693 1209.3 530.36 1210C529.027 1210.69 527.507 1211.04 525.8 1211.04C523.907 1211.04 522.173 1210.56 520.6 1209.6C519.027 1208.61 517.773 1207.25 516.84 1205.52C515.933 1203.76 515.48 1201.77 515.48 1199.56ZM533.52 1199.64C533.52 1198.12 533.2 1196.8 532.56 1195.68C531.947 1194.56 531.133 1193.7 530.12 1193.12C529.107 1192.53 528.013 1192.24 526.84 1192.24C525.667 1192.24 524.573 1192.53 523.56 1193.12C522.547 1193.68 521.72 1194.52 521.08 1195.64C520.467 1196.73 520.16 1198.04 520.16 1199.56C520.16 1201.08 520.467 1202.41 521.08 1203.56C521.72 1204.7 522.547 1205.58 523.56 1206.2C524.6 1206.78 525.693 1207.08 526.84 1207.08C528.013 1207.08 529.107 1206.78 530.12 1206.2C531.133 1205.61 531.947 1204.76 532.56 1203.64C533.2 1202.49 533.52 1201.16 533.52 1199.64ZM555.229 1188.28C556.963 1188.28 558.509 1188.64 559.869 1189.36C561.256 1190.08 562.336 1191.14 563.109 1192.56C563.883 1193.97 564.269 1195.68 564.269 1197.68V1210.68H559.749V1198.36C559.749 1196.38 559.256 1194.88 558.269 1193.84C557.283 1192.77 555.936 1192.24 554.229 1192.24C552.523 1192.24 551.163 1192.77 550.149 1193.84C549.163 1194.88 548.669 1196.38 548.669 1198.36V1210.68H544.109V1188.64H548.669V1191.16C549.416 1190.25 550.363 1189.54 551.509 1189.04C552.683 1188.53 553.923 1188.28 555.229 1188.28ZM568.566 1199.56C568.566 1197.34 569.019 1195.38 569.926 1193.68C570.859 1191.97 572.113 1190.65 573.686 1189.72C575.286 1188.76 577.059 1188.28 579.006 1188.28C580.446 1188.28 581.859 1188.6 583.246 1189.24C584.659 1189.85 585.779 1190.68 586.606 1191.72V1181.08H591.206V1210.68H586.606V1207.36C585.859 1208.42 584.819 1209.3 583.486 1210C582.179 1210.69 580.673 1211.04 578.966 1211.04C577.046 1211.04 575.286 1210.56 573.686 1209.6C572.113 1208.61 570.859 1207.25 569.926 1205.52C569.019 1203.76 568.566 1201.77 568.566 1199.56ZM586.606 1199.64C586.606 1198.12 586.286 1196.8 585.646 1195.68C585.033 1194.56 584.219 1193.7 583.206 1193.12C582.193 1192.53 581.099 1192.24 579.926 1192.24C578.753 1192.24 577.659 1192.53 576.646 1193.12C575.633 1193.68 574.806 1194.52 574.166 1195.64C573.553 1196.73 573.246 1198.04 573.246 1199.56C573.246 1201.08 573.553 1202.41 574.166 1203.56C574.806 1204.7 575.633 1205.58 576.646 1206.2C577.686 1206.78 578.779 1207.08 579.926 1207.08C581.099 1207.08 582.193 1206.78 583.206 1206.2C584.219 1205.61 585.033 1204.76 585.646 1203.64C586.286 1202.49 586.606 1201.16 586.606 1199.64ZM636.866 1182.88V1210.68H632.306V1191.64L623.826 1210.68H620.666L612.146 1191.64V1210.68H607.586V1182.88H612.506L622.266 1204.68L631.986 1182.88H636.866ZM641.339 1199.56C641.339 1197.34 641.793 1195.38 642.699 1193.68C643.633 1191.97 644.886 1190.65 646.459 1189.72C648.059 1188.76 649.819 1188.28 651.739 1188.28C653.473 1188.28 654.979 1188.62 656.259 1189.32C657.566 1189.98 658.606 1190.82 659.379 1191.84V1188.64H663.979V1210.68H659.379V1207.4C658.606 1208.44 657.553 1209.3 656.219 1210C654.886 1210.69 653.366 1211.04 651.659 1211.04C649.766 1211.04 648.033 1210.56 646.459 1209.6C644.886 1208.61 643.633 1207.25 642.699 1205.52C641.793 1203.76 641.339 1201.77 641.339 1199.56ZM659.379 1199.64C659.379 1198.12 659.059 1196.8 658.419 1195.68C657.806 1194.56 656.993 1193.7 655.979 1193.12C654.966 1192.53 653.873 1192.24 652.699 1192.24C651.526 1192.24 650.433 1192.53 649.419 1193.12C648.406 1193.68 647.579 1194.52 646.939 1195.64C646.326 1196.73 646.019 1198.04 646.019 1199.56C646.019 1201.08 646.326 1202.41 646.939 1203.56C647.579 1204.7 648.406 1205.58 649.419 1206.2C650.459 1206.78 651.553 1207.08 652.699 1207.08C653.873 1207.08 654.966 1206.78 655.979 1206.2C656.993 1205.61 657.806 1204.76 658.419 1203.64C659.059 1202.49 659.379 1201.16 659.379 1199.64ZM681.089 1188.28C682.822 1188.28 684.369 1188.64 685.729 1189.36C687.115 1190.08 688.195 1191.14 688.969 1192.56C689.742 1193.97 690.129 1195.68 690.129 1197.68V1210.68H685.609V1198.36C685.609 1196.38 685.115 1194.88 684.129 1193.84C683.142 1192.77 681.795 1192.24 680.089 1192.24C678.382 1192.24 677.022 1192.77 676.009 1193.84C675.022 1194.88 674.529 1196.38 674.529 1198.36V1210.68H669.969V1188.64H674.529V1191.16C675.275 1190.25 676.222 1189.54 677.369 1189.04C678.542 1188.53 679.782 1188.28 681.089 1188.28ZM694.425 1199.56C694.425 1197.34 694.879 1195.38 695.785 1193.68C696.719 1191.97 697.972 1190.65 699.545 1189.72C701.145 1188.76 702.905 1188.28 704.825 1188.28C706.559 1188.28 708.065 1188.62 709.345 1189.32C710.652 1189.98 711.692 1190.82 712.465 1191.84V1188.64H717.065V1210.68H712.465V1207.4C711.692 1208.44 710.639 1209.3 709.305 1210C707.972 1210.69 706.452 1211.04 704.745 1211.04C702.852 1211.04 701.119 1210.56 699.545 1209.6C697.972 1208.61 696.719 1207.25 695.785 1205.52C694.879 1203.76 694.425 1201.77 694.425 1199.56ZM712.465 1199.64C712.465 1198.12 712.145 1196.8 711.505 1195.68C710.892 1194.56 710.079 1193.7 709.065 1193.12C708.052 1192.53 706.959 1192.24 705.785 1192.24C704.612 1192.24 703.519 1192.53 702.505 1193.12C701.492 1193.68 700.665 1194.52 700.025 1195.64C699.412 1196.73 699.105 1198.04 699.105 1199.56C699.105 1201.08 699.412 1202.41 700.025 1203.56C700.665 1204.7 701.492 1205.58 702.505 1206.2C703.545 1206.78 704.639 1207.08 705.785 1207.08C706.959 1207.08 708.052 1206.78 709.065 1206.2C710.079 1205.61 710.892 1204.76 711.505 1203.64C712.145 1202.49 712.465 1201.16 712.465 1199.64ZM731.935 1188.28C733.641 1188.28 735.148 1188.62 736.455 1189.32C737.788 1189.98 738.828 1190.82 739.575 1191.84V1188.64H744.175V1211.04C744.175 1213.06 743.748 1214.86 742.895 1216.44C742.041 1218.04 740.801 1219.29 739.175 1220.2C737.575 1221.1 735.655 1221.56 733.415 1221.56C730.428 1221.56 727.948 1220.85 725.975 1219.44C724.001 1218.05 722.881 1216.16 722.615 1213.76H727.135C727.481 1214.9 728.215 1215.82 729.335 1216.52C730.481 1217.24 731.841 1217.6 733.415 1217.6C735.255 1217.6 736.735 1217.04 737.855 1215.92C739.001 1214.8 739.575 1213.17 739.575 1211.04V1207.36C738.801 1208.4 737.748 1209.28 736.415 1210C735.108 1210.69 733.615 1211.04 731.935 1211.04C730.015 1211.04 728.255 1210.56 726.655 1209.6C725.081 1208.61 723.828 1207.25 722.895 1205.52C721.988 1203.76 721.535 1201.77 721.535 1199.56C721.535 1197.34 721.988 1195.38 722.895 1193.68C723.828 1191.97 725.081 1190.65 726.655 1189.72C728.255 1188.76 730.015 1188.28 731.935 1188.28ZM739.575 1199.64C739.575 1198.12 739.255 1196.8 738.615 1195.68C738.001 1194.56 737.188 1193.7 736.175 1193.12C735.161 1192.53 734.068 1192.24 732.895 1192.24C731.721 1192.24 730.628 1192.53 729.615 1193.12C728.601 1193.68 727.775 1194.52 727.135 1195.64C726.521 1196.73 726.215 1198.04 726.215 1199.56C726.215 1201.08 726.521 1202.41 727.135 1203.56C727.775 1204.7 728.601 1205.58 729.615 1206.2C730.655 1206.78 731.748 1207.08 732.895 1207.08C734.068 1207.08 735.161 1206.78 736.175 1206.2C737.188 1205.61 738.001 1204.76 738.615 1203.64C739.255 1202.49 739.575 1201.16 739.575 1199.64ZM770.364 1199.12C770.364 1199.94 770.311 1200.69 770.204 1201.36H753.364C753.497 1203.12 754.151 1204.53 755.324 1205.6C756.497 1206.66 757.937 1207.2 759.644 1207.2C762.097 1207.2 763.831 1206.17 764.844 1204.12H769.764C769.097 1206.14 767.884 1207.81 766.124 1209.12C764.391 1210.4 762.231 1211.04 759.644 1211.04C757.537 1211.04 755.644 1210.57 753.964 1209.64C752.311 1208.68 751.004 1207.34 750.044 1205.64C749.111 1203.9 748.644 1201.9 748.644 1199.64C748.644 1197.37 749.097 1195.38 750.004 1193.68C750.937 1191.94 752.231 1190.61 753.884 1189.68C755.564 1188.74 757.484 1188.28 759.644 1188.28C761.724 1188.28 763.577 1188.73 765.204 1189.64C766.831 1190.54 768.097 1191.82 769.004 1193.48C769.911 1195.1 770.364 1196.98 770.364 1199.12ZM765.604 1197.68C765.577 1196 764.977 1194.65 763.804 1193.64C762.631 1192.62 761.177 1192.12 759.444 1192.12C757.871 1192.12 756.524 1192.62 755.404 1193.64C754.284 1194.62 753.617 1195.97 753.404 1197.68H765.604ZM801.532 1188.28C803.265 1188.28 804.812 1188.64 806.172 1189.36C807.558 1190.08 808.638 1191.14 809.412 1192.56C810.212 1193.97 810.612 1195.68 810.612 1197.68V1210.68H806.092V1198.36C806.092 1196.38 805.598 1194.88 804.612 1193.84C803.625 1192.77 802.278 1192.24 800.572 1192.24C798.865 1192.24 797.505 1192.77 796.492 1193.84C795.505 1194.88 795.012 1196.38 795.012 1198.36V1210.68H790.492V1198.36C790.492 1196.38 789.998 1194.88 789.012 1193.84C788.025 1192.77 786.678 1192.24 784.972 1192.24C783.265 1192.24 781.905 1192.77 780.892 1193.84C779.905 1194.88 779.412 1196.38 779.412 1198.36V1210.68H774.852V1188.64H779.412V1191.16C780.158 1190.25 781.105 1189.54 782.252 1189.04C783.398 1188.53 784.625 1188.28 785.932 1188.28C787.692 1188.28 789.265 1188.65 790.652 1189.4C792.038 1190.14 793.105 1191.22 793.852 1192.64C794.518 1191.3 795.558 1190.25 796.972 1189.48C798.385 1188.68 799.905 1188.28 801.532 1188.28ZM836.614 1199.12C836.614 1199.94 836.561 1200.69 836.454 1201.36H819.614C819.747 1203.12 820.401 1204.53 821.574 1205.6C822.747 1206.66 824.187 1207.2 825.894 1207.2C828.347 1207.2 830.081 1206.17 831.094 1204.12H836.014C835.347 1206.14 834.134 1207.81 832.374 1209.12C830.641 1210.4 828.481 1211.04 825.894 1211.04C823.787 1211.04 821.894 1210.57 820.214 1209.64C818.561 1208.68 817.254 1207.34 816.294 1205.64C815.361 1203.9 814.894 1201.9 814.894 1199.64C814.894 1197.37 815.347 1195.38 816.254 1193.68C817.187 1191.94 818.481 1190.61 820.134 1189.68C821.814 1188.74 823.734 1188.28 825.894 1188.28C827.974 1188.28 829.827 1188.73 831.454 1189.64C833.081 1190.54 834.347 1191.82 835.254 1193.48C836.161 1195.1 836.614 1196.98 836.614 1199.12ZM831.854 1197.68C831.827 1196 831.227 1194.65 830.054 1193.64C828.881 1192.62 827.427 1192.12 825.694 1192.12C824.121 1192.12 822.774 1192.62 821.654 1193.64C820.534 1194.62 819.867 1195.97 819.654 1197.68H831.854ZM852.222 1188.28C853.955 1188.28 855.502 1188.64 856.862 1189.36C858.248 1190.08 859.328 1191.14 860.102 1192.56C860.875 1193.97 861.262 1195.68 861.262 1197.68V1210.68H856.742V1198.36C856.742 1196.38 856.248 1194.88 855.262 1193.84C854.275 1192.77 852.928 1192.24 851.222 1192.24C849.515 1192.24 848.155 1192.77 847.142 1193.84C846.155 1194.88 845.662 1196.38 845.662 1198.36V1210.68H841.102V1188.64H845.662V1191.16C846.408 1190.25 847.355 1189.54 848.502 1189.04C849.675 1188.53 850.915 1188.28 852.222 1188.28ZM872.398 1192.36V1204.56C872.398 1205.38 872.585 1205.98 872.958 1206.36C873.358 1206.7 874.025 1206.88 874.958 1206.88H877.758V1210.68H874.158C872.105 1210.68 870.531 1210.2 869.438 1209.24C868.345 1208.28 867.798 1206.72 867.798 1204.56V1192.36H865.198V1188.64H867.798V1183.16H872.398V1188.64H877.758V1192.36H872.398Z" fill="#54949B"/>
<path d="M1006.16 868.956C1004.29 868.956 1002.61 868.636 1001.12 867.996C999.627 867.329 998.453 866.396 997.6 865.196C996.747 863.996 996.32 862.596 996.32 860.996H1001.2C1001.31 862.196 1001.77 863.182 1002.6 863.956C1003.45 864.729 1004.64 865.116 1006.16 865.116C1007.73 865.116 1008.96 864.742 1009.84 863.996C1010.72 863.222 1011.16 862.236 1011.16 861.036C1011.16 860.102 1010.88 859.342 1010.32 858.756C1009.79 858.169 1009.11 857.716 1008.28 857.396C1007.48 857.076 1006.36 856.729 1004.92 856.356C1003.11 855.876 1001.63 855.396 1000.48 854.916C999.36 854.409 998.4 853.636 997.6 852.596C996.8 851.556 996.4 850.169 996.4 848.436C996.4 846.836 996.8 845.436 997.6 844.236C998.4 843.036 999.52 842.116 1000.96 841.476C1002.4 840.836 1004.07 840.516 1005.96 840.516C1008.65 840.516 1010.85 841.196 1012.56 842.556C1014.29 843.889 1015.25 845.729 1015.44 848.076H1010.4C1010.32 847.062 1009.84 846.196 1008.96 845.476C1008.08 844.756 1006.92 844.396 1005.48 844.396C1004.17 844.396 1003.11 844.729 1002.28 845.396C1001.45 846.062 1001.04 847.022 1001.04 848.276C1001.04 849.129 1001.29 849.836 1001.8 850.396C1002.33 850.929 1003 851.356 1003.8 851.676C1004.6 851.996 1005.69 852.342 1007.08 852.716C1008.92 853.222 1010.41 853.729 1011.56 854.236C1012.73 854.742 1013.72 855.529 1014.52 856.596C1015.35 857.636 1015.76 859.036 1015.76 860.796C1015.76 862.209 1015.37 863.542 1014.6 864.796C1013.85 866.049 1012.75 867.062 1011.28 867.836C1009.84 868.582 1008.13 868.956 1006.16 868.956ZM1030.7 869.036C1028.62 869.036 1026.74 868.569 1025.06 867.636C1023.38 866.676 1022.06 865.342 1021.1 863.636C1020.14 861.902 1019.66 859.902 1019.66 857.636C1019.66 855.396 1020.15 853.409 1021.14 851.676C1022.13 849.942 1023.47 848.609 1025.18 847.676C1026.89 846.742 1028.79 846.276 1030.9 846.276C1033.01 846.276 1034.91 846.742 1036.62 847.676C1038.33 848.609 1039.67 849.942 1040.66 851.676C1041.65 853.409 1042.14 855.396 1042.14 857.636C1042.14 859.876 1041.63 861.862 1040.62 863.596C1039.61 865.329 1038.22 866.676 1036.46 867.636C1034.73 868.569 1032.81 869.036 1030.7 869.036ZM1030.7 865.076C1031.87 865.076 1032.97 864.796 1033.98 864.236C1035.02 863.676 1035.86 862.836 1036.5 861.716C1037.14 860.596 1037.46 859.236 1037.46 857.636C1037.46 856.036 1037.15 854.689 1036.54 853.596C1035.93 852.476 1035.11 851.636 1034.1 851.076C1033.09 850.516 1031.99 850.236 1030.82 850.236C1029.65 850.236 1028.55 850.516 1027.54 851.076C1026.55 851.636 1025.77 852.476 1025.18 853.596C1024.59 854.689 1024.3 856.036 1024.3 857.636C1024.3 860.009 1024.9 861.849 1026.1 863.156C1027.33 864.436 1028.86 865.076 1030.7 865.076ZM1055.89 850.356H1051.81V868.676H1047.21V850.356H1044.61V846.636H1047.21V845.076C1047.21 842.542 1047.88 840.702 1049.21 839.556C1050.57 838.382 1052.69 837.796 1055.57 837.796V841.596C1054.18 841.596 1053.21 841.862 1052.65 842.396C1052.09 842.902 1051.81 843.796 1051.81 845.076V846.636H1055.89V850.356ZM1065.25 850.356V862.556C1065.25 863.382 1065.44 863.982 1065.81 864.356C1066.21 864.702 1066.88 864.876 1067.81 864.876H1070.61V868.676H1067.01C1064.96 868.676 1063.38 868.196 1062.29 867.236C1061.2 866.276 1060.65 864.716 1060.65 862.556V850.356H1058.05V846.636H1060.65V841.156H1065.25V846.636H1070.61V850.356H1065.25ZM1104.41 846.636L1097.57 868.676H1092.77L1088.33 852.396L1083.89 868.676H1079.09L1072.21 846.636H1076.85L1081.45 864.356L1086.13 846.636H1090.89L1095.37 864.276L1099.93 846.636H1104.41ZM1106.3 857.556C1106.3 855.342 1106.75 853.382 1107.66 851.676C1108.59 849.969 1109.85 848.649 1111.42 847.716C1113.02 846.756 1114.78 846.276 1116.7 846.276C1118.43 846.276 1119.94 846.622 1121.22 847.316C1122.53 847.982 1123.57 848.822 1124.34 849.836V846.636H1128.94V868.676H1124.34V865.396C1123.57 866.436 1122.51 867.302 1121.18 867.996C1119.85 868.689 1118.33 869.036 1116.62 869.036C1114.73 869.036 1112.99 868.556 1111.42 867.596C1109.85 866.609 1108.59 865.249 1107.66 863.516C1106.75 861.756 1106.3 859.769 1106.3 857.556ZM1124.34 857.636C1124.34 856.116 1124.02 854.796 1123.38 853.676C1122.77 852.556 1121.95 851.702 1120.94 851.116C1119.93 850.529 1118.83 850.236 1117.66 850.236C1116.49 850.236 1115.39 850.529 1114.38 851.116C1113.37 851.676 1112.54 852.516 1111.9 853.636C1111.29 854.729 1110.98 856.036 1110.98 857.556C1110.98 859.076 1111.29 860.409 1111.9 861.556C1112.54 862.702 1113.37 863.582 1114.38 864.196C1115.42 864.782 1116.51 865.076 1117.66 865.076C1118.83 865.076 1119.93 864.782 1120.94 864.196C1121.95 863.609 1122.77 862.756 1123.38 861.636C1124.02 860.489 1124.34 859.156 1124.34 857.636ZM1139.49 849.836C1140.16 848.716 1141.04 847.849 1142.13 847.236C1143.25 846.596 1144.57 846.276 1146.09 846.276V850.996H1144.93C1143.14 850.996 1141.78 851.449 1140.85 852.356C1139.94 853.262 1139.49 854.836 1139.49 857.076V868.676H1134.93V846.636H1139.49V849.836ZM1170.48 857.116C1170.48 857.942 1170.43 858.689 1170.32 859.356H1153.48C1153.61 861.116 1154.27 862.529 1155.44 863.596C1156.61 864.662 1158.05 865.196 1159.76 865.196C1162.21 865.196 1163.95 864.169 1164.96 862.116H1169.88C1169.21 864.142 1168 865.809 1166.24 867.116C1164.51 868.396 1162.35 869.036 1159.76 869.036C1157.65 869.036 1155.76 868.569 1154.08 867.636C1152.43 866.676 1151.12 865.342 1150.16 863.636C1149.23 861.902 1148.76 859.902 1148.76 857.636C1148.76 855.369 1149.21 853.382 1150.12 851.676C1151.05 849.942 1152.35 848.609 1154 847.676C1155.68 846.742 1157.6 846.276 1159.76 846.276C1161.84 846.276 1163.69 846.729 1165.32 847.636C1166.95 848.542 1168.21 849.822 1169.12 851.476C1170.03 853.102 1170.48 854.982 1170.48 857.116ZM1165.72 855.676C1165.69 853.996 1165.09 852.649 1163.92 851.636C1162.75 850.622 1161.29 850.116 1159.56 850.116C1157.99 850.116 1156.64 850.622 1155.52 851.636C1154.4 852.622 1153.73 853.969 1153.52 855.676H1165.72ZM1006.08 900.876C1009.04 900.876 1011.63 901.449 1013.84 902.596C1016.08 903.716 1017.8 905.342 1019 907.476C1020.23 909.582 1020.84 912.049 1020.84 914.876C1020.84 917.702 1020.23 920.156 1019 922.236C1017.8 924.316 1016.08 925.916 1013.84 927.036C1011.63 928.129 1009.04 928.676 1006.08 928.676H997V900.876H1006.08ZM1006.08 924.956C1009.33 924.956 1011.83 924.076 1013.56 922.316C1015.29 920.556 1016.16 918.076 1016.16 914.876C1016.16 911.649 1015.29 909.129 1013.56 907.316C1011.83 905.502 1009.33 904.596 1006.08 904.596H1001.56V924.956H1006.08ZM1045.56 917.116C1045.56 917.942 1045.51 918.689 1045.4 919.356H1028.56C1028.69 921.116 1029.35 922.529 1030.52 923.596C1031.69 924.662 1033.13 925.196 1034.84 925.196C1037.29 925.196 1039.03 924.169 1040.04 922.116H1044.96C1044.29 924.142 1043.08 925.809 1041.32 927.116C1039.59 928.396 1037.43 929.036 1034.84 929.036C1032.73 929.036 1030.84 928.569 1029.16 927.636C1027.51 926.676 1026.2 925.342 1025.24 923.636C1024.31 921.902 1023.84 919.902 1023.84 917.636C1023.84 915.369 1024.29 913.382 1025.2 911.676C1026.13 909.942 1027.43 908.609 1029.08 907.676C1030.76 906.742 1032.68 906.276 1034.84 906.276C1036.92 906.276 1038.77 906.729 1040.4 907.636C1042.03 908.542 1043.29 909.822 1044.2 911.476C1045.11 913.102 1045.56 914.982 1045.56 917.116ZM1040.8 915.676C1040.77 913.996 1040.17 912.649 1039 911.636C1037.83 910.622 1036.37 910.116 1034.64 910.116C1033.07 910.116 1031.72 910.622 1030.6 911.636C1029.48 912.622 1028.81 913.969 1028.6 915.676H1040.8ZM1058.57 924.596L1064.81 906.636H1069.65L1061.25 928.676H1055.81L1047.45 906.636H1052.33L1058.57 924.596ZM1093.29 917.116C1093.29 917.942 1093.24 918.689 1093.13 919.356H1076.29C1076.43 921.116 1077.08 922.529 1078.25 923.596C1079.43 924.662 1080.87 925.196 1082.57 925.196C1085.03 925.196 1086.76 924.169 1087.77 922.116H1092.69C1092.03 924.142 1090.81 925.809 1089.05 927.116C1087.32 928.396 1085.16 929.036 1082.57 929.036C1080.47 929.036 1078.57 928.569 1076.89 927.636C1075.24 926.676 1073.93 925.342 1072.97 923.636C1072.04 921.902 1071.57 919.902 1071.57 917.636C1071.57 915.369 1072.03 913.382 1072.93 911.676C1073.87 909.942 1075.16 908.609 1076.81 907.676C1078.49 906.742 1080.41 906.276 1082.57 906.276C1084.65 906.276 1086.51 906.729 1088.13 907.636C1089.76 908.542 1091.03 909.822 1091.93 911.476C1092.84 913.102 1093.29 914.982 1093.29 917.116ZM1088.53 915.676C1088.51 913.996 1087.91 912.649 1086.73 911.636C1085.56 910.622 1084.11 910.116 1082.37 910.116C1080.8 910.116 1079.45 910.622 1078.33 911.636C1077.21 912.622 1076.55 913.969 1076.33 915.676H1088.53ZM1102.34 899.076V928.676H1097.78V899.076H1102.34ZM1117.89 929.036C1115.81 929.036 1113.93 928.569 1112.25 927.636C1110.57 926.676 1109.25 925.342 1108.29 923.636C1107.33 921.902 1106.85 919.902 1106.85 917.636C1106.85 915.396 1107.34 913.409 1108.33 911.676C1109.31 909.942 1110.66 908.609 1112.37 907.676C1114.07 906.742 1115.98 906.276 1118.09 906.276C1120.19 906.276 1122.1 906.742 1123.81 907.676C1125.51 908.609 1126.86 909.942 1127.85 911.676C1128.83 913.409 1129.33 915.396 1129.33 917.636C1129.33 919.876 1128.82 921.862 1127.81 923.596C1126.79 925.329 1125.41 926.676 1123.65 927.636C1121.91 928.569 1119.99 929.036 1117.89 929.036ZM1117.89 925.076C1119.06 925.076 1120.15 924.796 1121.17 924.236C1122.21 923.676 1123.05 922.836 1123.69 921.716C1124.33 920.596 1124.65 919.236 1124.65 917.636C1124.65 916.036 1124.34 914.689 1123.73 913.596C1123.11 912.476 1122.3 911.636 1121.29 911.076C1120.27 910.516 1119.18 910.236 1118.01 910.236C1116.83 910.236 1115.74 910.516 1114.73 911.076C1113.74 911.636 1112.95 912.476 1112.37 913.596C1111.78 914.689 1111.49 916.036 1111.49 917.636C1111.49 920.009 1112.09 921.849 1113.29 923.156C1114.51 924.436 1116.05 925.076 1117.89 925.076ZM1138.4 909.876C1139.17 908.862 1140.22 908.009 1141.56 907.316C1142.89 906.622 1144.4 906.276 1146.08 906.276C1148 906.276 1149.74 906.756 1151.32 907.716C1152.92 908.649 1154.17 909.969 1155.08 911.676C1155.98 913.382 1156.44 915.342 1156.44 917.556C1156.44 919.769 1155.98 921.756 1155.08 923.516C1154.17 925.249 1152.92 926.609 1151.32 927.596C1149.74 928.556 1148 929.036 1146.08 929.036C1144.4 929.036 1142.9 928.702 1141.6 928.036C1140.29 927.342 1139.22 926.489 1138.4 925.476V939.156H1133.84V906.636H1138.4V909.876ZM1151.8 917.556C1151.8 916.036 1151.48 914.729 1150.84 913.636C1150.22 912.516 1149.4 911.676 1148.36 911.116C1147.34 910.529 1146.25 910.236 1145.08 910.236C1143.93 910.236 1142.84 910.529 1141.8 911.116C1140.78 911.702 1139.96 912.556 1139.32 913.676C1138.7 914.796 1138.4 916.116 1138.4 917.636C1138.4 919.156 1138.7 920.489 1139.32 921.636C1139.96 922.756 1140.78 923.609 1141.8 924.196C1142.84 924.782 1143.93 925.076 1145.08 925.076C1146.25 925.076 1147.34 924.782 1148.36 924.196C1149.4 923.582 1150.22 922.702 1150.84 921.556C1151.48 920.409 1151.8 919.076 1151.8 917.556ZM1187.63 906.276C1189.36 906.276 1190.91 906.636 1192.27 907.356C1193.65 908.076 1194.73 909.142 1195.51 910.556C1196.31 911.969 1196.71 913.676 1196.71 915.676V928.676H1192.19V916.356C1192.19 914.382 1191.69 912.876 1190.71 911.836C1189.72 910.769 1188.37 910.236 1186.67 910.236C1184.96 910.236 1183.6 910.769 1182.59 911.836C1181.6 912.876 1181.11 914.382 1181.11 916.356V928.676H1176.59V916.356C1176.59 914.382 1176.09 912.876 1175.11 911.836C1174.12 910.769 1172.77 910.236 1171.07 910.236C1169.36 910.236 1168 910.769 1166.99 911.836C1166 912.876 1165.51 914.382 1165.51 916.356V928.676H1160.95V906.636H1165.51V909.156C1166.25 908.249 1167.2 907.542 1168.35 907.036C1169.49 906.529 1170.72 906.276 1172.03 906.276C1173.79 906.276 1175.36 906.649 1176.75 907.396C1178.13 908.142 1179.2 909.222 1179.95 910.636C1180.61 909.302 1181.65 908.249 1183.07 907.476C1184.48 906.676 1186 906.276 1187.63 906.276ZM1222.71 917.116C1222.71 917.942 1222.65 918.689 1222.55 919.356H1205.71C1205.84 921.116 1206.49 922.529 1207.67 923.596C1208.84 924.662 1210.28 925.196 1211.99 925.196C1214.44 925.196 1216.17 924.169 1217.19 922.116H1222.11C1221.44 924.142 1220.23 925.809 1218.47 927.116C1216.73 928.396 1214.57 929.036 1211.99 929.036C1209.88 929.036 1207.99 928.569 1206.31 927.636C1204.65 926.676 1203.35 925.342 1202.39 923.636C1201.45 921.902 1200.99 919.902 1200.99 917.636C1200.99 915.369 1201.44 913.382 1202.35 911.676C1203.28 909.942 1204.57 908.609 1206.23 907.676C1207.91 906.742 1209.83 906.276 1211.99 906.276C1214.07 906.276 1215.92 906.729 1217.55 907.636C1219.17 908.542 1220.44 909.822 1221.35 911.476C1222.25 913.102 1222.71 914.982 1222.71 917.116ZM1217.95 915.676C1217.92 913.996 1217.32 912.649 1216.15 911.636C1214.97 910.622 1213.52 910.116 1211.79 910.116C1210.21 910.116 1208.87 910.622 1207.75 911.636C1206.63 912.622 1205.96 913.969 1205.75 915.676H1217.95ZM1238.32 906.276C1240.05 906.276 1241.6 906.636 1242.96 907.356C1244.34 908.076 1245.42 909.142 1246.2 910.556C1246.97 911.969 1247.36 913.676 1247.36 915.676V928.676H1242.84V916.356C1242.84 914.382 1242.34 912.876 1241.36 911.836C1240.37 910.769 1239.02 910.236 1237.32 910.236C1235.61 910.236 1234.25 910.769 1233.24 911.836C1232.25 912.876 1231.76 914.382 1231.76 916.356V928.676H1227.2V906.636H1231.76V909.156C1232.5 908.249 1233.45 907.542 1234.6 907.036C1235.77 906.529 1237.01 906.276 1238.32 906.276ZM1258.49 910.356V922.556C1258.49 923.382 1258.68 923.982 1259.05 924.356C1259.45 924.702 1260.12 924.876 1261.05 924.876H1263.85V928.676H1260.25C1258.2 928.676 1256.63 928.196 1255.53 927.236C1254.44 926.276 1253.89 924.716 1253.89 922.556V910.356H1251.29V906.636H1253.89V901.156H1258.49V906.636H1263.85V910.356H1258.49Z" fill="#54949B"/>
<path d="M596.56 65.8758V93.6758H592V65.8758H596.56ZM620.507 65.8758V69.5958H613.107V93.6758H608.547V69.5958H601.107V65.8758H620.507ZM652.276 87.9958H640.636L638.636 93.6758H633.876L643.836 65.8358H649.116L659.076 93.6758H654.276L652.276 87.9958ZM650.996 84.2758L646.476 71.3558L641.916 84.2758H650.996ZM683.366 71.6358V93.6758H678.806V91.0758C678.086 91.9824 677.14 92.7024 675.966 93.2358C674.82 93.7424 673.593 93.9958 672.286 93.9958C670.553 93.9958 668.993 93.6358 667.606 92.9158C666.246 92.1958 665.166 91.1291 664.366 89.7158C663.593 88.3024 663.206 86.5958 663.206 84.5958V71.6358H667.726V83.9158C667.726 85.8891 668.22 87.4091 669.206 88.4758C670.193 89.5158 671.54 90.0358 673.246 90.0358C674.953 90.0358 676.3 89.5158 677.286 88.4758C678.3 87.4091 678.806 85.8891 678.806 83.9158V71.6358H683.366ZM694.703 75.3558V87.5558C694.703 88.3824 694.889 88.9824 695.263 89.3558C695.663 89.7024 696.329 89.8758 697.263 89.8758H700.063V93.6758H696.463C694.409 93.6758 692.836 93.1958 691.743 92.2358C690.649 91.2758 690.103 89.7158 690.103 87.5558V75.3558H687.503V71.6358H690.103V66.1558H694.703V71.6358H700.063V75.3558H694.703ZM713.826 94.0358C711.746 94.0358 709.866 93.5691 708.186 92.6358C706.506 91.6758 705.186 90.3424 704.226 88.6358C703.266 86.9024 702.786 84.9024 702.786 82.6358C702.786 80.3958 703.279 78.4091 704.266 76.6758C705.252 74.9424 706.599 73.6091 708.306 72.6758C710.012 71.7424 711.919 71.2758 714.026 71.2758C716.132 71.2758 718.039 71.7424 719.746 72.6758C721.452 73.6091 722.799 74.9424 723.786 76.6758C724.772 78.4091 725.266 80.3958 725.266 82.6358C725.266 84.8758 724.759 86.8624 723.746 88.5958C722.732 90.3291 721.346 91.6758 719.586 92.6358C717.852 93.5691 715.932 94.0358 713.826 94.0358ZM713.826 90.0758C714.999 90.0758 716.092 89.7958 717.106 89.2358C718.146 88.6758 718.986 87.8358 719.626 86.7158C720.266 85.5958 720.586 84.2358 720.586 82.6358C720.586 81.0358 720.279 79.6891 719.666 78.5958C719.052 77.4758 718.239 76.6358 717.226 76.0758C716.212 75.5158 715.119 75.2358 713.946 75.2358C712.772 75.2358 711.679 75.5158 710.666 76.0758C709.679 76.6358 708.892 77.4758 708.306 78.5958C707.719 79.6891 707.426 81.0358 707.426 82.6358C707.426 85.0091 708.026 86.8491 709.226 88.1558C710.452 89.4358 711.986 90.0758 713.826 90.0758ZM756.453 71.2758C758.187 71.2758 759.733 71.6358 761.093 72.3558C762.48 73.0758 763.56 74.1424 764.333 75.5558C765.133 76.9691 765.533 78.6758 765.533 80.6758V93.6758H761.013V81.3558C761.013 79.3824 760.52 77.8758 759.533 76.8358C758.547 75.7691 757.2 75.2358 755.493 75.2358C753.787 75.2358 752.427 75.7691 751.413 76.8358C750.427 77.8758 749.933 79.3824 749.933 81.3558V93.6758H745.413V81.3558C745.413 79.3824 744.92 77.8758 743.933 76.8358C742.947 75.7691 741.6 75.2358 739.893 75.2358C738.187 75.2358 736.827 75.7691 735.813 76.8358C734.827 77.8758 734.333 79.3824 734.333 81.3558V93.6758H729.773V71.6358H734.333V74.1558C735.08 73.2491 736.027 72.5424 737.173 72.0358C738.32 71.5291 739.547 71.2758 740.853 71.2758C742.613 71.2758 744.187 71.6491 745.573 72.3958C746.96 73.1424 748.027 74.2224 748.773 75.6358C749.44 74.3024 750.48 73.2491 751.893 72.4758C753.307 71.6758 754.827 71.2758 756.453 71.2758ZM769.816 82.5558C769.816 80.3424 770.269 78.3824 771.176 76.6758C772.109 74.9691 773.363 73.6491 774.936 72.7158C776.536 71.7558 778.296 71.2758 780.216 71.2758C781.949 71.2758 783.456 71.6224 784.736 72.3158C786.043 72.9824 787.083 73.8224 787.856 74.8358V71.6358H792.456V93.6758H787.856V90.3958C787.083 91.4358 786.029 92.3024 784.696 92.9958C783.363 93.6891 781.843 94.0358 780.136 94.0358C778.243 94.0358 776.509 93.5558 774.936 92.5958C773.363 91.6091 772.109 90.2491 771.176 88.5158C770.269 86.7558 769.816 84.7691 769.816 82.5558ZM787.856 82.6358C787.856 81.1158 787.536 79.7958 786.896 78.6758C786.283 77.5558 785.469 76.7024 784.456 76.1158C783.443 75.5291 782.349 75.2358 781.176 75.2358C780.003 75.2358 778.909 75.5291 777.896 76.1158C776.883 76.6758 776.056 77.5158 775.416 78.6358C774.803 79.7291 774.496 81.0358 774.496 82.5558C774.496 84.0758 774.803 85.4091 775.416 86.5558C776.056 87.7024 776.883 88.5824 777.896 89.1958C778.936 89.7824 780.029 90.0758 781.176 90.0758C782.349 90.0758 783.443 89.7824 784.456 89.1958C785.469 88.6091 786.283 87.7558 786.896 86.6358C787.536 85.4891 787.856 84.1558 787.856 82.6358ZM803.765 75.3558V87.5558C803.765 88.3824 803.952 88.9824 804.325 89.3558C804.725 89.7024 805.392 89.8758 806.325 89.8758H809.125V93.6758H805.525C803.472 93.6758 801.899 93.1958 800.805 92.2358C799.712 91.2758 799.165 89.7158 799.165 87.5558V75.3558H796.565V71.6358H799.165V66.1558H803.765V71.6358H809.125V75.3558H803.765ZM815.648 68.7158C814.821 68.7158 814.128 68.4358 813.568 67.8758C813.008 67.3158 812.728 66.6224 812.728 65.7958C812.728 64.9691 813.008 64.2758 813.568 63.7158C814.128 63.1558 814.821 62.8758 815.648 62.8758C816.448 62.8758 817.128 63.1558 817.688 63.7158C818.248 64.2758 818.528 64.9691 818.528 65.7958C818.528 66.6224 818.248 67.3158 817.688 67.8758C817.128 68.4358 816.448 68.7158 815.648 68.7158ZM817.888 71.6358V93.6758H813.328V71.6358H817.888ZM833.435 94.0358C831.355 94.0358 829.475 93.5691 827.795 92.6358C826.115 91.6758 824.795 90.3424 823.835 88.6358C822.875 86.9024 822.395 84.9024 822.395 82.6358C822.395 80.3958 822.888 78.4091 823.875 76.6758C824.862 74.9424 826.208 73.6091 827.915 72.6758C829.622 71.7424 831.528 71.2758 833.635 71.2758C835.742 71.2758 837.648 71.7424 839.355 72.6758C841.062 73.6091 842.408 74.9424 843.395 76.6758C844.382 78.4091 844.875 80.3958 844.875 82.6358C844.875 84.8758 844.368 86.8624 843.355 88.5958C842.342 90.3291 840.955 91.6758 839.195 92.6358C837.462 93.5691 835.542 94.0358 833.435 94.0358ZM833.435 90.0758C834.608 90.0758 835.702 89.7958 836.715 89.2358C837.755 88.6758 838.595 87.8358 839.235 86.7158C839.875 85.5958 840.195 84.2358 840.195 82.6358C840.195 81.0358 839.888 79.6891 839.275 78.5958C838.662 77.4758 837.848 76.6358 836.835 76.0758C835.822 75.5158 834.728 75.2358 833.555 75.2358C832.382 75.2358 831.288 75.5158 830.275 76.0758C829.288 76.6358 828.502 77.4758 827.915 78.5958C827.328 79.6891 827.035 81.0358 827.035 82.6358C827.035 85.0091 827.635 86.8491 828.835 88.1558C830.062 89.4358 831.595 90.0758 833.435 90.0758ZM860.503 71.2758C862.236 71.2758 863.783 71.6358 865.143 72.3558C866.529 73.0758 867.609 74.1424 868.383 75.5558C869.156 76.9691 869.543 78.6758 869.543 80.6758V93.6758H865.023V81.3558C865.023 79.3824 864.529 77.8758 863.543 76.8358C862.556 75.7691 861.209 75.2358 859.503 75.2358C857.796 75.2358 856.436 75.7691 855.423 76.8358C854.436 77.8758 853.943 79.3824 853.943 81.3558V93.6758H849.383V71.6358H853.943V74.1558C854.689 73.2491 855.636 72.5424 856.783 72.0358C857.956 71.5291 859.196 71.2758 860.503 71.2758Z" fill="#54949B"/>
<path d="M1.48 828.716C1.48 825.996 2.10667 823.556 3.36 821.396C4.64 819.236 6.36 817.556 8.52 816.356C10.7067 815.129 13.0933 814.516 15.68 814.516C18.64 814.516 21.2667 815.249 23.56 816.716C25.88 818.156 27.56 820.209 28.6 822.876H23.12C22.4 821.409 21.4 820.316 20.12 819.596C18.84 818.876 17.36 818.516 15.68 818.516C13.84 818.516 12.2 818.929 10.76 819.756C9.32 820.582 8.18667 821.769 7.36 823.316C6.56 824.862 6.16 826.662 6.16 828.716C6.16 830.769 6.56 832.569 7.36 834.116C8.18667 835.662 9.32 836.862 10.76 837.716C12.2 838.542 13.84 838.956 15.68 838.956C17.36 838.956 18.84 838.596 20.12 837.876C21.4 837.156 22.4 836.062 23.12 834.596H28.6C27.56 837.262 25.88 839.316 23.56 840.756C21.2667 842.196 18.64 842.916 15.68 842.916C13.0667 842.916 10.68 842.316 8.52 841.116C6.36 839.889 4.64 838.196 3.36 836.036C2.10667 833.876 1.48 831.436 1.48 828.716ZM53.7775 820.636L40.2575 853.036H35.5375L40.0175 842.316L31.3375 820.636H36.4175L42.6175 837.436L49.0575 820.636H53.7775ZM61.7788 823.916C62.5521 822.849 63.6054 821.982 64.9388 821.316C66.2988 820.622 67.8054 820.276 69.4588 820.276C71.4054 820.276 73.1654 820.742 74.7388 821.676C76.3121 822.609 77.5521 823.942 78.4588 825.676C79.3654 827.382 79.8188 829.342 79.8188 831.556C79.8188 833.769 79.3654 835.756 78.4588 837.516C77.5521 839.249 76.2988 840.609 74.6988 841.596C73.1254 842.556 71.3788 843.036 69.4588 843.036C67.7521 843.036 66.2321 842.702 64.8988 842.036C63.5921 841.369 62.5521 840.516 61.7788 839.476V842.676H57.2188V813.076H61.7788V823.916ZM75.1788 831.556C75.1788 830.036 74.8588 828.729 74.2188 827.636C73.6054 826.516 72.7788 825.676 71.7388 825.116C70.7254 824.529 69.6321 824.236 68.4588 824.236C67.3121 824.236 66.2188 824.529 65.1788 825.116C64.1654 825.702 63.3388 826.556 62.6988 827.676C62.0854 828.796 61.7788 830.116 61.7788 831.636C61.7788 833.156 62.0854 834.489 62.6988 835.636C63.3388 836.756 64.1654 837.609 65.1788 838.196C66.2188 838.782 67.3121 839.076 68.4588 839.076C69.6321 839.076 70.7254 838.782 71.7388 838.196C72.7788 837.582 73.6054 836.702 74.2188 835.556C74.8588 834.409 75.1788 833.076 75.1788 831.556ZM104.528 831.116C104.528 831.942 104.475 832.689 104.368 833.356H87.5281C87.6615 835.116 88.3148 836.529 89.4881 837.596C90.6615 838.662 92.1015 839.196 93.8081 839.196C96.2615 839.196 97.9948 838.169 99.0081 836.116H103.928C103.261 838.142 102.048 839.809 100.288 841.116C98.5548 842.396 96.3948 843.036 93.8081 843.036C91.7015 843.036 89.8081 842.569 88.1281 841.636C86.4748 840.676 85.1681 839.342 84.2081 837.636C83.2748 835.902 82.8081 833.902 82.8081 831.636C82.8081 829.369 83.2615 827.382 84.1681 825.676C85.1015 823.942 86.3948 822.609 88.0481 821.676C89.7281 820.742 91.6481 820.276 93.8081 820.276C95.8881 820.276 97.7415 820.729 99.3681 821.636C100.995 822.542 102.261 823.822 103.168 825.476C104.075 827.102 104.528 828.982 104.528 831.116ZM99.7681 829.676C99.7415 827.996 99.1415 826.649 97.9681 825.636C96.7948 824.622 95.3415 824.116 93.6081 824.116C92.0348 824.116 90.6881 824.622 89.5681 825.636C88.4481 826.622 87.7815 827.969 87.5681 829.676H99.7681ZM113.576 823.836C114.242 822.716 115.122 821.849 116.216 821.236C117.336 820.596 118.656 820.276 120.176 820.276V824.996H119.016C117.229 824.996 115.869 825.449 114.936 826.356C114.029 827.262 113.576 828.836 113.576 831.076V842.676H109.016V820.636H113.576V823.836ZM143.918 842.956C142.051 842.956 140.371 842.636 138.878 841.996C137.384 841.329 136.211 840.396 135.358 839.196C134.504 837.996 134.078 836.596 134.078 834.996H138.958C139.064 836.196 139.531 837.182 140.358 837.956C141.211 838.729 142.398 839.116 143.918 839.116C145.491 839.116 146.718 838.742 147.598 837.996C148.478 837.222 148.918 836.236 148.918 835.036C148.918 834.102 148.638 833.342 148.078 832.756C147.544 832.169 146.864 831.716 146.038 831.396C145.238 831.076 144.118 830.729 142.678 830.356C140.864 829.876 139.384 829.396 138.238 828.916C137.118 828.409 136.158 827.636 135.358 826.596C134.558 825.556 134.158 824.169 134.158 822.436C134.158 820.836 134.558 819.436 135.358 818.236C136.158 817.036 137.278 816.116 138.718 815.476C140.158 814.836 141.824 814.516 143.718 814.516C146.411 814.516 148.611 815.196 150.318 816.556C152.051 817.889 153.011 819.729 153.198 822.076H148.158C148.078 821.062 147.598 820.196 146.718 819.476C145.838 818.756 144.678 818.396 143.238 818.396C141.931 818.396 140.864 818.729 140.038 819.396C139.211 820.062 138.798 821.022 138.798 822.276C138.798 823.129 139.051 823.836 139.558 824.396C140.091 824.929 140.758 825.356 141.558 825.676C142.358 825.996 143.451 826.342 144.838 826.716C146.678 827.222 148.171 827.729 149.318 828.236C150.491 828.742 151.478 829.529 152.278 830.596C153.104 831.636 153.518 833.036 153.518 834.796C153.518 836.209 153.131 837.542 152.358 838.796C151.611 840.049 150.504 841.062 149.038 841.836C147.598 842.582 145.891 842.956 143.918 842.956ZM179.098 831.116C179.098 831.942 179.045 832.689 178.938 833.356H162.098C162.232 835.116 162.885 836.529 164.058 837.596C165.232 838.662 166.672 839.196 168.378 839.196C170.832 839.196 172.565 838.169 173.578 836.116H178.498C177.832 838.142 176.618 839.809 174.858 841.116C173.125 842.396 170.965 843.036 168.378 843.036C166.272 843.036 164.378 842.569 162.698 841.636C161.045 840.676 159.738 839.342 158.778 837.636C157.845 835.902 157.378 833.902 157.378 831.636C157.378 829.369 157.832 827.382 158.738 825.676C159.672 823.942 160.965 822.609 162.618 821.676C164.298 820.742 166.218 820.276 168.378 820.276C170.458 820.276 172.312 820.729 173.938 821.636C175.565 822.542 176.832 823.822 177.738 825.476C178.645 827.102 179.098 828.982 179.098 831.116ZM174.338 829.676C174.312 827.996 173.712 826.649 172.538 825.636C171.365 824.622 169.912 824.116 168.178 824.116C166.605 824.116 165.258 824.622 164.138 825.636C163.018 826.622 162.352 827.969 162.138 829.676H174.338ZM182.066 831.636C182.066 829.369 182.519 827.382 183.426 825.676C184.359 823.942 185.639 822.609 187.266 821.676C188.893 820.742 190.759 820.276 192.866 820.276C195.533 820.276 197.733 820.916 199.466 822.196C201.226 823.449 202.413 825.249 203.026 827.596H198.106C197.706 826.502 197.066 825.649 196.186 825.036C195.306 824.422 194.199 824.116 192.866 824.116C190.999 824.116 189.506 824.782 188.386 826.116C187.293 827.422 186.746 829.262 186.746 831.636C186.746 834.009 187.293 835.862 188.386 837.196C189.506 838.529 190.999 839.196 192.866 839.196C195.506 839.196 197.253 838.036 198.106 835.716H203.026C202.386 837.956 201.186 839.742 199.426 841.076C197.666 842.382 195.479 843.036 192.866 843.036C190.759 843.036 188.893 842.569 187.266 841.636C185.639 840.676 184.359 839.342 183.426 837.636C182.519 835.902 182.066 833.902 182.066 831.636ZM227.53 820.636V842.676H222.97V840.076C222.25 840.982 221.304 841.702 220.13 842.236C218.984 842.742 217.757 842.996 216.45 842.996C214.717 842.996 213.157 842.636 211.77 841.916C210.41 841.196 209.33 840.129 208.53 838.716C207.757 837.302 207.37 835.596 207.37 833.596V820.636H211.89V832.916C211.89 834.889 212.384 836.409 213.37 837.476C214.357 838.516 215.704 839.036 217.41 839.036C219.117 839.036 220.464 838.516 221.45 837.476C222.464 836.409 222.97 834.889 222.97 832.916V820.636H227.53ZM238.107 823.836C238.774 822.716 239.654 821.849 240.747 821.236C241.867 820.596 243.187 820.276 244.707 820.276V824.996H243.547C241.76 824.996 240.4 825.449 239.467 826.356C238.56 827.262 238.107 828.836 238.107 831.076V842.676H233.547V820.636H238.107V823.836ZM251.218 817.716C250.392 817.716 249.698 817.436 249.138 816.876C248.578 816.316 248.298 815.622 248.298 814.796C248.298 813.969 248.578 813.276 249.138 812.716C249.698 812.156 250.392 811.876 251.218 811.876C252.018 811.876 252.698 812.156 253.258 812.716C253.818 813.276 254.098 813.969 254.098 814.796C254.098 815.622 253.818 816.316 253.258 816.876C252.698 817.436 252.018 817.716 251.218 817.716ZM253.458 820.636V842.676H248.898V820.636H253.458ZM264.765 824.356V836.556C264.765 837.382 264.952 837.982 265.325 838.356C265.725 838.702 266.392 838.876 267.325 838.876H270.125V842.676H266.525C264.472 842.676 262.899 842.196 261.805 841.236C260.712 840.276 260.165 838.716 260.165 836.556V824.356H257.565V820.636H260.165V815.156H264.765V820.636H270.125V824.356H264.765ZM294.168 820.636L280.648 853.036H275.928L280.408 842.316L271.728 820.636H276.808L283.008 837.436L289.448 820.636H294.168ZM1.48 891.556C1.48 889.342 1.93333 887.382 2.84 885.676C3.77333 883.969 5.02667 882.649 6.6 881.716C8.2 880.756 9.96 880.276 11.88 880.276C13.6133 880.276 15.12 880.622 16.4 881.316C17.7067 881.982 18.7467 882.822 19.52 883.836V880.636H24.12V902.676H19.52V899.396C18.7467 900.436 17.6933 901.302 16.36 901.996C15.0267 902.689 13.5067 903.036 11.8 903.036C9.90667 903.036 8.17333 902.556 6.6 901.596C5.02667 900.609 3.77333 899.249 2.84 897.516C1.93333 895.756 1.48 893.769 1.48 891.556ZM19.52 891.636C19.52 890.116 19.2 888.796 18.56 887.676C17.9467 886.556 17.1333 885.702 16.12 885.116C15.1067 884.529 14.0133 884.236 12.84 884.236C11.6667 884.236 10.5733 884.529 9.56 885.116C8.54667 885.676 7.72 886.516 7.08 887.636C6.46667 888.729 6.16 890.036 6.16 891.556C6.16 893.076 6.46667 894.409 7.08 895.556C7.72 896.702 8.54667 897.582 9.56 898.196C10.6 898.782 11.6933 899.076 12.84 899.076C14.0133 899.076 15.1067 898.782 16.12 898.196C17.1333 897.609 17.9467 896.756 18.56 895.636C19.2 894.489 19.52 893.156 19.52 891.636ZM41.2294 880.276C42.9627 880.276 44.5094 880.636 45.8694 881.356C47.256 882.076 48.336 883.142 49.1094 884.556C49.8827 885.969 50.2694 887.676 50.2694 889.676V902.676H45.7494V890.356C45.7494 888.382 45.256 886.876 44.2694 885.836C43.2827 884.769 41.936 884.236 40.2294 884.236C38.5227 884.236 37.1627 884.769 36.1494 885.836C35.1627 886.876 34.6694 888.382 34.6694 890.356V902.676H30.1094V880.636H34.6694V883.156C35.416 882.249 36.3627 881.542 37.5094 881.036C38.6827 880.529 39.9227 880.276 41.2294 880.276ZM54.5659 891.556C54.5659 889.342 55.0193 887.382 55.9259 885.676C56.8593 883.969 58.1126 882.649 59.6859 881.716C61.2859 880.756 63.0593 880.276 65.0059 880.276C66.4459 880.276 67.8593 880.596 69.2459 881.236C70.6593 881.849 71.7793 882.676 72.6059 883.716V873.076H77.2059V902.676H72.6059V899.356C71.8593 900.422 70.8193 901.302 69.4859 901.996C68.1793 902.689 66.6726 903.036 64.9659 903.036C63.0459 903.036 61.2859 902.556 59.6859 901.596C58.1126 900.609 56.8593 899.249 55.9259 897.516C55.0193 895.756 54.5659 893.769 54.5659 891.556ZM72.6059 891.636C72.6059 890.116 72.2859 888.796 71.6459 887.676C71.0326 886.556 70.2193 885.702 69.2059 885.116C68.1926 884.529 67.0993 884.236 65.9259 884.236C64.7526 884.236 63.6593 884.529 62.6459 885.116C61.6326 885.676 60.8059 886.516 60.1659 887.636C59.5526 888.729 59.2459 890.036 59.2459 891.556C59.2459 893.076 59.5526 894.409 60.1659 895.556C60.8059 896.702 61.6326 897.582 62.6459 898.196C63.6859 898.782 64.7793 899.076 65.9259 899.076C67.0993 899.076 68.1926 898.782 69.2059 898.196C70.2193 897.609 71.0326 896.756 71.6459 895.636C72.2859 894.489 72.6059 893.156 72.6059 891.636ZM92.0659 888.716C92.0659 885.996 92.6926 883.556 93.9459 881.396C95.2259 879.236 96.9459 877.556 99.1059 876.356C101.293 875.129 103.679 874.516 106.266 874.516C109.226 874.516 111.853 875.249 114.146 876.716C116.466 878.156 118.146 880.209 119.186 882.876H113.706C112.986 881.409 111.986 880.316 110.706 879.596C109.426 878.876 107.946 878.516 106.266 878.516C104.426 878.516 102.786 878.929 101.346 879.756C99.9059 880.582 98.7726 881.769 97.9459 883.316C97.1459 884.862 96.7459 886.662 96.7459 888.716C96.7459 890.769 97.1459 892.569 97.9459 894.116C98.7726 895.662 99.9059 896.862 101.346 897.716C102.786 898.542 104.426 898.956 106.266 898.956C107.946 898.956 109.426 898.596 110.706 897.876C111.986 897.156 112.986 896.062 113.706 894.596H119.186C118.146 897.262 116.466 899.316 114.146 900.756C111.853 902.196 109.226 902.916 106.266 902.916C103.653 902.916 101.266 902.316 99.1059 901.116C96.9459 899.889 95.2259 898.196 93.9459 896.036C92.6926 893.876 92.0659 891.436 92.0659 888.716ZM134.083 903.036C132.003 903.036 130.123 902.569 128.443 901.636C126.763 900.676 125.443 899.342 124.483 897.636C123.523 895.902 123.043 893.902 123.043 891.636C123.043 889.396 123.537 887.409 124.523 885.676C125.51 883.942 126.857 882.609 128.563 881.676C130.27 880.742 132.177 880.276 134.283 880.276C136.39 880.276 138.297 880.742 140.003 881.676C141.71 882.609 143.057 883.942 144.043 885.676C145.03 887.409 145.523 889.396 145.523 891.636C145.523 893.876 145.017 895.862 144.003 897.596C142.99 899.329 141.603 900.676 139.843 901.636C138.11 902.569 136.19 903.036 134.083 903.036ZM134.083 899.076C135.257 899.076 136.35 898.796 137.363 898.236C138.403 897.676 139.243 896.836 139.883 895.716C140.523 894.596 140.843 893.236 140.843 891.636C140.843 890.036 140.537 888.689 139.923 887.596C139.31 886.476 138.497 885.636 137.483 885.076C136.47 884.516 135.377 884.236 134.203 884.236C133.03 884.236 131.937 884.516 130.923 885.076C129.937 885.636 129.15 886.476 128.563 887.596C127.977 888.689 127.683 890.036 127.683 891.636C127.683 894.009 128.283 895.849 129.483 897.156C130.71 898.436 132.243 899.076 134.083 899.076ZM176.711 880.276C178.445 880.276 179.991 880.636 181.351 881.356C182.738 882.076 183.818 883.142 184.591 884.556C185.391 885.969 185.791 887.676 185.791 889.676V902.676H181.271V890.356C181.271 888.382 180.778 886.876 179.791 885.836C178.805 884.769 177.458 884.236 175.751 884.236C174.045 884.236 172.685 884.769 171.671 885.836C170.685 886.876 170.191 888.382 170.191 890.356V902.676H165.671V890.356C165.671 888.382 165.178 886.876 164.191 885.836C163.205 884.769 161.858 884.236 160.151 884.236C158.445 884.236 157.085 884.769 156.071 885.836C155.085 886.876 154.591 888.382 154.591 890.356V902.676H150.031V880.636H154.591V883.156C155.338 882.249 156.285 881.542 157.431 881.036C158.578 880.529 159.805 880.276 161.111 880.276C162.871 880.276 164.445 880.649 165.831 881.396C167.218 882.142 168.285 883.222 169.031 884.636C169.698 883.302 170.738 882.249 172.151 881.476C173.565 880.676 175.085 880.276 176.711 880.276ZM196.154 883.876C196.927 882.862 197.98 882.009 199.314 881.316C200.647 880.622 202.154 880.276 203.834 880.276C205.754 880.276 207.5 880.756 209.074 881.716C210.674 882.649 211.927 883.969 212.834 885.676C213.74 887.382 214.194 889.342 214.194 891.556C214.194 893.769 213.74 895.756 212.834 897.516C211.927 899.249 210.674 900.609 209.074 901.596C207.5 902.556 205.754 903.036 203.834 903.036C202.154 903.036 200.66 902.702 199.354 902.036C198.047 901.342 196.98 900.489 196.154 899.476V913.156H191.594V880.636H196.154V883.876ZM209.554 891.556C209.554 890.036 209.234 888.729 208.594 887.636C207.98 886.516 207.154 885.676 206.114 885.116C205.1 884.529 204.007 884.236 202.834 884.236C201.687 884.236 200.594 884.529 199.554 885.116C198.54 885.702 197.714 886.556 197.074 887.676C196.46 888.796 196.154 890.116 196.154 891.636C196.154 893.156 196.46 894.489 197.074 895.636C197.714 896.756 198.54 897.609 199.554 898.196C200.594 898.782 201.687 899.076 202.834 899.076C204.007 899.076 205.1 898.782 206.114 898.196C207.154 897.582 207.98 896.702 208.594 895.556C209.234 894.409 209.554 893.076 209.554 891.556ZM223.263 873.076V902.676H218.703V873.076H223.263ZM231.57 877.716C230.743 877.716 230.05 877.436 229.49 876.876C228.93 876.316 228.65 875.622 228.65 874.796C228.65 873.969 228.93 873.276 229.49 872.716C230.05 872.156 230.743 871.876 231.57 871.876C232.37 871.876 233.05 872.156 233.61 872.716C234.17 873.276 234.45 873.969 234.45 874.796C234.45 875.622 234.17 876.316 233.61 876.876C233.05 877.436 232.37 877.716 231.57 877.716ZM233.81 880.636V902.676H229.25V880.636H233.81ZM238.277 891.556C238.277 889.342 238.73 887.382 239.637 885.676C240.57 883.969 241.824 882.649 243.397 881.716C244.997 880.756 246.757 880.276 248.677 880.276C250.41 880.276 251.917 880.622 253.197 881.316C254.504 881.982 255.544 882.822 256.317 883.836V880.636H260.917V902.676H256.317V899.396C255.544 900.436 254.49 901.302 253.157 901.996C251.824 902.689 250.304 903.036 248.597 903.036C246.704 903.036 244.97 902.556 243.397 901.596C241.824 900.609 240.57 899.249 239.637 897.516C238.73 895.756 238.277 893.769 238.277 891.556ZM256.317 891.636C256.317 890.116 255.997 888.796 255.357 887.676C254.744 886.556 253.93 885.702 252.917 885.116C251.904 884.529 250.81 884.236 249.637 884.236C248.464 884.236 247.37 884.529 246.357 885.116C245.344 885.676 244.517 886.516 243.877 887.636C243.264 888.729 242.957 890.036 242.957 891.556C242.957 893.076 243.264 894.409 243.877 895.556C244.517 896.702 245.344 897.582 246.357 898.196C247.397 898.782 248.49 899.076 249.637 899.076C250.81 899.076 251.904 898.782 252.917 898.196C253.93 897.609 254.744 896.756 255.357 895.636C255.997 894.489 256.317 893.156 256.317 891.636ZM278.026 880.276C279.76 880.276 281.306 880.636 282.666 881.356C284.053 882.076 285.133 883.142 285.906 884.556C286.68 885.969 287.066 887.676 287.066 889.676V902.676H282.546V890.356C282.546 888.382 282.053 886.876 281.066 885.836C280.08 884.769 278.733 884.236 277.026 884.236C275.32 884.236 273.96 884.769 272.946 885.836C271.96 886.876 271.466 888.382 271.466 890.356V902.676H266.906V880.636H271.466V883.156C272.213 882.249 273.16 881.542 274.306 881.036C275.48 880.529 276.72 880.276 278.026 880.276ZM291.363 891.636C291.363 889.369 291.816 887.382 292.723 885.676C293.656 883.942 294.936 882.609 296.563 881.676C298.189 880.742 300.056 880.276 302.163 880.276C304.829 880.276 307.029 880.916 308.763 882.196C310.523 883.449 311.709 885.249 312.323 887.596H307.403C307.003 886.502 306.363 885.649 305.483 885.036C304.603 884.422 303.496 884.116 302.163 884.116C300.296 884.116 298.803 884.782 297.683 886.116C296.589 887.422 296.043 889.262 296.043 891.636C296.043 894.009 296.589 895.862 297.683 897.196C298.803 898.529 300.296 899.196 302.163 899.196C304.803 899.196 306.549 898.036 307.403 895.716H312.323C311.683 897.956 310.483 899.742 308.723 901.076C306.963 902.382 304.776 903.036 302.163 903.036C300.056 903.036 298.189 902.569 296.563 901.636C294.936 900.676 293.656 899.342 292.723 897.636C291.816 895.902 291.363 893.902 291.363 891.636ZM337.067 891.116C337.067 891.942 337.014 892.689 336.907 893.356H320.067C320.201 895.116 320.854 896.529 322.027 897.596C323.201 898.662 324.641 899.196 326.347 899.196C328.801 899.196 330.534 898.169 331.547 896.116H336.467C335.801 898.142 334.587 899.809 332.827 901.116C331.094 902.396 328.934 903.036 326.347 903.036C324.241 903.036 322.347 902.569 320.667 901.636C319.014 900.676 317.707 899.342 316.747 897.636C315.814 895.902 315.347 893.902 315.347 891.636C315.347 889.369 315.801 887.382 316.707 885.676C317.641 883.942 318.934 882.609 320.587 881.676C322.267 880.742 324.187 880.276 326.347 880.276C328.427 880.276 330.281 880.729 331.907 881.636C333.534 882.542 334.801 883.822 335.707 885.476C336.614 887.102 337.067 888.982 337.067 891.116ZM332.307 889.676C332.281 887.996 331.681 886.649 330.507 885.636C329.334 884.622 327.881 884.116 326.147 884.116C324.574 884.116 323.227 884.622 322.107 885.636C320.987 886.622 320.321 887.969 320.107 889.676H332.307Z" fill="#54949B"/>
<path d="M912.48 218.716C912.48 215.996 913.107 213.556 914.36 211.396C915.64 209.236 917.36 207.556 919.52 206.356C921.707 205.129 924.093 204.516 926.68 204.516C929.64 204.516 932.267 205.249 934.56 206.716C936.88 208.156 938.56 210.209 939.6 212.876H934.12C933.4 211.409 932.4 210.316 931.12 209.596C929.84 208.876 928.36 208.516 926.68 208.516C924.84 208.516 923.2 208.929 921.76 209.756C920.32 210.582 919.187 211.769 918.36 213.316C917.56 214.862 917.16 216.662 917.16 218.716C917.16 220.769 917.56 222.569 918.36 224.116C919.187 225.662 920.32 226.862 921.76 227.716C923.2 228.542 924.84 228.956 926.68 228.956C928.36 228.956 929.84 228.596 931.12 227.876C932.4 227.156 933.4 226.062 934.12 224.596H939.6C938.56 227.262 936.88 229.316 934.56 230.756C932.267 232.196 929.64 232.916 926.68 232.916C924.067 232.916 921.68 232.316 919.52 231.116C917.36 229.889 915.64 228.196 914.36 226.036C913.107 223.876 912.48 221.436 912.48 218.716ZM954.498 233.036C952.418 233.036 950.538 232.569 948.858 231.636C947.178 230.676 945.858 229.342 944.898 227.636C943.938 225.902 943.458 223.902 943.458 221.636C943.458 219.396 943.951 217.409 944.938 215.676C945.924 213.942 947.271 212.609 948.978 211.676C950.684 210.742 952.591 210.276 954.698 210.276C956.804 210.276 958.711 210.742 960.418 211.676C962.124 212.609 963.471 213.942 964.458 215.676C965.444 217.409 965.938 219.396 965.938 221.636C965.938 223.876 965.431 225.862 964.418 227.596C963.404 229.329 962.018 230.676 960.258 231.636C958.524 232.569 956.604 233.036 954.498 233.036ZM954.498 229.076C955.671 229.076 956.764 228.796 957.778 228.236C958.818 227.676 959.658 226.836 960.298 225.716C960.938 224.596 961.258 223.236 961.258 221.636C961.258 220.036 960.951 218.689 960.338 217.596C959.724 216.476 958.911 215.636 957.898 215.076C956.884 214.516 955.791 214.236 954.618 214.236C953.444 214.236 952.351 214.516 951.338 215.076C950.351 215.636 949.564 216.476 948.978 217.596C948.391 218.689 948.098 220.036 948.098 221.636C948.098 224.009 948.698 225.849 949.898 227.156C951.124 228.436 952.658 229.076 954.498 229.076ZM981.565 210.276C983.299 210.276 984.845 210.636 986.205 211.356C987.592 212.076 988.672 213.142 989.445 214.556C990.219 215.969 990.605 217.676 990.605 219.676V232.676H986.085V220.356C986.085 218.382 985.592 216.876 984.605 215.836C983.619 214.769 982.272 214.236 980.565 214.236C978.859 214.236 977.499 214.769 976.485 215.836C975.499 216.876 975.005 218.382 975.005 220.356V232.676H970.445V210.636H975.005V213.156C975.752 212.249 976.699 211.542 977.845 211.036C979.019 210.529 980.259 210.276 981.565 210.276ZM1001.74 214.356V226.556C1001.74 227.382 1001.93 227.982 1002.3 228.356C1002.7 228.702 1003.37 228.876 1004.3 228.876H1007.1V232.676H1003.5C1001.45 232.676 999.875 232.196 998.782 231.236C997.689 230.276 997.142 228.716 997.142 226.556V214.356H994.542V210.636H997.142V205.156H1001.74V210.636H1007.1V214.356H1001.74ZM1009.78 221.556C1009.78 219.342 1010.24 217.382 1011.14 215.676C1012.08 213.969 1013.33 212.649 1014.9 211.716C1016.5 210.756 1018.26 210.276 1020.18 210.276C1021.92 210.276 1023.42 210.622 1024.7 211.316C1026.01 211.982 1027.05 212.822 1027.82 213.836V210.636H1032.42V232.676H1027.82V229.396C1027.05 230.436 1026 231.302 1024.66 231.996C1023.33 232.689 1021.81 233.036 1020.1 233.036C1018.21 233.036 1016.48 232.556 1014.9 231.596C1013.33 230.609 1012.08 229.249 1011.14 227.516C1010.24 225.756 1009.78 223.769 1009.78 221.556ZM1027.82 221.636C1027.82 220.116 1027.5 218.796 1026.86 217.676C1026.25 216.556 1025.44 215.702 1024.42 215.116C1023.41 214.529 1022.32 214.236 1021.14 214.236C1019.97 214.236 1018.88 214.529 1017.86 215.116C1016.85 215.676 1016.02 216.516 1015.38 217.636C1014.77 218.729 1014.46 220.036 1014.46 221.556C1014.46 223.076 1014.77 224.409 1015.38 225.556C1016.02 226.702 1016.85 227.582 1017.86 228.196C1018.9 228.782 1020 229.076 1021.14 229.076C1022.32 229.076 1023.41 228.782 1024.42 228.196C1025.44 227.609 1026.25 226.756 1026.86 225.636C1027.5 224.489 1027.82 223.156 1027.82 221.636ZM1040.73 207.716C1039.91 207.716 1039.21 207.436 1038.65 206.876C1038.09 206.316 1037.81 205.622 1037.81 204.796C1037.81 203.969 1038.09 203.276 1038.65 202.716C1039.21 202.156 1039.91 201.876 1040.73 201.876C1041.53 201.876 1042.21 202.156 1042.77 202.716C1043.33 203.276 1043.61 203.969 1043.61 204.796C1043.61 205.622 1043.33 206.316 1042.77 206.876C1042.21 207.436 1041.53 207.716 1040.73 207.716ZM1042.97 210.636V232.676H1038.41V210.636H1042.97ZM1060.08 210.276C1061.81 210.276 1063.36 210.636 1064.72 211.356C1066.11 212.076 1067.19 213.142 1067.96 214.556C1068.73 215.969 1069.12 217.676 1069.12 219.676V232.676H1064.6V220.356C1064.6 218.382 1064.11 216.876 1063.12 215.836C1062.13 214.769 1060.79 214.236 1059.08 214.236C1057.37 214.236 1056.01 214.769 1055 215.836C1054.01 216.876 1053.52 218.382 1053.52 220.356V232.676H1048.96V210.636H1053.52V213.156C1054.27 212.249 1055.21 211.542 1056.36 211.036C1057.53 210.529 1058.77 210.276 1060.08 210.276ZM1095.14 221.116C1095.14 221.942 1095.08 222.689 1094.98 223.356H1078.14C1078.27 225.116 1078.92 226.529 1080.1 227.596C1081.27 228.662 1082.71 229.196 1084.42 229.196C1086.87 229.196 1088.6 228.169 1089.62 226.116H1094.54C1093.87 228.142 1092.66 229.809 1090.9 231.116C1089.16 232.396 1087 233.036 1084.42 233.036C1082.31 233.036 1080.42 232.569 1078.74 231.636C1077.08 230.676 1075.78 229.342 1074.82 227.636C1073.88 225.902 1073.42 223.902 1073.42 221.636C1073.42 219.369 1073.87 217.382 1074.78 215.676C1075.71 213.942 1077 212.609 1078.66 211.676C1080.34 210.742 1082.26 210.276 1084.42 210.276C1086.5 210.276 1088.35 210.729 1089.98 211.636C1091.6 212.542 1092.87 213.822 1093.78 215.476C1094.68 217.102 1095.14 218.982 1095.14 221.116ZM1090.38 219.676C1090.35 217.996 1089.75 216.649 1088.58 215.636C1087.4 214.622 1085.95 214.116 1084.22 214.116C1082.64 214.116 1081.3 214.622 1080.18 215.636C1079.06 216.622 1078.39 217.969 1078.18 219.676H1090.38ZM1104.19 213.836C1104.85 212.716 1105.73 211.849 1106.83 211.236C1107.95 210.596 1109.27 210.276 1110.79 210.276V214.996H1109.63C1107.84 214.996 1106.48 215.449 1105.55 216.356C1104.64 217.262 1104.19 218.836 1104.19 221.076V232.676H1099.63V210.636H1104.19V213.836ZM926.68 292.956C924.093 292.956 921.707 292.356 919.52 291.156C917.36 289.929 915.64 288.236 914.36 286.076C913.107 283.889 912.48 281.436 912.48 278.716C912.48 275.996 913.107 273.556 914.36 271.396C915.64 269.236 917.36 267.556 919.52 266.356C921.707 265.129 924.093 264.516 926.68 264.516C929.293 264.516 931.68 265.129 933.84 266.356C936.027 267.556 937.747 269.236 939 271.396C940.253 273.556 940.88 275.996 940.88 278.716C940.88 281.436 940.253 283.889 939 286.076C937.747 288.236 936.027 289.929 933.84 291.156C931.68 292.356 929.293 292.956 926.68 292.956ZM926.68 288.996C928.52 288.996 930.16 288.582 931.6 287.756C933.04 286.902 934.16 285.702 934.96 284.156C935.787 282.582 936.2 280.769 936.2 278.716C936.2 276.662 935.787 274.862 934.96 273.316C934.16 271.769 933.04 270.582 931.6 269.756C930.16 268.929 928.52 268.516 926.68 268.516C924.84 268.516 923.2 268.929 921.76 269.756C920.32 270.582 919.187 271.769 918.36 273.316C917.56 274.862 917.16 276.662 917.16 278.716C917.16 280.769 917.56 282.582 918.36 284.156C919.187 285.702 920.32 286.902 921.76 287.756C923.2 288.582 924.84 288.996 926.68 288.996ZM949.927 273.836C950.594 272.716 951.474 271.849 952.567 271.236C953.687 270.596 955.007 270.276 956.527 270.276V274.996H955.367C953.581 274.996 952.221 275.449 951.287 276.356C950.381 277.262 949.927 278.836 949.927 281.076V292.676H945.367V270.636H949.927V273.836ZM959.199 281.636C959.199 279.369 959.652 277.382 960.559 275.676C961.492 273.942 962.772 272.609 964.399 271.676C966.025 270.742 967.892 270.276 969.999 270.276C972.665 270.276 974.865 270.916 976.599 272.196C978.359 273.449 979.545 275.249 980.159 277.596H975.239C974.839 276.502 974.199 275.649 973.319 275.036C972.439 274.422 971.332 274.116 969.999 274.116C968.132 274.116 966.639 274.782 965.519 276.116C964.425 277.422 963.879 279.262 963.879 281.636C963.879 284.009 964.425 285.862 965.519 287.196C966.639 288.529 968.132 289.196 969.999 289.196C972.639 289.196 974.385 288.036 975.239 285.716H980.159C979.519 287.956 978.319 289.742 976.559 291.076C974.799 292.382 972.612 293.036 969.999 293.036C967.892 293.036 966.025 292.569 964.399 291.636C962.772 290.676 961.492 289.342 960.559 287.636C959.652 285.902 959.199 283.902 959.199 281.636ZM996.103 270.276C997.783 270.276 999.276 270.636 1000.58 271.356C1001.92 272.076 1002.96 273.142 1003.7 274.556C1004.48 275.969 1004.86 277.676 1004.86 279.676V292.676H1000.34V280.356C1000.34 278.382 999.85 276.876 998.863 275.836C997.876 274.769 996.53 274.236 994.823 274.236C993.116 274.236 991.756 274.769 990.743 275.836C989.756 276.876 989.263 278.382 989.263 280.356V292.676H984.703V263.076H989.263V273.196C990.036 272.262 991.01 271.542 992.183 271.036C993.383 270.529 994.69 270.276 996.103 270.276ZM1030.88 281.116C1030.88 281.942 1030.83 282.689 1030.72 283.356H1013.88C1014.01 285.116 1014.67 286.529 1015.84 287.596C1017.01 288.662 1018.45 289.196 1020.16 289.196C1022.61 289.196 1024.35 288.169 1025.36 286.116H1030.28C1029.61 288.142 1028.4 289.809 1026.64 291.116C1024.91 292.396 1022.75 293.036 1020.16 293.036C1018.05 293.036 1016.16 292.569 1014.48 291.636C1012.83 290.676 1011.52 289.342 1010.56 287.636C1009.63 285.902 1009.16 283.902 1009.16 281.636C1009.16 279.369 1009.61 277.382 1010.52 275.676C1011.45 273.942 1012.75 272.609 1014.4 271.676C1016.08 270.742 1018 270.276 1020.16 270.276C1022.24 270.276 1024.09 270.729 1025.72 271.636C1027.35 272.542 1028.61 273.822 1029.52 275.476C1030.43 277.102 1030.88 278.982 1030.88 281.116ZM1026.12 279.676C1026.09 277.996 1025.49 276.649 1024.32 275.636C1023.15 274.622 1021.69 274.116 1019.96 274.116C1018.39 274.116 1017.04 274.622 1015.92 275.636C1014.8 276.622 1014.13 277.969 1013.92 279.676H1026.12ZM1043.37 293.036C1041.63 293.036 1040.07 292.729 1038.69 292.116C1037.33 291.476 1036.25 290.622 1035.45 289.556C1034.65 288.462 1034.22 287.249 1034.17 285.916H1038.89C1038.97 286.849 1039.41 287.636 1040.21 288.276C1041.03 288.889 1042.06 289.196 1043.29 289.196C1044.57 289.196 1045.55 288.956 1046.25 288.476C1046.97 287.969 1047.33 287.329 1047.33 286.556C1047.33 285.729 1046.93 285.116 1046.13 284.716C1045.35 284.316 1044.11 283.876 1042.41 283.396C1040.75 282.942 1039.41 282.502 1038.37 282.076C1037.33 281.649 1036.42 280.996 1035.65 280.116C1034.9 279.236 1034.53 278.076 1034.53 276.636C1034.53 275.462 1034.87 274.396 1035.57 273.436C1036.26 272.449 1037.25 271.676 1038.53 271.116C1039.83 270.556 1041.33 270.276 1043.01 270.276C1045.51 270.276 1047.53 270.916 1049.05 272.196C1050.59 273.449 1051.42 275.169 1051.53 277.356H1046.97C1046.89 276.369 1046.49 275.582 1045.77 274.996C1045.05 274.409 1044.07 274.116 1042.85 274.116C1041.65 274.116 1040.73 274.342 1040.09 274.796C1039.45 275.249 1039.13 275.849 1039.13 276.596C1039.13 277.182 1039.34 277.676 1039.77 278.076C1040.19 278.476 1040.71 278.796 1041.33 279.036C1041.94 279.249 1042.85 279.529 1044.05 279.876C1045.65 280.302 1046.95 280.742 1047.97 281.196C1049.01 281.622 1049.9 282.262 1050.65 283.116C1051.39 283.969 1051.78 285.102 1051.81 286.516C1051.81 287.769 1051.46 288.889 1050.77 289.876C1050.07 290.862 1049.09 291.636 1047.81 292.196C1046.55 292.756 1045.07 293.036 1043.37 293.036ZM1062.05 274.356V286.556C1062.05 287.382 1062.24 287.982 1062.61 288.356C1063.01 288.702 1063.68 288.876 1064.61 288.876H1067.41V292.676H1063.81C1061.76 292.676 1060.19 292.196 1059.09 291.236C1058 290.276 1057.45 288.716 1057.45 286.556V274.356H1054.85V270.636H1057.45V265.156H1062.05V270.636H1067.41V274.356H1062.05ZM1076.18 273.836C1076.84 272.716 1077.72 271.849 1078.82 271.236C1079.94 270.596 1081.26 270.276 1082.78 270.276V274.996H1081.62C1079.83 274.996 1078.47 275.449 1077.54 276.356C1076.63 277.262 1076.18 278.836 1076.18 281.076V292.676H1071.62V270.636H1076.18V273.836ZM1085.45 281.556C1085.45 279.342 1085.9 277.382 1086.81 275.676C1087.74 273.969 1089 272.649 1090.57 271.716C1092.17 270.756 1093.93 270.276 1095.85 270.276C1097.58 270.276 1099.09 270.622 1100.37 271.316C1101.68 271.982 1102.72 272.822 1103.49 273.836V270.636H1108.09V292.676H1103.49V289.396C1102.72 290.436 1101.66 291.302 1100.33 291.996C1099 292.689 1097.48 293.036 1095.77 293.036C1093.88 293.036 1092.14 292.556 1090.57 291.596C1089 290.609 1087.74 289.249 1086.81 287.516C1085.9 285.756 1085.45 283.769 1085.45 281.556ZM1103.49 281.636C1103.49 280.116 1103.17 278.796 1102.53 277.676C1101.92 276.556 1101.1 275.702 1100.09 275.116C1099.08 274.529 1097.98 274.236 1096.81 274.236C1095.64 274.236 1094.54 274.529 1093.53 275.116C1092.52 275.676 1091.69 276.516 1091.05 277.636C1090.44 278.729 1090.13 280.036 1090.13 281.556C1090.13 283.076 1090.44 284.409 1091.05 285.556C1091.69 286.702 1092.52 287.582 1093.53 288.196C1094.57 288.782 1095.66 289.076 1096.81 289.076C1097.98 289.076 1099.08 288.782 1100.09 288.196C1101.1 287.609 1101.92 286.756 1102.53 285.636C1103.17 284.489 1103.49 283.156 1103.49 281.636ZM1119.4 274.356V286.556C1119.4 287.382 1119.58 287.982 1119.96 288.356C1120.36 288.702 1121.02 288.876 1121.96 288.876H1124.76V292.676H1121.16C1119.1 292.676 1117.53 292.196 1116.44 291.236C1115.34 290.276 1114.8 288.716 1114.8 286.556V274.356H1112.2V270.636H1114.8V265.156H1119.4V270.636H1124.76V274.356H1119.4ZM1131.28 267.716C1130.45 267.716 1129.76 267.436 1129.2 266.876C1128.64 266.316 1128.36 265.622 1128.36 264.796C1128.36 263.969 1128.64 263.276 1129.2 262.716C1129.76 262.156 1130.45 261.876 1131.28 261.876C1132.08 261.876 1132.76 262.156 1133.32 262.716C1133.88 263.276 1134.16 263.969 1134.16 264.796C1134.16 265.622 1133.88 266.316 1133.32 266.876C1132.76 267.436 1132.08 267.716 1131.28 267.716ZM1133.52 270.636V292.676H1128.96V270.636H1133.52ZM1149.07 293.036C1146.99 293.036 1145.11 292.569 1143.43 291.636C1141.75 290.676 1140.43 289.342 1139.47 287.636C1138.51 285.902 1138.03 283.902 1138.03 281.636C1138.03 279.396 1138.52 277.409 1139.51 275.676C1140.49 273.942 1141.84 272.609 1143.55 271.676C1145.25 270.742 1147.16 270.276 1149.27 270.276C1151.37 270.276 1153.28 270.742 1154.99 271.676C1156.69 272.609 1158.04 273.942 1159.03 275.676C1160.01 277.409 1160.51 279.396 1160.51 281.636C1160.51 283.876 1160 285.862 1158.99 287.596C1157.97 289.329 1156.59 290.676 1154.83 291.636C1153.09 292.569 1151.17 293.036 1149.07 293.036ZM1149.07 289.076C1150.24 289.076 1151.33 288.796 1152.35 288.236C1153.39 287.676 1154.23 286.836 1154.87 285.716C1155.51 284.596 1155.83 283.236 1155.83 281.636C1155.83 280.036 1155.52 278.689 1154.91 277.596C1154.29 276.476 1153.48 275.636 1152.47 275.076C1151.45 274.516 1150.36 274.236 1149.19 274.236C1148.01 274.236 1146.92 274.516 1145.91 275.076C1144.92 275.636 1144.13 276.476 1143.55 277.596C1142.96 278.689 1142.67 280.036 1142.67 281.636C1142.67 284.009 1143.27 285.849 1144.47 287.156C1145.69 288.436 1147.23 289.076 1149.07 289.076ZM1176.14 270.276C1177.87 270.276 1179.42 270.636 1180.78 271.356C1182.16 272.076 1183.24 273.142 1184.02 274.556C1184.79 275.969 1185.18 277.676 1185.18 279.676V292.676H1180.66V280.356C1180.66 278.382 1180.16 276.876 1179.18 275.836C1178.19 274.769 1176.84 274.236 1175.14 274.236C1173.43 274.236 1172.07 274.769 1171.06 275.836C1170.07 276.876 1169.58 278.382 1169.58 280.356V292.676H1165.02V270.636H1169.58V273.156C1170.32 272.249 1171.27 271.542 1172.42 271.036C1173.59 270.529 1174.83 270.276 1176.14 270.276Z" fill="#54949B"/>
<path d="M764.384 606.419L822.666 576.333L880.948 606.419V666.372L822.666 696.458L764.384 666.372V606.419Z" stroke="#005F6A" stroke-width="2.36906"/>
<path d="M833.087 606.419L891.369 576.333L949.651 606.419V666.372L891.369 696.458L833.087 666.372V606.419Z" stroke="#E6A134" stroke-width="2.36906"/>
<path d="M1181.78 889.961L1232.19 756.355L1282.6 889.961H1181.78Z" stroke="#005F6A" stroke-width="2.36906"/>
<circle cx="1297.72" cy="830.465" r="59.6786" stroke="#E6A134" stroke-width="2.36906"/>
<path d="M1267.53 813.976L1340.11 766.865L1412.69 813.976L1385.03 890.044H1295.19L1267.53 813.976Z" stroke="#005F6A" stroke-width="2.36906"/>
<path d="M312.44 956.22L357.192 887.178L401.945 956.22H312.44Z" stroke="#E6A134" stroke-width="2.36906"/>
<path d="M327.406 975.909L384.697 887.184L441.989 975.909H327.406Z" stroke="#005F6A" stroke-width="2.36906"/>
<path d="M337.093 1001.97L411.088 887.186L485.083 1001.97H337.093Z" stroke="#E6A134" stroke-width="2.36906"/>
<path d="M764.385 1030.91L822.672 1000.86L880.96 1030.91V1090.8L822.672 1120.86L764.385 1090.8V1030.91Z" stroke="#005F6A" stroke-width="2.36906"/>
<circle cx="884.164" cy="1060.49" r="60.3073" stroke="#E6A134" stroke-width="2.36906"/>
<line x1="634.271" y1="130.255" x2="873.271" y2="284.255" stroke="#555454"/>
<line x1="873.458" y1="287.876" x2="754.458" y2="559.876" stroke="#555454"/>
<line x1="754.287" y1="560.085" x2="393.287" y2="813.085" stroke="#555454"/>
<line x1="393.233" y1="812.233" x2="731.233" y2="990.233" stroke="#555454"/>
<line x1="730.738" y1="990.25" x2="980.738" y2="836.25" stroke="#555454"/>
<circle cx="636" cy="130.676" r="8" fill="#2A2929"/>
<circle cx="876" cy="284.676" r="8" fill="#2A2929"/>
<circle cx="754" cy="559.676" r="8" fill="#2A2929"/>
<circle cx="393" cy="812.676" r="8" fill="#2A2929"/>
<circle cx="731" cy="990.676" r="8" fill="#2A2929"/>
<circle cx="981" cy="836.676" r="8" fill="#2A2929"/>
<path d="M866.781 43.4795L929.62 2.65839L992.459 43.4795L968.553 109.265H890.687L866.781 43.4795Z" stroke="#005F6A" stroke-width="4"/>
<path d="M920.25 43.2061L983.089 2.38495L1045.93 43.2061L1022.02 108.992H944.156L920.25 43.2061Z" stroke="#E6A134" stroke-width="4"/>
</svg>
