<svg width="200" height="200" viewBox="0 0 200 200" fill="none" xmlns="http://www.w3.org/2000/svg">
<path d="M35.6 161.292C71.652 180.128 130.104 180.128 166.156 161.292C202.208 142.456 202.208 111.924 166.156 93.0884C130.104 74.2524 71.652 74.2564 35.6 93.0884C-0.451999 111.92 -0.448001 142.46 35.6 161.292Z" fill="#FAFAFA"/>
<path d="M136.662 158.924C141.998 161.468 150.662 161.468 155.994 158.924C161.326 156.38 161.334 152.256 155.994 149.724C150.654 147.192 141.994 147.18 136.662 149.724C131.33 152.268 131.322 156.4 136.662 158.924Z" fill="#EBEBEB"/>
<path d="M30.2377 101.917L32.5857 100.577C32.5857 100.577 33.7097 94.3766 32.8697 89.0446C31.6697 81.5486 26.5817 78.9646 24.7297 79.7086C22.8777 80.4526 22.4377 82.6726 25.7857 87.0046C27.7617 89.5606 30.3017 94.9606 30.2377 101.917Z" fill="#E0E0E0"/>
<path d="M31.3005 99.6007C31.2697 99.5992 31.2395 99.5915 31.2116 99.5782C31.1838 99.5648 31.1589 99.546 31.1384 99.5229C31.1179 99.4998 31.1023 99.4729 31.0923 99.4436C31.0824 99.4144 31.0784 99.3835 31.0805 99.3527C31.5965 90.0007 29.8285 84.4927 25.1045 80.8767C25.0799 80.8582 25.0592 80.835 25.0436 80.8084C25.028 80.7819 25.0179 80.7524 25.0138 80.7219C25.0097 80.6914 25.0117 80.6603 25.0197 80.6306C25.0278 80.6009 25.0416 80.573 25.0605 80.5487C25.0991 80.5007 25.1547 80.4693 25.2157 80.4611C25.2768 80.4529 25.3387 80.4685 25.3885 80.5047C30.2485 84.2247 32.0885 89.8727 31.5325 99.3807C31.5295 99.4401 31.5037 99.4961 31.4605 99.537C31.4173 99.578 31.3601 99.6008 31.3005 99.6007Z" fill="white"/>
<path d="M23.1584 105.897C22.7864 106.109 22.0224 105.645 21.7304 105.449C21.2285 105.107 20.8234 104.641 20.5544 104.097C20.2479 103.478 20.1443 102.778 20.2584 102.097C20.3187 101.739 20.4029 101.387 20.5104 101.041C20.6104 100.697 20.7064 100.353 20.8064 100.013C20.9257 99.6808 20.9773 99.3286 20.9584 98.9766C20.8664 98.2726 20.2424 97.7766 19.6744 97.3526C19.1064 96.9286 18.3984 96.2726 18.3984 95.4246C18.4454 94.7683 18.7068 94.1457 19.1424 93.6526C19.5424 93.1406 20.0304 92.6886 20.3944 92.1486C20.6823 91.7712 20.8332 91.3071 20.8224 90.8326C20.7829 90.5426 20.6849 90.2636 20.5344 90.0126C20.1911 89.4881 19.8901 88.937 19.6344 88.3646C19.5121 88.0754 19.4738 87.7576 19.5241 87.4477C19.5743 87.1377 19.711 86.8483 19.9184 86.6126C20.125 86.4586 20.3601 86.3472 20.61 86.2847C20.8599 86.2222 21.1197 86.21 21.3744 86.2486C21.8552 86.3088 22.3175 86.4711 22.7304 86.7246C24.0744 87.4726 24.8424 89.0646 26.2664 89.6406C26.8347 89.8155 27.4131 89.9557 27.9984 90.0606C28.2903 90.1148 28.5675 90.2297 28.8121 90.3978C29.0567 90.5659 29.2633 90.7835 29.4184 91.0366C29.9424 92.0806 28.9704 93.3686 29.3384 94.4806C29.6664 95.4606 30.6184 95.8366 31.1544 96.7206C31.3734 97.1122 31.4616 97.5634 31.4064 98.0086C31.3601 98.7599 31.1757 99.4962 30.8624 100.181C30.5123 100.862 30.1112 101.516 29.6624 102.137C29.6624 102.137 23.1984 105.865 23.1584 105.897Z" fill="#F0F0F0"/>
<path d="M26.9986 103.912H26.9706C26.9401 103.909 26.9105 103.899 26.8837 103.884C26.8568 103.869 26.8332 103.849 26.8142 103.825C26.7953 103.801 26.7813 103.773 26.7731 103.743C26.7649 103.714 26.7627 103.683 26.7666 103.652C27.4466 98.2721 24.8786 91.0201 21.0506 87.4841C21.0283 87.4634 21.0103 87.4384 20.9976 87.4107C20.9849 87.383 20.9778 87.3531 20.9767 87.3226C20.9756 87.2921 20.9805 87.2618 20.9911 87.2332C21.0018 87.2046 21.0179 87.1784 21.0386 87.1561C21.0594 87.1338 21.0843 87.1158 21.1121 87.1031C21.1398 87.0904 21.1697 87.0833 21.2002 87.0822C21.2306 87.0811 21.261 87.086 21.2896 87.0966C21.3181 87.1072 21.3443 87.1234 21.3666 87.1441C25.3666 90.8281 27.9387 98.1081 27.2306 103.712C27.2221 103.768 27.194 103.818 27.1515 103.855C27.109 103.892 27.0548 103.912 26.9986 103.912Z" fill="white"/>
<path d="M26.3286 96.8928C26.2779 96.8928 26.2286 96.8759 26.1886 96.8448C24.1446 95.3128 20.8886 95.6008 20.8566 95.6008C20.7951 95.6066 20.7337 95.5877 20.6861 95.5484C20.6385 95.509 20.6084 95.4523 20.6026 95.3908C20.5968 95.3292 20.6156 95.2679 20.655 95.2203C20.6944 95.1726 20.7511 95.1426 20.8126 95.1368C20.9526 95.1368 24.2846 94.8368 26.4686 96.4768C26.4933 96.4952 26.514 96.5184 26.5296 96.545C26.5451 96.5716 26.5553 96.601 26.5594 96.6315C26.5635 96.6621 26.5614 96.6931 26.5534 96.7229C26.5454 96.7526 26.5315 96.7804 26.5126 96.8048C26.4911 96.8329 26.4632 96.8556 26.4312 96.8709C26.3992 96.8862 26.3641 96.8937 26.3286 96.8928Z" fill="white"/>
<path d="M25.9975 95.5494C25.9359 95.5453 25.8783 95.5177 25.8366 95.4722C25.7949 95.4268 25.7723 95.367 25.7735 95.3054C25.8208 94.4751 26.0367 93.6632 26.4081 92.9191C26.7794 92.175 27.2984 91.5143 27.9335 90.9774C27.9823 90.9392 28.0443 90.922 28.1058 90.9295C28.1673 90.937 28.2233 90.9686 28.2615 91.0174C28.2997 91.0662 28.3169 91.1282 28.3094 91.1897C28.3019 91.2512 28.2703 91.3072 28.2215 91.3454C27.6408 91.8429 27.1649 92.4511 26.8215 93.1344C26.4781 93.8177 26.2742 94.5625 26.2215 95.3254C26.2186 95.3839 26.194 95.4392 26.1526 95.4806C26.1113 95.5219 26.0559 95.5465 25.9975 95.5494Z" fill="white"/>
<path d="M166.109 76.3388L161.988 84.457L162.652 84.7938L166.772 76.6755L166.109 76.3388Z" fill="#37474F"/>
<path d="M158.469 75.6846L157.836 76.0762L161.853 82.5654L162.486 82.1737L158.469 75.6846Z" fill="#37474F"/>
<path d="M162.947 74.9238V94.4838C162.941 94.5388 162.921 94.5912 162.889 94.6361C162.857 94.6809 162.813 94.7167 162.763 94.7398C162.627 94.8087 162.476 94.8446 162.323 94.8446C162.17 94.8446 162.02 94.8087 161.883 94.7398C161.833 94.7173 161.789 94.6818 161.757 94.6368C161.724 94.5918 161.704 94.539 161.699 94.4838V74.9238H162.947Z" fill="#37474F"/>
<path d="M172.179 77.2162C176.803 75.2697 178.974 69.9432 177.027 65.3193C175.081 60.6954 169.754 58.5249 165.13 60.4715C160.506 62.4181 158.336 67.7445 160.282 72.3685C162.229 76.9924 167.555 79.1628 172.179 77.2162Z" fill="#337F88"/>
<path opacity="0.2" d="M171.499 66.5134C172.671 62.8254 173.919 61.3814 173.127 60.9334C171.622 60.0813 169.905 59.6763 168.178 59.7662C166.451 59.856 164.786 60.437 163.378 61.4407C161.97 62.4444 160.877 63.8291 160.229 65.4323C159.581 67.0354 159.403 68.7903 159.718 70.4907C160.033 72.1911 160.826 73.7664 162.005 75.0314C163.184 76.2964 164.7 77.1986 166.374 77.632C168.048 78.0654 169.811 78.0119 171.456 77.4779C173.1 76.9439 174.559 75.9515 175.659 74.6174C172.971 75.4054 170.003 71.2974 171.499 66.5134Z" fill="black"/>
<path d="M158.855 75.9204C161.348 73.4273 161.348 69.3852 158.855 66.8921C156.362 64.399 152.32 64.399 149.827 66.8921C147.334 69.3852 147.334 73.4273 149.827 75.9204C152.32 78.4135 156.362 78.4135 158.855 75.9204Z" fill="#337F88"/>
<path d="M154.34 65.0238C153.001 65.0219 151.695 65.4418 150.608 66.2238C150.436 70.1238 153.748 73.9278 152.82 75.2038C151.892 76.4798 149.62 75.6998 148.82 74.6118C149.383 75.5855 150.191 76.394 151.165 76.9557C152.139 77.5175 153.244 77.8127 154.369 77.8117C155.493 77.8107 156.597 77.5135 157.57 76.95C158.543 76.3865 159.351 75.5767 159.911 74.6019C160.472 73.6272 160.765 72.522 160.763 71.3976C160.76 70.2732 160.462 69.1693 159.897 68.1971C159.332 67.2248 158.521 66.4185 157.546 65.8593C156.57 65.3001 155.465 65.0078 154.34 65.0118V65.0238Z" fill="#337F88"/>
<path opacity="0.2" d="M154.34 65.0238C153.001 65.0219 151.695 65.4418 150.608 66.2238C150.436 70.1238 153.748 73.9278 152.82 75.2038C151.892 76.4798 149.62 75.6998 148.82 74.6118C149.383 75.5855 150.191 76.394 151.165 76.9557C152.139 77.5175 153.244 77.8127 154.369 77.8117C155.493 77.8107 156.597 77.5135 157.57 76.95C158.543 76.3865 159.351 75.5767 159.911 74.6019C160.472 73.6272 160.765 72.522 160.763 71.3976C160.76 70.2732 160.462 69.1693 159.897 68.1971C159.332 67.2248 158.521 66.4185 157.546 65.8593C156.57 65.3001 155.465 65.0078 154.34 65.0118V65.0238Z" fill="black"/>
<path d="M162.325 76.2365C168.794 76.2365 174.037 70.9929 174.037 64.5245C174.037 58.0561 168.794 52.8125 162.325 52.8125C155.857 52.8125 150.613 58.0561 150.613 64.5245C150.613 70.9929 155.857 76.2365 162.325 76.2365Z" fill="#337F88"/>
<path opacity="0.1" d="M173.724 67.2001C173.279 69.0949 172.37 70.8489 171.077 72.3038C169.784 73.7588 168.149 74.8686 166.32 75.5331C164.491 76.1976 162.525 76.3958 160.6 76.1097C158.675 75.8237 156.852 75.0624 155.295 73.8948C153.738 72.7271 152.496 71.1899 151.682 69.422C150.869 67.6541 150.508 65.7113 150.634 63.7692C150.759 61.827 151.367 59.9468 152.402 58.2985C153.436 56.6501 154.865 55.2855 156.56 54.3281C155.545 54.9057 154.62 55.6294 153.816 56.4761C153.613 57.3537 153.51 58.2514 153.508 59.1521C153.507 61.4962 154.209 63.7866 155.525 65.7268C156.84 67.667 158.708 69.1678 160.885 70.0348C163.063 70.9017 165.451 71.0951 167.74 70.5897C170.029 70.0843 172.113 68.9035 173.724 67.2001Z" fill="black"/>
<path d="M171.847 101.531L89.0875 149.311C88.8191 149.447 88.5224 149.518 88.2215 149.518C87.9206 149.518 87.6239 149.447 87.3555 149.311L19.2195 109.975C18.9681 109.81 18.7589 109.589 18.6088 109.328C18.4588 109.068 18.372 108.776 18.3555 108.475V106.723C18.3713 106.423 18.4579 106.131 18.608 105.87C18.7581 105.609 18.9676 105.388 19.2195 105.223L101.999 57.4393C102.268 57.3033 102.565 57.2324 102.865 57.2324C103.166 57.2324 103.463 57.3033 103.731 57.4393L171.847 96.7993C172.099 96.9642 172.308 97.1859 172.458 97.4464C172.608 97.7069 172.695 97.9991 172.711 98.2993V100.051C172.692 100.348 172.604 100.636 172.454 100.893C172.304 101.15 172.096 101.368 171.847 101.531Z" fill="#337F88"/>
<path opacity="0.2" d="M171.847 101.531L89.0875 149.311C88.8191 149.447 88.5224 149.518 88.2215 149.518C87.9206 149.518 87.6239 149.447 87.3555 149.311L19.2195 109.975C18.9681 109.81 18.7589 109.589 18.6088 109.328C18.4588 109.068 18.372 108.776 18.3555 108.475V106.723C18.3713 106.423 18.4579 106.131 18.608 105.87C18.7581 105.609 18.9676 105.388 19.2195 105.223L101.999 57.4393C102.268 57.3033 102.565 57.2324 102.865 57.2324C103.166 57.2324 103.463 57.3033 103.731 57.4393L171.847 96.7993C172.099 96.9642 172.308 97.1859 172.458 97.4464C172.608 97.7069 172.695 97.9991 172.711 98.2993V100.051C172.692 100.348 172.604 100.636 172.454 100.893C172.304 101.15 172.096 101.368 171.847 101.531Z" fill="black"/>
<g style="mix-blend-mode:multiply">
<path d="M172.711 98.2797C172.694 97.9795 172.607 97.6874 172.457 97.4269C172.307 97.1663 172.098 96.9447 171.847 96.7797L171.087 96.3438L88.2188 144.184V149.52C88.5199 149.526 88.8175 149.454 89.0828 149.312L171.843 101.532C172.094 101.367 172.303 101.145 172.453 100.885C172.603 100.624 172.69 100.332 172.707 100.032L172.711 98.2797Z" fill="#337F88"/>
</g>
<g style="mix-blend-mode:multiply" opacity="0.2">
<path d="M172.711 98.2797C172.694 97.9795 172.607 97.6874 172.457 97.4269C172.307 97.1663 172.098 96.9447 171.847 96.7797L171.087 96.3438L88.2188 144.184V149.52C88.5199 149.526 88.8175 149.454 89.0828 149.312L171.843 101.532C172.094 101.367 172.303 101.145 172.453 100.885C172.603 100.624 172.69 100.332 172.707 100.032L172.711 98.2797Z" fill="black"/>
</g>
<path d="M19.2177 106.223L87.3537 145.559C87.6221 145.695 87.9188 145.766 88.2197 145.766C88.5206 145.766 88.8173 145.695 89.0857 145.559L171.846 97.7793C171.95 97.7438 172.041 97.6766 172.105 97.5869C172.169 97.4972 172.204 97.3896 172.204 97.2793C172.204 97.169 172.169 97.0614 172.105 96.9717C172.041 96.882 171.95 96.8148 171.846 96.7793L103.71 57.4393C103.441 57.3033 103.145 57.2324 102.844 57.2324C102.543 57.2324 102.246 57.3033 101.978 57.4393L19.2177 105.223C19.1132 105.259 19.0225 105.326 18.9582 105.416C18.8939 105.505 18.8594 105.613 18.8594 105.723C18.8594 105.834 18.8939 105.941 18.9582 106.031C19.0225 106.121 19.1132 106.188 19.2177 106.223Z" fill="#337F88"/>
<path d="M55.5102 116.163C57.4142 115.063 57.4142 113.263 55.5102 112.163L46.8742 107.199C46.7828 107.147 46.7069 107.071 46.6541 106.98C46.6013 106.888 46.5736 106.785 46.5736 106.679C46.5736 106.574 46.6013 106.47 46.6541 106.379C46.7069 106.288 46.7828 106.212 46.8742 106.159L50.8502 103.867L44.3502 100.115L36.4382 104.659C34.5342 105.759 34.5382 107.555 36.4382 108.659L45.0982 113.635C45.1896 113.688 45.2655 113.764 45.3183 113.855C45.3711 113.946 45.3989 114.05 45.3989 114.155C45.3989 114.261 45.3711 114.364 45.3183 114.456C45.2655 114.547 45.1896 114.623 45.0982 114.675L39.4742 117.919L45.9982 121.651L55.5102 116.163Z" fill="#F5F5F5"/>
<path d="M78.4727 87.8991L99.5967 75.7031V98.2191L78.4727 110.411V87.8991Z" fill="#E0E0E0"/>
<path d="M92.6647 85.3508L85.4047 89.5268C85.2793 89.6102 85.1751 89.7215 85.1001 89.852C85.0252 89.9824 84.9815 90.1286 84.9727 90.2788V98.6788C84.9727 98.9548 85.1687 99.0788 85.4047 98.9268L92.6647 94.7508C92.7908 94.6684 92.8958 94.5573 92.9708 94.4266C93.0459 94.2959 93.089 94.1493 93.0967 93.9988V85.5988C93.0967 85.3228 92.9047 85.1988 92.6647 85.3508Z" fill="#455A64"/>
<path d="M92.2615 94.0403C92.274 94.0144 92.2847 93.9876 92.2935 93.9603V86.4883L85.8015 90.2203C85.7891 90.2462 85.7784 90.2729 85.7695 90.3003V97.7723L92.2615 94.0403Z" fill="#F5F5F5"/>
<path d="M93.0967 89.3203L84.9727 94.0003V94.9363L93.0967 90.2603V89.3203Z" fill="#455A64"/>
<path d="M89.4409 87.2031V96.6031L88.6289 97.0551V87.6751L89.4409 87.2031Z" fill="#455A64"/>
<path d="M78.4727 110.413V112.289L99.5967 100.097V98.2207L78.4727 110.413Z" fill="#263238"/>
<path d="M120.718 87.8991L99.5938 75.7031V98.2191L120.718 110.411V87.8991Z" fill="#F0F0F0"/>
<path d="M106.526 85.3508L113.786 89.5268C113.911 89.6102 114.015 89.7215 114.09 89.852C114.165 89.9824 114.209 90.1286 114.218 90.2788V98.6788C114.218 98.9548 114.022 99.0788 113.786 98.9268L106.526 94.7508C106.4 94.6684 106.295 94.5573 106.22 94.4266C106.145 94.2959 106.101 94.1493 106.094 93.9988V85.5988C106.094 85.3228 106.286 85.1988 106.526 85.3508Z" fill="#455A64"/>
<path d="M106.927 94.0403C106.927 94.0403 106.899 93.9843 106.891 93.9603V86.4883L113.383 90.2203C113.395 90.2462 113.406 90.2729 113.415 90.3003V97.7723L106.927 94.0403Z" fill="#F5F5F5"/>
<path d="M106.094 89.3203L114.218 94.0003V94.9363L106.094 90.2603V89.3203Z" fill="#455A64"/>
<path d="M109.746 87.2031V96.6031L110.562 97.0551V87.6751L109.746 87.2031Z" fill="#455A64"/>
<path d="M120.718 110.413V112.289L99.5938 100.097V98.2207L120.718 110.413Z" fill="#455A64"/>
<path d="M120.719 87.8994L138.591 53.1914L151.591 70.0754L151.587 92.5874L120.719 110.411V87.8994Z" fill="#E0E0E0"/>
<path d="M132.887 86.4875L125.627 90.6635C125.501 90.7461 125.397 90.8573 125.322 90.9879C125.247 91.1186 125.203 91.265 125.195 91.4155V99.8155C125.195 100.091 125.387 100.215 125.627 100.067L132.887 95.8875C133.013 95.8055 133.118 95.695 133.193 95.5651C133.268 95.4351 133.311 95.2893 133.319 95.1395V86.7395C133.319 86.4635 133.127 86.3515 132.887 86.4875Z" fill="#455A64"/>
<path d="M132.488 95.175C132.501 95.1491 132.511 95.1224 132.52 95.095V87.623L126.028 91.359C126.016 91.3835 126.005 91.4089 125.996 91.435V98.911L132.488 95.175Z" fill="#F5F5F5"/>
<path d="M133.319 90.459L125.195 95.135V96.075L133.319 91.399V90.459Z" fill="#455A64"/>
<path d="M129.664 88.3438V97.7437L128.852 98.1917V88.8117L129.664 88.3438Z" fill="#455A64"/>
<path d="M147.512 78.0392L140.252 82.2192C140.126 82.3008 140.021 82.4111 139.946 82.5412C139.871 82.6712 139.828 82.8173 139.82 82.9672V91.3672C139.82 91.6432 140.012 91.7672 140.252 91.6192L147.508 87.4432C147.635 87.3608 147.74 87.2498 147.816 87.1192C147.892 86.9886 147.936 86.842 147.944 86.6912V78.2912C147.944 77.9992 147.748 77.9032 147.512 78.0392Z" fill="#455A64"/>
<path d="M147.113 86.7278C147.126 86.7022 147.137 86.6754 147.145 86.6478V79.1758L140.653 82.9118C140.653 82.9118 140.625 82.9638 140.617 82.9918V90.4638L147.113 86.7278Z" fill="#F5F5F5"/>
<path d="M147.944 82.0117L139.82 86.6877V87.6277L147.944 82.9517V82.0117Z" fill="#455A64"/>
<path d="M144.289 79.8965V89.2965L143.477 89.7445V80.3645L144.289 79.8965Z" fill="#455A64"/>
<path d="M134.963 65.6004L138.963 63.2844C139.199 63.1484 139.395 63.2604 139.395 63.5364V71.9364C139.386 72.0866 139.343 72.2327 139.268 72.3632C139.193 72.4937 139.089 72.605 138.963 72.6884L134.963 75.0004C134.723 75.1404 134.527 75.0284 134.527 74.7524V66.3524C134.536 66.2016 134.58 66.055 134.656 65.9244C134.732 65.7938 134.837 65.6828 134.963 65.6004Z" fill="#455A64"/>
<path d="M135.328 66.3675L135.38 66.2956L138.604 64.4355V71.9315C138.589 71.9559 138.572 71.9786 138.552 71.9995L135.332 73.8595L135.328 66.3675Z" fill="#F5F5F5"/>
<path d="M138.604 67.7363L135.328 69.6283V70.5643L138.604 68.6723V67.7363Z" fill="#455A64"/>
<path d="M120.719 110.412L151.587 92.5879L151.591 94.4639L120.719 112.288V110.412Z" fill="#263238"/>
<path d="M78.4697 87.8994L60.5977 53.1914L47.5977 70.0754V92.5874L78.4697 110.411V87.8994Z" fill="#F5F5F5"/>
<path d="M50.8516 94.4641V77.5801L57.3516 81.3321V98.2201L50.8516 94.4641Z" fill="#263238"/>
<path d="M64.2836 85.3508L71.5396 89.5268C71.6661 89.6093 71.7715 89.7203 71.8472 89.8509C71.9229 89.9815 71.9669 90.1281 71.9756 90.2788V98.6788C71.9756 98.9548 71.7796 99.0788 71.5396 98.9268L64.2836 94.7508C64.1574 94.6684 64.0525 94.5573 63.9774 94.4266C63.9024 94.2959 63.8593 94.1493 63.8516 93.9988V85.5988C63.8476 85.3228 64.0436 85.1988 64.2836 85.3508Z" fill="#455A64"/>
<path d="M64.6844 94.0403C64.6703 94.0146 64.6583 93.9879 64.6484 93.9603V86.4883L71.1404 90.2203C71.1546 90.2459 71.1666 90.2727 71.1764 90.3003V97.7723L64.6844 94.0403Z" fill="#F5F5F5"/>
<path d="M63.8477 89.3203L71.9757 94.0003V94.9363L63.8477 90.2603V89.3203Z" fill="#455A64"/>
<path d="M67.5039 87.2031V96.6031L68.3159 97.0551V87.6751L67.5039 87.2031Z" fill="#455A64"/>
<path d="M64.2289 65.6004L60.2289 63.2844C59.9889 63.1484 59.7969 63.2604 59.7969 63.5364V71.9364C59.8048 72.0868 59.8481 72.2333 59.9231 72.3639C59.9982 72.4946 60.1029 72.6057 60.2289 72.6884L64.2289 75.0004C64.4689 75.1404 64.6609 75.0284 64.6609 74.7524V66.3524C64.6529 66.2019 64.6097 66.0554 64.5346 65.9248C64.4596 65.7942 64.3548 65.683 64.2289 65.6004Z" fill="#455A64"/>
<path d="M63.8579 66.3675L63.8099 66.2956L60.5859 64.4355V71.9315C60.601 71.9559 60.6184 71.9786 60.6379 71.9995L63.8579 73.8595V66.3675Z" fill="#F5F5F5"/>
<path d="M60.5859 67.7363L63.8619 69.6283V70.5643L60.5859 68.6723V67.7363Z" fill="#455A64"/>
<path d="M121.066 89.0433L99.5938 76.6433V31.6113L138.938 54.3353L121.066 89.0433Z" fill="#455A64"/>
<path d="M138.591 53.1914L138.219 53.9114L152.471 69.5674L153.215 69.1354L138.591 53.1914Z" fill="#455A64"/>
<path d="M152.473 69.5683L151.593 70.0763L138.289 55.6043L138.821 54.5723L152.473 69.5683Z" fill="#263238"/>
<path d="M120.718 87.8998L99.5938 75.7038V30.6758L138.59 53.1918L120.718 87.8998Z" fill="#37474F"/>
<path d="M78.122 89.0433L99.594 76.6433V31.6113L60.25 54.3353L78.122 89.0433Z" fill="#455A64"/>
<path d="M60.6006 53.1914L60.9726 53.9114L46.7206 69.5674L45.9766 69.1354L60.6006 53.1914Z" fill="#455A64"/>
<path d="M46.7188 69.5683L47.5987 70.0763L60.9027 55.6043L60.3707 54.5723L46.7188 69.5683Z" fill="#263238"/>
<path d="M78.4697 87.8998L99.5937 75.7038V30.6758L60.5977 53.1918L78.4697 87.8998Z" fill="#263238"/>
<path d="M78.8789 65.1512L83.3469 73.8272V64.4472L78.8789 61.8672V65.1512Z" fill="#F0F0F0"/>
<path d="M83.3477 64.4479L88.2197 56.0039L91.4717 59.7559V69.1359L83.3477 73.8279V64.4479Z" fill="#E0E0E0"/>
<path d="M85.9061 63.4115L88.9101 61.6755C89.0901 61.5715 89.2341 61.6555 89.2341 61.8635V68.1515C89.2279 68.2637 89.1953 68.3729 89.139 68.4702C89.0827 68.5674 89.0043 68.6501 88.9101 68.7115L85.9061 70.4475C85.7261 70.5515 85.5781 70.4475 85.5781 70.2635V63.9755C85.5845 63.8623 85.6176 63.7522 85.6746 63.6542C85.7316 63.5562 85.8109 63.473 85.9061 63.4115Z" fill="#455A64"/>
<path d="M86.1797 63.9753C86.1797 63.9753 86.2077 63.9353 86.2197 63.9233L88.6197 62.5273V68.1513L88.5837 68.2033L86.1837 69.5953L86.1797 63.9753Z" fill="#F5F5F5"/>
<path d="M88.6357 65.0039L86.1797 66.4199V67.1239L88.6357 65.7039V65.0039Z" fill="#455A64"/>
<path d="M88.2188 56.0039L89.8467 56.9439L93.0948 60.6959L91.4707 59.7559L88.2188 56.0039Z" fill="#263238"/>
<path d="M88.2188 55.6035L89.8467 56.5395L93.0948 60.2955L91.4707 59.3555L88.2188 55.6035Z" fill="#263238"/>
<path d="M89.8477 56.9435L83.3477 66.3235L76.8477 62.5715L83.3477 53.1875L89.8477 56.9435Z" fill="#37474F"/>
<path d="M89.8477 56.5391L83.3477 65.9231L76.8477 62.1711L83.3477 52.7871L89.8477 56.5391Z" fill="#37474F"/>
<path d="M89.8477 56.5391V56.9431L93.0957 60.6951V60.2951L89.8477 56.5391Z" fill="#455A64"/>
<path d="M89.8477 56.5391L83.3477 65.9231V66.3231L89.8477 56.9431V56.5391Z" fill="#455A64"/>
<path d="M76.8477 62.1719V62.5719L83.3477 66.3239V65.9239L76.8477 62.1719Z" fill="#263238"/>
<path d="M120.312 65.1512L115.844 73.8272V64.4472L120.312 61.8672V65.1512Z" fill="#E0E0E0"/>
<path d="M115.843 64.4479L110.967 56.0039L107.719 59.7559V69.1359L115.843 73.8279V64.4479Z" fill="#F5F5F5"/>
<path d="M113.285 63.4115L110.281 61.6755C110.101 61.5715 109.953 61.6555 109.953 61.8635V68.1515C109.96 68.264 109.993 68.3733 110.05 68.4705C110.107 68.5678 110.186 68.6503 110.281 68.7115L113.285 70.4475C113.465 70.5515 113.609 70.4475 113.609 70.2635V63.9755C113.603 63.8626 113.571 63.7526 113.515 63.6546C113.459 63.5565 113.38 63.4732 113.285 63.4115Z" fill="#455A64"/>
<path d="M113.006 63.9753C112.996 63.9571 112.984 63.9398 112.97 63.9233L110.57 62.5273V68.1513C110.585 68.1676 110.598 68.1849 110.61 68.2033L113.01 69.5953L113.006 63.9753Z" fill="#FAFAFA"/>
<path d="M110.551 65.0039L113.007 66.4199V67.1239L110.551 65.7039V65.0039Z" fill="#455A64"/>
<path d="M110.966 56.0039L109.342 56.9439L106.094 60.6959L107.718 59.7559L110.966 56.0039Z" fill="#263238"/>
<path d="M110.966 55.6035L109.342 56.5395L106.094 60.2955L107.718 59.3555L110.966 55.6035Z" fill="#263238"/>
<path d="M109.344 56.9435L115.844 66.3235L122.344 62.5715L115.844 53.1875L109.344 56.9435Z" fill="#37474F"/>
<path d="M109.344 56.5391L115.844 65.9231L122.344 62.1711L115.844 52.7871L109.344 56.5391Z" fill="#455A64"/>
<path d="M109.342 56.5391V56.9431L106.094 60.6951V60.2951L109.342 56.5391Z" fill="#455A64"/>
<path d="M109.344 56.5391L115.844 65.9231V66.3231L109.344 56.9431V56.5391Z" fill="#455A64"/>
<path d="M122.344 62.1719V62.5719L115.844 66.3239V65.9239L122.344 62.1719Z" fill="#263238"/>
<path d="M78.4726 110.412L71.9766 114.168V116.044L78.4726 112.288V110.412Z" fill="#263238"/>
<path d="M71.9736 114.168L41.1016 96.3398V98.2198L71.9736 116.044V114.168Z" fill="#455A64"/>
<path d="M47.5976 92.5879L41.1016 96.3399L71.9736 114.168L78.4696 110.412L47.5976 92.5879Z" fill="#37474F"/>
<path d="M71.1486 111.819C71.1557 111.89 71.1817 111.958 71.2239 112.016C71.2661 112.074 71.323 112.119 71.3886 112.147C71.5701 112.24 71.7709 112.288 71.9746 112.288C72.1784 112.288 72.3792 112.24 72.5606 112.147C72.6263 112.119 72.6832 112.074 72.7254 112.016C72.7676 111.958 72.7936 111.89 72.8006 111.819V88.6191H71.1406V111.819H71.1486Z" fill="#263238"/>
<path d="M44.3984 96.4398C44.4052 96.512 44.4314 96.5811 44.4744 96.6396C44.5174 96.6981 44.5755 96.7438 44.6424 96.7718C44.8237 96.8626 45.0237 96.9099 45.2264 96.9099C45.4292 96.9099 45.6292 96.8626 45.8104 96.7718C45.8774 96.7438 45.9355 96.6981 45.9785 96.6396C46.0215 96.5811 46.0477 96.512 46.0544 96.4398V73.2598H44.3984V96.4398Z" fill="#263238"/>
<path d="M78.4726 87.9007L45.9766 69.1367L39.4766 72.8887L71.9726 91.6527L78.4726 87.9007Z" fill="#455A64"/>
<path d="M71.9727 91.6524V92.5884L78.4727 88.8364V87.9004L71.9727 91.6524Z" fill="#263238"/>
<path d="M71.9726 91.6527L39.4766 72.8887V73.8287L71.9726 92.5887V91.6527Z" fill="#37474F"/>
<path d="M106.289 153.199C106.307 153.354 106.365 153.502 106.457 153.628C106.549 153.754 106.671 153.854 106.813 153.919C107.209 154.12 107.647 154.225 108.091 154.225C108.535 154.225 108.973 154.12 109.369 153.919C109.511 153.854 109.634 153.754 109.725 153.628C109.817 153.502 109.875 153.354 109.893 153.199V126.875H106.293V153.199H106.289Z" fill="#263238"/>
<path d="M91.3945 131.975V116.023L123.627 134.631V150.583L91.3945 131.975Z" fill="#F0F0F0"/>
<path d="M91.3945 116.023L93.6945 114.695L125.931 133.303L123.627 134.631L91.3945 116.023Z" fill="#F5F5F5"/>
<path d="M125.929 133.303V149.255L123.625 150.583V134.631L125.929 133.303Z" fill="#E0E0E0"/>
<path d="M93.9648 128.276V122.464C93.9648 122.344 93.9848 122.268 94.0288 122.24C94.0728 122.212 94.1408 122.24 94.2328 122.28L96.3728 123.516C96.5048 123.592 96.5688 123.76 96.5688 124.024V124.26C96.5688 124.52 96.5048 124.616 96.3728 124.54L95.0168 123.74V125.34L96.2768 126.064C96.4088 126.14 96.4728 126.312 96.4728 126.572V126.812C96.4728 127.072 96.4088 127.164 96.2768 127.088L95.0168 126.364V128.876C95.0168 128.968 94.9848 129.016 94.9248 129.02C94.8127 129.011 94.705 128.972 94.6128 128.908L94.3688 128.764C94.1008 128.616 93.9648 128.452 93.9648 128.276Z" fill="#337F88"/>
<path d="M97.1367 127.148C97.1367 124.98 97.8181 124.288 99.1807 125.072C100.543 125.856 101.215 127.332 101.197 129.5C101.197 131.679 100.519 132.377 99.1647 131.596C97.8101 130.815 97.1341 129.332 97.1367 127.148ZM99.9087 130.476C100.112 129.969 100.192 129.421 100.145 128.876C100.171 128.249 100.092 127.622 99.9127 127.02C99.7925 126.633 99.5351 126.303 99.1887 126.092C98.8567 125.9 98.6087 125.928 98.4527 126.176C98.2967 126.424 98.2127 126.952 98.2127 127.776C98.1877 128.408 98.2688 129.039 98.4527 129.644C98.5757 130.036 98.8373 130.371 99.1887 130.584C99.5087 130.764 99.7487 130.728 99.9087 130.476Z" fill="#337F88"/>
<path d="M102.039 132.936V127.124C102.039 127.008 102.059 126.936 102.107 126.908C102.155 126.88 102.219 126.908 102.315 126.944L103.599 127.68C104.089 127.927 104.499 128.307 104.783 128.777C105.066 129.247 105.21 129.787 105.199 130.336C105.199 131.059 104.951 131.431 104.455 131.452V131.488C104.726 131.879 104.911 132.324 104.995 132.792L105.467 134.832C105.469 134.854 105.469 134.877 105.467 134.9C105.471 134.921 105.471 134.943 105.467 134.964C105.467 135.104 105.327 135.092 105.043 134.928L104.799 134.8C104.551 134.656 104.399 134.508 104.399 134.352L103.967 132.352C103.923 132.156 103.849 131.969 103.747 131.796C103.65 131.657 103.521 131.543 103.371 131.464L103.079 131.292V133.552C103.079 133.728 102.939 133.736 102.679 133.552L102.467 133.428C102.175 133.28 102.039 133.112 102.039 132.936ZM103.639 130.492C103.693 130.532 103.761 130.551 103.828 130.544C103.895 130.538 103.958 130.506 104.003 130.456C104.121 130.29 104.175 130.087 104.155 129.884C104.165 129.633 104.114 129.383 104.007 129.156C103.922 128.973 103.782 128.821 103.607 128.72L103.067 128.408V130.16L103.639 130.492Z" fill="#337F88"/>
<path d="M107.566 136.311C107.348 136.119 107.159 135.895 107.006 135.647C106.979 135.587 106.955 135.526 106.934 135.463C106.917 135.41 106.909 135.355 106.91 135.299C106.908 135.16 106.941 135.022 107.006 134.899C107.07 134.779 107.142 134.743 107.222 134.791C107.283 134.835 107.336 134.889 107.378 134.951C107.446 135.035 107.49 135.091 107.514 135.115C107.712 135.388 107.963 135.619 108.25 135.795C108.323 135.847 108.406 135.884 108.493 135.903C108.58 135.922 108.67 135.924 108.758 135.907C108.898 135.867 108.97 135.715 108.97 135.459C108.972 135.213 108.907 134.971 108.782 134.759C108.615 134.477 108.423 134.209 108.21 133.959C107.973 133.68 107.753 133.388 107.55 133.083C107.383 132.822 107.248 132.541 107.15 132.247C107.049 131.944 106.999 131.626 107.002 131.307C107.002 130.759 107.154 130.415 107.462 130.279C107.665 130.218 107.88 130.206 108.089 130.245C108.297 130.283 108.494 130.37 108.662 130.499C108.859 130.613 109.044 130.747 109.214 130.899C109.385 131.045 109.54 131.21 109.674 131.391C109.743 131.479 109.782 131.587 109.786 131.699C109.784 131.837 109.754 131.973 109.698 132.099C109.638 132.227 109.574 132.271 109.498 132.231C109.432 132.18 109.372 132.123 109.318 132.059C109.141 131.879 108.939 131.724 108.718 131.599C108.494 131.471 108.326 131.439 108.214 131.503C108.154 131.544 108.106 131.601 108.076 131.667C108.046 131.733 108.034 131.807 108.042 131.879C108.042 132.059 108.079 132.238 108.15 132.403C108.214 132.555 108.296 132.699 108.394 132.831C108.486 132.951 108.654 133.159 108.898 133.459C109.224 133.839 109.504 134.257 109.73 134.703C109.912 135.097 110.004 135.526 109.998 135.959C110.012 136.254 109.946 136.547 109.806 136.807C109.746 136.908 109.662 136.993 109.56 137.052C109.459 137.112 109.344 137.144 109.226 137.147C108.898 137.146 108.578 137.047 108.306 136.863C108.039 136.708 107.791 136.523 107.566 136.311Z" fill="#337F88"/>
<path d="M110.195 137.727C110.195 137.707 110.195 137.659 110.195 137.579L111.495 132.463C111.527 132.331 111.667 132.335 111.923 132.463L112.323 132.703C112.435 132.745 112.535 132.811 112.617 132.897C112.7 132.983 112.762 133.086 112.799 133.199L114.091 139.811C114.091 139.903 114.091 139.955 114.091 139.975C114.091 140.095 113.983 140.095 113.767 139.975L113.447 139.791C113.223 139.659 113.099 139.531 113.075 139.391L112.823 137.991L111.447 137.191L111.195 138.295C111.171 138.399 111.059 138.391 110.851 138.271L110.535 138.091C110.309 137.968 110.195 137.847 110.195 137.727ZM112.683 136.951L112.255 134.575C112.219 134.359 112.187 134.123 112.159 133.871L112.119 133.847C112.091 134.071 112.059 134.267 112.023 134.443L111.623 136.327L112.683 136.951Z" fill="#337F88"/>
<path d="M114.713 140.423C114.666 140.33 114.644 140.227 114.649 140.123V134.315C114.649 134.139 114.785 134.127 115.049 134.283L115.293 134.423C115.41 134.484 115.515 134.567 115.601 134.667C115.662 134.738 115.696 134.829 115.697 134.923V140.047L117.041 140.823C117.115 140.864 117.172 140.931 117.201 141.011C117.237 141.115 117.253 141.225 117.249 141.335V141.571C117.258 141.664 117.241 141.758 117.201 141.843C117.169 141.887 117.117 141.891 117.041 141.843L114.913 140.615C114.832 140.568 114.763 140.502 114.713 140.423Z" fill="#337F88"/>
<path d="M117.944 142.286C117.897 142.194 117.874 142.09 117.88 141.986V136.266C117.88 136.146 117.9 136.07 117.944 136.042C117.988 136.014 118.056 136.042 118.148 136.086L120.46 137.418C120.531 137.463 120.587 137.529 120.62 137.606C120.653 137.711 120.668 137.821 120.664 137.93V138.17C120.673 138.262 120.657 138.355 120.62 138.438C120.588 138.482 120.532 138.486 120.46 138.438L118.932 137.558V139.158L120.292 139.958C120.366 139.998 120.423 140.064 120.452 140.142C120.487 140.247 120.503 140.356 120.5 140.466V140.706C120.508 140.799 120.492 140.891 120.452 140.974C120.42 141.022 120.368 141.022 120.292 140.974L118.932 140.174V141.91L120.468 142.798C120.538 142.837 120.592 142.899 120.62 142.974C120.654 143.08 120.669 143.191 120.664 143.302V143.542C120.674 143.635 120.659 143.73 120.62 143.814C120.588 143.858 120.536 143.858 120.468 143.814L118.148 142.478C118.065 142.433 117.995 142.367 117.944 142.286Z" fill="#337F88"/>
<path d="M47.6491 44.8525L46.4931 45.2965V42.7525C46.4931 40.7525 44.8931 40.2485 43.1371 41.2565C41.3891 42.2685 39.9691 44.7205 39.9691 46.7405V47.1125C39.7236 47.0352 39.4636 47.0152 39.2091 47.054C38.9546 47.0928 38.7124 47.1895 38.5011 47.3365C37.8371 47.7687 37.2845 48.3515 36.8883 49.0375C36.4921 49.7236 36.2635 50.4935 36.2211 51.2846V51.4525L34.6211 52.3805C34.1847 52.6659 33.8215 53.0499 33.5609 53.5016C33.3003 53.9533 33.1497 54.4599 33.1211 54.9805C33.1211 55.9365 33.7931 56.3245 34.6211 55.8445L47.6611 48.3165C48.0977 48.0323 48.461 47.6491 48.7217 47.198C48.9823 46.7469 49.1329 46.2407 49.1611 45.7205C49.1491 44.7645 48.4771 44.3765 47.6491 44.8525Z" fill="#F0F0F0"/>
<path d="M34.5617 45.6957L32.4697 46.8957C32.4697 46.8037 32.4697 46.7077 32.4697 46.6197V46.0117C32.4697 44.9317 31.7097 44.4917 30.7737 45.0317C30.3794 45.282 30.0416 45.6116 29.7817 45.9997C29.6297 44.6397 28.5817 44.1357 27.2697 44.8837C26.5302 45.3653 25.915 46.015 25.4743 46.7797C25.0335 47.5443 24.7798 48.4023 24.7337 49.2837V50.1917C24.7233 50.5543 24.7973 50.9144 24.9497 51.2437L23.2017 52.2557C22.9288 52.4338 22.7015 52.6735 22.5382 52.9556C22.3749 53.2377 22.2802 53.5542 22.2617 53.8797C22.2617 54.4797 22.6857 54.7237 23.2017 54.4237L34.5617 47.8677C34.8354 47.6894 35.0632 47.449 35.2266 47.1662C35.3899 46.8833 35.4842 46.5658 35.5017 46.2397C35.5017 45.6397 35.0817 45.3997 34.5617 45.6957Z" fill="#F0F0F0"/>
<path d="M153.283 150.492H151.031V153.772H153.283V150.492Z" fill="#FFA8A7"/>
<path d="M145.36 146.434L143.109 146.512L143.222 149.79L145.473 149.712L145.36 146.434Z" fill="#FFA8A7"/>
<path d="M153.137 118.467C153.137 120.615 153.417 134.531 153.417 134.531C153.469 135.151 154.049 136.295 153.925 138.671C153.753 141.899 153.473 150.871 153.473 150.871C153.473 150.871 152.417 151.919 150.925 150.871C150.925 150.871 148.885 138.683 148.481 135.483C148.129 132.683 147.533 125.083 147.533 125.083L145.445 134.015C145.445 134.015 145.813 136.115 145.893 137.615C145.973 139.115 145.493 147.655 145.493 147.655C145.129 147.883 144.711 148.012 144.281 148.028C143.851 148.045 143.425 147.947 143.045 147.747C143.045 147.747 141.233 135.243 141.001 133.903C140.769 132.563 142.601 118.467 142.601 118.467H153.137Z" fill="#37474F"/>
<path d="M144.947 103.464C144.023 103.572 143.287 104.072 141.947 106.352C140.875 108.176 138.635 111.672 138.635 111.672C138.427 111.512 133.467 108.628 132.367 107.272C132.142 106.757 131.864 106.266 131.539 105.808C131.115 105.26 130.683 104.72 130.235 104.208C130.201 104.167 130.162 104.13 130.119 104.1C129.955 104.004 129.719 104.148 129.679 104.332C129.642 104.52 129.665 104.716 129.743 104.892C129.823 105.132 130.063 105.464 129.743 105.52C129.45 105.536 129.158 105.471 128.899 105.332C128.467 105.148 128.043 104.932 127.627 104.72C127.372 104.553 127.082 104.449 126.779 104.416C126.558 104.426 126.344 104.503 126.168 104.638C125.991 104.772 125.86 104.957 125.791 105.168C125.727 105.38 125.708 105.604 125.734 105.824C125.761 106.044 125.834 106.257 125.947 106.448C126.174 106.83 126.478 107.161 126.839 107.42C127.595 108.008 128.603 108.28 129.523 108.524C129.987 108.649 130.425 108.853 130.819 109.128C131.551 109.64 135.403 113.22 137.183 114.62C138.031 115.288 139.239 115.66 140.207 114.68C141.175 113.7 145.059 108.52 145.059 108.52L147.503 103.684C146.662 103.513 145.805 103.439 144.947 103.464Z" fill="#FFA8A7"/>
<path d="M144.665 103.512C144.013 103.748 142.829 104.644 141.173 107.284C139.517 109.924 138.421 111.54 138.421 111.54L133.141 107.796C132.383 108.343 131.796 109.095 131.449 109.964C131.449 109.964 137.085 114.84 137.529 115.192C138.505 115.964 139.013 116.108 139.877 115.38C140.741 114.652 143.617 110.376 143.617 110.376L144.665 103.512Z" fill="#263238"/>
<path d="M149.742 103.566H149.774C150.738 103.812 151.592 104.374 152.201 105.161C152.809 105.948 153.138 106.915 153.134 107.91V118.458C151.554 120.174 146.046 120.974 142.598 118.458V107.482C142.598 105.726 143.574 103.618 146.266 103.482L149.742 103.566Z" fill="white"/>
<path d="M150.504 94.5881C150.685 94.5671 150.868 94.5874 151.04 94.6477C151.212 94.708 151.368 94.8067 151.496 94.9361C151.924 95.3721 151.836 96.1801 151.496 98.0361L150.18 98.1881L150.504 94.5881Z" fill="#263238"/>
<path d="M142.8 94.0467C142.517 94.0501 142.236 93.9943 141.976 93.8827C141.576 93.6467 141.464 94.1067 141.688 94.5067C141.835 94.793 142.052 95.037 142.319 95.2156C142.587 95.3941 142.895 95.5012 143.216 95.5267C143.216 95.4707 143.596 94.4987 143.596 94.4987L142.8 94.0467Z" fill="#263238"/>
<path d="M149.882 98.1877C150.078 98.3037 150.358 97.9277 150.602 97.6757C150.697 97.5675 150.818 97.4852 150.953 97.4366C151.089 97.388 151.234 97.3746 151.376 97.3978C151.518 97.4211 151.652 97.48 151.765 97.5692C151.878 97.6584 151.966 97.7749 152.022 97.9077C152.422 98.7517 151.514 99.8717 150.978 100.244C150.828 100.373 150.642 100.452 150.445 100.469C150.249 100.486 150.051 100.441 149.882 100.34L149.742 103.568C149.742 103.568 149.086 104.768 147.194 105.048C146.134 105.208 145.642 104.248 146.266 103.448V102.276C145.792 102.377 145.304 102.402 144.822 102.348C144.574 102.284 143.986 101.572 143.622 100.772C143.194 99.8757 142.482 98.2877 143.114 95.5957C143.794 92.7077 146.898 92.6197 148.75 93.7837C150.602 94.9477 149.882 98.1877 149.882 98.1877Z" fill="#FFA8A7"/>
<path d="M149.884 98.5153C149.984 98.5153 150.36 97.8953 150.604 97.6753C150.94 97.3673 150.504 94.5873 150.504 94.5873C150.504 94.5873 150.844 93.5313 150.18 92.8313C149.516 92.1313 148.216 92.2473 147.272 92.2153C146.11 92.2218 144.96 91.9904 143.892 91.5353C142.548 90.9553 142.448 90.8833 142.292 91.4753C142.136 92.0673 142.06 93.4153 142.864 94.3193L143.528 94.5633C143.528 94.5633 143.888 94.8833 145.128 95.0353C146.284 95.122 147.447 95.1006 148.6 94.9713C148.964 94.9193 149.04 95.2713 149.236 96.2353C149.412 97.0793 149.556 98.5113 149.884 98.5153Z" fill="#263238"/>
<path d="M150.504 94.7997L151.684 94.1637C151.646 94.084 151.593 94.0128 151.527 93.9544C151.461 93.896 151.383 93.8516 151.3 93.8239C151.216 93.7962 151.127 93.7859 151.039 93.7934C150.952 93.8009 150.866 93.8262 150.788 93.8677C150.631 93.9572 150.513 94.1037 150.46 94.2771C150.408 94.4505 150.423 94.6376 150.504 94.7997Z" fill="#263238"/>
<path d="M146.27 102.291C147.078 102.136 147.87 101.909 148.638 101.611C148.997 101.422 149.293 101.13 149.486 100.771C149.392 101.131 149.227 101.468 149.002 101.763C148.554 102.335 146.27 102.759 146.27 102.759V102.291Z" fill="#F28F8F"/>
<path d="M146.691 97.7468C146.694 97.8159 146.716 97.8827 146.757 97.939C146.797 97.9953 146.852 98.0385 146.917 98.0633C146.981 98.0881 147.052 98.0934 147.119 98.0785C147.187 98.0636 147.248 98.0292 147.296 97.9795C147.344 97.9298 147.377 97.8671 147.389 97.7992C147.402 97.7313 147.394 97.6611 147.367 97.5975C147.34 97.5339 147.295 97.4796 147.238 97.4414C147.18 97.4032 147.113 97.3829 147.043 97.3828C146.996 97.3833 146.95 97.3932 146.907 97.4118C146.863 97.4304 146.824 97.4575 146.791 97.4913C146.759 97.5252 146.733 97.5652 146.716 97.609C146.699 97.6529 146.69 97.6997 146.691 97.7468Z" fill="#263238"/>
<path d="M147.062 96.4192L147.815 96.8192C147.867 96.716 147.879 96.5966 147.847 96.4851C147.815 96.3737 147.742 96.2786 147.642 96.2192C147.592 96.1928 147.536 96.1771 147.479 96.173C147.421 96.1688 147.364 96.1763 147.31 96.195C147.255 96.2137 147.206 96.2432 147.163 96.2818C147.121 96.3203 147.086 96.367 147.062 96.4192Z" fill="#263238"/>
<path d="M146.718 100.131L145.918 100.435C145.935 100.489 145.964 100.538 146.001 100.581C146.038 100.623 146.083 100.658 146.134 100.682C146.185 100.707 146.24 100.721 146.296 100.724C146.353 100.727 146.409 100.718 146.462 100.699C146.569 100.655 146.656 100.572 146.703 100.466C146.751 100.36 146.756 100.24 146.718 100.131Z" fill="#F28F8F"/>
<path d="M143.556 96.7123L144.24 96.1843C144.21 96.136 144.169 96.0948 144.122 96.0635C144.074 96.0322 144.02 96.0114 143.963 96.0027C143.907 95.994 143.849 95.9975 143.794 96.0129C143.739 96.0284 143.688 96.0554 143.644 96.0923C143.553 96.1649 143.494 96.2695 143.477 96.3848C143.461 96.5001 143.489 96.6172 143.556 96.7123Z" fill="#263238"/>
<path d="M143.766 97.6469C143.765 97.694 143.773 97.7408 143.79 97.7847C143.807 97.8285 143.833 97.8686 143.866 97.9024C143.898 97.9363 143.938 97.9633 143.981 97.9819C144.024 98.0005 144.071 98.0104 144.118 98.0109C144.212 98.0088 144.303 97.9694 144.369 97.9013C144.434 97.8331 144.471 97.7417 144.47 97.6469C144.47 97.5536 144.433 97.464 144.367 97.398C144.301 97.332 144.211 97.2949 144.118 97.2949C144.024 97.2949 143.935 97.332 143.869 97.398C143.803 97.464 143.766 97.5536 143.766 97.6469Z" fill="#263238"/>
<path d="M145.56 97.3145L145.444 99.4305L144.34 99.0505L145.56 97.3145Z" fill="#F28F8F"/>
<path d="M151.03 152.659V152.339C150.814 152.431 150.314 154.339 149.43 155.139C148.722 155.787 147.75 156.535 147.506 157.259C147.262 157.983 148.854 158.423 149.506 158.307C150.278 158.171 151.614 157.627 151.95 157.107C152.286 156.587 152.442 155.863 152.718 155.507C152.994 155.151 153.618 154.727 153.766 154.307C153.809 153.909 153.766 153.506 153.638 153.127C153.534 152.727 153.418 152.287 153.282 152.327V152.571C152.966 152.832 152.568 152.974 152.158 152.971C151.826 152.979 151.026 152.911 151.03 152.659Z" fill="#263238"/>
<path d="M143.198 149.096C143.078 149.096 142.986 149.264 142.726 149.544C142.341 149.932 141.893 150.254 141.402 150.496C140.558 150.92 138.918 151.568 138.174 151.904C137.71 152.112 137.734 152.672 138.214 152.988C138.694 153.304 139.85 153.54 141.238 153.228C141.994 153.06 142.982 152.36 143.606 152.396C144.23 152.432 145.394 152.424 145.858 152.108C146.322 151.792 146.134 151.112 146.002 150.532C145.87 149.952 145.658 148.932 145.446 148.968V149.164C145.174 149.564 143.794 149.744 143.202 149.44L143.198 149.096Z" fill="#263238"/>
<path d="M147.53 125.1C146.623 124.696 145.752 124.217 144.926 123.668C145.478 124.348 146.157 124.915 146.926 125.336L145.834 132.312L147.53 125.1Z" fill="#263238"/>
<path d="M146.269 103.466C145.514 104.1 144.968 104.946 144.701 105.894C144.365 107.342 144.301 123.494 144.301 123.494C144.301 123.494 142.585 123.174 141.781 122.546V107.786C141.781 105.766 142.269 103.566 146.253 103.23L146.269 103.466Z" fill="#263238"/>
<path d="M149.744 103.512C149.744 103.512 147.816 104.736 147.792 110.336C147.768 115.176 147.672 123.664 147.672 123.664C147.672 123.664 151.032 124.348 153.432 122.916C153.432 122.916 153.16 110.792 153.116 108.972C153.064 106.892 153.672 105.124 152.5 104.536C151.611 104.119 150.689 103.776 149.744 103.512Z" fill="#263238"/>
<path d="M156.474 123.396L154.162 122.996C154.162 123.396 154.162 123.724 154.142 124.004C154.037 124.369 153.84 124.701 153.57 124.968C153.164 125.431 152.829 125.951 152.574 126.512C152.31 126.968 152.03 127.132 152.106 127.24C152.206 127.351 152.342 127.42 152.49 127.436C152.638 127.452 152.786 127.412 152.906 127.324C153.18 127.133 153.428 126.909 153.646 126.656C153.57 127.249 153.399 127.826 153.138 128.364C152.546 129.6 152.662 130.244 154.362 129.848C155.43 129.6 156.118 128.736 156.362 126.2C156.467 125.269 156.505 124.332 156.474 123.396Z" fill="#FFA8A7"/>
<path d="M151.386 104.059C152.104 104.312 152.789 104.652 153.426 105.071C153.934 105.471 156.89 113.955 157.006 114.715C157.122 115.475 156.682 123.515 156.682 123.515C156.287 123.771 155.832 123.921 155.362 123.951C154.892 123.982 154.422 123.89 153.998 123.687L153.526 115.639L151.198 109.539C151.198 109.539 150.022 106.235 151.386 104.059Z" fill="#263238"/>
<path d="M150.306 106.576L149.258 107.872L149.782 109.348L148.406 112.876L150.066 109.348L149.486 107.956L150.306 106.576Z" fill="#37474F"/>
<path d="M143.371 105.875L143.595 107.215L142.691 108.399L143.951 112.371L142.975 108.443L143.811 107.339L143.371 105.875Z" fill="#37474F"/>
</svg>
