<svg width="200" height="200" viewBox="0 0 200 200" fill="none" xmlns="http://www.w3.org/2000/svg">
<path d="M37.3842 108.7C2.80422 128.664 2.80422 161.036 37.3842 181C71.9642 200.964 128.032 200.964 162.612 181C197.192 161.036 197.192 128.664 162.612 108.7C128.032 88.7356 71.9642 88.7356 37.3842 108.7Z" fill="#FAFAFA"/>
<path d="M93.4501 131.344L20.1221 173.68C19.4741 174.052 18.3461 174.008 17.6021 173.576L12.7821 170.792C12.0341 170.36 11.9541 169.708 12.6021 169.336L85.9261 127C86.5741 126.628 87.7021 126.672 88.4461 127.104L93.2661 129.888C94.0141 130.32 94.0941 130.972 93.4461 131.344H93.4501Z" fill="#E0E0E0"/>
<path d="M142.878 179.215C158.872 179.215 171.838 171.73 171.838 162.495C171.838 153.261 158.872 145.775 142.878 145.775C126.884 145.775 113.918 153.261 113.918 162.495C113.918 171.73 126.884 179.215 142.878 179.215Z" fill="#E0E0E0"/>
<path d="M73.0913 183.097L128.799 150.921C129.527 150.501 129.527 149.817 128.799 149.397L100.503 133.077C99.7753 132.657 98.5953 132.657 97.8673 133.077L42.1593 165.253C41.4313 165.673 41.4313 166.357 42.1593 166.777L70.4553 183.097C71.1833 183.517 72.3633 183.517 73.0913 183.097Z" fill="#E0E0E0"/>
<path d="M158.76 150.993L165.144 154.681C165.06 152.401 164.86 149.013 165.176 146.729C167.104 132.773 172.54 128.169 175.128 121.377C177.852 114.225 174.528 111.921 170.216 113.209C166.368 114.357 160.804 120.049 159.052 130.465C157.888 137.393 158.092 144.921 158.76 150.997V150.993Z" fill="#337F88"/>
<path opacity="0.65" d="M158.76 150.993L165.144 154.681C165.06 152.401 164.86 149.013 165.176 146.729C167.104 132.773 172.54 128.169 175.128 121.377C177.852 114.225 174.528 111.921 170.216 113.209C166.368 114.357 160.804 120.049 159.052 130.465C157.888 137.393 158.092 144.921 158.76 150.997V150.993Z" fill="white"/>
<path d="M162.144 152.948L162.784 153.316C160.5 137.044 166.064 122.932 171.556 117.104C171.66 116.992 171.656 116.816 171.544 116.708C171.428 116.604 171.252 116.608 171.148 116.72C165.66 122.552 160.1 136.76 162.144 152.948Z" fill="white"/>
<path d="M163.352 153.645L166.944 155.721C168.856 150.097 170.816 147.841 173.252 144.145C175.472 140.777 178.052 138.693 179.424 136.325C180.64 134.229 181.552 131.597 179.748 130.005C176.876 127.469 173.128 130.153 170.548 133.053C168.32 135.561 163.84 142.233 163.348 153.649L163.352 153.645Z" fill="#337F88"/>
<path opacity="0.3" d="M163.352 153.645L166.944 155.721C168.856 150.097 170.816 147.841 173.252 144.145C175.472 140.777 178.052 138.693 179.424 136.325C180.64 134.229 181.552 131.597 179.748 130.005C176.876 127.469 173.128 130.153 170.548 133.053C168.32 135.561 163.84 142.233 163.348 153.649L163.352 153.645Z" fill="white"/>
<path d="M164.824 154.496L165.348 154.8C166.856 145.904 172.9 135.608 176.656 133.18C176.788 133.096 176.828 132.916 176.74 132.784C176.656 132.648 176.48 132.612 176.344 132.7C172.456 135.22 166.428 145.464 164.824 154.5V154.496Z" fill="white"/>
<path d="M85.0372 10.804L17.7092 49.628C17.0132 50.028 16.4492 51.004 16.4492 51.808V168.664C16.4492 169.468 17.0132 170.44 17.7092 170.84L17.9652 170.984C18.6612 171.384 19.7892 171.38 20.4852 170.98L87.8132 132.104C88.5092 131.704 89.0732 130.724 89.0732 129.924V13.12C89.0732 12.316 88.5092 11.344 87.8132 10.944L87.5572 10.8C86.8612 10.4 85.7332 10.404 85.0372 10.804Z" fill="#337F88"/>
<path opacity="0.45" d="M85.0372 10.804L17.7092 49.628C17.0132 50.028 16.4492 51.004 16.4492 51.808V168.664C16.4492 169.468 17.0132 170.44 17.7092 170.84L17.9652 170.984C18.6612 171.384 19.7892 171.38 20.4852 170.98L87.8132 132.104C88.5092 131.704 89.0732 130.724 89.0732 129.924V13.12C89.0732 12.316 88.5092 11.344 87.8132 10.944L87.5572 10.8C86.8612 10.4 85.7332 10.404 85.0372 10.804Z" fill="black"/>
<path d="M89.0785 130.015C89.0785 131.123 88.3025 131.827 87.3385 132.379L20.9705 170.695C20.0145 171.247 19.2305 170.803 19.2305 169.691V53.9429C19.2305 52.7069 19.8905 51.5629 20.9625 50.9429L87.3345 12.6109C88.1065 12.1629 89.0745 12.7229 89.0745 13.6149V130.015H89.0785Z" fill="#337F88"/>
<path opacity="0.3" d="M89.0785 130.015C89.0785 131.123 88.3025 131.827 87.3385 132.379L20.9705 170.695C20.0145 171.247 19.2305 170.803 19.2305 169.691V53.9429C19.2305 52.7069 19.8905 51.5629 20.9625 50.9429L87.3345 12.6109C88.1065 12.1629 89.0745 12.7229 89.0745 13.6149V130.015H89.0785Z" fill="black"/>
<path d="M89.0767 13.1195V13.6155C89.0767 12.7235 88.1087 12.1675 87.3327 12.6115L20.9607 50.9435C20.4207 51.2475 19.9927 51.6915 19.6967 52.2075C19.6887 52.2235 19.6807 52.2315 19.6767 52.2475L16.8047 50.5875C17.0367 50.1835 17.3527 49.8315 17.7127 49.6275L85.0367 10.8035C85.7327 10.3995 86.8647 10.3995 87.5567 10.7995L87.8127 10.9475C88.5087 11.3435 89.0767 12.3195 89.0767 13.1235V13.1195Z" fill="#337F88"/>
<path opacity="0.2" d="M89.0767 13.1195V13.6155C89.0767 12.7235 88.1087 12.1675 87.3327 12.6115L20.9607 50.9435C20.4207 51.2475 19.9927 51.6915 19.6967 52.2075C19.6887 52.2235 19.6807 52.2315 19.6767 52.2475L16.8047 50.5875C17.0367 50.1835 17.3527 49.8315 17.7127 49.6275L85.0367 10.8035C85.7327 10.3995 86.8647 10.3995 87.5567 10.7995L87.8127 10.9475C88.5087 11.3435 89.0767 12.3195 89.0767 13.1235V13.1195Z" fill="black"/>
<path opacity="0.25" d="M87.4331 124.915C87.4331 126.055 86.6331 126.783 85.6411 127.351L22.9131 163.567C21.9251 164.139 21.1211 163.675 21.1211 162.531V60.3627C21.1211 59.0867 21.8011 57.9107 22.9051 57.2707L85.6411 21.0387C86.4371 20.5787 87.4331 21.1547 87.4331 22.0747V124.915Z" fill="black"/>
<path d="M22.7274 58.631L85.2234 22.547C85.5194 22.375 85.9994 22.375 86.2954 22.547L86.8994 22.895C87.1954 23.067 87.4354 23.479 87.4354 23.823V126.495C87.4354 126.835 87.1954 127.251 86.8994 127.423L24.3994 163.503C24.1034 163.675 23.6234 163.675 23.3314 163.503L22.7274 163.155C22.4314 162.983 22.1914 162.571 22.1914 162.227V59.555C22.1914 59.215 22.4314 58.799 22.7274 58.627V58.631Z" fill="#F5F5F5"/>
<path d="M24.2713 163.563C24.2113 163.587 24.1433 163.603 24.0753 163.615C24.0433 163.619 24.0033 163.623 23.9713 163.627C23.8633 163.635 23.7513 163.631 23.6473 163.615C23.5753 163.603 23.5113 163.587 23.4513 163.563C23.4113 163.547 23.3673 163.527 23.3313 163.507L22.7313 163.163C22.4353 162.991 22.1953 162.579 22.1953 162.235V59.5592C22.1953 59.3872 22.2513 59.1953 22.3513 59.0312L24.0233 59.9953C23.9273 60.1633 23.8673 60.3552 23.8673 60.5232V163.195C23.8673 163.487 24.0393 163.631 24.2753 163.563H24.2713Z" fill="#E0E0E0"/>
<path d="M86.8994 22.895L86.2954 22.547C85.9994 22.375 85.5194 22.375 85.2274 22.547L22.7274 58.631C22.4314 58.803 22.1914 59.215 22.1914 59.559V73.411L23.8634 74.383L87.4314 37.679V23.819C87.4314 23.479 87.1914 23.063 86.8954 22.891L86.8994 22.895Z" fill="#337F88"/>
<path opacity="0.4" d="M86.8994 22.895L86.2954 22.547C85.9994 22.375 85.5194 22.375 85.2274 22.547L22.7274 58.631C22.4314 58.803 22.1914 59.215 22.1914 59.559V73.411L23.8634 74.383L87.4314 37.679V23.819C87.4314 23.479 87.1914 23.063 86.8954 22.891L86.8994 22.895Z" fill="white"/>
<path d="M87.4117 23.659C87.3477 23.439 87.1397 23.371 86.8957 23.511L24.3997 59.595C24.2517 59.683 24.1157 59.827 24.0197 59.995L22.3477 59.031C22.4437 58.863 22.5797 58.715 22.7277 58.631L85.2277 22.547C85.5197 22.375 86.0037 22.375 86.2957 22.547L86.8997 22.895C87.1517 23.043 87.3597 23.359 87.4157 23.659H87.4117Z" fill="#337F88"/>
<path opacity="0.6" d="M87.4117 23.659C87.3477 23.439 87.1397 23.371 86.8957 23.511L24.3997 59.595C24.2517 59.683 24.1157 59.827 24.0197 59.995L22.3477 59.031C22.4437 58.863 22.5797 58.715 22.7277 58.631L85.2277 22.547C85.5197 22.375 86.0037 22.375 86.2957 22.547L86.8997 22.895C87.1517 23.043 87.3597 23.359 87.4157 23.659H87.4117Z" fill="white"/>
<path d="M22.1914 59.5593V73.4153L23.8634 74.3793V60.5193C23.8634 60.3513 23.9234 60.1593 24.0194 59.9913L22.3474 59.0273C22.2474 59.1913 22.1914 59.3833 22.1914 59.5553V59.5593Z" fill="#337F88"/>
<path d="M36.5385 78.5687L74.8225 56.4047C74.9905 56.3087 75.1265 56.3847 75.1265 56.5807V56.9767C75.1265 57.1727 74.9905 57.4087 74.8225 57.5047L36.5345 79.6687C36.3665 79.7647 36.2305 79.6887 36.2305 79.4927V79.0967C36.2305 78.9007 36.3665 78.6647 36.5345 78.5687H36.5385Z" fill="#337F88"/>
<path d="M38.0977 95.0035V95.5636C38.0977 95.8676 38.3097 95.9876 38.5737 95.8396L63.8057 81.2915C64.0697 81.1395 64.2817 80.7716 64.2817 80.4676V79.9076C64.2817 79.6036 64.0697 79.4836 63.8057 79.6316L38.5737 94.1836C38.3097 94.3356 38.0977 94.7036 38.0977 95.0076V95.0035Z" fill="#E0E0E0"/>
<path d="M38.0977 98.528V99.088C38.0977 99.392 38.3097 99.512 38.5737 99.364L81.9097 74.356C82.1737 74.204 82.3857 73.836 82.3857 73.532V72.972C82.3857 72.668 82.1737 72.548 81.9097 72.696L38.5737 97.704C38.3097 97.856 38.0977 98.224 38.0977 98.528Z" fill="#E0E0E0"/>
<path d="M38.0977 101.88V102.44C38.0977 102.744 38.3097 102.864 38.5737 102.716L81.9097 77.7076C82.1737 77.5556 82.3857 77.1876 82.3857 76.8836V76.3236C82.3857 76.0196 82.1737 75.8996 81.9097 76.0476L38.5737 101.056C38.3097 101.208 38.0977 101.576 38.0977 101.88Z" fill="#E0E0E0"/>
<path d="M28.2597 108.884C28.2157 108.884 28.1757 108.872 28.1357 108.852C28.0597 108.808 28.0117 108.728 28.0117 108.64V100.548C28.0117 100.46 28.0597 100.38 28.1357 100.336L35.0957 96.3201C35.1717 96.2761 35.2637 96.2761 35.3397 96.3201C35.4157 96.3641 35.4637 96.4441 35.4637 96.5321V104.624C35.4637 104.712 35.4157 104.792 35.3397 104.836L28.3837 108.852C28.3477 108.876 28.3037 108.884 28.2597 108.884ZM28.5037 100.688V108.216L34.9717 104.48V96.9521L28.5037 100.688Z" fill="#455A64"/>
<path d="M31.6512 105.1L30.0312 103.544L30.5712 102.396L31.4952 103.284L35.4832 94.8398L36.1792 95.5118L31.6512 105.1Z" fill="#337F88"/>
<path d="M38.0977 107.672V108.232C38.0977 108.536 38.3097 108.656 38.5737 108.508L63.8057 93.9595C64.0697 93.8075 64.2817 93.4395 64.2817 93.1355V92.5755C64.2817 92.2715 64.0697 92.1515 63.8057 92.2995L38.5737 106.852C38.3097 107.004 38.0977 107.372 38.0977 107.676V107.672Z" fill="#E0E0E0"/>
<path d="M38.0977 111.196V111.756C38.0977 112.06 38.3097 112.18 38.5737 112.032L81.9097 87.024C82.1737 86.872 82.3857 86.504 82.3857 86.2V85.64C82.3857 85.336 82.1737 85.216 81.9097 85.364L38.5737 110.372C38.3097 110.524 38.0977 110.892 38.0977 111.196Z" fill="#E0E0E0"/>
<path d="M38.0977 114.551V115.111C38.0977 115.415 38.3097 115.535 38.5737 115.387L81.9097 90.3794C82.1737 90.2274 82.3857 89.8594 82.3857 89.5554V88.9954C82.3857 88.6914 82.1737 88.5714 81.9097 88.7194L38.5737 113.727C38.3097 113.879 38.0977 114.247 38.0977 114.551Z" fill="#E0E0E0"/>
<path d="M28.2597 121.552C28.2157 121.552 28.1757 121.54 28.1357 121.52C28.0597 121.476 28.0117 121.396 28.0117 121.308V113.216C28.0117 113.128 28.0597 113.048 28.1357 113.004L35.0957 108.988C35.1717 108.944 35.2637 108.944 35.3397 108.988C35.4157 109.032 35.4637 109.112 35.4637 109.2V117.292C35.4637 117.38 35.4157 117.46 35.3397 117.504L28.3837 121.52C28.3477 121.544 28.3037 121.552 28.2597 121.552ZM28.5037 113.356V120.884L34.9717 117.148V109.62L28.5037 113.356Z" fill="#455A64"/>
<path d="M31.6512 117.768L30.0312 116.212L30.5712 115.064L31.4952 115.952L35.4832 107.512L36.1792 108.18L31.6512 117.768Z" fill="#337F88"/>
<path d="M38.0977 120.343V120.903C38.0977 121.207 38.3097 121.327 38.5737 121.179L63.8057 106.631C64.0697 106.479 64.2817 106.111 64.2817 105.807V105.247C64.2817 104.943 64.0697 104.823 63.8057 104.971L38.5737 119.523C38.3097 119.675 38.0977 120.043 38.0977 120.347V120.343Z" fill="#E0E0E0"/>
<path d="M38.0977 123.864V124.424C38.0977 124.728 38.3097 124.848 38.5737 124.7L81.9097 99.6919C82.1737 99.5399 82.3857 99.1719 82.3857 98.8679V98.3079C82.3857 98.0039 82.1737 97.8839 81.9097 98.0319L38.5737 123.04C38.3097 123.192 38.0977 123.56 38.0977 123.864Z" fill="#E0E0E0"/>
<path d="M38.0977 127.219V127.779C38.0977 128.083 38.3097 128.203 38.5737 128.055L81.9097 103.047C82.1737 102.895 82.3857 102.527 82.3857 102.223V101.663C82.3857 101.359 82.1737 101.239 81.9097 101.387L38.5737 126.395C38.3097 126.547 38.0977 126.915 38.0977 127.219Z" fill="#E0E0E0"/>
<path d="M28.2597 134.22C28.2157 134.22 28.1757 134.208 28.1357 134.188C28.0597 134.144 28.0117 134.064 28.0117 133.976V125.884C28.0117 125.796 28.0597 125.716 28.1357 125.672L35.0957 121.656C35.1717 121.612 35.2637 121.612 35.3397 121.656C35.4157 121.7 35.4637 121.78 35.4637 121.868V129.96C35.4637 130.048 35.4157 130.128 35.3397 130.172L28.3837 134.188C28.3477 134.208 28.3037 134.22 28.2597 134.22ZM28.5037 126.024V133.552L34.9717 129.816V122.288L28.5037 126.024Z" fill="#455A64"/>
<path d="M31.6512 130.44L30.0312 128.88L30.5712 127.736L31.4952 128.62L35.4832 120.18L36.1792 120.852L31.6512 130.44Z" fill="#337F88"/>
<path d="M38.0977 133.011V133.571C38.0977 133.875 38.3097 133.995 38.5737 133.847L63.8057 119.299C64.0697 119.147 64.2817 118.779 64.2817 118.475V117.915C64.2817 117.611 64.0697 117.491 63.8057 117.639L38.5737 132.191C38.3097 132.343 38.0977 132.711 38.0977 133.015V133.011Z" fill="#E0E0E0"/>
<path d="M38.0977 136.536V137.096C38.0977 137.4 38.3097 137.52 38.5737 137.372L81.9097 112.364C82.1737 112.212 82.3857 111.844 82.3857 111.54V110.98C82.3857 110.676 82.1737 110.556 81.9097 110.704L38.5737 135.712C38.3097 135.864 38.0977 136.232 38.0977 136.536Z" fill="#E0E0E0"/>
<path d="M38.0977 139.887V140.447C38.0977 140.751 38.3097 140.871 38.5737 140.723L81.9097 115.715C82.1737 115.563 82.3857 115.195 82.3857 114.891V114.331C82.3857 114.027 82.1737 113.907 81.9097 114.055L38.5737 139.063C38.3097 139.215 38.0977 139.583 38.0977 139.887Z" fill="#E0E0E0"/>
<path d="M28.2597 146.892C28.2157 146.892 28.1757 146.88 28.1357 146.86C28.0597 146.816 28.0117 146.736 28.0117 146.648V138.556C28.0117 138.468 28.0597 138.388 28.1357 138.344L35.0957 134.328C35.1717 134.284 35.2637 134.284 35.3397 134.328C35.4157 134.372 35.4637 134.452 35.4637 134.54V142.632C35.4637 142.72 35.4157 142.8 35.3397 142.844L28.3837 146.86C28.3477 146.884 28.3037 146.892 28.2597 146.892ZM28.5037 138.696V146.224L34.9717 142.488V134.96L28.5037 138.696Z" fill="#455A64"/>
<path d="M31.6512 143.108L30.0312 141.552L30.5712 140.404L31.4952 141.292L35.4832 132.848L36.1792 133.52L31.6512 143.108Z" fill="#337F88"/>
<path d="M28.0157 88.6668V89.2268C28.0157 89.5308 28.2277 89.6508 28.4917 89.5028L81.9077 58.6548C82.1717 58.5028 82.3837 58.1348 82.3837 57.8308V57.2708C82.3837 56.9668 82.1717 56.8468 81.9077 56.9948L28.4877 87.8468C28.2237 87.9988 28.0117 88.3668 28.0117 88.6708L28.0157 88.6668Z" fill="#E0E0E0"/>
<path d="M28.0157 92.2274V92.7874C28.0157 93.0914 28.2277 93.2114 28.4917 93.0634L81.9077 62.2154C82.1717 62.0634 82.3837 61.6954 82.3837 61.3914V60.8314C82.3837 60.5274 82.1717 60.4074 81.9077 60.5554L28.4877 91.4034C28.2237 91.5554 28.0117 91.9234 28.0117 92.2274H28.0157Z" fill="#E0E0E0"/>
<path d="M28.0157 95.786V96.346C28.0157 96.65 28.2277 96.77 28.4917 96.622L81.9077 65.774C82.1717 65.622 82.3837 65.254 82.3837 64.95V64.39C82.3837 64.086 82.1717 63.966 81.9077 64.114L28.4877 94.962C28.2237 95.114 28.0117 95.482 28.0117 95.786H28.0157Z" fill="#E0E0E0"/>
<path d="M28.0157 151.62V152.18C28.0157 152.484 28.2277 152.604 28.4917 152.456L81.9077 121.608C82.1717 121.456 82.3837 121.088 82.3837 120.784V120.224C82.3837 119.92 82.1717 119.8 81.9077 119.948L28.4877 150.796C28.2237 150.948 28.0117 151.316 28.0117 151.62H28.0157Z" fill="#E0E0E0"/>
<path d="M28.0157 155.177V155.737C28.0157 156.041 28.2277 156.161 28.4917 156.013L81.9077 125.165C82.1717 125.013 82.3837 124.645 82.3837 124.341V123.781C82.3837 123.477 82.1717 123.357 81.9077 123.505L28.4877 154.353C28.2237 154.505 28.0117 154.873 28.0117 155.177H28.0157Z" fill="#E0E0E0"/>
<path d="M28.5837 64.3599L50.4677 51.7159C50.7837 51.5319 51.0397 51.6799 51.0397 52.0439V52.2119C51.0397 52.5759 50.7837 53.0199 50.4677 53.1999L28.5837 65.8439C28.2677 66.0279 28.0117 65.8799 28.0117 65.5159V65.3479C28.0117 64.9839 28.2677 64.5399 28.5837 64.3599Z" fill="#FAFAFA"/>
<path d="M28.5837 67.351L41.6037 59.835C41.9197 59.651 42.1757 59.799 42.1757 60.163V60.331C42.1757 60.695 41.9197 61.139 41.6037 61.319L28.5837 68.835C28.2677 69.019 28.0117 68.871 28.0117 68.507V68.339C28.0117 67.975 28.2677 67.531 28.5837 67.351Z" fill="#FAFAFA"/>
<path d="M72.3621 38.8917L82.0941 33.2677C82.2501 33.1757 82.3781 33.2517 82.3781 33.4317V33.8037C82.3781 33.9837 82.2501 34.2077 82.0941 34.2957L72.3621 39.9197C72.2061 40.0117 72.0781 39.9357 72.0781 39.7557V39.3837C72.0781 39.2037 72.2061 38.9797 72.3621 38.8917Z" fill="#337F88"/>
<path d="M72.3621 43.38L82.0941 37.756C82.2501 37.664 82.3781 37.74 82.3781 37.92V38.292C82.3781 38.472 82.2501 38.696 82.0941 38.784L72.3621 44.408C72.2061 44.5 72.0781 44.424 72.0781 44.244V43.872C72.0781 43.692 72.2061 43.468 72.3621 43.38Z" fill="#337F88"/>
<path d="M74.3699 39.9641L82.0939 35.5041C82.2499 35.4121 82.3779 35.4881 82.3779 35.6681V36.0401C82.3779 36.2201 82.2499 36.4441 82.0939 36.5321L74.3699 40.9921C74.2139 41.0841 74.0859 41.0081 74.0859 40.8281V40.4561C74.0859 40.2761 74.2139 40.0521 74.3699 39.9641Z" fill="#337F88"/>
<path d="M37.2853 76.7917C37.2373 76.8197 37.1973 76.8157 37.1653 76.7837C37.1293 76.7517 37.1133 76.6997 37.1133 76.6237V70.2237C37.1133 70.1517 37.1293 70.0797 37.1653 70.0077C37.2013 69.9357 37.2413 69.8837 37.2853 69.8597L37.8053 69.5597C37.8533 69.5317 37.8933 69.5357 37.9293 69.5677C37.9653 69.5997 37.9813 69.6517 37.9813 69.7277V76.1277C37.9813 76.1997 37.9653 76.2717 37.9293 76.3477C37.8933 76.4197 37.8533 76.4717 37.8053 76.4957L37.2853 76.7957V76.7917Z" fill="#455A64"/>
<path d="M41.9044 74.1247C41.8324 74.1687 41.7764 74.1687 41.7364 74.1327C41.6964 74.0967 41.6684 74.0647 41.6524 74.0407L39.8524 70.9607V75.0407C39.8524 75.1127 39.8364 75.1847 39.8004 75.2607C39.7684 75.3327 39.7244 75.3847 39.6804 75.4087L39.1604 75.7087C39.1124 75.7367 39.0724 75.7327 39.0364 75.7007C39.0044 75.6687 38.9844 75.6167 38.9844 75.5407V69.1407C38.9844 69.0687 39.0004 68.9967 39.0364 68.9247C39.0724 68.8527 39.1124 68.8007 39.1604 68.7767L39.6124 68.5167C39.6844 68.4727 39.7404 68.4727 39.7804 68.5087C39.8204 68.5447 39.8484 68.5767 39.8644 68.6007L41.6644 71.6807V67.6007C41.6644 67.5287 41.6804 67.4567 41.7164 67.3847C41.7524 67.3127 41.7924 67.2607 41.8364 67.2367L42.3564 66.9367C42.4044 66.9087 42.4444 66.9127 42.4804 66.9447C42.5164 66.9767 42.5324 67.0287 42.5324 67.1047V73.5047C42.5324 73.5767 42.5164 73.6487 42.4804 73.7247C42.4444 73.7967 42.4044 73.8487 42.3564 73.8727L41.9044 74.1327V74.1247Z" fill="#455A64"/>
<path d="M45.0744 65.259C45.3624 65.095 45.6144 65.007 45.8344 64.999C46.0544 64.991 46.2344 65.035 46.3824 65.131C46.5304 65.227 46.6384 65.359 46.7144 65.527C46.7904 65.699 46.8304 65.879 46.8384 66.063C46.8424 66.139 46.8264 66.215 46.7904 66.283C46.7544 66.355 46.7104 66.403 46.6664 66.431L46.2144 66.691C46.1424 66.735 46.0864 66.743 46.0504 66.723C46.0144 66.703 45.9824 66.663 45.9504 66.607C45.8864 66.479 45.7864 66.391 45.6584 66.347C45.5264 66.299 45.3344 66.351 45.0784 66.499C44.9664 66.563 44.8624 66.643 44.7584 66.739C44.6584 66.835 44.5704 66.935 44.4944 67.051C44.4184 67.163 44.3584 67.283 44.3184 67.407C44.2744 67.531 44.2544 67.655 44.2544 67.783C44.2544 67.935 44.2744 68.047 44.3144 68.119C44.3544 68.191 44.4224 68.235 44.5224 68.247C44.6184 68.259 44.7464 68.251 44.9064 68.219C45.0664 68.187 45.2624 68.143 45.4984 68.087C45.7544 68.023 45.9784 67.995 46.1624 68.003C46.3504 68.011 46.5024 68.063 46.6184 68.155C46.7344 68.247 46.8264 68.383 46.8824 68.563C46.9384 68.739 46.9704 68.967 46.9704 69.235C46.9704 69.531 46.9264 69.831 46.8424 70.135C46.7544 70.439 46.6344 70.727 46.4744 70.999C46.3144 71.271 46.1184 71.531 45.8904 71.767C45.6584 72.007 45.3984 72.211 45.1104 72.375C44.8704 72.515 44.6424 72.603 44.4224 72.639C44.2024 72.675 44.0104 72.659 43.8384 72.587C43.6704 72.515 43.5344 72.391 43.4304 72.215C43.3264 72.039 43.2704 71.807 43.2584 71.523C43.2544 71.447 43.2704 71.371 43.3064 71.303C43.3424 71.231 43.3864 71.183 43.4344 71.155L43.8824 70.895C43.9544 70.851 44.0104 70.839 44.0504 70.859C44.0904 70.875 44.1224 70.915 44.1464 70.983C44.1744 71.051 44.2144 71.115 44.2544 71.179C44.2984 71.239 44.3544 71.283 44.4264 71.307C44.4984 71.331 44.5904 71.331 44.6984 71.311C44.8064 71.291 44.9424 71.235 45.1064 71.139C45.2344 71.063 45.3584 70.979 45.4784 70.879C45.5984 70.779 45.7024 70.671 45.7944 70.547C45.8864 70.427 45.9584 70.299 46.0144 70.163C46.0704 70.027 46.0984 69.887 46.0984 69.735C46.0984 69.583 46.0664 69.487 46.0104 69.431C45.9504 69.375 45.8584 69.347 45.7384 69.351C45.6144 69.355 45.4664 69.379 45.2864 69.423C45.1064 69.467 44.8984 69.511 44.6624 69.555C44.4464 69.599 44.2624 69.615 44.0984 69.599C43.9384 69.583 43.8064 69.527 43.6984 69.427C43.5944 69.331 43.5144 69.187 43.4624 69.003C43.4104 68.819 43.3864 68.579 43.3864 68.279C43.3864 67.979 43.4304 67.683 43.5144 67.383C43.6024 67.083 43.7184 66.799 43.8664 66.535C44.0184 66.271 44.1944 66.027 44.4024 65.803C44.6104 65.579 44.8344 65.399 45.0744 65.263V65.259Z" fill="#455A64"/>
<path d="M51.18 61.8312C51.228 61.8032 51.268 61.8072 51.304 61.8392C51.336 61.8712 51.356 61.9232 51.356 61.9992V66.0592C51.356 66.4672 51.316 66.8592 51.24 67.2352C51.164 67.6112 51.048 67.9592 50.892 68.2872C50.736 68.6152 50.544 68.9072 50.312 69.1712C50.08 69.4352 49.812 69.6552 49.508 69.8272C49.2 70.0072 48.928 70.0952 48.7 70.0992C48.472 70.0992 48.28 70.0312 48.124 69.8832C47.972 69.7352 47.856 69.5152 47.78 69.2312C47.704 68.9432 47.668 68.5952 47.668 68.1872V64.1272C47.668 64.0552 47.684 63.9832 47.72 63.9112C47.752 63.8392 47.796 63.7872 47.844 63.7632L48.364 63.4632C48.412 63.4352 48.452 63.4392 48.488 63.4712C48.52 63.5032 48.54 63.5552 48.54 63.6312V67.6432C48.54 67.9152 48.564 68.1312 48.612 68.2952C48.66 68.4592 48.724 68.5792 48.812 68.6512C48.9 68.7232 49 68.7552 49.12 68.7392C49.24 68.7272 49.372 68.6792 49.512 68.5952C49.652 68.5152 49.784 68.4112 49.908 68.2832C50.032 68.1552 50.136 68.0072 50.22 67.8352C50.304 67.6632 50.372 67.4672 50.424 67.2472C50.472 67.0272 50.5 66.7832 50.5 66.5112V62.4992C50.5 62.4272 50.516 62.3552 50.552 62.2832C50.584 62.2112 50.628 62.1592 50.672 62.1352L51.188 61.8392L51.18 61.8312Z" fill="#455A64"/>
<path d="M54.1602 60.1113C54.6962 59.8033 55.1042 59.7593 55.3842 59.9793C55.6642 60.2033 55.8042 60.6513 55.8042 61.3313C55.8042 61.8153 55.7322 62.2673 55.5882 62.6873C55.4442 63.1113 55.2322 63.4833 54.9562 63.8113L55.8442 65.7473C55.8562 65.7793 55.8642 65.8113 55.8642 65.8433C55.8642 65.9033 55.8482 65.9633 55.8242 66.0193C55.7962 66.0793 55.7642 66.1193 55.7242 66.1433L55.1762 66.4593C55.0922 66.5073 55.0282 66.5153 54.9842 66.4753C54.9442 66.4353 54.9162 66.3953 54.8962 66.3513L54.0522 64.5313L53.1962 65.0233V67.3313C53.1962 67.4033 53.1802 67.4753 53.1442 67.5513C53.1122 67.6233 53.0682 67.6753 53.0202 67.6993L52.5002 67.9993C52.4522 68.0273 52.4122 68.0233 52.3762 67.9913C52.3442 67.9593 52.3242 67.9073 52.3242 67.8313V61.4313C52.3242 61.3593 52.3402 61.2873 52.3762 61.2153C52.4122 61.1433 52.4522 61.0913 52.5002 61.0673L54.1602 60.1073V60.1113ZM53.1962 63.7873L54.1282 63.2473C54.3722 63.1073 54.5682 62.9273 54.7122 62.7113C54.8602 62.4953 54.9322 62.2033 54.9322 61.8313C54.9322 61.4593 54.8602 61.2553 54.7122 61.2153C54.5682 61.1753 54.3722 61.2233 54.1282 61.3633L53.1962 61.9033V63.7873Z" fill="#455A64"/>
<path d="M58.7508 57.4602C58.8188 57.4202 58.8708 57.4202 58.9068 57.4562C58.9428 57.4922 58.9708 57.5602 58.9988 57.6562L60.5748 63.0082C60.5748 63.0082 60.5828 63.0482 60.5828 63.0722C60.5828 63.1442 60.5668 63.2162 60.5308 63.2922C60.4948 63.3642 60.4548 63.4162 60.4068 63.4402L59.9428 63.7082C59.8588 63.7562 59.7988 63.7642 59.7628 63.7282C59.7268 63.6922 59.7068 63.6522 59.6908 63.6042L59.4148 62.6642L57.3828 63.8362L57.1068 65.0962C57.0948 65.1562 57.0708 65.2242 57.0348 65.3002C56.9988 65.3762 56.9388 65.4402 56.8548 65.4882L56.3908 65.7562C56.3428 65.7842 56.3028 65.7802 56.2668 65.7482C56.2308 65.7162 56.2148 65.6642 56.2148 65.5882C56.2148 65.5602 56.2148 65.5362 56.2228 65.5162L57.7988 58.3442C57.8228 58.2162 57.8548 58.1162 57.8868 58.0402C57.9228 57.9642 57.9748 57.9082 58.0428 57.8682L58.7508 57.4602ZM59.1028 61.6042L58.3948 59.1882L57.6868 62.4202L59.1028 61.6042Z" fill="#455A64"/>
<path d="M64.088 61.3161C64.016 61.3601 63.96 61.3601 63.92 61.3241C63.88 61.2881 63.852 61.2561 63.836 61.2321L62.036 58.1521V62.2321C62.036 62.3041 62.02 62.3761 61.984 62.4521C61.952 62.5241 61.908 62.5761 61.864 62.6001L61.344 62.9001C61.296 62.9281 61.256 62.9241 61.22 62.8921C61.188 62.8601 61.168 62.8081 61.168 62.7321V56.3321C61.168 56.2601 61.184 56.1881 61.22 56.1161C61.256 56.0441 61.296 55.9921 61.344 55.9681L61.796 55.7081C61.868 55.6641 61.924 55.6641 61.964 55.7001C62.004 55.7361 62.032 55.7681 62.048 55.7921L63.848 58.8721V54.7921C63.848 54.7201 63.864 54.6481 63.9 54.5761C63.936 54.5041 63.976 54.4521 64.024 54.4281L64.544 54.1281C64.592 54.1001 64.632 54.1041 64.668 54.1361C64.704 54.1681 64.72 54.2201 64.72 54.2961V60.6961C64.72 60.7681 64.704 60.8401 64.668 60.9161C64.632 60.9921 64.592 61.0401 64.544 61.0641L64.092 61.3241L64.088 61.3161Z" fill="#455A64"/>
<path d="M68.4791 56.5807C68.4871 56.4887 68.5111 56.4127 68.5471 56.3487C68.5831 56.2847 68.6231 56.2407 68.6671 56.2167L69.1871 55.9167C69.2351 55.8887 69.2751 55.8887 69.3111 55.9167C69.3471 55.9447 69.3631 56.0007 69.3591 56.0807C69.3471 56.3607 69.3031 56.6567 69.2271 56.9687C69.1511 57.2847 69.0351 57.5927 68.8831 57.9007C68.7271 58.2087 68.5351 58.5007 68.2991 58.7727C68.0631 59.0487 67.7791 59.2807 67.4431 59.4767C67.1471 59.6487 66.8871 59.7287 66.6591 59.7287C66.4311 59.7247 66.2391 59.6487 66.0791 59.4967C65.9191 59.3487 65.7951 59.1287 65.7071 58.8447C65.6191 58.5567 65.5671 58.2207 65.5511 57.8367C65.5431 57.5927 65.5391 57.3167 65.5391 57.0127C65.5391 56.7087 65.5431 56.4287 65.5511 56.1727C65.5671 55.7647 65.6191 55.3687 65.7071 54.9807C65.7951 54.5927 65.9191 54.2327 66.0791 53.9007C66.2391 53.5687 66.4311 53.2687 66.6591 53.0007C66.8871 52.7327 67.1471 52.5167 67.4431 52.3447C67.7791 52.1527 68.0631 52.0567 68.2991 52.0607C68.5351 52.0607 68.7311 52.1287 68.8831 52.2567C69.0391 52.3847 69.1511 52.5647 69.2271 52.7967C69.3031 53.0287 69.3471 53.2727 69.3591 53.5287C69.3631 53.6047 69.3471 53.6807 69.3111 53.7487C69.2751 53.8207 69.2311 53.8687 69.1871 53.8967L68.6671 54.1967C68.6231 54.2207 68.5831 54.2247 68.5431 54.2047C68.5031 54.1847 68.4831 54.1327 68.4711 54.0527C68.4591 53.9287 68.4271 53.8167 68.3831 53.7167C68.3351 53.6167 68.2711 53.5447 68.1911 53.4927C68.1111 53.4407 68.0071 53.4207 67.8831 53.4287C67.7591 53.4367 67.6111 53.4887 67.4471 53.5887C67.2791 53.6847 67.1351 53.8087 67.0111 53.9607C66.8871 54.1127 66.7831 54.2767 66.6991 54.4567C66.6151 54.6367 66.5511 54.8327 66.5071 55.0447C66.4631 55.2567 66.4351 55.4647 66.4271 55.6767C66.4191 55.9327 66.4151 56.2127 66.4151 56.5167C66.4151 56.8207 66.4191 57.0967 66.4271 57.3407C66.4351 57.5487 66.4631 57.7287 66.5071 57.8847C66.5511 58.0407 66.6151 58.1607 66.6991 58.2447C66.7831 58.3287 66.8871 58.3727 67.0111 58.3807C67.1351 58.3887 67.2831 58.3447 67.4471 58.2487C67.6151 58.1527 67.7591 58.0367 67.8831 57.9007C68.0071 57.7647 68.1111 57.6247 68.1951 57.4767C68.2791 57.3287 68.3431 57.1807 68.3911 57.0247C68.4391 56.8727 68.4671 56.7247 68.4791 56.5847V56.5807Z" fill="#455A64"/>
<path d="M73.1133 54.8682C73.1613 54.8402 73.2013 54.8442 73.2333 54.8762C73.2693 54.9082 73.2853 54.9602 73.2853 55.0362V55.7402C73.2853 55.8122 73.2693 55.8842 73.2333 55.9602C73.2013 56.0322 73.1573 56.0842 73.1133 56.1082L70.2893 57.7402C70.2413 57.7682 70.2013 57.7642 70.1653 57.7322C70.1293 57.7002 70.1133 57.6482 70.1133 57.5722V51.1722C70.1133 51.1002 70.1293 51.0282 70.1653 50.9562C70.2013 50.8842 70.2413 50.8322 70.2893 50.8082L73.0613 49.2082C73.1093 49.1802 73.1493 49.1842 73.1853 49.2162C73.2173 49.2482 73.2373 49.3002 73.2373 49.3762V50.0802C73.2373 50.1522 73.2213 50.2242 73.1853 50.3002C73.1493 50.3722 73.1093 50.4242 73.0613 50.4482L70.9813 51.6482V53.2242L72.9173 52.1042C72.9653 52.0762 73.0053 52.0802 73.0413 52.1122C73.0773 52.1442 73.0933 52.1962 73.0933 52.2722V52.9762C73.0933 53.0482 73.0773 53.1202 73.0413 53.1922C73.0093 53.2642 72.9653 53.3162 72.9173 53.3442L70.9813 54.4642V56.1082L73.1093 54.8802L73.1133 54.8682Z" fill="#455A64"/>
<g opacity="0.25">
<path d="M72.9787 27.0633V32.4353C72.9787 33.7953 72.0507 35.4033 70.8707 36.0833L60.4707 42.0873C59.9547 42.3833 59.6627 42.9753 59.3547 43.5993C59.1267 44.0593 58.8907 44.5273 58.5507 44.9113C57.7427 45.8273 55.9827 46.7833 54.7387 47.1793C54.3187 47.3153 53.9027 47.4113 53.4907 47.4673C53.3347 47.4953 53.1587 47.5153 52.9787 47.5353C51.8427 47.6873 50.4307 47.8793 49.6027 48.3593L37.4307 55.3833C37.0627 55.5953 36.7027 55.7033 36.3707 55.7033C36.1147 55.7033 35.8747 55.6433 35.6587 55.5193C35.1627 55.2313 34.8867 54.6593 34.8867 53.9193V48.5473C34.8867 47.1873 35.8107 45.5793 36.9947 44.8993L41.0827 42.5393C41.0827 42.5393 41.1187 42.5233 41.1387 42.5193C41.3347 42.4313 41.5667 42.5113 41.6787 42.7033C41.7867 42.8913 41.7347 43.1353 41.5667 43.2593C41.5547 43.2753 41.5347 43.2913 41.5187 43.2993L37.4307 45.6593C36.5267 46.1833 35.7587 47.5073 35.7587 48.5513V53.9233C35.7587 54.3393 35.8827 54.6433 36.0947 54.7673C36.3067 54.8953 36.6347 54.8433 36.9947 54.6353L49.1667 47.6073C50.1427 47.0433 51.6547 46.8393 52.8627 46.6793C53.0427 46.6593 53.2107 46.6313 53.3707 46.6113C53.7267 46.5593 54.1027 46.4753 54.4787 46.3553C55.5827 46.0073 57.2227 45.1113 57.8987 44.3433C58.1667 44.0473 58.3627 43.6393 58.5747 43.2193C58.9267 42.5033 59.2947 41.7673 60.0347 41.3393L70.4347 35.3353C71.3387 34.8113 72.1067 33.4873 72.1067 32.4433V27.0713C72.1067 26.6593 71.9827 26.3513 71.7707 26.2313C71.5587 26.1033 71.2267 26.1553 70.8707 26.3633L67.3267 28.4073C67.2107 28.1393 67.0547 27.8833 66.8827 27.6553L70.4347 25.6033C71.0747 25.2273 71.7067 25.1833 72.2067 25.4673C72.7027 25.7553 72.9787 26.3273 72.9787 27.0673V27.0633Z" fill="black"/>
</g>
<path d="M65.3948 27.1646C65.6748 27.0006 66.0628 27.0206 66.4908 27.2686C67.3428 27.7606 68.0348 28.9606 68.0348 29.9446C68.0348 30.4406 67.8588 30.7886 67.5748 30.9486L42.8988 45.1966L40.7148 41.4086L65.3908 27.1606L65.3948 27.1646Z" fill="#37474F"/>
<path d="M41.8167 43.3171L67.5887 28.4371C67.3087 27.9491 66.9207 27.5211 66.4927 27.2731C66.4407 27.2451 66.3927 27.2291 66.3447 27.2051L40.9727 41.8531L41.8167 43.3171Z" fill="#455A64"/>
<path d="M41.8174 41.521C40.9654 41.029 40.2734 41.429 40.2734 42.413C40.2734 43.397 40.9654 44.597 41.8174 45.089C42.6694 45.581 43.3614 45.181 43.3614 44.197C43.3614 43.213 42.6694 42.013 41.8174 41.521Z" fill="#263238"/>
<path d="M73.4201 27.4483V32.8203C73.4201 34.1803 72.4921 35.7883 71.3121 36.4683L60.9121 42.4723C60.3961 42.7683 60.1041 43.3603 59.7961 43.9843C59.5681 44.4443 59.3321 44.9123 58.9921 45.2963C58.1841 46.2123 56.4241 47.1683 55.1801 47.5643C54.7601 47.7003 54.3441 47.7963 53.9321 47.8523C53.7761 47.8803 53.6001 47.9003 53.4201 47.9203C52.2841 48.0723 50.8721 48.2643 50.0441 48.7443L37.8721 55.7683C37.5041 55.9803 37.1441 56.0883 36.8121 56.0883C36.5561 56.0883 36.3161 56.0283 36.1001 55.9043C35.6041 55.6163 35.3281 55.0443 35.3281 54.3043V48.9323C35.3281 47.5723 36.2521 45.9643 37.4361 45.2843L41.5241 42.9243C41.5241 42.9243 41.5601 42.9083 41.5801 42.9043C41.7761 42.8163 42.0081 42.8963 42.1201 43.0883C42.2281 43.2763 42.1761 43.5203 42.0081 43.6403C41.9961 43.6563 41.9761 43.6723 41.9601 43.6803L37.8721 46.0403C36.9681 46.5643 36.2001 47.8883 36.2001 48.9323V54.3043C36.2001 54.7203 36.3241 55.0243 36.5361 55.1443C36.7481 55.2723 37.0761 55.2203 37.4361 55.0123L49.6081 47.9843C50.5841 47.4203 52.0961 47.2163 53.3041 47.0563C53.4841 47.0363 53.6521 47.0083 53.8081 46.9883C54.1641 46.9363 54.5401 46.8523 54.9161 46.7323C56.0201 46.3843 57.6601 45.4883 58.3361 44.7203C58.6041 44.4243 58.8001 44.0163 59.0121 43.5963C59.3641 42.8803 59.7321 42.1443 60.4721 41.7163L70.8721 35.7123C71.7761 35.1883 72.5441 33.8643 72.5441 32.8203V27.4483C72.5441 27.0363 72.4201 26.7283 72.2081 26.6083C71.9961 26.4803 71.6641 26.5323 71.3081 26.7403L67.7641 28.7843C67.6481 28.5163 67.4921 28.2603 67.3201 28.0323L70.8721 25.9803C71.5121 25.6043 72.1441 25.5603 72.6441 25.8443C73.1401 26.1323 73.4161 26.7043 73.4161 27.4443L73.4201 27.4483Z" fill="#455A64"/>
<path d="M46.5508 158.684L98.9548 128.52L125.159 143.6L72.7508 173.764L46.5508 158.684Z" fill="#337F88"/>
<path opacity="0.7" d="M46.5508 158.684L98.9548 128.52L125.159 143.6L72.7508 173.764L46.5508 158.684Z" fill="white"/>
<path d="M98.9566 130.104L49.3086 158.68L72.7526 172.176L122.401 143.6L98.9566 130.104ZM72.7526 171.38L50.6886 158.68L98.9566 130.896L121.021 143.596L72.7526 171.38Z" fill="#337F88"/>
<path d="M76.0813 156.899C73.7373 155.551 72.4453 153.703 72.4453 151.703C72.4453 149.519 74.0213 147.359 76.7733 145.779C82.1613 142.679 90.6173 142.499 95.6253 145.383C97.9693 146.731 99.2613 148.579 99.2613 150.579C99.2613 152.763 97.6853 154.923 94.9333 156.503C92.1093 158.127 88.4453 158.951 84.8733 158.951C81.6293 158.951 78.4653 158.271 76.0813 156.899ZM77.0053 146.183C74.4053 147.679 72.9133 149.691 72.9133 151.703C72.9133 153.531 74.1213 155.231 76.3173 156.495C81.1933 159.303 89.4413 159.123 94.7013 156.099C97.3013 154.603 98.7933 152.591 98.7933 150.579C98.7933 148.751 97.5853 147.051 95.3893 145.787C93.0693 144.451 89.9893 143.791 86.8333 143.791C83.3493 143.791 79.7653 144.595 77.0093 146.183H77.0053Z" fill="#337F88"/>
<g opacity="0.5">
<path d="M76.9286 155.436C75.1286 154.4 74.1406 153.076 74.1406 151.704C74.1406 150.144 75.4086 148.516 77.6206 147.244C80.0806 145.828 83.4366 145.016 86.8326 145.016C89.9046 145.016 92.7246 145.668 94.7766 146.848C96.5766 147.884 97.5646 149.208 97.5646 150.58C97.5646 152.14 96.2966 153.768 94.0846 155.04C91.6246 156.456 88.2686 157.268 84.8766 157.268C81.8046 157.268 78.9806 156.616 76.9326 155.436H76.9286Z" fill="#337F88"/>
</g>
<path opacity="0.5" d="M74.0131 167.728C73.3171 167.328 72.1811 167.332 71.4851 167.728L69.9891 168.588L55.6211 160.372L57.3531 159.376C57.6451 159.208 57.8091 158.996 57.8091 158.784C57.8091 158.572 57.6491 158.364 57.3531 158.196L55.6251 157.2L71.4011 148.068L71.0931 148.74C70.7051 149.58 70.5091 150.448 70.5091 151.316C70.5091 153.876 73.0811 156.5 75.6291 157.968C77.9051 159.276 81.8851 160.6 85.6531 160.6C86.6931 160.6 87.7371 160.532 88.7611 160.4L89.9171 160.252L75.5131 168.592L74.0171 167.728H74.0131Z" fill="#337F88"/>
<g opacity="0.4">
<path d="M67.053 162.268C66.453 161.924 66.125 161.444 66.125 160.916C66.125 160.348 66.521 159.792 67.213 159.396C68.501 158.652 70.529 158.612 71.733 159.304C72.329 159.648 72.661 160.128 72.661 160.656C72.661 161.224 72.265 161.78 71.573 162.176C70.897 162.564 70.021 162.76 69.169 162.76C68.389 162.76 67.629 162.596 67.057 162.268H67.053Z" fill="white"/>
</g>
<path opacity="0.5" d="M100.57 153.536C100.95 152.704 101.174 151.288 101.174 150.396C101.174 148.268 99.494 146.22 96.174 144.308C93.518 142.78 89.442 141.752 86.03 141.752C84.986 141.752 83.938 141.82 82.918 141.948L81.75 142.1L96.154 133.836L97.65 134.7C98.334 135.092 99.49 135.092 100.174 134.7L101.67 133.836L116.014 141.98L114.282 142.98C113.99 143.148 113.83 143.356 113.83 143.568C113.83 143.78 113.99 143.992 114.282 144.16L116.014 145.156L100.27 154.196L100.574 153.532L100.57 153.536Z" fill="#337F88"/>
<g opacity="0.4">
<path d="M100.033 143.36C99.4335 143.016 99.1055 142.536 99.1055 142.008C99.1055 141.44 99.5015 140.884 100.193 140.488C101.481 139.744 103.509 139.704 104.713 140.396C105.313 140.74 105.641 141.22 105.641 141.748C105.641 142.316 105.245 142.872 104.553 143.268C103.877 143.656 103.001 143.852 102.149 143.852C101.369 143.852 100.609 143.688 100.037 143.36H100.033Z" fill="white"/>
</g>
<path d="M46.5508 158.684V165.032L72.7508 180.116V173.764L46.5508 158.684Z" fill="#337F88"/>
<g opacity="0.2">
<path d="M46.5508 158.684V165.032L72.7508 180.116V173.764L46.5508 158.684Z" fill="white"/>
</g>
<g opacity="0.1">
<path d="M72.7525 175.18L64.4805 170.592L72.7525 175.564V175.18Z" fill="black"/>
<path d="M46.5508 161.699L49.3068 163.447L46.5508 162.019V161.699Z" fill="black"/>
<path d="M46.5508 163.211L60.3388 171.383L46.5508 163.679V163.211Z" fill="black"/>
<path d="M72.7489 176.692L58.9609 169.004L72.7489 177.192V176.692Z" fill="black"/>
</g>
<path d="M72.75 180.116L125.158 149.952V143.6L72.75 173.764V180.116Z" fill="#337F88"/>
<g opacity="0.2">
<path d="M72.75 180.116L125.158 149.952V143.6L72.75 173.764V180.116Z" fill="black"/>
</g>
<g opacity="0.3">
<path d="M72.75 175.18L75.514 173.764L72.75 175.564V175.18Z" fill="black"/>
</g>
<g opacity="0.3">
<path d="M72.75 176.693L86.618 168.965L72.75 177.193V176.693Z" fill="black"/>
</g>
<g opacity="0.3">
<path d="M125.16 146.588L115.504 152.332L125.16 146.964V146.588Z" fill="black"/>
</g>
<g opacity="0.3">
<path d="M125.157 148.188L119.641 151.54L125.157 148.543V148.188Z" fill="black"/>
</g>
<path d="M68.1875 145.176L95.3035 160.784L103.575 156.024L76.4635 140.412L68.1875 145.176Z" fill="#FAFAFA"/>
<path d="M103.577 156.023V162.931L95.3047 167.695V160.783L103.577 156.023Z" fill="#E0E0E0"/>
<path d="M95.3043 167.697L94.8203 167.417L95.3043 167.137V167.697Z" fill="#E0E0E0"/>
<path d="M68.1875 145.176V146.228L69.1035 145.7L68.1875 145.176Z" fill="#E0E0E0"/>
<g opacity="0.3">
<path d="M94.8203 167.411V161.063L95.3043 160.783V167.131L94.8203 167.411Z" fill="black"/>
</g>
<g style="mix-blend-mode:multiply" opacity="0.2">
<path d="M94.8211 161.063L68.6211 145.979L69.1051 145.699L95.3051 160.783L94.8211 161.063Z" fill="black"/>
</g>
<path d="M69.0781 144.66L96.1981 160.268L96.8821 159.872L69.7701 144.268L69.0781 144.66Z" fill="#455A64"/>
<path d="M74.875 141.328L101.991 156.936L102.679 156.54L75.563 140.932L74.875 141.328Z" fill="#455A64"/>
<path d="M96.1992 160.269V167.181L96.8832 166.785V159.873L96.1992 160.269Z" fill="#263238"/>
<path d="M101.992 156.937V163.845L102.684 163.449L102.68 156.541L101.992 156.937Z" fill="#263238"/>
<path opacity="0.2" d="M70.0908 172.236L122.499 142.072L98.9548 128.52L46.5508 158.684L70.0908 172.236Z" fill="black"/>
<path opacity="0.2" d="M46.5508 162.428L70.0908 175.98V172.232L46.5508 158.684V162.428Z" fill="black"/>
<path d="M42.1133 150.531L94.5213 120.367L120.721 135.447L68.3173 165.611L42.1133 150.531Z" fill="#337F88"/>
<path opacity="0.7" d="M42.1133 150.531L94.5213 120.367L120.721 135.447L68.3173 165.611L42.1133 150.531Z" fill="white"/>
<path d="M94.523 121.955L44.875 150.531L68.319 164.027L117.967 135.451L94.523 121.955ZM68.319 163.231L46.255 150.531L94.523 122.747L116.587 135.447L68.319 163.231Z" fill="#337F88"/>
<path d="M71.6477 148.751C69.3037 147.403 68.0117 145.555 68.0117 143.555C68.0117 141.371 69.5877 139.211 72.3397 137.631C77.7277 134.531 86.1837 134.351 91.1917 137.235C93.5357 138.583 94.8277 140.431 94.8277 142.431C94.8277 144.615 93.2517 146.775 90.4997 148.355C87.6757 149.979 84.0117 150.803 80.4397 150.803C77.1957 150.803 74.0317 150.123 71.6477 148.751ZM72.5717 138.035C69.9717 139.531 68.4797 141.543 68.4797 143.555C68.4797 145.383 69.6877 147.083 71.8837 148.347C76.7597 151.155 85.0077 150.975 90.2677 147.951C92.8677 146.455 94.3597 144.443 94.3597 142.431C94.3597 140.603 93.1517 138.903 90.9557 137.639C88.6357 136.303 85.5557 135.643 82.3997 135.643C78.9157 135.643 75.3317 136.447 72.5757 138.035H72.5717Z" fill="#337F88"/>
<g opacity="0.5">
<path d="M72.495 147.283C70.695 146.247 69.707 144.923 69.707 143.551C69.707 141.991 70.975 140.363 73.187 139.091C75.647 137.675 79.003 136.863 82.399 136.863C85.471 136.863 88.291 137.515 90.343 138.695C92.143 139.731 93.131 141.055 93.131 142.427C93.131 143.987 91.863 145.615 89.651 146.887C87.191 148.303 83.835 149.115 80.443 149.115C77.371 149.115 74.547 148.463 72.499 147.283H72.495Z" fill="#337F88"/>
</g>
<path opacity="0.5" d="M69.5795 159.576C68.8835 159.176 67.7475 159.18 67.0515 159.576L65.5555 160.436L51.1875 152.22L52.9195 151.224C53.2115 151.056 53.3755 150.844 53.3755 150.632C53.3755 150.42 53.2155 150.212 52.9195 150.044L51.1915 149.048L66.9675 139.916L66.6595 140.588C66.2715 141.428 66.0755 142.296 66.0755 143.164C66.0755 145.724 68.6475 148.348 71.1955 149.816C73.4715 151.124 77.4515 152.448 81.2195 152.448C82.2595 152.448 83.3035 152.38 84.3275 152.248L85.4835 152.1L71.0795 160.44L69.5835 159.576H69.5795Z" fill="#337F88"/>
<g opacity="0.4">
<path d="M62.6194 154.116C62.0194 153.772 61.6914 153.292 61.6914 152.764C61.6914 152.196 62.0874 151.64 62.7794 151.244C64.0674 150.5 66.0954 150.46 67.2994 151.152C67.8954 151.496 68.2274 151.976 68.2274 152.504C68.2274 153.072 67.8314 153.628 67.1394 154.024C66.4634 154.412 65.5874 154.608 64.7354 154.608C63.9554 154.608 63.1954 154.444 62.6234 154.116H62.6194Z" fill="white"/>
</g>
<path opacity="0.5" d="M96.1364 145.384C96.5164 144.552 96.7404 143.136 96.7404 142.244C96.7404 140.116 95.0604 138.068 91.7404 136.156C89.0844 134.628 85.0084 133.6 81.5964 133.6C80.5524 133.6 79.5044 133.668 78.4844 133.796L77.3164 133.948L91.7204 125.684L93.2164 126.548C93.9004 126.94 95.0564 126.94 95.7404 126.548L97.2364 125.684L111.58 133.828L109.848 134.828C109.556 134.996 109.396 135.204 109.396 135.416C109.396 135.628 109.556 135.84 109.848 136.008L111.58 137.004L95.8364 146.044L96.1404 145.38L96.1364 145.384Z" fill="#337F88"/>
<g opacity="0.4">
<path d="M95.5999 135.212C94.9999 134.868 94.6719 134.388 94.6719 133.86C94.6719 133.292 95.0679 132.736 95.7599 132.34C97.0479 131.596 99.0759 131.556 100.28 132.248C100.88 132.592 101.208 133.072 101.208 133.6C101.208 134.168 100.812 134.724 100.12 135.12C99.4439 135.508 98.5679 135.704 97.7159 135.704C96.9359 135.704 96.1759 135.54 95.6039 135.212H95.5999Z" fill="white"/>
</g>
<path d="M42.1133 150.531V156.883L68.3173 171.963V165.611L42.1133 150.531Z" fill="#337F88"/>
<g opacity="0.2">
<path d="M42.1133 150.531V156.883L68.3173 171.963V165.611L42.1133 150.531Z" fill="white"/>
</g>
<g opacity="0.1">
<path d="M68.319 167.027L60.043 162.439L68.319 167.415V167.027Z" fill="black"/>
<path d="M42.1133 153.547L44.8733 155.295L42.1173 153.867L42.1133 153.547Z" fill="black"/>
<path d="M42.1133 155.059L55.9013 163.231L42.1133 155.527V155.059Z" fill="black"/>
<path d="M68.3154 168.54L54.5234 160.852L68.3154 169.04V168.54Z" fill="black"/>
</g>
<path d="M68.3164 171.963L120.72 141.799V135.447L68.3164 165.611V171.963Z" fill="#337F88"/>
<g opacity="0.2">
<path d="M68.3164 171.963L120.72 141.799V135.447L68.3164 165.611V171.963Z" fill="black"/>
</g>
<g opacity="0.3">
<path d="M68.3164 167.027L71.0764 165.611L68.3164 167.415V167.027Z" fill="black"/>
</g>
<g opacity="0.3">
<path d="M68.3164 168.54L82.1844 160.816L68.3164 169.04V168.54Z" fill="black"/>
</g>
<g opacity="0.3">
<path d="M120.722 138.439L111.07 144.183L120.722 138.811V138.439Z" fill="black"/>
</g>
<g opacity="0.3">
<path d="M120.719 140.035L115.203 143.387L120.719 140.391V140.035Z" fill="black"/>
</g>
<path d="M63.7539 137.024L90.8659 152.632L99.1419 147.872L72.0259 132.26L63.7539 137.024Z" fill="#FAFAFA"/>
<path d="M99.1432 147.871V154.783L90.8672 159.543V152.631L99.1432 147.871Z" fill="#E0E0E0"/>
<path d="M90.8668 159.544L90.3828 159.264L90.8668 158.984V159.544Z" fill="#E0E0E0"/>
<path d="M63.7539 137.023V138.075L64.6659 137.547L63.7539 137.023Z" fill="#E0E0E0"/>
<g opacity="0.3">
<path d="M90.3828 159.259V152.915L90.8668 152.631V158.983L90.3828 159.259Z" fill="black"/>
</g>
<g style="mix-blend-mode:multiply" opacity="0.2">
<path d="M90.3836 152.915L64.1836 137.827L64.6676 137.547L90.8676 152.631L90.3836 152.915Z" fill="black"/>
</g>
<path d="M64.6406 136.511L91.7606 152.119L92.4486 151.719L65.3326 136.115L64.6406 136.511Z" fill="#455A64"/>
<path d="M70.4375 133.175L97.5575 148.783L98.2455 148.387L71.1295 132.779L70.4375 133.175Z" fill="#455A64"/>
<path d="M91.7617 152.121V159.029L92.4497 158.633V151.721L91.7617 152.121Z" fill="#263238"/>
<path d="M97.5586 148.785V155.693L98.2506 155.297L98.2466 148.389L97.5586 148.785Z" fill="#263238"/>
<path d="M103.94 74.8489C103.96 74.3169 103.832 73.9849 103.596 73.8569C103.596 73.8529 103.6 73.8529 103.6 73.8529L103.568 73.8329C103.316 73.7209 101.644 72.7249 101.404 72.5969C101.404 72.5929 101.408 72.5929 101.408 72.5929L101.376 72.5729C101.124 72.4609 100.752 72.5689 100.304 72.9089C95.8397 76.3249 89.6998 77.1569 85.0278 75.1009C84.3838 74.6249 83.7878 74.0809 83.2558 73.4609C83.2278 73.4289 83.2038 73.3969 83.1758 73.3689H83.1717C83.0197 73.2009 82.8718 73.0769 82.7198 72.9969C82.7198 72.9969 80.6798 71.8129 80.5318 71.7329L80.4557 71.6889C79.9557 71.4529 79.4958 71.6929 79.1958 72.4369C74.9598 82.9649 65.9318 93.6329 59.9078 96.3009C59.4598 96.5009 59.0437 96.8089 58.7237 97.1849C58.2997 97.6769 58.0357 98.2809 58.0557 98.9089C58.0557 112.445 65.4718 134.073 79.5198 141.301C80.3518 141.845 81.2118 142.337 82.0958 142.769C101.424 122.833 103.944 90.8969 103.944 74.8569L103.94 74.8489Z" fill="#337F88"/>
<path opacity="0.4" d="M103.567 73.8281C103.315 73.7161 102.943 73.8241 102.495 74.1641C97.299 78.1401 89.823 78.6201 85.043 75.1001C89.715 77.1481 95.851 76.3201 100.307 72.9001C100.755 72.5601 101.127 72.4521 101.379 72.5641L101.411 72.5841C101.411 72.5841 101.407 72.5841 101.407 72.5881C101.643 72.7161 103.315 73.7081 103.567 73.824V73.8281Z" fill="white"/>
<path d="M82.6413 72.9447C82.1413 72.7087 81.6812 72.9487 81.3813 73.6927C77.1453 84.2247 68.1172 94.8887 62.0932 97.5567C61.6452 97.7567 61.2293 98.0647 60.9093 98.4407C60.7333 98.6527 60.5813 98.8767 60.4653 99.1207L58.2812 97.8607C58.3933 97.6167 58.5412 97.3847 58.7172 97.1807C59.0412 96.8047 59.4573 96.4967 59.9013 96.2967C65.9213 93.6287 74.9493 82.9607 79.1893 72.4327C79.4893 71.6887 79.9492 71.4447 80.4492 71.6847L80.5253 71.7287C80.5972 71.7647 81.0253 72.0127 81.4973 72.2847C81.9613 72.5527 82.4573 72.8447 82.6413 72.9487V72.9447Z" fill="#337F88"/>
<path opacity="0.4" d="M82.6413 72.9447C82.1413 72.7087 81.6812 72.9487 81.3813 73.6927C77.1453 84.2247 68.1172 94.8887 62.0932 97.5567C61.6452 97.7567 61.2293 98.0647 60.9093 98.4407C60.7333 98.6527 60.5813 98.8767 60.4653 99.1207L58.2812 97.8607C58.3933 97.6167 58.5412 97.3847 58.7172 97.1807C59.0412 96.8047 59.4573 96.4967 59.9013 96.2967C65.9213 93.6287 74.9493 82.9607 79.1893 72.4327C79.4893 71.6887 79.9492 71.4447 80.4492 71.6847L80.5253 71.7287C80.5972 71.7647 81.0253 72.0127 81.4973 72.2847C81.9613 72.5527 82.4573 72.8447 82.6413 72.9487V72.9447Z" fill="white"/>
<path opacity="0.3" d="M79.4878 141.273C65.4558 134.041 58.0518 112.425 58.0518 98.9014C58.0398 98.5334 58.1318 98.1854 58.2838 97.8574L60.4678 99.1174C60.3118 99.4454 60.2318 99.7974 60.2398 100.161C60.2398 112.973 66.8678 133.029 79.4878 141.273Z" fill="black"/>
<path d="M103.939 74.8485C103.939 90.8885 101.419 122.828 82.0913 142.76C67.7873 135.74 60.2393 113.824 60.2393 100.164C60.2193 99.5325 60.4833 98.9285 60.9073 98.4405C61.2313 98.0645 61.6473 97.7565 62.0913 97.5565C68.1113 94.8885 77.1393 84.2205 81.3793 73.6925C81.6793 72.9485 82.1393 72.7045 82.6393 72.9445L82.7153 72.9885C82.8673 73.0685 83.0153 73.1925 83.1673 73.3605H83.1713C83.1993 73.3885 83.2233 73.4205 83.2513 73.4525C87.7473 78.6845 96.5873 78.6805 102.487 74.1645C102.935 73.8245 103.307 73.7165 103.559 73.8285L103.591 73.8485C103.591 73.8485 103.587 73.8485 103.587 73.8525C103.823 73.9805 103.955 74.3125 103.931 74.8445L103.939 74.8485Z" fill="#337F88"/>
<path opacity="0.1" d="M103.939 74.8485C103.939 90.8885 101.419 122.828 82.0913 142.76C67.7873 135.74 60.2393 113.824 60.2393 100.164C60.2193 99.5325 60.4833 98.9285 60.9073 98.4405C61.2313 98.0645 61.6473 97.7565 62.0913 97.5565C68.1113 94.8885 77.1393 84.2205 81.3793 73.6925C81.6793 72.9485 82.1393 72.7045 82.6393 72.9445L82.7153 72.9885C82.8673 73.0685 83.0153 73.1925 83.1673 73.3605H83.1713C83.1993 73.3885 83.2233 73.4205 83.2513 73.4525C87.7473 78.6845 96.5873 78.6805 102.487 74.1645C102.935 73.8245 103.307 73.7165 103.559 73.8285L103.591 73.8485C103.591 73.8485 103.587 73.8485 103.587 73.8525C103.823 73.9805 103.955 74.3125 103.931 74.8445L103.939 74.8485Z" fill="white"/>
<path d="M82.6432 72.9448C82.1432 72.7088 81.6833 72.9488 81.3833 73.6928C77.1473 84.2208 68.1193 94.8888 62.0953 97.5568C61.6473 97.7568 61.2312 98.0648 60.9112 98.4408C60.4872 98.9328 60.2232 99.5368 60.2432 100.165C60.2432 113.825 67.7913 135.741 82.0953 142.761C91.7073 105.601 82.6472 72.9448 82.6472 72.9448H82.6432Z" fill="#337F88"/>
<path opacity="0.05" d="M82.6432 72.9448C82.1432 72.7088 81.6833 72.9488 81.3833 73.6928C77.1473 84.2208 68.1193 94.8888 62.0953 97.5568C61.6473 97.7568 61.2312 98.0648 60.9112 98.4408C60.4872 98.9328 60.2232 99.5368 60.2432 100.165C60.2432 113.825 67.7913 135.741 82.0953 142.761C91.7073 105.601 82.6472 72.9448 82.6472 72.9448H82.6432Z" fill="black"/>
<path opacity="0.4" d="M89.9375 80.1655C94.7615 81.3975 99.0375 79.2815 101.482 78.0215C101.482 78.0215 102.05 106.329 92.3015 124.637C96.1455 110.337 97.0895 106.245 97.3655 95.6455C97.6335 85.2255 93.5935 82.7615 89.9375 80.1615V80.1655Z" fill="white"/>
<path d="M83.4112 120.108L73.6992 113.788L76.5992 109.328L81.4832 112.508L91.7032 93.6719L96.3792 96.2079L83.4112 120.108Z" fill="white"/>
<path d="M86.4672 103.324L81.4832 112.508L76.5992 109.328L73.6992 113.784L83.4112 120.108L86.3072 114.768C86.5112 110.756 86.5472 106.924 86.4672 103.32V103.324Z" fill="#F0F0F0"/>
<path d="M136.699 160.958L135.207 160.246L136.675 159.83L136.699 160.958Z" fill="#263238"/>
<path d="M121.951 163.766C121.951 163.766 139.467 155.818 139.695 156.986C139.743 157.242 139.739 157.478 139.691 157.69C139.707 157.67 139.723 157.65 139.739 157.626L139.431 159.81C139.431 159.81 138.183 160.878 136.703 160.958C136.703 160.854 136.687 160.202 136.679 159.834C136.203 160.034 135.715 160.274 135.135 160.658C134.015 161.402 133.299 162.694 132.111 164.198C131.247 165.294 129.699 165.814 127.399 166.15C124.927 166.514 122.739 166.058 122.119 165.406C121.627 164.886 121.863 163.922 121.951 163.77V163.766Z" fill="#263238"/>
<path d="M122.434 163.358C122.602 163.182 123.222 162.494 124.066 161.746C124.802 161.09 125.662 160.266 126.586 159.594C126.954 159.326 127.522 158.898 127.838 158.558C128.142 158.23 128.434 157.894 128.706 157.538C129.546 156.434 130.226 155.226 130.802 153.97C131.074 153.374 131.414 152.746 131.53 152.098C131.654 151.414 131.722 150.722 131.726 150.026C131.726 146.894 131.654 146.398 131.626 144.014L139.054 144.206C138.818 145.53 138.462 147.334 138.342 148.838C138.162 151.122 138.102 151.63 139.022 153.902C139.294 154.57 139.694 155.214 139.73 155.93C139.794 157.098 138.87 158.114 137.838 158.69C136.982 159.17 135.99 159.378 135.158 159.89C134.282 160.426 133.606 161.23 132.986 162.026C132.398 162.778 131.93 163.662 131.106 164.194C130.19 164.782 129.314 164.97 128.25 165.19C127.026 165.442 125.454 165.482 124.406 165.406C122.582 165.278 121.218 164.63 122.438 163.35L122.434 163.358Z" fill="#FFBDA7"/>
<path d="M129.267 159.738C127.983 159.082 126.827 159.362 126.539 159.51C125.251 160.53 124.183 161.438 123.431 162.074C122.519 162.846 121.719 163.546 121.759 164.422C121.823 165.794 127.223 166.17 130.227 164.85C131.795 164.298 132.347 162.994 132.347 162.994C132.347 162.994 131.887 161.078 129.267 159.738ZM139.491 154.738C139.023 153.858 138.847 153.41 138.847 153.41C137.803 153.978 135.999 156.578 136.851 159.174C137.803 158.922 138.731 158.554 139.483 157.382C140.051 156.494 139.959 155.618 139.491 154.738Z" fill="#37474F"/>
<path d="M153.143 155.757C152.655 156.545 153.271 159.497 153.151 161.605C153.043 163.517 152.523 166.853 153.099 168.741C153.779 170.977 155.171 173.573 157.787 171.461C159.407 170.153 160.343 168.469 160.575 165.713C160.735 163.797 159.991 161.153 159.351 158.809C158.603 156.069 158.323 154.605 158.323 154.605L153.147 155.753L153.143 155.757Z" fill="#263238"/>
<path d="M158.386 141.598C158.578 146.062 158.05 149.198 158.018 152.058C158.05 153.39 158.138 154.514 158.434 155.918C158.814 157.742 159.466 160.278 159.738 161.462C160.118 163.114 160.406 164.154 159.826 166.01C159.782 166.154 159.714 166.294 159.634 166.43C158.822 167.958 156.758 169.11 156.094 168.926C155.91 169.226 155.442 169.41 154.93 169.326C154.858 169.314 154.782 169.298 154.71 169.274C154.638 169.25 154.562 169.222 154.49 169.186C154.05 168.974 153.634 168.538 153.39 167.782C153.35 167.658 153.314 167.522 153.282 167.378C152.802 165.078 153.054 163.538 153.066 162.634C153.082 161.394 153.054 160.194 152.962 158.518C152.87 156.842 152.594 151.718 152.002 149.202C151.562 147.446 151.014 145.246 150.434 142.898L158.382 141.598H158.386Z" fill="#FFBDA7"/>
<path d="M160.136 163.613C158.508 162.909 153.784 162.809 153.032 165.065C153.012 167.189 153 168.629 154.368 170.477C156.184 172.933 158.552 170.329 159.464 168.677C160.372 167.025 160.36 164.757 160.14 163.613H160.136Z" fill="#37474F"/>
<path d="M152.231 83.2813C154.531 87.3293 156.387 90.7413 156.987 101.437C157.663 113.505 157.563 118.101 157.623 119.557C157.683 121.013 158.639 123.685 159.451 130.857C160.263 138.029 159.407 155.417 159.407 155.417C159.407 155.417 158.831 156.589 156.039 156.853C153.463 157.097 151.947 156.209 151.947 156.209C151.947 156.209 147.851 133.377 146.839 129.061C145.827 124.745 142.879 110.549 142.879 110.549L141.911 124.097C141.911 124.097 142.727 128.053 141.987 134.353C141.247 140.653 139.347 152.561 139.347 152.561C139.347 152.561 138.251 153.649 134.883 153.585C131.299 153.517 130.551 152.537 130.551 152.537C130.551 152.537 129.747 126.929 129.695 119.793C129.643 112.657 129.219 94.1333 131.427 83.5533L152.231 83.2773V83.2813Z" fill="#455A64"/>
<path d="M132.891 93.7902C134.007 96.7302 138.011 98.7622 139.767 99.1622L141.907 110.406V124.102L142.879 110.554L140.475 96.8502C140.475 96.8502 135.611 96.5422 132.891 93.7902ZM149.503 92.2342C149.799 93.3902 150.067 94.5542 150.355 95.7142C150.635 96.8782 150.915 98.0422 151.219 99.2142C151.239 98.0022 151.119 96.7982 150.951 95.6062C150.783 94.4102 150.547 93.2262 150.259 92.0542C149.959 90.8862 149.615 89.7222 149.183 88.5902C148.751 87.4582 148.247 86.3462 147.579 85.3262C147.955 86.4782 148.291 87.6222 148.607 88.7702C148.919 89.9222 149.223 91.0742 149.507 92.2342H149.503ZM151.551 89.9902C151.951 90.6862 152.331 91.3902 152.715 92.0942L153.851 94.2462C153.775 93.4262 153.555 92.6262 153.271 91.8542C152.991 91.0782 152.627 90.3382 152.231 89.6222C151.819 88.9102 151.371 88.2182 150.863 87.5702C150.359 86.9182 149.811 86.3022 149.187 85.7502C149.555 86.4902 149.959 87.1942 150.359 87.8942C150.755 88.5982 151.163 89.2902 151.551 89.9902ZM149.967 122.582C149.239 118.89 148.711 115.158 148.191 111.422C147.683 107.686 147.179 103.942 146.623 100.206C146.883 103.974 147.187 107.738 147.595 111.494C147.995 115.25 148.491 119.002 149.207 122.726C149.975 126.438 150.747 130.122 151.563 133.814C152.371 137.502 153.227 141.182 154.135 144.854C153.523 141.126 152.867 137.406 152.155 133.694C151.459 129.986 150.711 126.27 149.967 122.582ZM133.175 110.382L133.731 100.538C133.239 103.794 132.863 107.066 132.575 110.342C132.299 113.626 132.039 116.894 132.051 120.222C132.187 123.53 132.279 136.622 132.695 139.886C132.983 136.23 132.891 126.586 132.891 126.586C132.795 124.95 132.871 121.826 132.827 120.202C132.787 118.582 132.875 116.938 132.939 115.302C133.003 113.662 133.099 112.022 133.179 110.382H133.175Z" fill="#37474F"/>
<path d="M118.73 28.7728C122.506 29.7848 125.93 33.2928 127.698 36.8688C135.546 37.0528 145.15 40.4368 153.954 45.7408L162.814 19.5208C148.082 15.6008 133.382 16.9968 118.734 28.7728H118.73Z" fill="#337F88"/>
<path d="M192.249 53.6096C188.633 52.1256 183.781 52.8376 180.209 54.6096C173.857 49.9976 164.169 46.8616 153.953 45.7376L162.809 19.5176C176.897 25.3336 187.745 35.3616 192.245 53.6096H192.249Z" fill="#337F88"/>
<path opacity="0.25" d="M192.249 53.6096C188.633 52.1256 183.781 52.8376 180.209 54.6096C173.857 49.9976 164.169 46.8616 153.953 45.7376L162.809 19.5176C176.897 25.3336 187.745 35.3616 192.245 53.6096H192.249Z" fill="black"/>
<path d="M127.699 36.8698C135.543 37.0538 145.155 40.4378 153.955 45.7418L162.811 19.5258C152.535 18.2418 137.395 24.6178 127.699 36.8738V36.8698Z" fill="#337F88"/>
<path opacity="0.15" d="M127.699 36.8698C135.543 37.0538 145.155 40.4378 153.955 45.7418L162.811 19.5258C152.535 18.2418 137.395 24.6178 127.699 36.8738V36.8698Z" fill="black"/>
<path opacity="0.15" d="M192.252 53.6096C187.748 35.3616 176.904 25.3376 162.816 19.5176C171.764 24.7296 179.936 38.9816 180.216 54.6096C183.788 52.8376 188.64 52.1256 192.256 53.6096H192.252Z" fill="black"/>
<path d="M146.57 57.0811C146.034 57.6491 145.866 58.2451 145.002 57.9691C144.262 57.7331 143.718 57.1651 143.118 56.6971C142.334 56.0891 141.566 55.4651 140.81 54.8211C139.326 53.5531 137.898 52.2131 136.542 50.8091C135.766 50.0051 134.842 49.1091 134.37 48.0811C133.914 47.0811 133.606 45.9691 133.706 44.8611C133.914 42.5811 135.326 39.6171 139.518 38.7691C143.01 38.0611 149.682 38.8251 150.534 43.3571C150.578 43.5931 151.098 43.9131 151.246 44.1251C151.506 44.4971 151.722 44.9011 151.89 45.3251C152.23 46.1691 152.382 47.0891 152.318 47.9971C152.174 50.0891 150.966 51.9451 149.654 53.5851C148.682 54.8011 147.634 55.9531 146.57 57.0851V57.0811Z" fill="#263238"/>
<path d="M128.485 65.4533C125.273 69.1293 122.421 72.0732 122.421 72.0732C122.429 72.0612 121.481 71.2813 121.429 71.2333C120.373 70.3293 119.329 69.4093 118.329 68.4453C117.185 67.3453 116.137 66.1813 115.753 64.5773C115.669 64.2293 115.633 63.8693 115.601 63.5133C115.501 62.4853 115.401 61.4613 115.305 60.4333C115.257 59.9413 115.137 59.4053 115.161 58.9133C115.177 58.6013 115.341 58.2253 115.281 57.9093C115.213 57.5333 114.733 57.4012 114.069 58.0372C113.657 58.4332 113.493 59.0773 113.377 59.5013C113.245 59.9693 113.193 60.5772 113.029 60.6052C112.865 60.6332 112.321 60.0732 111.717 59.6932C111.109 59.3132 110.625 58.8333 109.821 58.8013C109.017 58.7733 108.825 59.4653 108.837 59.7413C108.849 60.0293 109.077 60.3172 109.077 60.3172C109.077 60.3172 108.713 60.1252 108.301 60.2932C107.889 60.4652 107.649 61.1973 107.849 61.5653C107.849 61.5653 107.385 61.3973 107.117 61.8773C106.893 62.2813 106.793 62.7293 107.169 63.0453C107.169 63.0453 106.785 63.0093 106.689 63.2093C106.597 63.4093 106.325 64.0333 106.601 64.3973C106.877 64.7613 107.737 65.1093 107.737 65.1093C107.737 65.1093 107.749 65.2853 108.089 65.6413C108.209 65.7653 108.581 66.5893 109.061 67.1013C109.717 67.8053 110.361 68.0013 111.133 68.4453C112.389 69.1693 113.749 71.4133 115.165 73.6293C116.853 76.2693 118.261 78.6493 120.021 80.3453C122.213 82.4613 123.649 82.2533 126.425 79.4893C129.797 76.1293 133.477 71.4893 133.477 71.4893L134.805 61.0013C132.297 61.2973 131.065 62.4973 128.489 65.4453L128.485 65.4533Z" fill="#FFBDA7"/>
<path d="M109.352 64.3843C109.344 64.4563 109.308 64.5003 109.28 64.5603C109.248 64.6323 109.204 64.6923 109.152 64.7523C109.076 64.8363 108.996 64.9203 108.896 64.9763C108.836 65.0123 108.768 65.0323 108.7 65.0523C108.496 65.1083 108.3 65.1123 108.092 65.1123C107.972 65.1123 107.856 65.1163 107.736 65.1203C107.888 65.1803 108.044 65.2203 108.208 65.2403C108.4 65.2603 108.608 65.2363 108.796 65.1883C108.84 65.1763 108.884 65.1643 108.928 65.1443C109.044 65.0923 109.144 65.0083 109.22 64.9043C109.296 64.8003 109.376 64.6523 109.388 64.5203C109.388 64.5083 109.396 64.3883 109.38 64.3883C109.516 64.4003 109.644 64.3883 109.772 64.3763C109.964 64.3443 110.18 64.3483 110.368 64.2043C110.456 64.1283 110.508 64.0483 110.564 63.9523C110.58 63.9243 110.592 63.8883 110.596 63.8563L110.796 63.7083C110.796 63.7083 110.736 64.1883 111.06 64.9563C111.384 65.7243 112.016 66.1843 112.016 66.1843C112.016 66.1843 111.548 65.7803 111.292 64.7843C111.072 63.9283 111.508 62.9523 111.876 62.5043C111.888 62.5043 111.9 62.5043 111.912 62.5043C112 62.4803 112.06 62.4283 112.108 62.3803C112.216 62.2683 112.26 62.1163 112.264 61.9803C112.264 61.8403 112.24 61.7083 112.196 61.5843C112.024 61.0803 111.624 60.7163 111.2 60.4483C111.188 60.3283 111.152 60.2243 111.112 60.1243C111.064 60.0163 111.004 59.9163 110.936 59.8203C110.992 59.9243 111.036 60.0323 111.076 60.1403C111.112 60.2483 111.14 60.3643 111.136 60.4723V60.4923L111.152 60.5043C111.552 60.7963 111.912 61.1723 112.056 61.6363C112.128 61.8563 112.144 62.1283 111.996 62.2723C111.904 62.3563 111.856 62.3723 111.748 62.3163C111.644 62.2683 111.532 62.1963 111.416 62.1403C111.184 62.0203 110.948 61.9363 110.724 61.8283C110.504 61.7203 110.3 61.5843 110.108 61.4243C109.92 61.2643 109.748 61.0803 109.568 60.9003C109.392 60.7203 109.216 60.5403 109.068 60.3363C109.328 60.7723 109.664 61.1563 110.024 61.5163C110.208 61.6923 110.42 61.8523 110.652 61.9643C110.88 62.0803 111.12 62.1723 111.336 62.2883C111.38 62.3123 111.424 62.3363 111.468 62.3603C111.528 62.4643 111.552 62.5803 111.528 62.6923C111.492 62.8963 111.32 63.0363 111.12 63.0803C110.912 63.1363 110.704 63.1883 110.5 63.2003C110.292 63.2003 110.068 63.2083 109.888 63.1403C109.512 62.9963 109.2 62.6643 108.864 62.3963C108.528 62.1203 108.192 61.8443 107.84 61.5883C108.144 61.9043 108.456 62.2003 108.776 62.5003C108.932 62.6483 109.096 62.7923 109.264 62.9363C109.432 63.0763 109.612 63.2203 109.836 63.3003C109.976 63.3363 110.112 63.3523 110.252 63.3563C110.368 63.4403 110.464 63.5443 110.504 63.6723C110.532 63.7563 110.52 63.8443 110.476 63.9163C110.428 63.9883 110.36 64.0723 110.296 64.1163C110.156 64.2043 109.952 64.2163 109.764 64.2363C109.572 64.2523 109.376 64.2603 109.22 64.1963C109.056 64.1363 108.928 63.9923 108.76 63.8683C108.596 63.7483 108.42 63.6483 108.244 63.5643C107.892 63.3843 107.536 63.2203 107.168 63.0723C107.504 63.2803 107.844 63.4763 108.18 63.6803C108.344 63.7843 108.516 63.8803 108.664 63.9963C108.812 64.1083 108.944 64.2723 109.152 64.3603C109.22 64.3843 109.284 64.3963 109.352 64.4043V64.3843ZM111.548 62.4003C111.548 62.4003 111.548 62.3923 111.544 62.3883C111.544 62.3883 111.544 62.3963 111.548 62.4003Z" fill="#F0997A"/>
<path d="M122.426 72.0726C123.422 72.8326 124.654 73.9486 124.77 75.7926C125.066 73.7086 123.914 72.0766 122.89 71.4766L122.426 72.0726Z" fill="#F28F8F"/>
<path d="M135.17 60.7969C131.958 61.1449 130.786 62.5929 128.118 65.6009C125.778 68.2409 122.426 71.7809 122.426 71.7809L117.554 67.6649C117.554 67.6649 117.842 68.6809 116.446 70.3009C115.282 71.6489 113.602 71.3689 113.602 71.3689C113.602 71.3689 115.542 74.6449 118.05 78.3409C120.59 82.0889 122.638 82.4609 124.442 81.4729C126.246 80.4849 134.626 71.5969 134.626 71.5969L135.17 60.8009V60.7969Z" fill="#37474F"/>
<path d="M122.426 71.7805C124.054 73.1445 124.998 75.8205 125.194 77.3325C125.47 73.8485 123.182 70.9805 123.182 70.9805L122.426 71.7805Z" fill="#263238"/>
<path d="M154.511 88.8052C155.855 87.7132 154.811 85.7532 154.067 80.2372C153.839 78.5372 154.931 74.3252 154.931 74.3252C154.931 74.3252 151.779 69.5732 152.799 61.3212L147.907 60.4052L139.943 60.2852L135.363 61.0532C134.307 61.9852 133.267 63.6292 131.727 65.8572C129.511 69.0732 129.111 73.4132 131.503 75.9732C131.539 76.4771 131.611 79.9172 131.395 81.9052C131.095 84.6612 129.559 87.3412 131.159 88.7012C135.835 92.6732 148.163 92.9492 154.507 88.8012L154.511 88.8052Z" fill="#337F88"/>
<path opacity="0.2" d="M154.511 88.8052C155.855 87.7132 154.811 85.7532 154.067 80.2372C153.839 78.5372 154.931 74.3252 154.931 74.3252C154.931 74.3252 151.779 69.5732 152.799 61.3212L147.907 60.4052L139.943 60.2852L135.363 61.0532C134.307 61.9852 133.267 63.6292 131.727 65.8572C129.511 69.0732 129.111 73.4132 131.503 75.9732C131.539 76.4771 131.611 79.9172 131.395 81.9052C131.095 84.6612 129.559 87.3412 131.159 88.7012C135.835 92.6732 148.163 92.9492 154.507 88.8012L154.511 88.8052Z" fill="white"/>
<path d="M148.882 54.4655C149.802 54.6335 150.674 54.1895 151.23 53.5895C152.47 52.2535 152.586 50.8935 152.01 49.9855C151.538 49.2415 150.37 48.7655 149.55 49.2655C148.674 49.8015 148.646 50.2415 148.314 50.8535C147.974 51.4775 147.134 50.9855 147.422 48.5415C146.922 48.3095 146.582 47.8815 146.342 47.3975C146.286 47.2855 145.838 45.9095 145.85 45.9135C144.826 45.7055 143.906 45.0415 143.386 44.1375C143.366 44.5855 143.466 45.0415 143.674 45.4415C142.942 45.3975 142.198 45.3495 141.498 45.1335C140.798 44.9175 140.126 44.5135 139.73 43.8975C139.678 44.5775 139.786 45.2695 140.042 45.9015C138.478 45.6295 137.166 44.2615 136.958 42.6855C136.362 43.6495 135.73 44.5215 135.458 45.6335C135.198 46.7095 135.066 47.8175 134.962 48.9175C134.55 53.3455 134.938 55.6256 136.266 56.8296C136.982 57.4776 138.158 58.1775 140.002 58.2375L139.942 60.2976C139.942 60.2976 135.41 64.6015 141.254 64.1775C145.634 63.8615 147.878 60.4935 147.878 60.4935L147.918 53.7775C147.918 53.7775 148.014 54.3135 148.886 54.4735L148.882 54.4655Z" fill="#FFBDA7"/>
<path d="M139.285 53.6776C139.425 54.3696 140.113 54.8216 140.817 54.6856C141.525 54.5496 141.981 53.8736 141.841 53.1816L139.281 53.6816L139.285 53.6776Z" fill="#B16668"/>
<path d="M141.851 53.597C141.779 54.125 141.379 54.573 140.819 54.685C140.663 54.717 140.507 54.713 140.359 54.689C140.467 53.985 141.135 53.497 141.855 53.597H141.851Z" fill="#F28F8F"/>
<path d="M142.207 46.7399L143.887 47.6199C144.155 47.1679 143.995 46.6079 143.531 46.3639C143.067 46.1199 142.475 46.2879 142.207 46.7399Z" fill="#263238"/>
<path d="M137.662 46.5446L135.982 47.4246C135.714 46.9726 135.874 46.4126 136.338 46.1686C136.802 45.9246 137.394 46.0926 137.662 46.5446Z" fill="#263238"/>
<path d="M143.142 48.8131C143.142 49.1971 142.83 49.5051 142.45 49.5051C142.07 49.5051 141.758 49.1931 141.758 48.8131C141.758 48.4331 142.07 48.1211 142.45 48.1211C142.83 48.1211 143.142 48.4331 143.142 48.8131Z" fill="#263238"/>
<path d="M137.802 48.6002C137.802 48.9842 137.49 49.2922 137.11 49.2922C136.73 49.2922 136.418 48.9802 136.418 48.6002C136.418 48.2202 136.73 47.9082 137.11 47.9082C137.49 47.9082 137.802 48.2202 137.802 48.6002Z" fill="#263238"/>
<path d="M137.344 50.7006L139.708 51.9446L140.472 47.1406L137.344 50.7006Z" fill="#F0997A"/>
<path d="M140 58.2299C142.288 58.1459 145.904 57.1859 146.948 54.6699C146.336 57.3339 144.104 58.2699 142.82 58.6259C141.256 59.0579 140.016 59.1019 140.016 59.1019L140 58.2339V58.2299Z" fill="#F0997A"/>
<path d="M139.929 59.7129L139.941 60.2889C139.941 60.2889 136.713 62.7089 134.325 66.6449C131.937 70.5809 132.657 75.5089 132.537 80.5849C132.417 85.6609 132.685 96.4289 132.685 96.4289C132.685 96.4289 130.433 95.9729 129.281 94.2489C129.281 91.4209 130.085 81.7809 130.137 78.7609C130.181 76.3209 130.025 75.0969 129.629 72.8609C129.233 70.6249 129.581 66.1849 135.169 60.8009L139.929 59.7129Z" fill="#263238"/>
<path d="M147.879 59.8535C147.879 59.8535 145.707 64.7055 145.635 69.6535C145.563 74.5975 147.591 98.6095 147.591 98.6095C147.591 98.6095 155.155 99.2135 158.767 96.0335C157.975 92.1375 156.191 86.4415 155.555 83.9895C154.919 81.5335 154.567 79.5415 155.155 76.9815C155.743 74.4255 156.267 72.7455 156.267 72.7455L153.367 61.0975L147.879 59.8575V59.8535Z" fill="#263238"/>
<path d="M161.125 24.5208L161.321 24.5528C161.381 24.5608 161.461 24.5728 161.549 24.5888C161.613 24.5928 161.697 24.6008 161.749 24.5968C162.049 24.6088 161.977 24.4528 162.049 24.3088C162.149 24.0088 162.289 23.5768 162.457 23.0608C162.789 22.0288 163.209 20.6408 163.585 19.2408C163.777 18.5408 163.953 17.8368 164.105 17.1728C164.181 16.8408 164.265 16.5208 164.325 16.2168C164.389 15.9088 164.449 15.6208 164.509 15.3528C164.569 15.0848 164.609 14.8368 164.649 14.6168C164.689 14.3968 164.725 14.2048 164.749 14.0488C164.801 13.7328 164.825 13.5488 164.825 13.5488C164.825 13.5488 164.733 13.7088 164.585 13.9928C164.509 14.1328 164.417 14.3048 164.321 14.5048C164.221 14.7048 164.101 14.9248 163.989 15.1728C163.873 15.4208 163.745 15.6888 163.609 15.9688C163.473 16.2488 163.345 16.5528 163.205 16.8648C162.925 17.4848 162.637 18.1528 162.365 18.8248C161.817 20.1688 161.309 21.5248 160.945 22.5488C160.765 23.0608 160.617 23.4888 160.513 23.7888C160.485 23.9448 160.333 24.0248 160.581 24.2008C160.621 24.2368 160.693 24.2808 160.745 24.3168C160.825 24.3608 160.893 24.3968 160.949 24.4288C161.061 24.4888 161.121 24.5208 161.121 24.5208H161.125Z" fill="#263238"/>
<path d="M143.922 73.2726L159.262 27.6886C159.382 27.3366 159.762 27.1486 160.114 27.2686C160.466 27.3886 160.654 27.7686 160.534 28.1206L145.194 73.7046C144.838 73.9526 143.99 73.6486 143.922 73.2766V73.2726Z" fill="#E0E0E0"/>
<path d="M143.392 73.0685L141.572 77.7604C140.608 80.3924 139.028 80.7085 137.524 80.1245C135.964 79.5205 136.096 77.0365 136.492 76.0285C136.888 75.0205 135.328 73.9365 134.56 75.2885C133.792 76.6405 133.056 80.7805 136.796 82.2445C138.92 83.0765 141.084 82.2765 142.188 81.2765C142.688 80.8205 143.156 80.3165 143.62 79.1285L145.632 73.9325L143.388 73.0645L143.392 73.0685Z" fill="#455A64"/>
<path d="M143.853 72.772C144.385 72.664 145.109 72.904 145.469 73.308C145.829 73.712 145.693 74.132 145.161 74.24C144.629 74.348 143.905 74.108 143.545 73.704C143.185 73.3 143.321 72.88 143.853 72.772Z" fill="#455A64"/>
<path d="M157.898 34.0602C166.09 35.3082 173.31 38.7362 179.558 44.3442C186.21 46.0162 190.15 49.2762 192.246 53.6082C188.394 35.1002 176.414 24.1162 162.81 19.5162C149.202 14.9202 133.014 16.3882 118.73 28.7682C123.026 26.5962 128.134 26.3922 134.438 29.0962C142.806 28.4242 150.63 30.0802 157.898 34.0562V34.0602Z" fill="#337F88"/>
<g opacity="0.2">
<path d="M157.898 34.0602C166.09 35.3082 173.31 38.7362 179.558 44.3442C186.21 46.0162 190.15 49.2762 192.246 53.6082C188.394 35.1002 176.414 24.1162 162.81 19.5162C149.202 14.9202 133.014 16.3882 118.73 28.7682C123.026 26.5962 128.134 26.3922 134.438 29.0962C142.806 28.4242 150.63 30.0802 157.898 34.0562V34.0602Z" fill="white"/>
</g>
<path d="M134.438 29.1001C142.81 28.4281 150.63 30.0841 157.898 34.0601L162.81 19.5201C147.266 14.2681 134.434 29.1001 134.434 29.1001H134.438Z" fill="#337F88"/>
<path opacity="0.1" d="M134.438 29.1001C142.81 28.4281 150.63 30.0841 157.898 34.0601L162.81 19.5201C147.266 14.2681 134.434 29.1001 134.434 29.1001H134.438Z" fill="white"/>
<path d="M179.562 44.3435C173.314 38.7315 166.09 35.3075 157.898 34.0595L162.81 19.5195C178.354 24.7715 179.562 44.3435 179.562 44.3435Z" fill="#337F88"/>
<path d="M192.252 53.6076C188.4 35.0996 176.42 24.1156 162.816 19.5156C178.36 24.7676 179.564 44.3436 179.564 44.3436C186.216 46.0156 190.156 49.2756 192.252 53.6076Z" fill="#337F88"/>
<path opacity="0.15" d="M192.252 53.6076C188.4 35.0996 176.42 24.1156 162.816 19.5156C178.36 24.7676 179.564 44.3436 179.564 44.3436C186.216 46.0156 190.156 49.2756 192.252 53.6076Z" fill="black"/>
<path d="M164.461 85.5304C160.485 86.1584 153.677 83.8864 148.945 83.5144C147.681 83.4184 146.601 83.5304 146.149 83.5384C144.445 83.5624 143.537 82.0024 142.393 81.0864C142.333 81.0424 142.277 80.9984 142.217 80.9544C141.973 80.7784 141.705 80.6264 141.409 80.5144C140.709 80.1424 140.529 80.0584 140.321 79.7704C139.473 80.4984 138.609 80.4184 138.109 80.3064C137.805 79.8384 137.605 79.3344 137.753 79.0504C137.861 78.8504 138.037 78.7904 138.037 78.7904C138.037 78.7904 137.973 78.6824 137.909 78.1304C137.805 77.2984 138.561 77.1304 139.045 76.9464C139.045 76.9464 138.897 76.4824 139.237 76.1344C139.573 75.7864 139.953 75.5304 141.773 74.7864C142.045 74.6744 142.313 74.5464 142.681 74.5504C142.725 74.5504 142.765 74.5504 142.813 74.5544C143.169 74.5744 143.621 74.7104 144.253 75.0664C144.421 75.1624 144.649 75.2984 144.913 75.4584C144.945 75.4784 144.981 75.4984 145.017 75.5184C146.377 76.3304 148.705 77.5464 149.577 77.8344C150.645 78.1864 157.825 77.5784 157.825 77.5784L154.621 70.9864C154.621 70.9864 152.081 65.4624 153.277 61.6504C156.393 61.6784 158.041 62.1024 160.097 64.6144C162.145 67.1144 166.801 78.5984 167.249 80.6504C167.749 82.9544 168.345 84.9144 164.461 85.5304Z" fill="#FFBDA7"/>
<path d="M157.469 76.8379L157.825 77.5819C159.665 77.5939 162.249 79.3379 162.893 80.1659C162.209 78.7699 160.717 76.8899 157.469 76.8379Z" fill="#F0997A"/>
<path d="M139.047 76.9472L141.183 75.9512L139.019 76.6312C139.011 76.7432 139.019 76.8472 139.047 76.9472Z" fill="#F0997A"/>
<path d="M138.037 78.7921L140.537 77.8281L137.961 78.4961C137.973 78.5921 138.001 78.6881 138.037 78.7881V78.7921Z" fill="#F0997A"/>
<path d="M153.368 61.0977C156.452 61.1857 159.1 61.9617 161.208 65.6257C163.312 69.2897 165.156 73.7857 166.56 77.7537C167.964 81.7217 168.268 83.6697 167.128 84.7097C165.988 85.7497 164 86.1457 160.768 85.7857C157.536 85.4257 152.748 84.2057 152.748 84.2057C152.748 84.2057 153.564 82.7777 153.432 80.5497C153.3 78.3217 152.684 77.8817 152.684 77.8817L157.496 77.4657C157.496 77.4657 155.616 73.6417 154.344 70.9977C153.072 68.3497 152.208 62.5537 153.364 61.0977H153.368Z" fill="#37474F"/>
<path d="M157.498 77.4664C159.518 77.3144 162.026 77.8704 163.174 79.3904C162.022 76.7264 158.514 76.4544 157.078 76.6024L157.502 77.4624L157.498 77.4664Z" fill="#263238"/>
<path d="M120.456 49.5804L118.62 46.9484C120.664 42.4364 119.22 36.9604 114.976 34.1044C110.244 30.9204 103.804 32.1804 100.62 36.9084C97.44 41.6404 98.696 48.0764 103.428 51.2604C107.672 54.1164 113.288 53.3924 116.696 49.8004L119.832 50.5084C120.368 50.6284 120.772 50.0284 120.456 49.5804ZM117.108 48.0044C115.796 49.9564 113.884 51.2604 111.78 51.8524L110.716 52.0884C108.408 52.4604 105.964 51.9964 103.876 50.5924C99.516 47.6564 98.356 41.7204 101.292 37.3604C102.696 35.2724 104.788 33.9244 107.064 33.4004L108.14 33.2164C110.308 32.9684 112.572 33.4604 114.524 34.7764C118.884 37.7124 120.044 43.6444 117.112 48.0044H117.108Z" fill="#455A64"/>
<path d="M114.522 34.7768C112.57 33.4608 110.306 32.9728 108.138 33.2168L107.062 33.4008C104.786 33.9248 102.694 35.2768 101.29 37.3608C98.3542 41.7208 99.5142 47.6568 103.874 50.5928C105.962 51.9968 108.406 52.4568 110.714 52.0888L111.778 51.8528C113.882 51.2648 115.794 49.9568 117.106 48.0048C120.042 43.6448 118.878 37.7088 114.518 34.7768H114.522Z" fill="white"/>
<path d="M108.023 47.5718C107.659 47.5718 107.311 47.4198 107.059 47.1558L104.071 43.9638C103.575 43.4318 103.599 42.5958 104.131 42.0998C104.663 41.5998 105.499 41.6278 105.995 42.1598L107.935 44.2318L112.531 38.4118C112.983 37.8398 113.811 37.7438 114.383 38.1918C114.955 38.6438 115.051 39.4718 114.603 40.0438L109.059 47.0678C108.823 47.3678 108.463 47.5518 108.079 47.5678C108.059 47.5678 108.043 47.5678 108.023 47.5678V47.5718Z" fill="#337F88"/>
</svg>
